<svg width="42" height="42" viewBox="0 0 42 42" fill="none" xmlns="http://www.w3.org/2000/svg">
<g clip-path="url(#clip0_1267_595)">
<path d="M11.6615 9.75053L9.57108 15.7254H33.1022L31.0118 9.75053C30.6514 8.72535 29.6823 8.03655 28.593 8.03655H14.0803C12.991 8.03655 12.0219 8.72535 11.6615 9.75053ZM4.00466 16.1099L6.82391 8.06058C7.90516 4.97703 10.8125 2.91064 14.0803 2.91064H28.593C31.8608 2.91064 34.7681 4.97703 35.8494 8.06058L38.6686 16.1099C40.5268 16.8787 41.8403 18.7129 41.8403 20.8513V32.3846V36.2291C41.8403 37.6467 40.695 38.792 39.2773 38.792H36.7144C35.2967 38.792 34.1514 37.6467 34.1514 36.2291V32.3846H8.52187V36.2291C8.52187 37.6467 7.37655 38.792 5.95892 38.792H3.39596C1.97833 38.792 0.833008 37.6467 0.833008 36.2291V32.3846V20.8513C0.833008 18.7129 2.14652 16.8787 4.00466 16.1099ZM11.0848 23.4143C11.0848 22.7345 10.8148 22.0826 10.3342 21.602C9.85351 21.1214 9.20161 20.8513 8.52187 20.8513C7.84213 20.8513 7.19024 21.1214 6.70959 21.602C6.22894 22.0826 5.95892 22.7345 5.95892 23.4143C5.95892 24.094 6.22894 24.7459 6.70959 25.2266C7.19024 25.7072 7.84213 25.9772 8.52187 25.9772C9.20161 25.9772 9.85351 25.7072 10.3342 25.2266C10.8148 24.7459 11.0848 24.094 11.0848 23.4143ZM34.1514 25.9772C34.8312 25.9772 35.4831 25.7072 35.9637 25.2266C36.4443 24.7459 36.7144 24.094 36.7144 23.4143C36.7144 22.7345 36.4443 22.0826 35.9637 21.602C35.4831 21.1214 34.8312 20.8513 34.1514 20.8513C33.4717 20.8513 32.8198 21.1214 32.3391 21.602C31.8585 22.0826 31.5885 22.7345 31.5885 23.4143C31.5885 24.094 31.8585 24.7459 32.3391 25.2266C32.8198 25.7072 33.4717 25.9772 34.1514 25.9772Z" fill="white"/>
</g>
<defs>
<clipPath id="clip0_1267_595">
<rect width="41.0073" height="41.0073" fill="white" transform="translate(0.833008 0.347656)"/>
</clipPath>
</defs>
</svg>
