<svg width="46" height="36" viewBox="0 0 46 36" fill="none" xmlns="http://www.w3.org/2000/svg">
<g clip-path="url(#clip0_1267_601)">
<path d="M22.9792 24.6747C23.5403 18.4613 28.7632 13.5916 35.1221 13.5916C35.7386 13.5916 36.3412 13.6401 36.93 13.7233L22.2034 0.776875C21.7878 0.43053 21.2337 0.291992 20.7488 0.291992C20.2639 0.291992 19.7097 0.361261 19.2248 0.846145L1.45734 16.3278C0.972456 16.8127 0.764648 17.3668 0.764648 17.9902C0.764648 19.2371 1.73442 20.2138 2.98126 20.2138H5.19787V25.0418C5.19094 25.1042 5.19094 25.1665 5.19094 25.2358V32.987C5.19094 34.5178 6.43086 35.7577 7.9617 35.7577H9.07001C9.15313 35.7577 9.23625 35.7508 9.31938 35.7439C9.42328 35.7508 9.52718 35.7577 9.63109 35.7577H11.8477H13.5102C15.041 35.7577 16.2809 34.5178 16.2809 32.987V31.3245V26.8913C16.2809 25.6652 17.2715 24.6747 18.4975 24.6747H22.9307H22.9792ZM45.0968 25.783C45.0968 23.1375 44.0459 20.6004 42.1753 18.7298C40.3047 16.8592 37.7676 15.8083 35.1221 15.8083C32.4766 15.8083 29.9395 16.8592 28.0689 18.7298C26.1983 20.6004 25.1474 23.1375 25.1474 25.783C25.1474 28.4285 26.1983 30.9656 28.0689 32.8362C29.9395 34.7068 32.4766 35.7577 35.1221 35.7577C37.7676 35.7577 40.3047 34.7068 42.1753 32.8362C44.0459 30.9656 45.0968 28.4285 45.0968 25.783ZM39.7839 22.7837C40.2134 23.2131 40.2134 23.9197 39.7839 24.3491L34.7965 29.3365C34.3671 29.766 33.6605 29.766 33.2311 29.3365L30.4603 26.5657C30.0308 26.1363 30.0308 25.4297 30.4603 25.0003C30.8898 24.5708 31.5963 24.5708 32.0258 25.0003L34.0138 26.9883L38.2184 22.7837C38.6479 22.3542 39.3544 22.3542 39.7839 22.7837Z" fill="white"/>
</g>
<defs>
<clipPath id="clip0_1267_601">
<rect width="44.3322" height="35.4658" fill="white" transform="translate(0.764648 0.291992)"/>
</clipPath>
</defs>
</svg>
