<svg width="24" height="24" viewBox="0 0 24 24" fill="none" xmlns="http://www.w3.org/2000/svg">
<path d="M23.4126 3.41652C24.1937 2.63542 24.1937 1.36692 23.4126 0.585823C22.6315 -0.195274 21.363 -0.195274 20.5819 0.585823L0.585823 20.5819C-0.195274 21.363 -0.195274 22.6315 0.585823 23.4126C1.36692 24.1937 2.63542 24.1937 3.41652 23.4126L23.4126 3.41652ZM8.00312 4.00391C8.00312 2.94325 7.58178 1.92603 6.83178 1.17603C6.08178 0.426031 5.06456 0.00468639 4.00391 0.00468639C2.94325 0.00468639 1.92603 0.426031 1.17603 1.17603C0.426032 1.92603 0.00468657 2.94325 0.00468657 4.00391C0.00468657 5.06456 0.426032 6.08178 1.17603 6.83178C1.92603 7.58178 2.94325 8.00312 4.00391 8.00312C5.06456 8.00312 6.08178 7.58178 6.83178 6.83178C7.58178 6.08178 8.00312 5.06456 8.00312 4.00391ZM24 20.0008C24 18.9401 23.5787 17.9229 22.8287 17.1729C22.0787 16.4229 21.0614 16.0016 20.0008 16.0016C18.9401 16.0016 17.9229 16.4229 17.1729 17.1729C16.4229 17.9229 16.0016 18.9401 16.0016 20.0008C16.0016 21.0614 16.4229 22.0787 17.1729 22.8287C17.9229 23.5787 18.9401 24 20.0008 24C21.0614 24 22.0787 23.5787 22.8287 22.8287C23.5787 22.0787 24 21.0614 24 20.0008Z" fill="black"/>
</svg>
