<svg width="68" height="51" viewBox="0 0 68 51" fill="none" xmlns="http://www.w3.org/2000/svg">
<path d="M60.4676 11.5604C59.4032 11.5604 58.3947 11.8338 57.5497 12.3147C56.5379 12.891 55.7599 13.7633 55.3977 14.816L46.6923 38.15L51.6689 50.7177C51.6689 50.7177 51.8203 50.7143 51.8225 50.7143C51.8675 50.7109 51.9125 50.7075 51.9575 50.7019C51.9597 50.7019 51.9608 50.7019 51.963 50.7019C51.9684 50.7019 51.9706 50.6996 51.9728 50.6996C52.0299 50.6928 52.087 50.6837 52.1429 50.6735C52.6313 50.5748 53.0559 50.3253 53.3281 49.9804C53.4236 49.859 53.5004 49.7252 53.5541 49.5822L67.9989 11.5638H60.4665L60.4676 11.5604Z" fill="#C7C7C7"/>
<path d="M0 14.8262V23.3522L8.06681 27.192V18.6661L0 14.8262Z" fill="#C7C7C7"/>
<path d="M11.4292 46.6862C11.7562 47.1138 11.9186 47.6663 11.9186 48.3424C11.9186 49.0185 11.7573 49.6253 11.4347 50.0859C11.1131 50.5476 10.6632 50.7779 10.086 50.7779C9.72385 50.7779 9.43195 50.703 9.21247 50.5544C9.08079 50.4659 8.93922 50.3116 8.78559 50.0904V50.6576H7.65968V44.5615H8.80205V46.7316C8.94691 46.5217 9.10712 46.3618 9.28161 46.2517C9.48901 46.1133 9.75238 46.0441 10.0717 46.0441C10.6489 46.0441 11.1022 46.2585 11.4281 46.6862M10.4734 49.4359C10.638 49.1897 10.7203 48.8676 10.7203 48.4672C10.7203 48.1473 10.6797 47.8818 10.5985 47.672C10.4448 47.2738 10.1617 47.0753 9.75019 47.0753C9.33867 47.0753 9.04567 47.2704 8.88984 47.6595C8.80973 47.8659 8.76913 48.1336 8.76913 48.4626C8.76913 48.8494 8.85253 49.1693 9.01933 49.4234C9.18614 49.6775 9.44073 49.8046 9.78311 49.8046C10.0794 49.8046 10.3098 49.6821 10.4734 49.4359Z" fill="white"/>
<path d="M14.2363 47.9124C14.4491 47.8852 14.6006 47.8501 14.6928 47.8092C14.8574 47.7378 14.9386 47.6254 14.9386 47.4734C14.9386 47.2885 14.876 47.1604 14.7498 47.09C14.6236 47.0197 14.4393 46.9845 14.1957 46.9845C13.9224 46.9845 13.7282 47.0537 13.6151 47.191C13.5339 47.2931 13.4791 47.4315 13.4527 47.605H12.351C12.3751 47.2103 12.4827 46.8858 12.6725 46.6317C12.9754 46.2336 13.4966 46.0351 14.2341 46.0351C14.7136 46.0351 15.1405 46.1326 15.5136 46.3289C15.8867 46.5251 16.0733 46.8949 16.0733 47.4383V49.5085C16.0733 49.6526 16.0755 49.8261 16.0809 50.0303C16.0886 50.1846 16.1117 50.2901 16.149 50.3457C16.1863 50.4013 16.2423 50.4466 16.3169 50.4818V50.6565H15.0747C15.0395 50.5646 15.0165 50.4795 15.0022 50.399C14.9891 50.3196 14.9781 50.2277 14.9704 50.1256C14.8124 50.3026 14.6291 50.4523 14.4228 50.5771C14.1759 50.7234 13.8961 50.7971 13.5844 50.7971C13.1872 50.7971 12.858 50.6803 12.599 50.4478C12.34 50.2141 12.2105 49.884 12.2105 49.4552C12.2105 48.9005 12.419 48.4989 12.836 48.2505C13.0643 48.1155 13.4012 48.0191 13.8445 47.9601L14.2363 47.9102V47.9124ZM14.9342 48.4626C14.8618 48.5103 14.7871 48.5477 14.7125 48.5772C14.6379 48.6067 14.5358 48.6328 14.4064 48.6577L14.1463 48.7076C13.9027 48.7519 13.7282 48.8052 13.6217 48.8687C13.4418 48.9765 13.3518 49.1432 13.3518 49.3701C13.3518 49.572 13.4066 49.7172 13.5164 49.8068C13.6261 49.8965 13.76 49.9418 13.9169 49.9418C14.166 49.9418 14.3965 49.867 14.6061 49.7184C14.8168 49.5698 14.9254 49.2975 14.9331 48.9028V48.4637L14.9342 48.4626Z" fill="white"/>
<path d="M20.386 46.4026C20.6713 46.6465 20.815 47.0526 20.815 47.6186V50.6588H19.6452V47.9124C19.6452 47.6754 19.6145 47.4927 19.5541 47.3657C19.4433 47.1343 19.2304 47.0174 18.9177 47.0174C18.5336 47.0174 18.2691 47.1876 18.1265 47.5268C18.0529 47.706 18.0156 47.9351 18.0156 48.2142V50.6576H16.8744V46.1519H17.9805V46.811C18.1265 46.5796 18.2647 46.4117 18.3953 46.3096C18.6291 46.1269 18.9253 46.0362 19.2853 46.0362C19.7352 46.0362 20.1028 46.1587 20.3881 46.4026" fill="white"/>
<path d="M24.2838 47.7627C24.263 47.5948 24.207 47.4428 24.1192 47.3067C23.9908 47.1241 23.7911 47.0333 23.5212 47.0333C23.1349 47.0333 22.8715 47.2307 22.7299 47.6255C22.6553 47.8353 22.618 48.1132 22.618 48.4604C22.618 48.8075 22.6553 49.057 22.7299 49.2578C22.866 49.6333 23.1228 49.8216 23.5003 49.8216C23.7681 49.8216 23.9579 49.7467 24.0709 49.5981C24.1829 49.4495 24.252 49.2555 24.2762 49.0185H25.4416C25.4152 49.3781 25.289 49.7172 25.0652 50.0371C24.7063 50.5533 24.1763 50.8108 23.4729 50.8108C22.7695 50.8108 22.2526 50.5952 21.9212 50.1653C21.5898 49.7342 21.4241 49.1761 21.4241 48.4898C21.4241 47.7151 21.6073 47.1127 21.9728 46.6817C22.3393 46.2506 22.8441 46.0362 23.4893 46.0362C24.038 46.0362 24.4857 46.1632 24.8347 46.4173C25.1837 46.6714 25.39 47.1195 25.4547 47.7627H24.2838Z" fill="white"/>
<path d="M29.6709 50.1052C29.3021 50.576 28.7425 50.8108 27.9919 50.8108C27.2413 50.8108 26.6816 50.576 26.3129 50.1052C25.9442 49.6344 25.7598 49.0684 25.7598 48.407C25.7598 47.7457 25.9442 47.1921 26.3129 46.7146C26.6816 46.237 27.2413 45.9988 27.9919 45.9988C28.7425 45.9988 29.3021 46.237 29.6709 46.7146C30.0396 47.1921 30.2239 47.7559 30.2239 48.407C30.2239 49.0582 30.0396 49.6356 29.6709 50.1052ZM28.7578 49.4529C28.9367 49.2079 29.0267 48.8585 29.0267 48.407C29.0267 47.9556 28.9367 47.6073 28.7578 47.3634C28.579 47.1195 28.3222 46.997 27.9886 46.997C27.655 46.997 27.3971 47.1195 27.2171 47.3634C27.0372 47.6073 26.9472 47.9556 26.9472 48.407C26.9472 48.8585 27.0372 49.2079 27.2171 49.4529C27.3971 49.698 27.655 49.8205 27.9886 49.8205C28.3222 49.8205 28.579 49.698 28.7578 49.4529Z" fill="white"/>
<path d="M51.9705 50.728C51.9047 50.7121 51.6095 50.3876 51.198 49.3168C50.8611 48.4388 47.31 38.3667 47.31 38.3667V38.3644L41.9592 23.2489C41.112 21.0176 39.3244 19.1811 37.2701 17.7586C37.8056 17.3207 38.374 16.7751 38.8887 16.1171C38.8909 16.1149 38.8931 16.1115 38.8953 16.1092C38.8975 16.1058 38.8997 16.1047 38.9019 16.1013C39.8621 14.8671 40.6313 13.2415 40.6313 11.1894C40.6313 8.69836 39.9378 6.50789 38.5825 4.74167C36.3044 1.77189 32.1596 0 26.3029 0H7.68483V14.8251H0.00100055V23.351H7.68483V38.6707H27.2499C29.0343 38.6707 30.7176 38.4711 32.2584 38.0797H32.2606C32.2682 38.0774 32.2748 38.0763 32.2814 38.074C33.6158 37.7326 34.8427 37.2459 35.9324 36.6209H35.9335L40.3746 48.1983C40.4108 48.2925 40.4503 48.3843 40.4942 48.4751C40.6467 48.7848 40.8431 49.0718 41.078 49.3293C41.4983 49.7898 42.0382 50.1574 42.6527 50.4047C42.7877 50.4591 42.926 50.5067 43.0675 50.5487C43.5131 50.6814 43.9882 50.7529 44.4787 50.7529H51.6479C51.6479 50.7529 51.75 50.7495 51.807 50.7495C51.9014 50.7495 52.0177 50.7302 52.0177 50.7302C51.9958 50.7302 51.9837 50.7302 51.9694 50.7268M18.7288 8.52707H25.6083C28.6381 8.52707 29.5841 10.156 29.5841 11.6772C29.5841 13.1984 28.6414 14.8172 25.6324 14.8262H18.7288V8.52707ZM26.1767 30.1448H18.7288V23.3556H25.9287C26.766 23.3578 27.5726 23.5008 28.3232 23.7526C29.7026 24.3584 30.2162 25.5665 30.2162 26.7235C30.2162 28.3536 29.2066 30.1459 26.1767 30.1459" fill="white"/>
</svg>
