<svg width="214" height="47" viewBox="0 0 214 47" fill="none" xmlns="http://www.w3.org/2000/svg">
<g clip-path="url(#clip0_1625_294)">
<path d="M68.9862 25.5342C67.3245 25.5342 65.7082 25.8985 64.6913 26.3992V16.3044C63.075 16.8946 61.3657 17.7148 59.9354 18.8505C59.1955 19.4407 58.966 20.033 58.966 20.8979V45.8196C60.4893 46.4566 63.5834 47.002 66.5391 47.002C74.0212 47.002 78.3161 42.5001 78.3161 35.9974C78.3161 29.4948 75.2675 25.5383 68.9862 25.5383V25.5342ZM66.8615 42.4064C66.2621 42.4064 65.3382 42.4064 64.6913 42.1785V30.8544C65.4767 30.4453 66.5845 30.2173 68.0169 30.2173C70.8795 30.2173 72.4049 32.1732 72.4049 35.857C72.4049 39.722 70.6046 42.4064 66.8636 42.4064H66.8615ZM92.9082 25.7174C90.1841 25.7174 88.6133 26.7635 87.1355 28.6278C86.997 27.6733 86.813 26.8999 86.4885 25.9454C85.9346 25.7642 84.9652 25.7174 84.1323 25.7174C83.3469 25.7174 82.3321 25.809 81.8236 25.9454V46.5461C82.516 46.7273 83.6714 46.7741 84.6862 46.7741C85.7011 46.7741 86.9494 46.6825 87.5488 46.5461V36.4961C87.5488 32.4948 89.6736 30.3578 92.5362 30.3578C93.0447 30.3578 93.921 30.3578 94.4295 30.4494C94.7519 29.1305 94.7994 27.2215 94.5225 25.9026C94.2 25.811 93.3671 25.7215 92.9062 25.7215L92.9082 25.7174ZM20.5863 35.8021V46.2958C20.5863 46.5584 20.8033 46.7721 21.0699 46.7721H24.0338V33.2987L21.074 34.9758C20.7723 35.1447 20.5863 35.4113 20.5863 35.8021ZM23.5894 10.0094C20.6875 10.0094 17.517 10.2719 14.3836 10.797C17.5562 6.78756 22.5829 4.20076 28.1924 4.20076C32.3302 4.20076 36.4702 5.73737 39.2543 8.02296C39.7565 8.43611 40.143 8.47275 40.5316 8.09826C40.9181 7.72377 40.8788 7.34929 40.4551 6.86083C36.8195 2.70078 31.4808 -0.109899 25.1768 0.00407535C16.9382 0.152649 9.93566 5.28758 7.26733 12.4069C4.83048 13.1559 2.58793 14.0554 0.614061 15.1423C0.0725399 15.4414 -0.121746 15.8159 0.0725399 16.2657C0.266826 16.6789 0.653332 16.8274 1.19485 16.6789C2.89589 16.1924 4.63826 15.7793 6.45505 15.4048C6.26076 16.341 6.14502 17.3159 6.14502 18.3274C5.99 24.885 9.54916 31.1067 15.0408 34.5158C15.5824 34.8536 16.0474 34.8536 16.3554 34.4405C16.6654 34.0273 16.6261 33.6528 16.1611 33.2417C12.6805 30.1685 10.7459 25.5973 10.7459 21.0628C10.7459 18.7772 11.2109 16.5649 12.0997 14.5805C13.9185 14.4299 15.8903 14.318 18.0564 14.318C32.136 14.318 44.0101 18.8891 44.0101 24.885C44.0101 27.9195 40.1038 30.9561 35.4616 32.9792C34.3392 33.4656 34.2235 33.8035 34.3785 34.2899C34.5335 34.7397 35.0358 34.8903 35.6166 34.703C43.7394 32.0796 49.8883 27.771 49.8883 22.5607C49.8883 15.4781 38.2849 10.0073 23.5874 10.0073L23.5894 10.0094ZM29.2713 30.3313L25.3545 32.5518V46.768L29.5627 46.7741C29.9761 46.7741 30.313 46.4444 30.313 46.0373V30.8625C30.313 30.2804 29.7425 30.0688 29.2733 30.3334L29.2713 30.3313ZM203.93 25.4447C197.511 25.4447 193.908 29.7655 193.908 36.2681C193.908 42.7708 197.695 47 203.93 47C210.166 47 213.998 42.7708 213.998 36.2681C213.998 29.7655 210.396 25.4447 203.93 25.4447ZM203.93 42.4533C200.743 42.4533 199.774 39.9072 199.774 36.2681C199.774 32.6291 200.743 29.9914 203.93 29.9914C207.117 29.9914 208.132 32.6291 208.132 36.2681C208.132 40.0883 207.07 42.4533 203.93 42.4533ZM148.048 25.4447C141.86 25.4447 138.074 29.5376 138.074 36.3597C138.074 43.1819 142.092 47.002 148.972 47.002C151.328 47.002 153.869 46.593 155.485 45.8196C155.807 44.5007 155.807 42.7728 155.485 41.454C153.36 42.0442 151.56 42.4085 149.574 42.4085C146.387 42.4085 144.171 41.226 143.708 37.9065H156.731C156.915 37.4058 156.963 35.7227 156.963 35.0409C156.963 28.9005 153.453 25.4447 148.05 25.4447H148.048ZM143.708 33.7668C144.123 31.2655 145.647 29.7655 147.957 29.7655C150.543 29.7655 151.56 31.4934 151.653 33.7668H143.71H143.708ZM187.906 42.3617C185.043 42.3617 183.15 40.1331 183.15 36.2234C183.15 32.3136 184.673 30.083 187.953 30.083C189.338 30.083 190.31 30.311 191.601 30.8116C191.971 29.5376 192.664 28.0824 193.633 26.8551C191.833 25.9454 190.076 25.4447 187.214 25.4447C180.887 25.4447 177.239 29.8551 177.239 36.2234C177.239 42.5917 180.98 47.002 187.445 47.002C189.801 47.002 191.971 46.593 193.726 45.6384C192.941 44.6371 192.064 43.2735 191.556 41.6819C189.94 42.3189 189.247 42.3637 187.908 42.3637L187.906 42.3617ZM103.482 25.4447C101.219 25.3999 99.2329 25.6726 97.2942 26.1265C96.9242 27.4006 96.9717 29.2648 97.2942 30.5837C99.6959 30.0382 101.035 29.9935 102.558 29.9935C105.514 29.9935 106.946 31.1759 106.946 33.5857V33.8136C106.068 33.722 105.008 33.6325 104.268 33.6325C99.3714 33.6325 95.1694 35.3604 95.1694 39.9987C95.1694 45.2293 98.9559 47.002 104.452 47.002C107.037 47.002 109.855 46.5482 112.442 45.7748V33.9968C112.442 28.3571 109.348 25.5831 103.482 25.4467V25.4447ZM106.946 42.3617C106.624 42.4533 105.192 42.5896 104.499 42.5896C101.866 42.5896 100.436 41.8162 100.436 39.9967C100.436 38.1772 101.868 37.4506 104.499 37.4506C105.378 37.4506 106.393 37.5422 106.946 37.587V42.3617ZM129.114 20.8959V25.8538C128.097 25.581 127.036 25.5363 126.113 25.5363C119.786 25.5363 115.491 29.7207 115.491 36.4045C115.491 43.0883 119.693 47 126.251 47C129.252 47 132.208 46.5909 134.841 45.7259V16.3023C133.225 16.8926 131.515 17.7128 130.085 18.8484C129.347 19.4387 129.116 20.0309 129.116 20.8959H129.114ZM129.114 42.089C128.144 42.3617 127.452 42.4064 126.667 42.4064C122.88 42.4064 121.402 39.9499 121.402 36.4045C121.402 32.448 122.88 30.0382 126.621 30.0382C127.729 30.0382 128.421 30.1746 129.116 30.3557V42.089H129.114ZM170.079 34.3123L167.77 33.3577C166.431 32.8123 165.646 32.3564 165.646 31.4934C165.646 30.1746 166.847 29.9019 168.417 29.9019C169.988 29.9019 171.604 30.083 173.82 30.7669C174.097 29.2669 174.097 27.8565 173.82 26.5376C172.435 25.809 169.848 25.4467 167.584 25.4467C163.151 25.4467 159.78 27.8117 159.78 31.3591C159.78 34.5422 161.165 36.1338 165.044 37.6806L166.844 38.4072C168.554 39.089 169.062 39.4981 169.062 40.591C169.062 42.2273 167.4 42.5001 166.014 42.5001C163.705 42.5001 161.95 42.0462 159.732 41.2728C159.362 42.5917 159.362 44.3196 159.732 45.6832C161.626 46.6845 164.211 47.002 166.937 47.002C171.325 47.002 174.835 44.7287 174.835 40.6358C174.835 37.2715 173.357 35.6779 170.079 34.3143V34.3123Z" fill="white"/>
</g>
<defs>
<clipPath id="clip0_1625_294">
<rect width="214" height="47" fill="white"/>
</clipPath>
</defs>
</svg>
