<svg width="96" height="34" viewBox="0 0 96 34" fill="none" xmlns="http://www.w3.org/2000/svg">
<g clip-path="url(#clip0_1625_274)">
<path d="M3.91664 2.77794C3.91504 2.82871 3.91504 2.88899 3.91504 3.00957V3.45854C3.91504 3.57911 3.91504 3.6394 3.91664 3.69017C3.97426 5.2005 5.26902 6.41258 6.88228 6.46652C6.93669 6.46811 7.00071 6.46811 7.13035 6.46811C7.25999 6.46811 7.324 6.46811 7.37682 6.46652C8.99168 6.41258 10.2864 5.2005 10.3425 3.69017C10.3457 3.6394 10.3457 3.57911 10.3457 3.45854V3.00957C10.3457 2.88899 10.3457 2.82871 10.3425 2.77794C10.2864 1.2676 8.99168 0.055527 7.37842 0.00158649C7.324 0 7.25999 0 7.13035 0C7.00071 0 6.93669 0 6.88228 0.00158649C5.26902 0.055527 3.97426 1.2676 3.91664 2.77794ZM46.0422 13.4883V25.8693C46.0422 28.0221 46.8808 28.9915 49.528 28.9915C50.6371 28.9915 51.727 28.6853 52.38 28.4552V33.4447C51.2709 33.8144 49.5744 33.9984 48.1852 33.9984C42.6204 33.9984 39.9829 31.2347 39.9829 26.4594V1.47861H46.0422V9.42373H52.38V13.4899H46.0422V13.4883Z" fill="white"/>
<path fill-rule="evenodd" clip-rule="evenodd" d="M54.4316 21.0146C54.4316 13.6803 59.097 8.68604 66.5631 8.68604C74.5397 8.68604 78.4929 14.4545 78.0767 22.82H60.6574C60.9727 27.1115 63.0053 29.2882 66.6031 29.2882C69.6455 29.2882 71.2588 27.8333 71.955 25.7773H77.8735C76.7228 30.8207 72.6944 34 66.5647 34C58.9961 34 54.4332 29.0518 54.4332 21.6238V21.013L54.4316 21.0146ZM66.5167 13.4915C63.1957 13.4915 61.2128 15.2541 60.6558 18.7555L71.9902 18.6634C71.6637 15.3953 69.884 13.4915 66.5167 13.4915Z" fill="white"/>
<path d="M27.8207 8.68433C23.9236 8.68433 21.5197 10.9657 20.3162 13.2106L20.0377 9.42204H14.26V33.259H20.3178V19.8627C20.3178 15.9092 22.4336 13.4882 25.6297 13.4882C28.8258 13.4882 30.0101 15.5855 30.0101 19.2154V33.259H36.0678V17.9224C36.0774 12.6014 33.7472 8.68433 27.8191 8.68433H27.8207ZM87.5176 13.2106C89.0556 10.2264 92.1957 8.68433 94.5548 8.68433C94.9741 8.68433 95.6351 8.73985 95.9984 8.82235V13.4882C95.4126 13.4295 94.8253 13.3978 94.2363 13.3962C89.9311 13.3962 87.516 15.9647 87.516 20.326V33.2606H81.4567V9.42363H87.3288L87.516 13.2122L87.5176 13.2106ZM0 9.42363V13.4834H4.09876V33.259H10.1597V9.42363H0Z" fill="white"/>
</g>
<defs>
<clipPath id="clip0_1625_274">
<rect width="96" height="34" fill="white"/>
</clipPath>
</defs>
</svg>
