<svg width="210" height="32" viewBox="0 0 210 32" fill="none" xmlns="http://www.w3.org/2000/svg">
<g clip-path="url(#clip0_1625_242)">
<path fill-rule="evenodd" clip-rule="evenodd" d="M2.50752 20.7313V4.0018C2.50752 1.88514 2.43994 0.912496 0.776026 0.912496H0V0.041748H8.25663C12.181 0.041748 14.3996 1.0885 14.3483 4.31907C14.3227 5.99804 12.463 8.36017 9.79703 9.30734C12.3139 9.78672 14.9356 12.4244 14.9356 15.0645C14.9356 19.9671 10.7036 20.7336 7.48294 20.7336H2.50752V20.7313ZM5.22011 9.11513H7.20562C10.2025 9.11282 11.7406 6.30141 11.7406 4.83781C11.7406 0.968076 8.56658 0.664704 5.22011 0.914812V9.11281V9.11513ZM5.22011 17.6605C5.22011 18.8717 6.8514 19.7517 7.99796 19.9045C10.8737 20.289 12.5399 17.8898 12.5469 15.9931C12.5609 12.3735 9.32629 9.93956 6.66496 10.06C6.2152 10.0808 5.49743 10.0438 5.22011 10.0901V17.6605ZM38.1325 8.46207C39.8709 6.39867 42.488 5.49319 44.0587 5.49319C44.8673 5.49319 45.5641 5.6993 46.1444 6.09762C46.7293 6.50057 47.1954 7.16521 47.5403 8.08922C47.7803 8.73534 47.9295 9.60377 47.9295 10.933V17.2483C47.9295 18.1769 48.0087 18.8045 48.1555 19.1403C48.2721 19.4043 48.4655 19.6151 48.7265 19.761C48.9898 19.9092 49.5631 19.9856 50.2715 19.9856V20.5808H42.9308V19.9856H43.2407C43.9282 19.9856 44.5411 19.8814 44.8161 19.673C45.0887 19.4668 45.2798 19.1542 45.387 18.7536C45.429 18.5938 45.4523 18.0889 45.4523 17.246V11.1669C45.4523 9.81914 45.2752 8.83492 44.9256 8.22354C44.5784 7.61448 43.8583 7.31111 43.0286 7.31111C41.7492 7.31111 39.3979 8.01048 38.1301 9.41156V17.2437C38.1301 18.2395 38.1907 18.8508 38.3072 19.0871C38.461 19.3951 38.6708 19.622 38.9388 19.7702C39.2021 19.9161 39.9222 19.9856 40.7355 19.9856V20.5808H33.3621V19.9856H33.6884C34.4457 19.9856 34.9561 19.798 35.2218 19.4182C35.4874 19.0384 35.6203 18.3136 35.6203 17.246V10.0646C35.6203 8.60333 34.6252 7.80669 33.0335 7.34584L38.1301 5.36582V8.46207H38.1325ZM63.2449 9.10355C62.5528 8.02206 61.2245 6.45889 59.3205 6.3732C56.1395 6.22962 54.9324 9.64314 54.9207 12.1118C54.8974 16.7805 56.6056 19.666 60.6931 19.7841C61.8607 19.8189 63.4314 19.4715 64.5826 18.7489L64.6222 20.0551C62.9793 21.0601 61.4878 21.206 59.3741 21.206C54.9696 21.206 52.1079 17.8018 52.1079 13.7352C52.1079 9.35366 55.0815 5.39824 60.0406 5.39824C61.5484 5.39824 64.1095 5.93319 65.0999 7.13279L63.2473 9.10355H63.2449ZM74.0953 5.31255C78.2225 5.31255 81.5689 8.86734 81.5689 13.2535C81.5689 17.6397 78.2225 21.1944 74.0953 21.1944C69.9681 21.1944 66.6217 17.6397 66.6217 13.2535C66.6217 8.86734 69.9681 5.31255 74.0953 5.31255ZM74.0953 6.24815C76.6727 6.24815 78.7608 9.38377 78.7608 13.2535C78.7608 17.1232 76.6727 20.2589 74.0953 20.2589C71.5179 20.2589 69.4298 17.1232 69.4298 13.2535C69.4298 9.38377 71.5179 6.24815 74.0953 6.24815ZM18.1772 10.3935C18.1632 6.99847 21.8103 5.36582 24.0358 5.36582C25.3595 5.36582 26.4385 5.58582 27.2844 6.02583C27.9206 6.35699 28.1117 6.85257 28.4147 7.56122C28.6104 8.01743 28.692 8.9646 28.7083 10.3888L28.7922 17.9731C28.8132 19.8397 31.055 19.8744 31.6376 19.6683L31.6679 20.3793C30.7101 21.0254 29.729 21.3172 28.9833 21.213C27.4312 20.9953 26.5853 19.5873 26.4338 18.3089C25.3781 19.6012 23.5301 21.2014 21.3745 21.2014C19.4822 21.2014 17.8369 19.9231 17.9185 17.3317C18.0304 13.7954 24.0055 12.7602 26.2986 11.9289V10.1989C26.2986 7.97343 26.033 6.53068 23.5488 6.53068C21.738 6.53068 20.8921 7.29258 21.0389 9.3745L18.1772 10.3935ZM26.2986 16.1853V12.92C24.8118 13.5013 21.9291 14.24 20.9597 15.5925C20.5891 16.1089 20.1417 17.5007 20.9271 18.6401C22.4744 20.8911 26.2986 18.7559 26.2986 16.1853Z" fill="#B1B1B1"/>
<path fill-rule="evenodd" clip-rule="evenodd" d="M106.483 10.3934C106.469 6.99841 110.116 5.36576 112.342 5.36576C113.666 5.36576 114.745 5.58576 115.591 6.02576C116.227 6.35693 116.418 6.85251 116.721 7.56115C116.917 8.01737 116.998 8.96454 117.014 10.3888L117.098 17.9731C117.119 19.8396 119.361 19.8744 119.944 19.6683L119.974 20.3792C119.016 21.0253 118.035 21.3171 117.289 21.2129C115.737 20.9952 114.891 19.5872 114.74 18.3089C113.684 19.6011 111.836 21.2013 109.681 21.2013C107.788 21.2013 106.143 19.923 106.225 17.3316C106.337 13.7953 112.312 12.7602 114.605 11.9288V10.1989C114.605 7.97337 114.339 6.53061 111.855 6.53061C110.044 6.53061 109.198 7.29252 109.345 9.37444L106.483 10.3934ZM114.605 16.1853V12.92C113.118 13.5012 110.235 14.24 109.266 15.5924C108.895 16.1088 108.448 17.5007 109.233 18.64C110.781 20.891 114.605 18.7558 114.605 16.1853ZM86.309 20.7289V3.69142C86.309 0.810537 85.9641 0.942539 83.8574 0.942539V0.0416848H91.6363C98.793 0.0416848 103.463 2.05645 103.463 10.2776C103.463 15.296 100.261 20.7312 92.4613 20.7312H86.3067L86.309 20.7289ZM89.0123 17.7021C89.4178 19.5247 91.9066 19.8142 92.7852 19.8142C97.4017 19.8142 100.601 16.6623 100.601 10.4142C100.601 7.55884 99.6273 5.27775 98.0682 3.63352C96.3973 1.87118 94.8942 0.761905 89.01 0.880012V17.6998L89.0123 17.7021ZM122.004 24.3346C122.827 24.7191 124.141 24.7191 124.702 24.5407C127.166 23.7557 127.956 22.4148 128.927 20.3375L123.437 8.91359C122.799 7.58431 122.395 6.70893 121.076 6.64409V5.78955H127.25V6.64409H126.907C125.555 6.64409 125.532 7.30178 126.376 9.12202L130.244 17.459L134.257 8.73064C134.754 7.65147 134.94 6.62093 133.146 6.62093V5.78955H137.757V6.62093C137.021 6.62093 136.483 6.58619 135.457 8.73064L128.562 23.1814C127.387 25.6454 124.877 27.8825 120.673 26.581L122.004 24.3323V24.3346ZM169.369 5.79187H175.58V6.63714H175.125C173.65 6.63714 173.937 7.63294 174.466 8.76075L178.665 17.7461L182.434 8.45043C182.886 7.33652 182.89 6.65104 180.926 6.65104V5.79187H186.034V6.65104C185.37 6.65104 184.75 6.60009 183.99 8.37632L178.521 21.1828H177.568L171.676 8.6959C171.01 7.28094 170.784 6.75525 169.369 6.63482V5.78955V5.79187ZM207.609 0V17.2459C207.609 18.1653 207.674 18.7767 207.809 19.0731C207.945 19.3718 208.152 19.6011 208.434 19.7563C208.711 19.9091 209.236 19.9878 210 19.9878V20.583H202.727V19.9878C203.407 19.9878 204.06 19.9161 204.307 19.7794C204.556 19.6428 204.752 19.4112 204.894 19.0916C205.034 18.7744 205.104 18.156 205.104 17.2482V4.47185C205.104 3.10551 203.372 2.23013 202.461 1.8156L207.609 0ZM160.814 5.31249C164.942 5.31249 168.288 8.86728 168.288 13.2534C168.288 17.6396 164.942 21.1944 160.814 21.1944C156.687 21.1944 153.341 17.6396 153.341 13.2534C153.341 8.86728 156.687 5.31249 160.814 5.31249ZM160.814 6.24808C163.392 6.24808 165.48 9.3837 165.48 13.2534C165.48 17.1232 163.392 20.2588 160.814 20.2588C158.237 20.2588 156.149 17.1232 156.149 13.2534C156.149 9.3837 158.237 6.24808 160.814 6.24808ZM187.88 10.3934C187.866 6.99841 191.513 5.36576 193.738 5.36576C195.062 5.36576 196.141 5.58576 196.987 6.02576C197.623 6.35693 197.814 6.85251 198.117 7.56115C198.313 8.01737 198.395 8.96454 198.411 10.3888L198.495 17.9731C198.516 19.8396 200.758 19.8744 201.34 19.6683L201.371 20.3792C200.413 21.0253 199.432 21.3171 198.686 21.2129C197.134 20.9952 196.288 19.5872 196.136 18.3089C195.081 19.6011 193.233 21.2013 191.077 21.2013C189.185 21.2013 187.54 19.923 187.621 17.3316C187.733 13.7953 193.708 12.7602 196.001 11.9288V10.1989C196.001 7.97337 195.736 6.53061 193.251 6.53061C191.441 6.53061 190.595 7.29252 190.742 9.37444L187.88 10.3934ZM196.001 16.1853V12.92C194.514 13.5012 191.634 14.24 190.662 15.5924C190.292 16.1088 189.844 17.5007 190.63 18.64C192.177 20.891 196.001 18.7558 196.001 16.1853ZM149.92 9.10117C149.228 8.01969 147.899 6.45651 145.995 6.37082C142.814 6.22724 141.607 9.64076 141.596 12.1094C141.572 16.7781 143.28 19.6636 147.368 19.7817C148.536 19.8165 150.106 19.4691 151.257 18.7466L151.297 20.0527C149.654 21.0578 148.163 21.2036 146.049 21.2036C141.645 21.2036 138.783 17.7994 138.783 13.7328C138.783 9.35128 141.756 5.39586 146.716 5.39586C148.223 5.39586 150.784 5.93082 151.775 7.13041L149.922 9.10117H149.92Z" fill="white"/>
<path fill-rule="evenodd" clip-rule="evenodd" d="M86.3086 25.3628H92.9875V31.9999H86.3086V25.3628Z" fill="#B1B1B1"/>
<path fill-rule="evenodd" clip-rule="evenodd" d="M92.9883 25.3628H99.6672V31.9999H92.9883V25.3628Z" fill="white"/>
</g>
<defs>
<clipPath id="clip0_1625_242">
<rect width="210" height="32" fill="white"/>
</clipPath>
</defs>
</svg>
