<svg width="115" height="47" viewBox="0 0 115 47" fill="none" xmlns="http://www.w3.org/2000/svg">
<path d="M60.2551 29.3382C63.4903 27.636 65.5307 24.4359 65.5307 20.8013C65.5307 18.6859 64.8405 16.8799 63.531 15.586C62.0218 14.0397 60.1915 13.4611 56.7861 13.4611H45.6201L45.512 14.1479L41.153 41.4658C40.8357 43.4641 41.1027 46.9773 45.5446 46.9949V47H53.2172C59.7506 47 64.3086 42.5103 64.3086 36.08C64.3086 32.9582 62.7757 30.51 60.2544 29.3389M56.2712 40.9706C55.0601 41.7949 54.2633 42.0356 51.31 42.0356H46.7468L48.2523 32.3993H53.07C57.7316 32.3993 58.3582 34.432 58.3582 36.4202C58.3582 38.4083 57.5992 40.0679 56.2712 40.9706ZM53.363 27.146H49.0935L50.4954 18.4255H55.3183C58.1008 18.4255 58.5772 18.6786 59.0063 19.2579C59.3755 19.7692 59.5301 20.3317 59.5301 21.1897C59.5301 24.7512 57.0524 27.146 53.3615 27.146" fill="white"/>
<path d="M81.9983 32.5815C86.8434 31.6605 90.6105 27.0406 90.6105 21.7207C90.6105 16.4008 87.2473 13.4611 81.1335 13.4611H70.5511L70.4416 14.1479L65.9739 42.5264C65.7734 43.9783 64.6644 47 69.997 46.9963L70.5149 47H70.8848L73.0391 33.3158H76.1205L82.6449 46.5399L82.8661 46.9993H89.3151L81.9983 32.5815ZM73.8366 28.3529L75.4265 18.4262H79.9623C84.1438 18.4262 84.9073 19.5351 84.9073 21.7207C84.9073 25.6874 82.1707 28.3529 78.1024 28.3529H73.8366Z" fill="white"/>
<path d="M109.729 29.3382C112.957 27.636 115.001 24.4359 115.001 20.8013C115.001 18.6859 114.309 16.8814 112.999 15.586C111.492 14.0397 109.662 13.4611 106.256 13.4611H95.0864L94.9791 14.1479L90.6342 41.4051C90.3442 43.3866 90.5313 46.9773 95.0169 46.9949V47H102.688C109.215 47 113.778 42.5103 113.778 36.08C113.778 32.9582 112.245 30.51 109.728 29.3389M105.742 40.9706C104.53 41.7949 103.735 42.0356 100.779 42.0356H96.2124L97.7179 32.3993H102.538C107.197 32.3993 107.825 34.432 107.825 36.4202C107.825 38.4083 107.066 40.0679 105.742 40.9706ZM102.83 27.146H98.5658L99.964 18.4255H104.791C107.569 18.4255 108.047 18.6786 108.478 19.2579C108.849 19.7692 109.002 20.3317 109.002 21.1897C109.002 24.7512 106.522 27.146 102.83 27.146Z" fill="white"/>
<path d="M4.35607 13.4567L3.86779 16.5566C10.8228 17.953 17.0306 21.4201 21.7898 26.285L28.949 21.6388C28.949 21.6388 29.7739 21.088 30.1586 21.5481C30.1586 21.5481 30.5345 21.9072 29.8131 22.6716L23.9338 28.6989C28.0753 33.8088 30.7623 40.1126 31.3705 46.9985H34.7181L40.0263 13.4545L4.35607 13.4567Z" fill="white"/>
<path d="M11.209 37.3484L10.882 36.957L18.5369 28.4545C14.4146 24.4257 9.1486 21.5415 3.26927 20.3251L0.150209 40.0394C-0.393556 43.737 0.286335 46.9985 6.51855 46.9985H27.4983C26.919 41.1798 24.6699 35.8401 21.232 31.455L11.2082 37.3491L11.209 37.3484Z" fill="white"/>
<path d="M5.61819 8.43667H4.11045L5.2764 0H6.76713L6.35727 3.0085C6.68279 2.70128 6.98685 2.48843 7.26946 2.36993C7.55207 2.25144 7.86945 2.19292 8.2216 2.19292C9.03022 2.19292 9.67312 2.48916 10.1503 3.08237C10.6275 3.67559 10.8664 4.36316 10.8664 5.14656C10.8664 5.74709 10.7133 6.31982 10.4078 6.86403C10.1022 7.40896 9.69162 7.83321 9.17671 8.13677C8.66179 8.44105 8.12469 8.59247 7.56687 8.59247C7.18586 8.59247 6.83593 8.50689 6.51707 8.33499C6.19821 8.1631 5.93705 7.91367 5.7336 7.58525L5.61745 8.43593L5.61819 8.43667ZM7.8554 3.51906C7.48845 3.51906 7.16811 3.60244 6.89437 3.76848C6.62064 3.93453 6.3913 4.19346 6.20561 4.54383C6.01991 4.89493 5.92743 5.25335 5.92743 5.61908C5.92743 6.09965 6.06726 6.48586 6.34617 6.77844C6.62508 7.07103 6.99351 7.21659 7.45072 7.21659C7.98264 7.21659 8.43393 7.02056 8.80532 6.62923C9.17597 6.2379 9.36166 5.73246 9.36166 5.11291C9.36166 4.63527 9.2211 4.25052 8.93997 3.95793C8.65884 3.66535 8.29707 3.51906 7.8554 3.51906Z" fill="white"/>
<path d="M17.1401 2.34945H18.653L17.7948 8.43594H16.2989L16.3892 7.78201C16.0607 8.0841 15.7537 8.29403 15.4688 8.41326C15.184 8.53249 14.8637 8.59247 14.5086 8.59247C13.6925 8.59247 13.0445 8.29623 12.5628 7.70301C12.0812 7.1098 11.8408 6.42003 11.8408 5.63298C11.8408 5.03245 11.9947 4.46118 12.3032 3.91843C12.6117 3.37569 13.0252 2.95217 13.5446 2.64862C14.0639 2.34433 14.607 2.19292 15.1737 2.19292C15.5539 2.19292 15.9053 2.27923 16.2264 2.45186C16.5475 2.62448 16.8131 2.8761 17.0225 3.20672L17.1401 2.34945ZM14.8711 7.26121C15.2432 7.26121 15.568 7.17929 15.8447 7.01544C16.1214 6.85159 16.3544 6.59485 16.5423 6.24448C16.7302 5.89411 16.8242 5.53716 16.8242 5.17216C16.8242 4.69013 16.6829 4.30245 16.4003 4.0084C16.1177 3.71509 15.7448 3.56806 15.2817 3.56806C14.7423 3.56806 14.2851 3.7641 13.9093 4.15543C13.5335 4.54676 13.3456 5.0522 13.3456 5.67175C13.3456 6.14939 13.4876 6.53341 13.7724 6.82453C14.0573 7.11565 14.4235 7.26121 14.8711 7.26121Z" fill="white"/>
<path d="M20.2688 2.34945H21.7765L21.6914 2.9668C22.2692 2.45039 22.87 2.19219 23.4929 2.19219C24.0256 2.19219 24.4613 2.35969 24.8016 2.69324C25.1419 3.02678 25.3114 3.44811 25.3114 3.95574C25.3114 4.19493 25.2795 4.55115 25.2152 5.02513L24.7439 8.4352H23.2362L23.6963 5.10633C23.7415 4.76327 23.7644 4.5058 23.7644 4.33464C23.7644 4.08813 23.6934 3.89942 23.5513 3.76702C23.4093 3.63463 23.2081 3.5688 22.9469 3.5688C22.6858 3.5688 22.4394 3.65584 22.1856 3.8292C21.9319 4.00255 21.7373 4.2432 21.6004 4.55115C21.4643 4.85909 21.3393 5.43622 21.2254 6.28252L20.9354 8.43667H19.4276L20.2688 2.34945Z" fill="white"/>
<path d="M32.8412 3.60756L31.5628 4.29514C31.201 3.8409 30.715 3.61342 30.1039 3.61342C29.6933 3.61342 29.3293 3.69973 29.0127 3.87308C28.696 4.04644 28.443 4.2966 28.2551 4.62429C28.0664 4.95199 27.9725 5.29797 27.9725 5.6637C27.9725 6.1333 28.1212 6.50927 28.4193 6.79234C28.7175 7.07542 29.1259 7.21659 29.6467 7.21659C30.3665 7.21659 30.9192 6.97667 31.3039 6.4961L32.4913 7.32558C32.1554 7.72203 31.7374 8.03217 31.2373 8.256C30.7372 8.48055 30.1794 8.59247 29.5646 8.59247C28.6058 8.59247 27.8504 8.33134 27.297 7.80907C26.7444 7.28681 26.4677 6.59704 26.4677 5.73904C26.4677 4.75815 26.8095 3.92209 27.4923 3.23013C28.1752 2.53817 29.0548 2.19219 30.1305 2.19219C31.3423 2.19219 32.2457 2.66398 32.842 3.60683L32.8412 3.60756Z" fill="white"/>
<path d="M37.4103 2.19292C37.957 2.19292 38.4542 2.318 38.901 2.56743C39.3479 2.81685 39.6963 3.17161 39.9449 3.63024C40.1942 4.08886 40.3185 4.60381 40.3185 5.17435C40.3185 6.12159 39.9767 6.92839 39.2946 7.59402C38.6118 8.25965 37.7669 8.59247 36.76 8.59247C35.8848 8.59247 35.1872 8.3306 34.6663 7.80615C34.1455 7.28242 33.8858 6.59704 33.8858 5.75001C33.8858 4.72816 34.2387 3.87967 34.9438 3.20453C35.6488 2.52939 36.4715 2.19219 37.4111 2.19219L37.4103 2.19292ZM37.3053 3.6083C36.6875 3.6083 36.214 3.82773 35.8848 4.26588C35.5549 4.70402 35.3906 5.17874 35.3906 5.6893C35.3906 6.14427 35.5253 6.51073 35.7946 6.78869C36.0638 7.06664 36.4227 7.20562 36.871 7.20562C37.5072 7.20562 37.9925 6.99423 38.3255 6.57071C38.6591 6.14719 38.8256 5.6637 38.8256 5.11876C38.8256 4.67111 38.6843 4.30757 38.4017 4.02815C38.1191 3.74874 37.7529 3.6083 37.3053 3.6083Z" fill="white"/>
</svg>
