<svg width="176" height="32" viewBox="0 0 176 32" fill="none" xmlns="http://www.w3.org/2000/svg">
<g clip-path="url(#clip0_1625_239)">
<path d="M23.2186 14.6445C23.1756 13.481 22.8524 12.3389 22.2899 11.3072L17.2182 2.21646C16.8295 1.52224 16.5717 0.78342 16.4203 0L16.2054 0.380075C14.9534 2.64113 14.9534 5.41801 16.2054 7.68101L20.2623 14.9819C21.5144 17.243 21.5144 20.0199 20.2623 22.2829L20.0474 22.663C19.8961 21.8795 19.6382 21.1407 19.2495 20.4678L15.5383 13.7719L13.165 9.51739C12.7763 8.82317 12.5184 8.08435 12.3671 7.32226L12.1522 7.70234C10.9001 9.94207 10.9001 12.7189 12.1297 14.98L16.2091 22.2809C17.4612 24.542 17.4612 27.3189 16.2091 29.5819L15.9942 29.9619C15.8429 29.1785 15.5626 28.4397 15.1963 27.7668L10.1246 18.6314C9.45563 17.4214 9.13235 16.0562 9.19588 14.6678C3.75422 16.1222 0 19.2578 0 22.886C0 27.9239 7.25057 32 16.2054 32C25.1602 32 32.4108 27.9239 32.4108 22.886C32.4108 19.2578 28.6566 16.1241 23.2186 14.6445ZM38.5177 30.2295C38.5607 29.132 38.755 28.0577 39.1007 27.0493C40.848 27.856 42.7484 28.2594 44.6676 28.2807C47.4949 28.2807 49.0703 27.3402 49.0703 25.4592C49.0703 23.5782 47.9042 22.7715 45.0563 21.4742L43.5034 20.78C40.6331 19.4808 38.6915 17.8015 38.6915 14.4661C38.6915 10.8612 41.0872 8.55363 46.028 8.55363C47.9266 8.53036 49.8047 8.8445 51.5949 9.47085C51.5295 10.5451 51.3146 11.5981 50.9913 12.6278C49.3935 12.0461 47.7117 11.7319 46.0056 11.7106C43.352 11.7106 42.143 12.7849 42.143 14.4642C42.143 16.1435 43.3296 17.0627 45.4655 18.0032L47.1063 18.7206C50.9689 20.4232 52.5872 22.2363 52.5872 25.3041C52.5872 28.9323 49.9336 31.4396 44.776 31.4396C42.2719 31.4396 40.222 31.0595 38.5177 30.2295ZM68.9439 15.1371V30.9238H65.8792L65.7073 29.0195C64.844 30.4079 63.549 31.2806 61.413 31.2806C57.3991 31.2806 54.7231 28.2574 54.7231 22.9499C54.7231 17.6425 57.5934 14.2392 63.2257 14.2392C65.384 14.2392 67.1742 14.4855 68.9439 15.1351V15.1371ZM65.5784 27.3189V17.3981C64.7804 17.2643 63.9806 17.1965 63.1827 17.2197C59.7088 17.2197 58.111 19.4362 58.111 22.9752C58.111 26.2 59.3631 28.461 62.3399 28.461C63.506 28.461 64.6496 28.0577 65.5765 27.3189H65.5784ZM86.078 20.3107V30.9257H82.7331V20.9158C82.7331 18.4298 81.9351 17.2217 78.5902 17.2217C77.7063 17.2449 76.8205 17.3109 75.9366 17.4679V30.9257H72.5916V15.139C74.7275 14.6019 77.0578 14.2664 78.6761 14.2664C84.2654 14.2431 86.078 16.4829 86.078 20.3127V20.3107ZM95.3561 28.3272C96.24 28.3272 97.1258 28.1702 97.9667 27.856C97.8808 28.7965 97.7518 29.8708 97.578 30.79C96.6717 31.1487 95.7224 31.3058 94.7507 31.2825C91.4917 31.2825 89.4211 29.737 89.4211 25.8858V9.31572C90.4994 8.98024 91.643 8.7999 92.7661 8.7999V14.7783H98.0527C98.0097 15.7634 97.9013 16.7718 97.75 17.7569H92.7643V25.5038C92.7643 27.5419 93.736 28.3253 95.3543 28.3253L95.3561 28.3272ZM113.311 15.1157V30.9024H110.246L110.052 28.9982C109.188 30.3866 107.893 31.2592 105.757 31.2592C101.743 31.2592 99.0674 28.2361 99.0674 22.9286C99.0674 17.6211 101.938 14.2179 107.57 14.2179C109.749 14.2412 111.541 14.4875 113.311 15.1138V15.1157ZM109.966 27.3189V17.3981C109.168 17.2643 108.368 17.1965 107.57 17.2197C104.096 17.2197 102.478 19.4362 102.478 22.9752C102.478 26.2 103.73 28.461 106.707 28.461C107.893 28.461 109.037 28.0577 109.966 27.3189ZM130.445 20.3107V30.9257H127.1V20.9158C127.1 18.4298 126.302 17.2217 122.957 17.2217C122.073 17.2449 121.187 17.3109 120.324 17.4679V30.9257H116.958V15.139C119.094 14.6019 121.425 14.2664 123.043 14.2664C128.653 14.2431 130.445 16.4829 130.445 20.3127V20.3107ZM147.428 8.80184V30.9044H144.363L144.191 28.8896C143.328 30.3672 142.033 31.2864 139.831 31.2864C135.817 31.2864 133.141 28.2632 133.141 22.9558C133.141 17.6483 136.012 14.2451 141.621 14.2451C142.462 14.2451 143.305 14.3343 144.126 14.4913V9.29633C145.161 8.91625 146.347 8.80378 147.428 8.80378V8.80184ZM144.126 27.2529V17.5339C143.242 17.3322 142.356 17.2197 141.45 17.2197C138.127 17.2197 136.552 19.3703 136.552 22.9752C136.552 26.2 137.804 28.461 140.781 28.461C141.99 28.461 143.176 28.0364 144.126 27.251V27.2529ZM164.28 24.1619H153.598C154.03 26.9834 155.605 28.3272 158.584 28.3272C160.439 28.3272 162.252 27.9239 163.936 27.1172C163.807 28.0344 163.633 29.2445 163.418 30.2741C161.886 30.9916 160.29 31.2825 158.498 31.2825C152.888 31.2825 150.189 28.0577 150.189 22.661C150.189 17.9586 152.282 14.2199 157.612 14.2199C162.381 14.2199 164.453 17.466 164.453 21.4529C164.453 22.3701 164.388 23.266 164.281 24.1619H164.28ZM153.533 21.2512H161.086C161.086 18.6528 159.748 17.1538 157.438 17.1538C155.043 17.1538 153.79 18.5655 153.533 21.2512ZM175.996 14.3769C175.996 15.3853 175.91 16.3704 175.694 17.3555C174.853 17.2663 174.01 17.2217 173.169 17.2217C172.328 17.2217 171.528 17.2895 170.71 17.4001V30.9257H167.365V15.139C168.789 14.6465 171.205 14.2664 173.083 14.2664C174.032 14.2431 175.025 14.2897 175.996 14.3789V14.3769Z" fill="white"/>
</g>
<defs>
<clipPath id="clip0_1625_239">
<rect width="176" height="32" fill="white"/>
</clipPath>
</defs>
</svg>
