<svg width="157" height="25" viewBox="0 0 157 25" fill="none" xmlns="http://www.w3.org/2000/svg">
<g clip-path="url(#clip0_632_624)">
<path d="M0.0195312 0.129923C0.198913 0.121826 0.340444 0.108871 0.481975 0.108871C4.9007 0.108871 9.32106 0.0570514 13.7381 0.126684C16.6856 0.172026 18.9435 1.52419 20.2255 4.16214C21.4812 6.74502 21.2788 9.29066 19.5524 11.6452C18.7789 12.6994 17.7092 13.4071 16.4371 13.9058C19.9408 16.3802 21.2113 19.844 21.3446 23.9005H17.2978C17.0197 17.7761 13.8747 14.6718 7.46635 15.1187V11.6679C8.53935 11.6679 9.58273 11.6889 10.6245 11.6614C11.5592 11.6371 12.517 11.6727 13.4205 11.4833C17.4097 10.6525 17.5759 6.58794 15.95 4.83741C15.2061 4.03582 14.273 3.56297 13.1934 3.5484C10.1818 3.50629 7.17013 3.53706 4.15848 3.53868C4.12557 3.53868 4.09265 3.55649 4.01037 3.5824V23.8957H0.0195312V0.129923Z" fill="#111111"/>
<path d="M82.1679 0.129883H85.642V8.70603C85.828 8.58457 85.9152 8.53437 85.9926 8.47446C88.6372 6.3952 91.5814 5.97092 94.6737 7.21135C97.8499 8.48579 99.6799 10.9326 100.09 14.2702C100.662 18.9339 97.9355 22.8512 93.4525 24.0009C87.765 25.4599 82.2124 21.3581 82.1581 15.6013C82.112 10.5683 82.1482 5.53531 82.1498 0.503956C82.1498 0.400316 82.1614 0.296677 82.1696 0.131502L82.1679 0.129883ZM91.193 9.89464C88.0925 9.89788 85.6535 12.3366 85.6486 15.4361C85.6437 18.5048 88.0843 20.9484 91.1584 20.9549C94.2738 20.9614 96.6897 18.5356 96.6847 15.4086C96.6798 12.3075 94.2721 9.88978 91.193 9.89302V9.89464Z" fill="#111111"/>
<path d="M57.0125 8.74658V0.144531H60.4849V0.721024C60.4849 5.62931 60.4882 10.5392 60.4849 15.4475C60.4816 20.1356 56.9401 23.8909 52.1889 24.252C47.4081 24.6163 43.2758 21.423 42.5484 16.8013C41.7897 11.9837 44.9643 7.53044 49.8388 6.67704C52.2185 6.26086 54.4205 6.79525 56.3657 8.24296C56.5484 8.37899 56.7278 8.52311 57.0125 8.74335V8.74658ZM45.9649 15.4507C45.9649 18.547 48.3692 20.9501 51.4697 20.9566C54.534 20.9614 56.9993 18.5097 57.0026 15.4507C57.0075 12.3432 54.5373 9.88985 51.4072 9.89633C48.3347 9.90119 45.9632 12.3221 45.9632 15.4524L45.9649 15.4507Z" fill="#111111"/>
<path d="M119.687 16.8029H105.555C105.794 18.0044 106.36 18.9647 107.259 19.7048C109.182 21.2901 111.366 21.4278 113.667 20.691C114.803 20.3266 115.741 19.6449 116.585 18.7639C117.404 19.4878 118.203 20.1938 119.067 20.9565C118.754 21.2415 118.472 21.5266 118.161 21.7776C114.949 24.3799 111.332 24.9758 107.469 23.5864C103.373 22.1111 101.37 18.2409 101.992 14.0872C102.708 9.30361 106.745 6.21548 111.648 6.57012C116.662 6.93448 119.937 10.5554 119.781 15.5689C119.769 15.9559 119.722 16.343 119.685 16.8013L119.687 16.8029ZM116.205 13.8346C116.188 11.7424 113.914 9.82666 111.327 9.71493C107.932 9.56918 105.921 11.8768 105.629 13.8346H116.205Z" fill="#111111"/>
<path d="M71.3744 6.56042C76.5699 6.56042 80.4537 10.3643 80.4521 15.4507C80.4521 20.495 76.5616 24.2665 71.3662 24.2714C66.0357 24.2763 62.2983 20.1922 62.3954 15.2564C62.4925 10.3157 66.2891 6.56042 71.376 6.56042H71.3744ZM76.9517 15.4297C76.9484 12.2703 74.5489 9.89307 71.3645 9.89469C68.2047 9.89631 65.8827 12.2816 65.8909 15.5171C65.8975 18.5874 68.315 20.9728 71.4007 20.9549C74.5621 20.9355 76.9533 18.555 76.9517 15.4297Z" fill="#111111"/>
<path d="M31.6927 6.56042C36.8438 6.56042 40.7276 10.3497 40.7704 15.4167C40.8132 20.4319 36.8536 24.2714 31.6417 24.2698C26.5005 24.2682 22.6891 20.4853 22.6973 15.394C22.7055 10.3238 26.5384 6.56042 31.6927 6.56042ZM37.2684 15.5058C37.3539 12.5132 34.9496 9.97404 31.956 9.89469C28.737 9.80887 26.2569 12.0986 26.1796 15.2305C26.1006 18.4336 28.3931 20.8675 31.5676 20.9549C34.706 21.0408 37.1779 18.6781 37.2684 15.5058Z" fill="#111111"/>
<path d="M140.316 21.8278C140.702 20.8788 141.087 19.9299 141.442 19.0554C142.645 19.5785 143.794 20.176 145.008 20.5857C147.085 21.2869 149.233 21.5136 151.389 20.9566C151.942 20.8141 152.508 20.5194 152.937 20.1501C153.867 19.3502 153.683 18.1421 152.528 17.734C151.282 17.2936 149.97 17.0199 148.677 16.7203C147.327 16.4094 145.963 16.1633 144.61 15.8702C144.225 15.786 143.846 15.6564 143.478 15.5171C141.985 14.9568 140.881 14.0387 140.697 12.3756C140.496 10.557 141.016 9.00082 142.597 7.91261C144.074 6.89727 145.777 6.62198 147.525 6.56854C150.307 6.48272 152.965 7.02196 155.505 8.15228C155.906 8.33041 155.988 8.51016 155.84 8.91176C155.566 9.65505 155.347 10.4194 155.101 11.1821C154.142 10.8372 153.234 10.4615 152.296 10.1846C150.359 9.6097 148.377 9.41214 146.366 9.70849C145.943 9.77002 145.518 9.89471 145.128 10.0631C144.551 10.3125 144.148 10.74 144.149 11.4056C144.149 12.0517 144.543 12.4938 145.114 12.693C145.958 12.9861 146.83 13.2095 147.702 13.412C149.488 13.8249 151.297 14.152 153.064 14.6233C153.866 14.837 154.644 15.2354 155.345 15.6823C157.654 17.1511 157.328 20.4319 155.745 22.0383C154.461 23.3419 152.827 23.9087 151.066 24.1338C147.309 24.6147 143.797 23.8504 140.527 21.9833C140.466 21.9492 140.414 21.9007 140.32 21.8294L140.316 21.8278Z" fill="#111111"/>
<path d="M138.621 23.907H135.14V23.2917C135.14 20.4918 135.173 17.6919 135.12 14.8936C135.104 14.0402 134.979 13.148 134.684 12.3496C133.998 10.4906 132.038 9.53841 129.823 9.85095C126.933 10.2574 125.164 12.3351 125.151 15.3649C125.139 17.9866 125.147 20.6084 125.147 23.2317V23.8973H121.687V6.96363H124.891V9.01212C125.345 8.65424 125.704 8.34009 126.092 8.06641C128.934 6.0584 133.322 6.0244 135.879 7.99678C137.545 9.28255 138.28 11.0606 138.497 13.0589C138.619 14.1811 138.608 15.3212 138.616 16.4531C138.632 18.738 138.621 21.0246 138.621 23.3095V23.9054V23.907Z" fill="#111111"/>
</g>
<defs>
<clipPath id="clip0_632_624">
<rect width="156.982" height="24.2257" fill="white" transform="translate(0.0195312 0.0910645)"/>
</clipPath>
</defs>
</svg>
