<svg width="136" height="26" viewBox="0 0 136 26" fill="none" xmlns="http://www.w3.org/2000/svg">
<g clip-path="url(#clip0_632_771)">
<path d="M14.0773 0.926514C14.4498 0.930298 14.8211 0.94796 15.1897 1.00851C16.0292 1.13467 16.8997 1.33525 17.6952 1.62793C20.515 2.66491 22.701 4.42602 24.3049 6.89484C24.5261 7.2342 24.5015 7.39694 24.1354 7.61518C22.5043 8.58657 20.8862 9.58066 19.2797 10.5911C18.9149 10.8207 18.7468 10.798 18.479 10.4398C16.1934 7.37297 11.7917 7.00712 9.21639 9.65635C8.93829 9.94145 8.70675 10.277 8.49333 10.6126C8.29155 10.9305 8.14279 11.2799 7.9824 11.5903C6.39659 10.6328 4.8457 9.61219 3.21203 8.73795C1.96253 8.06933 1.95477 6.78888 2.70628 5.88057C4.14852 4.13712 5.92576 2.81882 8.03673 1.92691C9.83855 1.16368 11.7322 0.939129 13.6828 0.926514C13.8147 0.926514 13.9467 0.926514 14.0773 0.926514Z" fill="#111111"/>
<path d="M106.869 12.9314C105.213 15.7383 103.546 18.5401 101.913 21.3597C101.673 21.7722 101.389 21.8277 100.951 21.8908C99.7692 22.0611 99.1781 21.5565 98.6335 20.5674C97.2262 18.0141 95.6792 15.5339 94.0986 12.8746C94.074 13.2038 94.0507 13.3742 94.0507 13.5445C94.0494 17.2622 94.0352 20.98 94.065 24.6977C94.0701 25.3133 93.8761 25.466 93.2656 25.4534C91.4366 25.4155 89.6063 25.4281 87.7773 25.4483C87.335 25.4534 87.1875 25.3348 87.1875 24.8882C87.2004 17.2408 87.2004 9.59459 87.1875 1.94716C87.1875 1.52959 87.3181 1.411 87.7372 1.41605C89.6102 1.43371 91.4832 1.44507 93.3548 1.40974C93.8425 1.40091 93.9861 1.69107 94.1581 1.99131C96.0854 5.36844 98.0062 8.75062 99.9296 12.1303C100.104 12.4356 100.285 12.7383 100.521 13.1408C100.998 12.3195 101.43 11.5853 101.852 10.8473C103.56 7.85241 105.27 4.85878 106.964 1.85633C107.143 1.53842 107.346 1.41353 107.72 1.41605C109.571 1.43245 111.422 1.43497 113.273 1.41479C113.708 1.40974 113.868 1.5094 113.868 1.96482C113.855 9.61225 113.854 17.2584 113.868 24.9059C113.868 25.3752 113.685 25.4508 113.263 25.4471C111.369 25.4294 109.474 25.4206 107.581 25.4521C107.072 25.4609 106.983 25.2894 106.986 24.8415C107.002 21.1011 106.996 17.3619 106.996 13.6214C106.996 13.3981 106.996 13.1748 106.996 12.9503L106.869 12.9288V12.9314Z" fill="#505050"/>
<path d="M72.4628 8.24088C73.8145 6.49617 75.4546 5.38602 77.7001 5.28888C81.5146 5.12362 84.2956 7.33131 85.02 11.0629C85.2851 12.4292 85.223 13.808 85.2256 15.1856C85.2295 18.4 85.2179 21.6157 85.2437 24.8301C85.2476 25.3372 85.0924 25.4545 84.5918 25.447C82.7188 25.418 80.8459 25.4192 78.9729 25.447C78.4879 25.4545 78.3572 25.3233 78.3585 24.8528C78.3779 21.1325 78.2964 17.411 78.3947 13.6945C78.4594 11.2421 76.1945 10.4208 74.4082 11.3367C73.1742 11.97 72.4576 12.9376 72.4602 14.3442C72.4667 17.8336 72.4525 21.3243 72.4732 24.8137C72.4757 25.2943 72.3658 25.4583 71.8381 25.4495C69.9444 25.4167 68.0494 25.4281 66.1545 25.4445C65.7548 25.4482 65.5957 25.3713 65.5957 24.9323C65.6099 17.2621 65.6086 9.59325 65.5983 1.9231C65.5983 1.54212 65.7069 1.42227 66.1066 1.42606C68.0663 1.44498 70.0246 1.4475 71.9842 1.4248C72.4137 1.41975 72.4719 1.58375 72.4693 1.9395C72.455 3.84064 72.4628 5.74304 72.4628 7.64417V8.2434V8.24088Z" fill="#111111"/>
<path d="M128.439 17.6911C126.374 17.6911 124.307 17.7037 122.241 17.6823C121.712 17.6772 121.655 17.8463 121.857 18.2613C122.629 19.8483 124.082 20.3277 125.714 20.4514C127.876 20.6154 129.836 19.9694 131.646 18.8719C132.069 18.6158 132.255 18.6663 132.482 19.07C133.137 20.2445 133.805 21.4126 134.51 22.5594C134.748 22.9454 134.719 23.1409 134.344 23.4172C132.647 24.6699 130.746 25.4597 128.652 25.7826C125.348 26.2923 122.21 25.8747 119.407 23.9786C116.953 22.3184 115.634 19.9795 115.256 17.1259C114.912 14.5171 115.32 12.0306 116.785 9.79263C118.879 6.5959 122.028 5.29147 125.823 5.28264C128.451 5.27633 130.861 5.96891 132.805 7.74642C135.339 10.0613 136.034 12.9767 135.493 16.2265C135.248 17.6974 135.221 17.6936 133.668 17.6936C131.924 17.6936 130.181 17.6936 128.437 17.6936L128.439 17.6911ZM125.223 13.5369C126.018 13.5369 126.815 13.5558 127.61 13.5293C128.004 13.5167 128.577 13.7425 128.754 13.4082C128.992 12.9616 128.657 12.4482 128.415 12.0041C128.345 11.8767 128.251 11.7568 128.148 11.6521C127.158 10.6328 125.912 10.4638 124.586 10.7325C123.266 10.9999 122.283 11.7165 121.788 12.9856C121.632 13.3867 121.709 13.5558 122.189 13.5444C123.2 13.5205 124.211 13.5369 125.223 13.5369Z" fill="#505050"/>
<path d="M38.6747 23.5661C36.1291 25.857 33.2951 26.513 30.1403 25.5909C27.8237 24.9147 26.3957 23.3415 25.9714 21.0115C25.5704 18.8076 26.0296 16.832 27.9388 15.3926C29.5207 14.2004 31.4066 13.8724 33.3494 13.8182C34.7697 13.7778 36.1912 13.7804 37.6115 13.8119C38.1276 13.8232 38.2259 13.6517 38.1741 13.1975C38.0422 12.042 37.2299 11.2333 35.939 11.0352C34.4295 10.8031 33.092 11.2989 31.8141 11.989C31.2527 12.293 30.7237 12.6601 30.2011 13.026C29.9773 13.1836 29.8622 13.1874 29.6953 12.9578C28.7795 11.6938 27.8521 10.4385 26.9195 9.18584C26.7837 9.00291 26.7423 8.87424 26.948 8.71654C30.7353 5.81753 34.9107 4.3428 39.694 5.85916C42.9238 6.88353 44.5277 9.32208 44.961 12.5239C45.0386 13.1016 45.0516 13.6908 45.0529 14.2749C45.0606 17.8072 45.0503 21.3395 45.0658 24.8718C45.0671 25.2957 44.9688 25.4508 44.4993 25.4433C42.7337 25.4168 40.968 25.4218 39.2024 25.4407C38.7846 25.4445 38.6217 25.3373 38.6644 24.9122C38.7057 24.5047 38.6734 24.0909 38.6734 23.5661H38.6747ZM36.0489 17.8463C35.4772 17.8867 34.7852 17.7643 34.1074 17.9157C33.3494 18.086 32.9032 18.6183 32.8488 19.3841C32.7932 20.1751 33.1386 20.7693 33.8215 21.0569C35.8963 21.9299 38.2026 20.4615 38.1961 18.2815C38.1961 17.975 38.1327 17.8223 37.7718 17.84C37.2363 17.8665 36.6983 17.8475 36.0489 17.8475V17.8463Z" fill="#111111"/>
<path d="M55.6098 5.27124C58.3907 5.32423 60.9712 5.94743 63.1456 7.75521C63.491 8.04284 63.5543 8.2245 63.2361 8.59665C62.2997 9.68788 61.4033 10.8119 60.5172 11.9422C60.2715 12.2564 60.1201 12.3068 59.7748 12.047C58.5912 11.1563 57.2615 10.5886 55.7352 10.6038C55.17 10.6088 54.4456 10.5609 54.3201 11.2875C54.2037 11.9574 54.8906 12.0962 55.3666 12.2917C56.8515 12.8998 58.3998 13.3615 59.8446 14.0629C60.4396 14.3518 61.0256 14.6659 61.5831 15.0179C65.4907 17.4817 64.5555 21.9424 62.0306 23.9294C60.4655 25.1606 58.6507 25.7485 56.6859 25.9087C52.8805 26.2178 49.4838 25.2956 46.6679 22.6716C46.2967 22.3247 46.2617 22.1052 46.6045 21.7166C47.4983 20.6998 48.3662 19.6603 49.198 18.5943C49.5226 18.178 49.7024 18.2361 50.0736 18.5376C51.6439 19.8092 53.385 20.7137 55.5102 20.6746C55.9008 20.667 56.2824 20.6141 56.6432 20.4601C56.9601 20.3252 57.1878 20.1019 57.2007 19.7537C57.2124 19.4282 57.008 19.1961 56.717 19.0712C56.0883 18.8 55.4532 18.5439 54.8143 18.2991C53.134 17.657 51.4253 17.0717 49.9275 16.0561C47.3871 14.3341 46.5541 11.5386 47.8618 8.9625C48.8785 6.95918 50.7217 6.03447 52.8546 5.54878C53.7575 5.34315 54.6797 5.2561 55.611 5.26998L55.6098 5.27124Z" fill="#111111"/>
<path d="M8.01086 15.2336C8.76625 17.1751 10.1309 18.4253 12.1888 18.8252C14.7512 19.3223 16.8557 18.5099 18.426 16.4863C18.7455 16.0738 18.9512 16.0499 19.3793 16.3223C20.9418 17.3177 22.5276 18.2803 24.1173 19.2378C24.4472 19.4358 24.5493 19.567 24.3178 19.9467C19.7272 27.4832 8.10658 28.0635 2.79294 21.0127C2.58857 20.7415 2.40749 20.4602 2.29366 20.141C2.00651 19.3286 2.21993 18.7104 2.96756 18.2588C4.6284 17.2559 6.2957 16.2631 8.01086 15.2349V15.2336Z" fill="#111111"/>
<path d="M6.85969 14.8513C5.51447 15.6738 4.15502 16.4749 2.79039 17.2646C2.21479 17.5989 1.64436 17.9219 1.33652 18.646C1.27055 18.5274 1.20975 18.4088 1.15284 18.2902C0.812655 17.5106 0.553958 16.6894 0.384511 15.8378C0.230587 15.0683 0.150391 14.2735 0.150391 13.4598C0.150391 12.3661 0.295261 11.3064 0.56948 10.2959C0.763502 9.57555 1.0222 8.88171 1.3404 8.21814C2.15788 9.52761 3.58718 9.93761 4.73709 10.7059C5.42651 11.1664 6.17415 11.5423 6.87392 11.9901C8.05358 12.7445 8.0497 14.1234 6.85969 14.8513Z" fill="#505050"/>
</g>
<defs>
<clipPath id="clip0_632_771">
<rect width="135.517" height="25.0667" fill="white" transform="translate(0.150391 0.926514)"/>
</clipPath>
</defs>
</svg>
