<?xml version="1.0" encoding="UTF-8"?>
<svg id="Layer_2" data-name="Layer 2" xmlns="http://www.w3.org/2000/svg" viewBox="0 0 1079.01 809.53">
  <defs>
    <style>
      .cls-1 {
        fill: #fff;
      }

      .cls-2 {
        fill: #27e0ff;
      }
    </style>
  </defs>
  <g id="Camada_1" data-name="Camada 1">
    <g>
      <path class="cls-1" d="m1079.01,783.96c-8.29,19.11-22.81,25.6-43.49,25.57-331.19-.4-662.37-.27-993.56-.36-6.25,0-12.79-.17-18.68-1.96-15.58-4.72-25.03-20.14-23.02-35.92,2.01-15.77,15.1-28.18,31.16-29.36,3.84-.28,7.72-.11,11.59-.12,330.84,0,661.67.12,992.51-.29,20.72-.03,35.18,6.52,43.49,25.58v16.86Z"/>
      <path class="cls-1" d="m764.49,673.73c0-4.02,0-7.46,0-10.89,0-200.45-.02-400.9.02-601.34,0-32.53,16.77-54.64,45.76-60.4,4.43-.88,9.06-1.01,13.6-1.02,50.2-.07,100.4-.1,150.6-.02,35.69.06,59.65,23.5,59.68,59.31.15,202.2.08,404.41.06,606.61,0,2.39-.23,4.77-.38,7.77h-269.34Z"/>
      <path class="cls-1" d="m674.4,673.92h-269.74v-11.18c0-140.41-.01-280.81,0-421.21,0-38.54,23.01-61.74,61.42-61.82,49.49-.1,98.99-.18,148.48.03,36.36.15,59.8,23.85,59.81,60.24.05,141.46.02,282.92.02,424.37,0,2.79,0,5.58,0,9.58Z"/>
      <path class="cls-2" d="m44.83,673.77c0-4.15,0-7.58,0-11.02,0-80.03-.03-160.07.01-240.1.02-40.19,22.45-62.74,62.42-62.79,48.79-.05,97.59-.08,146.38,0,38.36.07,60.85,22.49,60.9,60.81.1,81.09.04,162.17.01,243.26,0,3.08-.29,6.17-.47,9.82H44.83Z"/>
    </g>
  </g>
</svg>