<?xml version="1.0" encoding="UTF-8"?>
<svg id="Camada_1" data-name="Camada 1" xmlns="http://www.w3.org/2000/svg" viewBox="0 0 1080 1080">
  <defs>
    <style>
      .cls-1 {
        fill: #27e0ff;
      }

      .cls-2 {
        fill: #0524dd;
      }
    </style>
  </defs>
  <path class="cls-1" d="M497.49,1080.69c-34.49-6.77-69.59-11.33-103.37-20.67C184.89,1002.14,30.69,822.26,4.13,606.75-31.35,318.83,165.3,55.48,452.15,6.76c290.75-49.38,573.27,152.2,620.54,442.74,47,288.88-136.99,559.08-422.38,619.8-23.31,4.96-47.11,7.64-70.68,11.38h-82.13Zm-96.47-344.95c18.61,.47,32.35-8.72,44.88-21.3,82.05-82.29,164.28-164.4,246.43-246.59,10.07-10.07,20.69-19.68,29.89-30.5,26.76-31.47,12.45-79.43-27.1-90.62-23.66-6.7-43.06,1.4-60.19,18.62-89.59,90.05-179.55,179.75-269.36,269.58-2.82,2.82-5.73,5.59-8.18,8.71-14.67,18.76-17.74,39.23-7.14,60.73,10.25,20.77,27.66,30.97,50.76,31.37Zm254.96-130.96c-41.5,.1-74.81,33.59-74.68,75.08,.13,41.2,34.24,75.22,75.22,75.02,41.28-.21,74.58-34.02,74.43-75.58-.15-41.82-33.16-74.62-74.98-74.52Zm-232.99-129.25c41.89,.37,75.23-32.07,75.76-73.74,.53-41.48-32.31-75.33-73.83-76.09-41.1-.75-75.21,32.68-75.67,74.16-.46,41.87,32.12,75.3,73.74,75.68Z"/>
  <path class="cls-2" d="M401.03,735.73c-23.1-.4-40.51-10.59-50.76-31.37-10.6-21.49-7.53-41.97,7.14-60.73,2.44-3.13,5.36-5.9,8.18-8.71,89.81-89.83,179.77-179.53,269.36-269.58,17.13-17.22,36.53-25.32,60.19-18.62,39.55,11.19,53.86,59.16,27.1,90.62-9.2,10.82-19.82,20.43-29.89,30.5-82.15,82.19-164.38,164.3-246.43,246.59-12.54,12.57-26.28,21.77-44.88,21.3Z"/>
  <path class="cls-2" d="M655.99,604.78c41.82-.1,74.82,32.7,74.98,74.52,.15,41.56-33.15,75.37-74.43,75.58-40.98,.21-75.1-33.81-75.22-75.02-.13-41.5,33.18-74.98,74.68-75.08Z"/>
  <path class="cls-2" d="M423,475.53c-41.62-.37-74.2-33.8-73.74-75.68,.45-41.48,34.57-74.91,75.67-74.16,41.52,.76,74.37,34.61,73.83,76.09-.53,41.67-33.87,74.12-75.76,73.74Z"/>
</svg>