<?xml version="1.0" encoding="UTF-8"?>
<svg id="Camada_1" data-name="Camada 1" xmlns="http://www.w3.org/2000/svg" viewBox="0 0 1080 1080">
  <defs>
    <style>
      .cls-1 {
        fill: #27e0ff;
      }

      .cls-2 {
        fill: #0524dd;
      }
    </style>
  </defs>
  <path class="cls-2" d="M550.39,18.41c142.12,57.86,284.25,115.73,426.37,173.6,17.57,7.15,35.26,14.04,52.66,21.59,25.69,11.14,39.09,30.93,39.35,59.05,.24,26.26,.24,52.52,0,78.78-.33,35.45-26.75,62.04-62.26,62.85-11.74,.27-23.5,.08-35.24,.08-297.17,0-594.34,0-891.51,0-36.51,0-62.77-20.01-67.64-52.63-1.72-11.51-.79-23.44-.86-35.18-.1-17.97-.12-35.94,0-53.91,.19-27.86,14.35-48.74,40.35-59.39,81.72-33.46,163.47-66.84,245.19-100.28,71.51-29.26,142.99-58.57,214.51-87.8,6.03-2.46,12.23-4.51,18.35-6.74,6.91,0,13.82,0,20.73,0Zm-41.46,198.65c0,11.03-.22,22.06,.05,33.09,.43,17.58,13.82,31.14,30.62,31.4,17.14,.27,31.17-13.52,31.43-31.62,.31-22.05,.38-44.12-.02-66.17-.32-17.65-14.01-30.74-31.1-30.69-17.04,.05-30.44,13.25-30.92,30.9-.3,11.02-.06,22.06-.05,33.09Z"/>
  <path class="cls-2" d="M540,883.02c153.41,0,306.82,0,460.22,0,43.59,0,68.56,25.09,68.6,68.89,.02,19.35,0,38.7,0,58.05-.02,45.21-24.68,70.03-69.6,70.03-161.35,0-322.71,0-484.06,0-145.12,0-290.23,0-435.35,0-43.45,0-68.56-25.27-68.59-68.96-.01-20.04-.02-40.08,0-60.12,.05-42.35,25.42-67.88,67.52-67.88,153.75-.01,307.51,0,461.26,0Z"/>
  <path class="cls-1" d="M304.97,820.3H111.31V477.39h193.65v342.92Z"/>
  <path class="cls-1" d="M443.32,477h193.59v343.29h-193.59V477Z"/>
  <path class="cls-1" d="M968.57,820.28h-193.7V477.37h193.7v342.91Z"/>
  <path class="cls-1" d="M508.93,217.06c0-11.03-.25-22.07,.06-33.09,.49-17.65,13.88-30.85,30.92-30.9,17.09-.05,30.78,13.04,31.1,30.69,.4,22.05,.33,44.12,.02,66.17-.25,18.09-14.29,31.88-31.43,31.62-16.8-.26-30.19-13.82-30.62-31.4-.27-11.02-.05-22.06-.05-33.09Z"/>
</svg>