<?xml version="1.0" encoding="UTF-8"?>
<svg id="Camada_1" data-name="Camada 1" xmlns="http://www.w3.org/2000/svg" viewBox="0 0 1080 1080">
  <defs>
    <style>
      .cls-1 {
        fill: #27e0ff;
      }

      .cls-2 {
        fill: #0524dd;
      }
    </style>
  </defs>
  <path class="cls-1" d="M1013.25,649.47H58.71L.46,916.67c-8.81,40.42,21.98,78.65,63.35,78.65H1015.13c42.04,0,72.96-39.38,62.99-80.22l-64.87-265.63Z"/>
  <path class="cls-1" d="M1017.95,764.23h-78.56V268.94c0-58.64-32.86-108.18-71.75-108.18H208.94c-38.89,0-71.75,49.54-71.75,108.18v495.29H58.63V268.94c0-47.86,14.35-93.28,40.42-127.9,28.16-37.4,68.21-58.84,109.89-58.84H867.64c41.68,0,81.73,21.45,109.89,58.84,26.07,34.62,40.42,80.04,40.42,127.9v495.29Z"/>
  <path class="cls-2" d="M657.33,903.18h-233.64c-21.69,0-39.28-17.59-39.28-39.28s17.59-39.28,39.28-39.28h233.64c21.69,0,39.28,17.59,39.28,39.28s-17.59,39.28-39.28,39.28Z"/>
</svg>