<svg width="134" height="30" viewBox="0 0 134 30" fill="none" xmlns="http://www.w3.org/2000/svg">
<g clip-path="url(#clip0_1625_280)">
<path fill-rule="evenodd" clip-rule="evenodd" d="M40.992 9.95539L37.5226 18.5012H42.323L41.0079 9.9188L40.9938 9.95539H40.992ZM22.6064 29.5732L36.8421 0.608154H47.603L53.6057 29.5715H44.1565L43.4619 25.7107H34.2946L32.1862 29.5715H22.6064V29.5732ZM58.08 29.5732L62.2035 0.608154H71.7251L67.6016 29.5715H58.08V29.5732ZM121.401 9.9188L117.916 18.5012H122.716L121.401 9.9188ZM103.001 29.5732L117.237 0.608154H127.998L134 29.5715H124.551L123.857 25.7107H114.689L112.581 29.5715H103.001V29.5732Z" fill="white"/>
<path fill-rule="evenodd" clip-rule="evenodd" d="M81.9531 16.0288H93.8828L102.056 29.4094H90.1261L81.9531 16.0288Z" fill="white"/>
<path fill-rule="evenodd" clip-rule="evenodd" d="M83.1943 13.9747H95.5242L106.232 0.649902H93.9024L83.1943 13.9747Z" fill="#B1B1B1"/>
<path fill-rule="evenodd" clip-rule="evenodd" d="M70.8623 29.4912H83.194L93.902 16.0044H81.5721L70.8623 29.4912Z" fill="#B1B1B1"/>
<path fill-rule="evenodd" clip-rule="evenodd" d="M75.3086 0.487793H86.817L94.7025 13.9746H83.1942L75.3086 0.487793Z" fill="white"/>
<path fill-rule="evenodd" clip-rule="evenodd" d="M22.8893 1.64641L21.9743 10.1643C18.4643 5.38007 10.3319 8.68166 9.69377 14.6419C8.88282 22.2068 16.7102 23.9717 20.9694 19.515L20.051 28.0521C18.7799 28.6706 17.537 29.148 16.31 29.4738C15.0901 29.7979 13.8666 29.9704 12.652 29.9947C11.127 30.0261 9.74489 29.8693 8.4985 29.5226C7.25211 29.1828 6.1256 28.641 5.12955 27.911C3.2062 26.5207 1.81525 24.754 0.958469 22.6041C0.101687 20.4472 -0.182144 18.0132 0.110501 15.2935C0.34497 13.107 0.903818 11.1139 1.79057 9.30713C2.67027 7.50041 3.89021 5.8592 5.44335 4.36956C6.91187 2.94962 8.50908 1.87813 10.2385 1.15161C11.9627 0.430309 13.8437 0.0452696 15.8763 0.00345532C17.091 -0.0226786 18.281 0.0992797 19.4375 0.374557C20.5992 0.649834 21.7451 1.07843 22.8893 1.64641Z" fill="white"/>
</g>
<defs>
<clipPath id="clip0_1625_280">
<rect width="134" height="30" fill="white"/>
</clipPath>
</defs>
</svg>
