<svg width="57" height="56" viewBox="0 0 57 56" fill="none" xmlns="http://www.w3.org/2000/svg">
<g clip-path="url(#clip0_1625_289)">
<path d="M30.692 40.0276C30.2219 40.0458 29.7818 40.0823 29.3831 40.1441C27.6754 40.4024 26.5322 41.0819 26.5322 42.3988C26.5322 43.5753 27.3725 44.1945 28.59 44.1945C29.989 44.1945 31.0293 43.3353 31.4223 42.4241C31.4323 42.4016 31.4408 42.3764 31.4508 42.3539C31.4594 42.3328 31.488 42.2346 31.4951 42.2051C31.548 41.9762 31.5695 41.7221 31.5695 41.5003V40.0178C31.2679 40.0136 30.9764 40.0178 30.6935 40.0262L30.692 40.0276Z" fill="white"/>
<path d="M47.5 0H9.50286C4.24985 0 0 4.18371 0 9.33754V46.6723C0 51.8247 4.24985 56 9.50286 56H47.4986C52.7502 56 56.9986 51.8247 56.9986 46.6723V9.33754C56.9986 4.18371 52.7502 0 47.4986 0H47.5ZM9.18133 46.6667H4.75V27.9958H9.18133V46.6667ZM46.2253 27.9944H50.4123L46.6469 31.7667H43.556L46.2268 27.9944H46.2253ZM20.4361 46.5979C19.8517 46.8211 19.3372 47.012 18.0354 47.012C16.5193 47.012 15.266 46.4547 14.5544 45.7036C13.7227 44.8444 13.3397 43.4306 13.3397 41.5479V35.8592H11.3205V32.6681H13.3397V27.9958H17.6424V32.6681H20.3904V35.8592H17.6424V40.8165C17.6424 42.5321 17.9983 43.4699 19.533 43.4699C19.9774 43.4699 20.3175 43.4039 20.4376 43.3478V46.5979H20.4361ZM35.6207 46.6681H32.0139L31.5295 45.2136H31.4823C30.5149 46.3395 28.9201 47.012 27.0324 47.012C23.8629 47.012 22.1452 44.8626 22.1452 42.7343C22.1452 39.1163 25.6934 37.2842 31.438 37.3081V37.1578C31.438 36.5022 30.8907 35.2078 28.2971 35.2148C26.7423 35.2148 25.0218 35.7469 24.0229 36.3408L23.1913 33.589C24.2916 32.9601 26.3193 32.2665 29.0359 32.2665C33.9388 32.2665 35.6207 35.0281 35.6207 38.3919V46.6681ZM52.25 46.6681H48.7404L48.1831 44.6815C48.0387 44.8935 47.8358 45.1336 47.5772 45.4017C47.3199 45.6713 46.9999 45.9212 46.6183 46.15C46.2382 46.3817 45.7823 46.5782 45.2565 46.7411C44.7292 46.9053 44.1261 46.9868 43.4431 46.9868C42.66 46.9868 41.9412 46.8716 41.2924 46.6414C40.6437 46.4111 40.0849 46.0461 39.6191 45.5463C39.1532 45.0493 38.7874 44.4134 38.5202 43.6468C38.2515 42.8803 38.1172 41.9481 38.1172 40.853V32.6709H42.4428V40.0766C42.4428 42.2597 43.2359 43.5668 45.0435 43.5668C46.4826 43.5668 47.3571 42.6135 47.7115 41.7726C47.8187 41.5072 47.8601 41.2138 47.8601 40.8839V32.6821H52.2471V46.6723L52.25 46.6681Z" fill="white"/>
</g>
<defs>
<clipPath id="clip0_1625_289">
<rect width="57" height="56" fill="white"/>
</clipPath>
</defs>
</svg>
