<svg width="156" height="33" viewBox="0 0 156 33" fill="none" xmlns="http://www.w3.org/2000/svg">
<path d="M76.0703 15.0689C78.3531 13.8858 79.7353 11.458 79.7353 8.51431C79.7353 6.31637 79.0741 4.51933 77.7804 3.17084C76.5206 1.76629 74.8599 1.0542 72.8504 1.0542H64.5755C64.5026 1.0542 64.4453 1.11868 64.4453 1.19437V31.803C64.4453 31.8815 64.5026 31.9432 64.5755 31.9432H73.9697C76.1432 31.9432 77.9887 31.1161 79.462 29.4873C80.9431 27.8444 81.6953 25.8427 81.6953 23.5383C81.6953 19.3695 79.5192 16.1482 76.0755 15.0689M65.5021 2.19522H72.8478C76.2785 2.19522 78.6759 4.79127 78.6759 8.51431C78.6759 10.3058 78.124 11.8084 77.036 12.9803C75.9766 14.1213 74.5684 14.7044 72.8504 14.7044H65.5047V2.19522H65.5021ZM78.6707 28.6995C77.4108 30.0957 75.8282 30.8021 73.9671 30.8021H65.5021V15.8399H73.6078C75.672 15.8399 77.3301 16.5435 78.6759 17.9929C79.9774 19.3919 80.6359 21.259 80.6359 23.5355C80.6359 25.5848 79.993 27.2725 78.6733 28.6967" fill="white"/>
<path d="M19.5433 22.0607C18.5333 22.9971 17.3594 23.4653 16.0266 23.4653C14.3139 23.4653 12.9291 22.8233 11.8644 21.5393C10.7972 20.2553 10.2662 18.576 10.2662 16.4986C10.2662 14.4212 10.7972 12.7223 11.854 11.4383C12.9108 10.1543 14.3034 9.50947 16.0266 9.50947C17.2813 9.50947 18.4136 9.93561 19.4209 10.7851C20.4309 11.6345 21.1467 12.7531 21.5632 14.1493H31.4051C30.8923 9.92439 29.2212 6.51253 26.3944 3.90808C23.5675 1.30082 20.0977 0 15.9876 0C12.9421 0 10.2011 0.706482 7.76213 2.12225C5.32312 3.53521 3.42033 5.50327 2.05376 8.02081C0.681984 10.5384 0 13.3643 0 16.4986C0 19.6329 0.681984 22.4588 2.05116 24.9792C3.42033 27.4967 5.32312 29.462 7.75952 30.8778C10.1985 32.2935 12.9395 33 15.985 33C20.1628 33 23.6794 31.6487 26.5349 28.9517C29.393 26.252 31.0485 22.7252 31.5066 18.3713H21.5215C21.2118 19.8964 20.5506 21.1244 19.5407 22.0607" fill="white"/>
<path d="M54.9809 13.4821C53.0391 11.5141 50.5376 10.5328 47.4713 10.5328C47.1563 10.5328 46.7294 10.5497 46.188 10.5777L51.6178 1.0542H41.9217L37.3326 9.12828C36.0337 11.4159 35.0758 13.5242 34.4563 15.453C33.8368 17.3818 33.5244 19.2994 33.5244 21.203C33.5244 24.6905 34.6541 27.5276 36.9161 29.7172C39.1781 31.9067 42.1117 33.0001 45.7194 33.0001C49.3272 33.0001 52.3128 31.9095 54.5462 29.7284C56.777 27.5473 57.8962 24.6737 57.8962 21.1104C57.8962 17.9901 56.9253 15.4502 54.9861 13.4821M48.4396 24.0345C47.7394 24.7886 46.8361 25.1643 45.722 25.1643C44.608 25.1643 43.7047 24.7886 43.0071 24.0345C42.3069 23.2832 41.9581 22.3075 41.9581 21.1104C41.9581 19.9133 42.3069 18.9293 43.0071 18.1584C43.7047 17.3902 44.6106 17.0061 45.722 17.0061C46.8335 17.0061 47.7394 17.3902 48.4396 18.1584C49.1372 18.9265 49.4886 19.9105 49.4886 21.1104C49.4886 22.3103 49.1398 23.2832 48.4396 24.0345Z" fill="white"/>
<path d="M155.977 31.7245L144.95 15.0801L155.937 1.28689C155.956 1.26446 155.966 1.23082 155.966 1.19718C155.966 1.11868 155.909 1.057 155.836 1.057H154.8C154.761 1.057 154.724 1.07663 154.701 1.10747L139.596 20.0703V1.19437C139.596 1.11588 139.539 1.0542 139.466 1.0542H138.682C138.609 1.0542 138.555 1.11868 138.555 1.19437V31.8058C138.555 31.8843 138.612 31.946 138.682 31.946H139.466C139.539 31.946 139.596 31.8843 139.596 31.8058V21.7665L144.247 15.9828L154.777 31.8843C154.797 31.9207 154.839 31.9432 154.883 31.9432H155.867C155.94 31.9432 155.997 31.8815 155.997 31.803C155.997 31.7722 155.987 31.7441 155.974 31.7217" fill="white"/>
<path d="M131.943 1.05407H131.144C131.071 1.05407 131.014 1.11855 131.014 1.19425V29.218L112.207 1.11014C112.186 1.0765 112.147 1.05127 112.103 1.05127H111.595C111.522 1.05127 111.468 1.11575 111.468 1.19144V31.8001C111.468 31.8786 111.525 31.9402 111.595 31.9402H112.394C112.467 31.9402 112.525 31.8758 112.525 31.8001V3.5604L131.477 31.887C131.5 31.9234 131.537 31.9458 131.581 31.9458H131.94C132.013 31.9458 132.07 31.8814 132.07 31.8057V1.19425C132.07 1.11575 132.013 1.05407 131.94 1.05407" fill="white"/>
<path d="M106.754 31.7552L95.9749 1.14379C95.9593 1.09332 95.9099 1.05127 95.8526 1.05127H95.3476C95.2903 1.05127 95.2435 1.08772 95.2253 1.14098L84.4463 31.7524C84.4411 31.7692 84.4385 31.786 84.4385 31.8029C84.4385 31.8814 84.4957 31.943 84.566 31.943H85.3964C85.4536 31.943 85.5005 31.9066 85.5187 31.8533L88.8375 22.3831H102.36L105.679 31.8477C105.697 31.9038 105.744 31.9402 105.801 31.9402H106.632C106.704 31.9402 106.762 31.8758 106.762 31.8001C106.762 31.7832 106.759 31.7664 106.751 31.7524M89.2228 21.2421L95.5975 3.25202L101.972 21.2421H89.2228Z" fill="white"/>
</svg>
