<svg width="173" height="32" viewBox="0 0 173 32" fill="none" xmlns="http://www.w3.org/2000/svg">
<g clip-path="url(#clip0_1625_263)">
<path d="M17.7795 0C18.2551 0.0048314 18.729 0.027378 19.1996 0.10468C20.2712 0.265727 21.3825 0.521792 22.3981 0.89542C25.9978 2.21922 28.7884 4.46744 30.836 7.61912C31.1183 8.05234 31.0869 8.26009 30.6196 8.5387C28.5374 9.77876 26.4717 11.0478 24.4208 12.3378C23.9552 12.6309 23.7405 12.6019 23.3987 12.1445C20.481 8.22949 14.8617 7.76246 11.5741 11.1444C11.2191 11.5084 10.9235 11.9368 10.6511 12.3652C10.3935 12.771 10.2036 13.2171 9.99881 13.6133C7.97438 12.3909 5.99453 11.0881 3.909 9.97202C2.31389 9.11847 2.30398 7.48384 3.26336 6.32431C5.1045 4.09864 7.37332 2.4157 10.0682 1.2771C12.3684 0.302768 14.7858 0.0161047 17.2759 0C17.4443 0 17.6127 0 17.7795 0Z" fill="white"/>
<path d="M136.237 15.3251C134.123 18.9084 131.995 22.4853 129.909 26.0846C129.604 26.6113 129.24 26.6821 128.682 26.7627C127.173 26.9801 126.418 26.3359 125.723 25.0733C123.927 21.8137 121.952 18.6475 119.934 15.2526C119.903 15.673 119.873 15.8904 119.873 16.1078C119.871 20.8538 119.853 25.5999 119.891 30.3459C119.898 31.1319 119.65 31.3267 118.871 31.3106C116.536 31.2623 114.199 31.2784 111.864 31.3042C111.3 31.3106 111.111 31.1592 111.111 30.5891C111.128 20.8265 111.128 11.0654 111.111 1.30277C111.111 0.769701 111.278 0.618317 111.813 0.624758C114.204 0.647305 116.595 0.661799 118.984 0.616706C119.607 0.605433 119.79 0.97584 120.01 1.35913C122.47 5.67035 124.922 9.98802 127.378 14.3025C127.601 14.6922 127.832 15.0787 128.132 15.5924C128.742 14.544 129.293 13.6067 129.832 12.6646C132.013 8.84137 134.196 5.01973 136.357 1.18681C136.587 0.780974 136.846 0.621537 137.323 0.624758C139.686 0.645694 142.049 0.648915 144.412 0.623148C144.967 0.616706 145.172 0.743933 145.172 1.32531C145.155 11.088 145.154 20.849 145.172 30.6117C145.172 31.2108 144.937 31.3074 144.399 31.3026C141.981 31.28 139.562 31.2687 137.145 31.309C136.496 31.3203 136.382 31.1013 136.385 30.5295C136.407 25.7545 136.399 20.9811 136.399 16.206C136.399 15.921 136.399 15.6359 136.399 15.3493L136.237 15.3219V15.3251Z" fill="#B1B1B1"/>
<path d="M92.3134 9.33749C94.0389 7.11021 96.1327 5.693 98.9993 5.56899C103.869 5.35802 107.419 8.17634 108.344 12.9401C108.682 14.6842 108.603 16.4445 108.606 18.2031C108.611 22.3066 108.596 26.4117 108.629 30.5151C108.634 31.1625 108.436 31.3123 107.797 31.3027C105.406 31.2656 103.015 31.2672 100.624 31.3027C100.005 31.3123 99.8381 31.1448 99.8398 30.5441C99.8645 25.7949 99.7605 21.044 99.886 16.2995C99.9686 13.1688 97.0772 12.1204 94.7969 13.2896C93.2216 14.098 92.3068 15.3333 92.3101 17.1289C92.3183 21.5835 92.3002 26.0397 92.3266 30.4942C92.3299 31.1078 92.1895 31.3172 91.5158 31.3059C89.0984 31.264 86.6793 31.2785 84.2602 31.2994C83.75 31.3043 83.5469 31.206 83.5469 30.6456C83.565 20.8539 83.5634 11.0639 83.5502 1.27227C83.5502 0.785904 83.6889 0.63291 84.1991 0.637741C86.7008 0.661898 89.2008 0.665119 91.7024 0.63613C92.2506 0.629689 92.3249 0.839049 92.3216 1.2932C92.3035 3.72018 92.3134 6.14876 92.3134 8.57574V9.34071V9.33749Z" fill="white"/>
<path d="M163.773 21.4014C161.136 21.4014 158.497 21.4175 155.86 21.3901C155.185 21.3837 155.112 21.5995 155.37 22.1293C156.355 24.1553 158.21 24.7673 160.294 24.9251C163.053 25.1345 165.556 24.3099 167.866 22.9088C168.406 22.5819 168.644 22.6463 168.933 23.1617C169.77 24.661 170.622 26.1523 171.522 27.6162C171.826 28.109 171.79 28.3586 171.311 28.7113C169.144 30.3105 166.717 31.3187 164.044 31.731C159.826 32.3816 155.82 31.8485 152.242 29.428C149.11 27.3086 147.425 24.3228 146.943 20.6799C146.504 17.3495 147.024 14.1752 148.895 11.3183C151.568 7.23734 155.588 5.57212 160.432 5.56085C163.788 5.55279 166.864 6.43694 169.346 8.70609C172.581 11.6613 173.467 15.3831 172.777 19.5317C172.465 21.4095 172.43 21.4046 170.447 21.4046C168.221 21.4046 165.995 21.4046 163.77 21.4046L163.773 21.4014ZM159.666 16.0981C160.682 16.0981 161.699 16.1223 162.714 16.0885C163.216 16.0724 163.948 16.3606 164.174 15.9339C164.478 15.3638 164.05 14.7083 163.741 14.1414C163.652 13.9788 163.532 13.8258 163.401 13.6921C162.136 12.3908 160.546 12.175 158.854 12.5181C157.168 12.8595 155.913 13.7742 155.282 15.3944C155.082 15.9065 155.181 16.1223 155.794 16.1078C157.084 16.0772 158.375 16.0981 159.666 16.0981Z" fill="#B1B1B1"/>
<path d="M49.1794 28.9015C45.9297 31.8262 42.3118 32.6636 38.2844 31.4863C35.327 30.6231 33.504 28.6149 32.9624 25.6403C32.4505 22.8269 33.0367 20.3049 35.474 18.4673C37.4935 16.9454 39.901 16.5267 42.3812 16.4575C44.1942 16.4059 46.009 16.4091 47.822 16.4494C48.4809 16.4639 48.6064 16.2449 48.5403 15.6651C48.3719 14.1899 47.3349 13.1576 45.687 12.9048C43.76 12.6084 42.0526 13.2414 40.4211 14.1223C39.7045 14.5104 39.0291 14.979 38.362 15.4461C38.0763 15.6474 37.9294 15.6522 37.7164 15.3591C36.5473 13.7454 35.3633 12.143 34.1728 10.5438C33.9994 10.3103 33.9466 10.146 34.2091 9.94472C39.044 6.24387 44.3742 4.36123 50.4805 6.29701C54.6037 7.60471 56.6513 10.7177 57.2044 14.8051C57.3035 15.5427 57.32 16.2948 57.3217 17.0404C57.3316 21.5498 57.3184 26.0591 57.3382 30.5684C57.3398 31.1095 57.2143 31.3076 56.6149 31.2979C54.361 31.2641 52.107 31.2705 49.8531 31.2947C49.3197 31.2995 49.1117 31.1626 49.1662 30.6199C49.219 30.0997 49.1777 29.5715 49.1777 28.9015H49.1794ZM45.8273 21.5997C45.0975 21.6512 44.214 21.495 43.3488 21.6883C42.3812 21.9057 41.8115 22.5853 41.7421 23.5628C41.6711 24.5726 42.112 25.3311 42.9839 25.6983C45.6325 26.8128 48.5767 24.9382 48.5684 22.1553C48.5684 21.7639 48.4875 21.5691 48.0268 21.5916C47.3432 21.6254 46.6562 21.6013 45.8273 21.6013V21.5997Z" fill="white"/>
<path d="M70.799 5.5464C74.3492 5.61404 77.6434 6.40961 80.4192 8.71741C80.8601 9.0846 80.941 9.3165 80.5348 9.79159C79.3393 11.1846 78.1949 12.6196 77.0638 14.0626C76.7501 14.4636 76.5569 14.528 76.116 14.1962C74.6051 13.0592 72.9076 12.3345 70.9592 12.3538C70.2376 12.3603 69.3129 12.2991 69.1527 13.2267C69.0041 14.0819 69.8809 14.259 70.4886 14.5087C72.3842 15.2849 74.3607 15.8743 76.2052 16.7698C76.9648 17.1385 77.7128 17.5396 78.4245 17.9889C83.4129 21.1341 82.219 26.8287 78.9958 29.3652C76.9978 30.937 74.6811 31.6875 72.1728 31.892C67.3148 32.2866 62.9787 31.1094 59.3839 27.7596C58.91 27.3167 58.8654 27.0365 59.303 26.5405C60.444 25.2424 61.552 23.9154 62.6137 22.5546C63.0282 22.0231 63.2577 22.0972 63.7316 22.4821C65.7362 24.1054 67.9588 25.2601 70.6718 25.2102C71.1705 25.2005 71.6576 25.1329 72.1183 24.9364C72.5229 24.7641 72.8135 24.4791 72.83 24.0346C72.8449 23.6191 72.584 23.3227 72.2125 23.1633C71.4099 22.8171 70.5992 22.4901 69.7835 22.1777C67.6385 21.358 65.4572 20.6107 63.545 19.3143C60.302 17.116 59.2386 13.5472 60.908 10.2586C62.2059 7.70121 64.5589 6.52073 67.2818 5.9007C68.4344 5.6382 69.6117 5.52707 70.8006 5.54479L70.799 5.5464Z" fill="white"/>
<path d="M10.0344 18.2644C10.9987 20.7429 12.7408 22.3389 15.3679 22.8494C18.639 23.4839 21.3256 22.4468 23.3302 19.8636C23.7381 19.337 24.0006 19.3064 24.5472 19.6542C26.5419 20.9249 28.5664 22.1537 30.5957 23.376C31.0168 23.6289 31.1473 23.7964 30.8517 24.2811C24.9914 33.902 10.1565 34.6429 3.3732 25.642C3.1123 25.2957 2.88113 24.9366 2.73582 24.5291C2.36924 23.492 2.6417 22.7029 3.59612 22.1263C5.71633 20.846 7.84479 19.5785 10.0344 18.266V18.2644Z" fill="white"/>
<path d="M8.56504 17.7764C6.84774 18.8265 5.11228 19.8491 3.37021 20.8573C2.6354 21.284 1.9072 21.6963 1.5142 22.6207C1.42998 22.4693 1.35238 22.318 1.27972 22.1666C0.845441 21.1713 0.515191 20.1229 0.298877 19.0358C0.102378 18.0534 0 17.0388 0 16.0001C0 14.6038 0.18494 13.251 0.535006 11.961C0.782693 11.0415 1.11294 10.1557 1.51915 9.30859C2.56274 10.9803 4.38738 11.5037 5.85534 12.4844C6.73546 13.0723 7.68988 13.5522 8.58321 14.1239C10.0891 15.087 10.0842 16.8472 8.56504 17.7764Z" fill="#B1B1B1"/>
</g>
<defs>
<clipPath id="clip0_1625_263">
<rect width="173" height="32" fill="white"/>
</clipPath>
</defs>
</svg>
