<svg width="192" height="37" viewBox="0 0 192 37" fill="none" xmlns="http://www.w3.org/2000/svg">
<g clip-path="url(#clip0_1625_249)">
<path fill-rule="evenodd" clip-rule="evenodd" d="M88.2079 9.36837C88.2079 8.85659 87.7922 8.4218 87.2622 8.44445C84.7495 8.62561 82.753 9.49972 81.2751 11.0736C79.6053 12.8512 78.7715 15.3195 78.7715 18.4808V27.4279C78.7715 27.9397 79.1918 28.3541 79.7126 28.3541H80.4504C80.9713 28.3541 81.3916 27.9397 81.3916 27.4279V18.4808C81.3893 16.0555 81.9741 14.1986 83.1459 12.9123C84.135 11.8254 85.5102 11.2026 87.2622 11.0351C87.7899 10.9898 88.2079 10.6546 88.2079 10.093V9.36837Z" fill="white"/>
<path fill-rule="evenodd" clip-rule="evenodd" d="M91.3514 17.1559C91.5502 15.1564 92.2903 13.5554 93.5718 12.5069C94.8533 11.4584 96.6259 10.9353 98.8919 10.9353C101.158 10.9353 102.931 11.4584 104.212 12.5069C105.494 13.5554 106.225 15.1564 106.448 17.1559H91.3514ZM98.7457 26.0782C96.2581 26.0782 94.369 25.4396 93.0761 24.1601C92.0276 23.123 91.4131 21.6918 91.2144 19.8802H107.531C108.038 19.8802 108.315 19.776 108.582 19.5382C108.986 19.1759 108.966 18.4943 108.966 18.4943C108.966 15.3217 108.07 12.9032 106.279 11.1187C104.488 9.33656 101.978 8.44434 98.7457 8.44434C95.5134 8.44434 93.0509 9.33203 91.2121 11.1187C88.2768 13.972 88.5257 18.5962 88.5257 18.6007C88.5212 21.805 89.4212 24.219 91.2075 26.008C94.1131 28.9201 98.7229 28.6597 98.7297 28.6597C101.962 28.6597 104.498 27.772 106.288 26.0034C107.259 25.0433 107.766 24.3956 108.21 23.0165C108.523 22.0383 107.556 22.1039 107.556 22.1039H106.343C105.795 22.0994 105.596 22.4662 105.315 23.0052C103.92 25.4214 101.231 26.0782 98.7457 26.0782Z" fill="white"/>
<path fill-rule="evenodd" clip-rule="evenodd" d="M126.857 23.9405C125.575 25.2245 123.7 25.8676 121.233 25.8676C118.766 25.8676 116.922 25.2268 115.627 23.9405C114.332 22.6565 113.685 20.7634 113.685 18.3404C113.685 15.9173 114.332 14.1148 115.627 12.8421C116.922 11.5694 118.791 10.9331 121.233 10.9331C123.675 10.9331 125.575 11.5694 126.857 12.8421C128.14 14.1148 128.782 15.8924 128.782 18.3404C128.782 20.7883 128.14 22.6543 126.857 23.9405ZM130.671 0.668036H129.936C129.417 0.668036 128.995 1.08244 128.995 1.59196C128.995 1.59875 128.997 11.5581 128.997 11.5581C128.161 10.4779 126.946 9.54269 125.662 9.06488C124.378 8.58933 123.017 8.34929 121.372 8.34929C118.158 8.34929 115.654 9.22792 113.859 10.9875C112.066 12.747 111.168 15.1338 111.168 18.3109C111.168 21.488 112.066 23.9564 113.859 25.7159C115.652 27.4754 118.158 28.3541 121.372 28.3541C124.586 28.3541 127.128 27.4754 128.922 25.7159C130.717 23.9564 131.612 21.4631 131.612 18.3902V1.66895C131.612 1.08018 131.192 0.665771 130.671 0.665771V0.668036Z" fill="white"/>
<path fill-rule="evenodd" clip-rule="evenodd" d="M59.584 18.5556C59.584 21.7259 60.4726 24.2033 62.2498 25.9854C64.027 27.7676 66.5214 28.6666 69.7308 28.6666C72.6822 28.6666 74.6101 27.8446 75.5809 27.2015C76.3325 26.7486 76.2502 26.221 76.2502 25.6299V25.1612C76.2502 23.9542 75.2589 24.4524 74.7129 24.749C73.5182 25.3808 72.319 26.076 69.7331 26.076C67.1473 26.076 65.3861 25.4306 64.1023 24.1399C62.8186 22.8491 62.1767 20.9876 62.1767 18.5533C62.1767 16.1189 62.8186 14.2575 64.1023 12.9667C65.3861 11.6759 67.2638 11.0306 69.7331 11.0306C71.4464 11.0306 72.8146 11.3408 74.0093 11.9726C74.5439 12.2285 75.5467 12.7289 75.5467 11.6035V11.0577C75.5467 10.4667 75.6312 10.0047 74.8728 9.57447C73.2875 8.78641 71.9443 8.43994 69.7308 8.43994C66.5214 8.43994 64.027 9.33896 62.2498 11.1211C60.4726 12.9033 59.584 15.3807 59.584 18.551V18.5556Z" fill="white"/>
<path fill-rule="evenodd" clip-rule="evenodd" d="M153.313 27.0113C153.313 26.4474 152.895 26.11 152.365 26.0647C150.609 25.8948 149.231 25.2698 148.24 24.1806C147.066 22.8898 146.479 21.0261 146.479 18.5895V11.2638H150.803C151.324 11.2638 151.746 10.8471 151.746 10.3353V9.60842C151.746 9.09437 151.324 8.67996 150.803 8.67996H146.481V2.52953C146.481 2.01548 146.058 1.60107 145.537 1.60107H144.802C144.281 1.60107 143.859 2.01775 143.859 2.52953V8.67996H141.992C141.471 8.67996 141.049 9.09664 141.049 9.60842V10.3353C141.049 10.8494 141.471 11.2638 141.992 11.2638H143.859V18.5895C143.859 21.7644 144.695 24.2417 146.369 26.0262C147.849 27.6046 149.85 28.4832 152.368 28.6644C152.898 28.6893 153.316 28.2522 153.316 27.7382V27.0113H153.313Z" fill="white"/>
<path fill-rule="evenodd" clip-rule="evenodd" d="M136.997 0.665771H136.288C135.788 0.665771 135.384 1.09377 135.384 1.6214V4.06255C135.384 4.59019 135.788 5.02044 136.288 5.02044H136.997C137.497 5.02044 137.901 4.59245 137.901 4.06255V1.62366C137.901 1.09603 137.497 0.668036 136.997 0.668036V0.665771Z" fill="white"/>
<path fill-rule="evenodd" clip-rule="evenodd" d="M136.997 8.44434H136.288C135.788 8.44434 135.384 8.85648 135.384 9.366V27.1221C135.384 27.6316 135.788 28.0438 136.288 28.0438H136.997C137.497 28.0438 137.901 27.6316 137.901 27.1221V9.366C137.901 8.85648 137.497 8.44434 136.997 8.44434Z" fill="white"/>
<path fill-rule="evenodd" clip-rule="evenodd" d="M169.354 21.6261C169.354 24.7964 167.353 25.8653 162.405 25.8653C158.862 25.8653 156.774 24.7013 156.774 22.2013C156.774 19.4658 158.935 18.3969 163.76 18.3969H169.354V21.6238V21.6261ZM169.285 14.126V16.2048H163.654C157.156 16.2048 154.257 18.0595 154.257 22.2194C154.257 26.0623 157.302 28.354 162.405 28.354C169.055 28.354 171.871 26.3861 171.871 21.7756V14.126C171.871 11.2818 169.913 10.0091 169.913 10.0091C168.936 9.26183 167.691 8.79307 166.174 8.60738C165.24 8.48736 164.461 8.44434 163.499 8.44434C162.537 8.44434 161.806 8.48057 160.927 8.58474C159.317 8.75005 157.994 9.22333 156.964 10.0091C155.669 11.001 155.02 12.3891 155.011 14.126C155.011 14.126 155.04 14.9254 155.924 14.9254H156.639C157.146 14.9254 157.555 14.6016 157.555 14.1011C157.555 12.2533 159.12 11.6532 159.12 11.6532C159.577 11.4335 161.281 10.924 163.483 10.924C165.685 10.924 167.296 11.4358 167.752 11.6532C167.752 11.6532 169.283 12.2283 169.283 14.126H169.285Z" fill="white"/>
<path fill-rule="evenodd" clip-rule="evenodd" d="M182.923 19.3661C187.699 19.3661 189.419 19.6537 189.419 22.3734C189.419 24.8553 186.982 25.9015 183.473 25.9015C180.661 25.9015 178.808 25.5505 177.742 24.656C176.874 23.877 176.933 22.7153 176.933 22.7153C176.933 22.2149 176.522 21.8888 176.017 21.8888H175.3C174.413 21.8888 174.384 22.6904 174.384 22.6904C174.384 25.58 176.325 26.8526 176.325 26.8526C177.865 27.8807 180.206 28.3563 183.473 28.3563C188.581 28.3563 191.998 26.1733 191.998 22.3258C191.998 18.1614 189.44 16.8842 182.934 16.8842C180.154 16.8842 178.818 16.1822 178.818 16.1822C177.193 15.4734 177.285 13.9766 177.285 13.9766C177.285 12.2283 178.818 11.583 178.818 11.583C179.274 11.3633 180.64 10.9285 182.934 10.9285C185.227 10.9285 186.689 11.395 187.144 11.6147C187.144 11.6147 188.578 12.2329 188.684 13.6165C188.72 14.092 189.095 14.3864 189.6 14.3864H190.317C191.221 14.3864 191.203 13.5848 191.203 13.5848C191.203 12.439 190.6 11.0055 189.305 10.0114C188.275 9.22333 186.975 8.77496 185.495 8.58474C184.613 8.47151 183.832 8.44434 182.918 8.44434C181.956 8.44434 181.33 8.48736 180.396 8.60738C178.877 8.79534 177.561 9.32976 176.652 10.0114C176.652 10.0114 174.694 11.2795 174.694 13.9743C174.694 13.9743 174.56 16.3181 176.652 17.8534C176.652 17.8534 178.324 19.3661 182.918 19.3661H182.923Z" fill="white"/>
<path fill-rule="evenodd" clip-rule="evenodd" d="M50.5379 23.9949C50.5379 24.4976 50.3757 24.8803 50.3757 24.8803C47.7213 32.129 40.7748 36.9977 33.0767 36.9977C30.4703 36.9977 27.9895 36.4475 25.7418 35.4647C25.7418 35.4647 22.5643 36.9977 18.4229 36.9977C8.24861 36.9977 0 28.7164 0 18.4989C0 8.28135 8.24861 0 18.4229 0C22.6534 0 25.7418 1.53308 25.7418 1.53308C27.9918 0.548014 30.4703 0 33.0767 0C40.7748 0 47.7213 4.86872 50.3757 12.1174C50.3757 12.1174 50.5379 12.5002 50.5379 13.0029C50.5379 13.3539 50.4602 13.7615 50.1929 14.1419C49.7452 14.7805 48.964 15.1723 48.0754 15.1791H36.0531C34.0543 15.1791 33.2297 12.8579 33.2297 12.8579C31.8294 9.15319 29.118 6.18667 25.7463 4.41808C20.7003 7.07889 17.2465 12.3892 17.2465 18.4989C17.2465 24.6085 20.7003 29.9188 25.7463 32.5797C29.118 30.8088 31.8272 27.8445 33.2297 24.1398C33.2297 24.1398 34.0543 21.8187 36.0531 21.8187H48.0754C48.964 21.8232 49.7452 22.2172 50.1929 22.8558C50.4579 23.2362 50.5379 23.6439 50.5379 23.9949ZM35.5917 11.3317C34.1777 7.93941 31.8112 5.11102 28.8781 3.11598C30.2601 2.72422 31.7152 2.50909 33.2183 2.50909C39.724 2.50909 45.6106 6.52182 48.0251 12.5432H36.928C36.0577 12.5432 35.5917 11.3339 35.5917 11.3339V11.3317ZM2.51045 18.3426C2.51045 9.61062 9.59863 2.50909 18.3109 2.50909C19.7843 2.50909 21.2257 2.71742 22.6009 3.10919C17.7444 6.42897 14.5487 12.0201 14.5464 18.3426C14.5487 24.6652 17.7444 30.2563 22.6009 33.576C21.2257 33.9678 19.7843 34.1761 18.3109 34.1761C9.59863 34.1761 2.51273 27.0723 2.51045 18.3426ZM28.8781 33.884C31.8112 31.8867 34.1777 29.0583 35.5917 25.6683C35.5917 25.6683 36.0577 24.4591 36.928 24.4591H48.0251C45.6106 30.4804 39.724 34.4932 33.2183 34.4932C31.7129 34.4932 30.2578 34.278 28.8781 33.8863V33.884Z" fill="white"/>
<path fill-rule="evenodd" clip-rule="evenodd" d="M50.5379 23.9949C50.5379 24.4976 50.3757 24.8803 50.3757 24.8803C47.7213 32.129 40.7748 36.9977 33.0767 36.9977C30.4703 36.9977 27.9895 36.4475 25.7418 35.4647C25.7418 35.4647 22.5643 36.9977 18.4229 36.9977C8.24861 36.9977 0 28.7164 0 18.4989C0 8.28135 8.24861 0 18.4229 0C22.6534 0 25.7418 1.53308 25.7418 1.53308C27.9918 0.548014 30.4703 0 33.0767 0C40.7748 0 47.7213 4.86872 50.3757 12.1174C50.3757 12.1174 50.5379 12.5002 50.5379 13.0029C50.5379 13.3539 50.4602 13.7615 50.1929 14.1419C49.7452 14.7805 48.964 15.1723 48.0754 15.1791H36.0531C34.0543 15.1791 33.2297 12.8579 33.2297 12.8579C31.8294 9.15319 29.118 6.18667 25.7463 4.41808C20.7003 7.07889 17.2465 12.3892 17.2465 18.4989C17.2465 24.6085 20.7003 29.9188 25.7463 32.5797C29.118 30.8088 31.8272 27.8445 33.2297 24.1398C33.2297 24.1398 34.0543 21.8187 36.0531 21.8187H48.0754C48.964 21.8232 49.7452 22.2172 50.1929 22.8558C50.4579 23.2362 50.5379 23.6439 50.5379 23.9949ZM35.5917 11.3317C34.1777 7.93941 31.8112 5.11102 28.8781 3.11598C30.2601 2.72422 31.7152 2.50909 33.2183 2.50909C39.724 2.50909 45.6106 6.52182 48.0251 12.5432H36.928C36.0577 12.5432 35.5917 11.3339 35.5917 11.3339V11.3317ZM2.51045 18.3426C2.51045 9.61062 9.59863 2.50909 18.3109 2.50909C19.7843 2.50909 21.2257 2.71742 22.6009 3.10919C17.7444 6.42897 14.5487 12.0201 14.5464 18.3426C14.5487 24.6652 17.7444 30.2563 22.6009 33.576C21.2257 33.9678 19.7843 34.1761 18.3109 34.1761C9.59863 34.1761 2.51273 27.0723 2.51045 18.3426ZM28.8781 33.884C31.8112 31.8867 34.1777 29.0583 35.5917 25.6683C35.5917 25.6683 36.0577 24.4591 36.928 24.4591H48.0251C45.6106 30.4804 39.724 34.4932 33.2183 34.4932C31.7129 34.4932 30.2578 34.278 28.8781 33.8863V33.884Z" fill="white"/>
</g>
<defs>
<clipPath id="clip0_1625_249">
<rect width="192" height="37" fill="white"/>
</clipPath>
</defs>
</svg>
