<?xml version="1.0" encoding="utf-8"?>
<!-- Generator: Adobe Illustrator 27.0.0, SVG Export Plug-In . SVG Version: 6.00 Build 0)  -->
<svg version="1.1" id="Layer_1" xmlns="http://www.w3.org/2000/svg" xmlns:xlink="http://www.w3.org/1999/xlink" x="0px" y="0px"
	 viewBox="0 0 500 500" style="enable-background:new 0 0 500 500;" xml:space="preserve">
<style type="text/css">
	.st0{fill:#0524DD;}
	.st1{fill:#10069F;}
	.st2{fill:#E0E0E0;}
	.st3{fill:#0D14B5;}
	.st4{fill:#0063F2;}
	.st5{fill:#263238;}
	.st6{fill:#FFFFFF;}
	.st7{opacity:0.5;}
	.st8{opacity:0.4;}
	.st9{opacity:0.3;}
	.st10{opacity:0.2;}
	.st11{opacity:0.1;}
	.st12{opacity:0.6;}
	.st13{opacity:0.7;}
	.st14{opacity:0.8;}
	.st15{fill:#FFBE9D;}
	.st16{fill:#EB996E;}
	.st17{fill:#455A64;}
</style>
<g id="freepik--background-complete--inject-16">
	<polygon class="st0" points="107.4,435.3 107.4,465.9 152.1,465.9 201.3,465.9 201.3,435.3 	"/>
	<polygon class="st1" points="103.5,426.8 103.5,435.3 204.6,435.3 204.6,426.8 152.1,426.8 	"/>
	<polygon class="st1" points="154.1,465.9 201.3,465.9 201.3,435.3 204.6,435.3 204.6,426.8 152.1,426.8 152.1,434.5 	"/>
	<rect x="120.6" y="440.3" class="st1" width="19" height="4.6"/>
	<rect x="118.1" y="450.6" class="st1" width="24.4" height="9.7"/>
	<polygon class="st0" points="121.9,396.3 121.9,426.9 166.5,426.9 215.8,426.9 215.8,396.3 	"/>
	<polygon class="st1" points="117.9,387.8 117.9,396.3 219.1,396.3 219.1,387.8 166.5,387.8 	"/>
	<polygon class="st2" points="168.5,426.9 215.8,426.9 215.8,396.3 219.1,396.3 219.1,387.8 166.5,387.8 166.5,395.5 	"/>
	<rect x="135" y="401.2" class="st1" width="19" height="4.6"/>
	<rect x="132.6" y="411.6" class="st1" width="24.4" height="9.7"/>
	<path class="st3" d="M122.4,59.7c2.5-1.5,5.3-2.7,8.1-3.5l1.7-8l13.5-0.2l2,7.9c2.9,0.7,5.6,1.8,8.2,3.2l6.8-4.5l9.7,9.4l-4.2,7
		c1.5,2.5,2.7,5.3,3.5,8.1l8,1.7l0.2,13.5l-8,1.9c-0.7,2.9-1.8,5.6-3.2,8.2l4.5,6.8l-9.4,9.7l-7-4.2c-2.5,1.5-5.3,2.7-8.1,3.5
		l-1.7,8l-13.5,0.2l-2-7.9c-2.9-0.7-5.6-1.8-8.2-3.2l-6.8,4.5l-9.7-9.4l4.2-7c-1.5-2.5-2.7-5.2-3.5-8.1l-8-1.7l-0.2-13.5l7.9-1.9
		c0.7-2.9,1.8-5.6,3.2-8.2l-4.4-6.8l9.4-9.7L122.4,59.7L122.4,59.7z M129.6,77.7c-5.6,5.8-5.4,15,0.4,20.5c5.8,5.6,15,5.4,20.5-0.4
		c5.6-5.8,5.4-15-0.4-20.5l0,0C144.3,71.8,135.2,72,129.6,77.7L129.6,77.7z"/>
	<path class="st1" d="M340.1,43.6c3-1.8,6.3-3.2,9.6-4.2l2-9.5l16.1-0.3l2.3,9.5c3.4,0.8,6.7,2.1,9.8,3.8l8.1-5.3l11.6,11.2l-5,8.3
		c1.8,3,3.2,6.3,4.2,9.6l9.5,2l0.3,16.1l-9.5,2.3c-0.8,3.4-2.1,6.7-3.9,9.8l5.3,8.2l-11.2,11.6l-8.3-5.1c-3,1.8-6.3,3.2-9.6,4.2
		l-2,9.5l-16.1,0.3l-2.3-9.5c-3.4-0.8-6.7-2.1-9.8-3.8l-8.1,5.3l-11.6-11.2l5-8.3c-1.8-3-3.2-6.3-4.2-9.6l-9.5-2l-0.3-16.1l9.5-2.3
		c0.8-3.4,2.1-6.7,3.9-9.8l-5.3-8.1l11.2-11.6L340.1,43.6L340.1,43.6z M348.7,65.1c-6.6,6.9-6.4,17.8,0.4,24.4
		c6.9,6.6,17.8,6.4,24.4-0.4c6.6-6.9,6.4-17.8-0.4-24.4C366.3,58,355.3,58.2,348.7,65.1z"/>
	<path class="st4" d="M342.5,174.5c2.4-1.4,4.9-2.5,7.5-3.3l1.5-7.4l12.6-0.2l1.8,7.4c2.7,0.7,5.2,1.7,7.6,3l6.4-4.2l9,8.8l-3.9,6.5
		c1.4,2.4,2.5,4.9,3.3,7.5l7.5,1.6l0.2,12.6l-7.4,1.8c-0.7,2.7-1.7,5.2-3,7.6l4.2,6.4l-8.8,9.1l-6.5-3.9c-2.4,1.4-4.9,2.5-7.5,3.3
		l-1.5,7.4l-12.6,0.2l-1.8-7.4c-2.7-0.7-5.2-1.7-7.6-3l-6.4,4.2l-9.1-8.8l4-6.5c-1.4-2.4-2.5-4.9-3.3-7.5l-7.4-1.6l-0.3-12.6
		l7.4-1.8c0.7-2.7,1.7-5.2,3-7.6l-4.2-6.4l8.7-9.1L342.5,174.5L342.5,174.5z M349.2,191.2c-5.2,5.4-5,13.9,0.3,19.1
		c5.4,5.2,13.9,5,19.1-0.3s5-13.9-0.3-19.1l0,0C363,185.7,354.4,185.9,349.2,191.2L349.2,191.2z"/>
	<path class="st3" d="M409.7,135.7c1.3-0.8,2.7-1.4,4.2-1.8l0.9-4.1l7-0.1l1,4.1c1.5,0.4,2.9,0.9,4.2,1.7l3.5-2.3l5,4.9l-2.2,3.6
		c0.8,1.3,1.4,2.7,1.8,4.2l4.1,0.9l0.1,7l-4.1,1c-0.4,1.5-0.9,2.9-1.7,4.2l2.3,3.5l-4.9,5l-3.6-2.2c-1.3,0.8-2.7,1.4-4.2,1.8
		l-0.9,4.1l-7,0.1l-1-4.1c-1.5-0.4-2.9-0.9-4.2-1.7l-3.5,2.3l-5-4.9l2.2-3.6c-0.8-1.3-1.4-2.7-1.8-4.2l-4.1-0.9l-0.1-7l4.1-1
		c0.4-1.5,0.9-2.9,1.7-4.2l-2.3-3.5l4.9-5L409.7,135.7z M413.5,145.1c-2.9,3-2.8,7.7,0.2,10.6c3,2.9,7.7,2.8,10.6-0.2
		s2.8-7.7-0.2-10.6S416.3,142.1,413.5,145.1C413.5,145,413.5,145.1,413.5,145.1z"/>
	<path class="st4" d="M209.9,43.6c1.3-0.8,2.7-1.4,4.2-1.8l0.9-4.1l7-0.1l1,4.1c1.5,0.4,2.9,0.9,4.2,1.7l3.5-2.3l5,4.9l-2.2,3.6
		c0.8,1.3,1.4,2.7,1.8,4.2l4.1,0.9l0.1,7l-4.1,1c-0.4,1.5-0.9,2.9-1.7,4.2l2.3,3.5l-4.9,5l-3.6-2.2c-1.3,0.8-2.7,1.5-4.1,1.9
		l-0.9,4.1l-7,0.1l-1-4.1c-1.5-0.4-2.9-0.9-4.2-1.7l-3.5,2.3l-5-4.9l2.1-3.7c-0.8-1.3-1.4-2.7-1.8-4.2l-4.1-0.9l-0.1-7l4.1-1
		c0.4-1.5,0.9-2.9,1.7-4.2l-2.3-3.5l4.9-5L209.9,43.6L209.9,43.6z M213.6,53c-2.9,3-2.8,7.7,0.2,10.6c3,2.9,7.7,2.8,10.6-0.2
		c2.9-3,2.8-7.7-0.2-10.6C221.2,49.9,216.5,50,213.6,53L213.6,53z"/>
	<path class="st3" d="M146.9,156.6c1.3-0.8,2.7-1.4,4.2-1.8l0.9-4.1l7-0.1l1,4.1c1.5,0.4,2.9,0.9,4.2,1.7l3.5-2.3l5,4.9l-2.2,3.6
		c0.8,1.3,1.4,2.7,1.8,4.2l4.1,0.9l0.1,7l-4.1,1c-0.4,1.5-0.9,2.9-1.7,4.2l2.3,3.5l-4.9,5l-3.6-2.2c-1.3,0.8-2.7,1.4-4.2,1.8
		l-0.9,4.1l-7,0.1l-1-4.1c-1.5-0.4-2.9-0.9-4.2-1.7l-3.5,2.3l-5-4.9l2.2-3.6c-0.8-1.3-1.4-2.7-1.8-4.2l-4.1-0.9l-0.1-7l4.1-1
		c0.4-1.5,0.9-2.9,1.7-4.2l-2.3-3.5l4.9-5L146.9,156.6L146.9,156.6z M150.6,165.9c-2.9,3-2.8,7.7,0.2,10.6c3,2.9,7.7,2.8,10.6-0.2
		c2.9-3,2.8-7.7-0.2-10.6C158.3,162.8,153.5,162.9,150.6,165.9L150.6,165.9L150.6,165.9z"/>
</g>
<g id="freepik--Device--inject-16">
	<path class="st5" d="M322.2,466.7l-129.7-0.1c-15.6,0-28.2-13.3-28.2-29.7l0.1-341.7c0-16.4,12.7-29.7,28.3-29.7l129.7,0.1
		c15.6,0,28.2,13.3,28.2,29.7L350.5,437C350.5,453.4,337.9,466.7,322.2,466.7z"/>
	<path class="st6" d="M322.2,77.7h-25.1c-3.4,0-6.1,3-6.1,6.7v4.8c0,3.7-2.7,6.7-6.1,6.7h-49c-3.4,0-6.1-3-6.1-6.7v-4.8
		c0-3.7-2.7-6.7-6.1-6.7h-8.9h-22c-10.9,0-19.8,9.3-19.8,20.8L172.9,432c0,11.5,8.9,20.8,19.8,20.8l129.4,0.1
		c10.9,0,19.8-9.3,19.8-20.8L342,98.5C342,87,333.1,77.7,322.2,77.7z"/>
	<g>
		<path class="st0" d="M278.2,303.7c0,3.5-2.8,6.3-6.3,6.3s-6.3-2.8-6.3-6.3s2.8-6.3,6.3-6.3C275.3,297.4,278.2,300.2,278.2,303.7z"
			/>
		<ellipse class="st0" cx="245.1" cy="303.7" rx="6.7" ry="6.7"/>
		<ellipse class="st0" cx="224.5" cy="286.7" rx="7.1" ry="7.1"/>
		<ellipse class="st0" cx="220.3" cy="260.5" rx="7.4" ry="7.5"/>
		<ellipse class="st0" cx="233.4" cy="237.6" rx="7.7" ry="7.7"/>
		<ellipse class="st0" cx="258.4" cy="228.5" rx="8.4" ry="8.4"/>
		<path class="st0" d="M297.8,286.4c0,3.4-2.7,6.1-6.1,6.1s-6.1-2.7-6.1-6.1s2.7-6.1,6.1-6.1C295.1,280.3,297.8,283.1,297.8,286.4z"
			/>
		<ellipse class="st0" cx="296.4" cy="260.2" rx="5.7" ry="5.7"/>
		<ellipse class="st0" cx="283" cy="237.3" rx="5.2" ry="5.2"/>
		<g class="st7">
			<path class="st6" d="M278.2,303.7c0,3.5-2.8,6.3-6.3,6.3s-6.3-2.8-6.3-6.3s2.8-6.3,6.3-6.3C275.3,297.4,278.2,300.2,278.2,303.7z
				"/>
		</g>
		<g class="st8">
			<ellipse class="st6" cx="245.1" cy="303.7" rx="6.7" ry="6.7"/>
		</g>
		<g class="st9">
			<ellipse class="st6" cx="224.5" cy="286.7" rx="7.1" ry="7.1"/>
		</g>
		<g class="st10">
			<ellipse class="st6" cx="220.3" cy="260.5" rx="7.4" ry="7.5"/>
		</g>
		<g class="st11">
			<ellipse class="st6" cx="233.4" cy="237.6" rx="7.7" ry="7.7"/>
		</g>
		<g class="st10">
			<ellipse class="st6" cx="258.4" cy="228.5" rx="8.4" ry="8.4"/>
		</g>
		<g class="st12">
			<path class="st6" d="M297.8,286.4c0,3.4-2.7,6.1-6.1,6.1s-6.1-2.7-6.1-6.1s2.7-6.1,6.1-6.1C295.1,280.3,297.8,283.1,297.8,286.4z
				"/>
		</g>
		<g class="st13">
			<ellipse class="st6" cx="296.4" cy="260.2" rx="5.7" ry="5.7"/>
		</g>
		<g class="st14">
			<ellipse class="st6" cx="283" cy="237.3" rx="5.2" ry="5.2"/>
		</g>
	</g>
</g>
<g id="freepik--character-2--inject-16">
	<path class="st5" d="M429.5,286.9c0.6-4.1,0.8-8.2,0.7-12.4c-0.1-4.2-1.3-8.2-3.4-11.8c-0.3-0.5-2.9-4-3.5-3.8
		c-0.4,0.1,1.4,3.5,1.3,3.9c-1.2,4.1-1.2,8.5,0.1,12.6C425.9,279.4,427.5,283.3,429.5,286.9"/>
	<path class="st15" d="M411.4,314c-0.6-2.9-1.1-5.1-1.1-5.1s-10,1-12.6-8.6c-1.3-4.6-3.1-14.4-4.6-23.2c-1.7-9.5,4.3-18.7,13.6-21.1
		l0.9-0.2c10.2-2,17.6,5.5,19.3,15.7l7.2,35.5l-15.8,16.8L411.4,314z"/>
	<path class="st16" d="M410.2,308.9c4.4-1.2,8.5-3.6,11.6-7c0,0-1.2,7.9-11,9.5L410.2,308.9z"/>
	<path class="st5" d="M398,284.6c0.2,0.7,0.9,1.2,1.7,1c0.7-0.1,1.2-0.8,1.1-1.6l0,0c-0.2-0.7-0.9-1.2-1.7-1
		C398.4,283.1,397.9,283.8,398,284.6L398,284.6z"/>
	<path class="st5" d="M396.1,280.5c0.2,0.1,1.1-0.9,2.5-1.3s2.8,0.1,2.9-0.1s-0.2-0.4-0.8-0.6c-0.8-0.3-1.6-0.3-2.4-0.1
		c-0.8,0.2-1.5,0.6-2,1.2C396,280,396,280.4,396.1,280.5z"/>
	<path class="st5" d="M411.4,281.9c0.2,0.7,0.9,1.2,1.7,1c0.7-0.1,1.2-0.8,1.1-1.6l0,0c-0.2-0.7-0.9-1.2-1.7-1
		C411.7,280.4,411.2,281.1,411.4,281.9L411.4,281.9z"/>
	<path class="st5" d="M410.7,277.3c0.2,0.1,1.1-0.9,2.5-1.3s2.8,0.1,2.9-0.1s-0.2-0.4-0.8-0.6c-0.8-0.3-1.6-0.3-2.4-0.1
		c-0.8,0.2-1.5,0.6-2,1.2C410.7,276.9,410.6,277.2,410.7,277.3z"/>
	<path class="st5" d="M408.4,290c-0.8,0-1.7,0-2.5,0.2c-0.4,0.1-0.8,0.1-0.9-0.2c-0.1-0.4-0.1-0.8,0-1.2c0.1-1,0.2-2.1,0.4-3.2
		c0.5-4.5,0.7-8.2,0.6-8.2s-0.7,3.6-1.2,8.1c-0.1,1.1-0.2,2.2-0.3,3.2c-0.1,0.5-0.1,1.1,0.2,1.5c0.2,0.2,0.5,0.4,0.8,0.4
		c0.2,0,0.5,0,0.7-0.1C406.8,290.5,407.6,290.3,408.4,290z"/>
	<path class="st5" d="M413,289.9c-0.2,0,0.2,1.7-0.9,3.1s-2.8,1.8-2.8,2s0.5,0.2,1.2,0c0.9-0.2,1.8-0.8,2.4-1.6
		c0.6-0.8,0.8-1.7,0.7-2.6C413.4,290.2,413.1,289.9,413,289.9z"/>
	<path class="st5" d="M409.2,271.3c0.2,0.4,1.7-0.2,3.5-0.5s3.3-0.1,3.5-0.5c0.1-0.2-0.3-0.5-1-0.8c-0.9-0.3-1.8-0.4-2.7-0.2
		c-0.9,0.1-1.8,0.5-2.5,1C409.4,270.7,409.1,271.1,409.2,271.3z"/>
	<path class="st5" d="M395.4,275.4c0.4,0.3,1.3-0.3,2.5-0.7s2.3-0.4,2.5-0.8c0.1-0.2-0.2-0.5-0.7-0.7c-1.4-0.5-3,0-4,1.2
		C395.3,274.9,395.2,275.2,395.4,275.4z"/>
	<path class="st15" d="M427.9,278.7c0.1-0.1,6.1-3.7,7.6,3s-5.5,6.8-5.5,6.6S427.9,278.7,427.9,278.7z"/>
	<path class="st16" d="M431.4,285.3c0,0,0.1,0,0.4,0.1s0.6,0,0.9-0.2c0.8-0.7,1-1.8,0.8-2.9c-0.1-0.6-0.4-1.1-0.7-1.6
		c-0.2-0.4-0.6-0.7-1.1-0.7c-0.3,0-0.5,0.2-0.6,0.5c0,0.2,0,0.3,0,0.4s-0.2-0.1-0.2-0.4c0-0.2,0.1-0.4,0.2-0.5
		c0.2-0.2,0.4-0.3,0.6-0.3c0.6,0,1.1,0.3,1.4,0.8c0.4,0.5,0.7,1.1,0.8,1.8c0.3,1.4-0.1,2.8-1,3.2c-0.3,0.2-0.7,0.2-1.1,0.1
		C431.5,285.4,431.4,285.3,431.4,285.3z"/>
	<path class="st5" d="M394.9,265c-1.2-0.4,1.3-4.5,3.7-6.3c3.6-2.7,9.5-5.1,13.4-4.9c4.7,0.3,8.9,1.7,12,5.3c3,3.7,5,8,5.8,12.7
		c0.4,1.4,0.3,2.9-0.1,4.3c-0.6,1.7-2.2,3-1.7,5c0.2,0.7,0.1,1.5-0.2,2.2c-0.9,1.6-2.7,0.7-3.6-0.4c-2-2.3-2.9-5.4-3.6-8.3
		c-0.7-2.1-1-4.2-1-6.4c0.1-1.2,0.4-2.3,0.4-3.5c0.1-1.2-0.3-2.4-1.2-3.2c-0.2-0.2-0.4-0.3-0.7-0.4c-2.2-1.2-5-1.2-7.2,0.2
		c-3.5,2.1-9.4,5.5-11.4,4.6c-1.4-0.5-2.6-1.3-3.6-2.4L394.9,265z"/>
	<path class="st0" d="M410.5,250.1c0.5-0.1,11.7-0.3,16.4,6.9c4.7,7.2,4.5,9.9,4.5,9.9c0.5,0.2,0.9,0.4,1.4,0.7
		c0.6,0.4,0.6,3.1-0.9,3.1c-11.6-2-24,0.7-37.6,4.6l-10.5,2.5c-2.9,1.1-4.1,0.6-3-0.5c0.8-0.8,8.3-6.3,8.3-6.3l1.3-1.6l2.8-7.1
		c0,0-0.8-0.7,0.1-1.7S401.5,251.1,410.5,250.1z"/>
	<path class="st5" d="M390.3,269.5c0.1,0,0.3-0.1,0.4-0.1l1.2-0.3c1-0.3,2.5-0.7,4.3-1.1c4.8-1,9.6-1.6,14.5-1.8
		c4.9-0.2,9.8-0.1,14.7,0.3c1.9,0.1,3.4,0.3,4.4,0.4l1.2,0.1h0.4l-0.4-0.1l-1.2-0.1c-1-0.1-2.5-0.3-4.4-0.4
		c-4.9-0.4-9.8-0.6-14.7-0.4c-4.9,0.2-9.8,0.8-14.6,1.9C392.5,268.7,390.3,269.5,390.3,269.5z"/>
	<g class="st9">
		<path d="M421.4,252.4c0,0-12,1-16.5,4.8l0.5-0.5l-4.3,3.4c-0.6,0.7-1.6,1-2.5,1c1.7-2.3,3.9-4.3,6.4-5.8
			C409.5,252.4,416.9,249.8,421.4,252.4z"/>
	</g>
	<path class="st5" d="M421.6,252.4c-0.4-0.2-0.8-0.3-1.2-0.4c-1.1-0.3-2.3-0.5-3.4-0.5c-1.7-0.1-3.4,0.1-5.1,0.5
		c-2.1,0.5-4,1.4-5.7,2.7c-0.8,0.7-1.6,1.4-2.4,2.2c-0.7,0.8-1.5,1.4-2.1,2.2c-0.6,0.7-1.2,1.4-1.9,2c-0.6,0.5-1.3,0.8-2.1,1
		c-2.8,0.8-4.7,0.6-4.6,0.4c0.1,0.1,0.2,0.2,0.3,0.2c0.3,0.1,0.6,0.1,0.9,0.1c1.2,0,2.3-0.2,3.4-0.5c0.8-0.2,1.5-0.5,2.2-1
		c0.7-0.6,1.3-1.3,1.9-2s1.4-1.4,2.1-2.2c0.7-0.8,1.5-1.5,2.4-2.2c1.7-1.3,3.6-2.2,5.6-2.7c1.6-0.4,3.3-0.6,5-0.6
		c1.2,0,2.3,0.2,3.4,0.5l0.9,0.2C421.4,252.3,421.5,252.4,421.6,252.4z"/>
	<g class="st9">
		<path d="M428.7,260.1c-1.9,0.4-3.9,0.5-5.9,0.4c-2.3,0.1-4.5,0.2-6.9,0.2c-1.7,0-3.8,0.1-5.1-0.8c0.1,0.8,0.5,1.6,1.3,2
			c1.2,0.4,2.6,0.7,3.9,0.7c4.6,0.2,9.1,0,13.6-0.8C429.4,261.2,429.1,260.6,428.7,260.1"/>
	</g>
	<path class="st0" d="M426.4,256.3c1.4,0.2,2.3,0.4,2.7,1.5c0.3,0.9,0.4,2.1-0.5,2.5c-0.3,0.1-0.6,0.2-0.9,0.1l-14.9,0.7
		c-0.5,0.1-1,0-1.5-0.3c-0.6-0.6-0.6-1.5,0-2.1c0.6-0.5,1.3-0.9,2-1C417.6,256.7,421.9,256.2,426.4,256.3"/>
	<path class="st5" d="M411.5,261c-0.2-0.1-0.4-0.3-0.5-0.5c-0.3-0.6-0.3-1.4,0.1-1.9c0.7-0.7,1.7-1.2,2.7-1.4
		c1.1-0.2,2.4-0.5,3.8-0.7c2.3-0.4,4.6-0.5,6.9-0.5c0.9,0,1.6,0.1,2.1,0.1l0.6,0.1h0.2h-0.2l-0.6-0.1c-0.5-0.1-1.2-0.1-2.1-0.2
		c-2.3-0.1-4.7,0.1-7,0.5c-1.3,0.2-2.6,0.5-3.8,0.7c-1.1,0.1-2,0.7-2.8,1.4c-0.4,0.6-0.5,1.4-0.1,2.1c0.1,0.2,0.2,0.3,0.4,0.4
		L411.5,261z"/>
	<polygon class="st6" points="392.3,264.6 401.1,262.2 401,264.9 391.3,267.1 	"/>
	<path class="st5" d="M407.8,269.1c0,0-4.1,0.4-9.2,1s-9.2,1.1-9.2,1.2s4.1-0.4,9.2-1S407.8,269.2,407.8,269.1z"/>
	<path class="st2" d="M382.1,323.7l9,21.8l4-16.8c0.8-3.2,2.4-6.2,4.7-8.7c0.8-0.8,1.7-1.6,2.6-2.3l0,0l7.1,32.4
		c0,0-6,18.4-20.2,18.9c-4.1,0.1-10.5-2.5-12.4-7.1c-1-2.3-13.7-32.4-13.7-32.4L382.1,323.7z"/>
	<polygon class="st5" points="386,341.1 386.5,337.9 375.9,328.9 374,331 367.9,337.9 390.8,356.5 396.3,349.9 	"/>
	<path class="st2" d="M471.7,381.6c0.3-4.5-5.2-56-5.2-56l-11.7-17.3l-22.3-3.9c-0.3,2.7-2.1,9.8-11.3,12.4
		c-4.7,1.4-9.9-3.4-9.9-3.4l-8.9,4.3l3.4,24.1l4.4,27.5l61.8,17.6C471.9,386.9,471.4,386.1,471.7,381.6z"/>
	<polygon class="st0" points="412.9,372.2 410.1,339 442.5,332.5 471.5,375.5 472.3,390.1 427.7,388.7 	"/>
	<path class="st5" d="M404.6,329.1c0.2,0.5,0.3,1,0.4,1.6c0.2,1,0.5,2.5,0.8,4.3c0.6,3.6,1.2,8.7,1.9,14.3s1.2,10.6,1.8,14.3
		c0.2,1.8,0.5,3.2,0.6,4.3c0.1,0.5,0.2,1.1,0.2,1.6c-0.2-0.5-0.3-1-0.4-1.6c-0.2-1-0.5-2.5-0.8-4.3c-0.6-3.6-1.3-8.7-1.9-14.3
		s-1.3-10.6-1.8-14.3c-0.2-1.8-0.4-3.2-0.6-4.3C404.7,330.2,404.6,329.6,404.6,329.1z"/>
	<path class="st15" d="M386,341.1c0,0,4.3,0.5,5.9,1.3s6,3.7,6,3.7l8.9,1.7l-2.1,14.7l-6-3l-13.2,1.3c0,0-2.9-0.7-2.9-2.7
		c-1.4-0.8-2.3-2.3-2.5-3.9c-1.4-1.8-2.7-3.6-3.8-5.5c-0.3-0.9,1.5-3,1.5-3s3.8,3.2,6,3.7s4.4-0.4,4.5-1.9
		C388.6,344.7,386,341.1,386,341.1z"/>
	<g class="st9">
		<path d="M409.7,366.5c0,0,30,10.7,40,10.1c8.5-0.5,12.7-4.5,13.4-10.1s1.6-29.3,1.6-29.3l-16,27.9l-39.1-1.2L409.7,366.5z"/>
	</g>
	<path class="st2" d="M458.3,365c2.2-6.2,4.5-18,4.5-18l3.7-19.7c0.1-5.1-1.6-10.2-4.9-14.1c-2.5-2.9-5.9-5.5-10.5-5.4
		c-9.7,0-9.4,17.9-9.4,17.9l-2.6,25.6l-37.9-6.2l-2.4,18.2l44.6,9.6c3.8,0.9,7.8,0.2,11-2.1C456.3,369.3,457.7,367.3,458.3,365z"/>
	<path class="st5" d="M452.3,309.3c0,0.1-0.8,0.1-2,0.4c-3.1,0.8-5.7,3-7,6c-0.5,1.1-0.6,1.9-0.7,1.9c0-0.7,0.1-1.4,0.4-2
		c1.1-3.2,3.9-5.6,7.2-6.2C450.9,309.2,451.6,309.1,452.3,309.3z"/>
	<path class="st5" d="M466.6,327.3c0,0,0,0.2-0.1,0.5s-0.1,0.8-0.2,1.4l-1,5.3c-0.4,2.3-1,5.1-1.5,8.4s-1.3,7-2.3,11.1
		c-0.5,2-1,4.2-1.6,6.4c-0.3,1.1-0.6,2.2-1,3.4c-0.3,1.2-0.8,2.3-1.3,3.4c-0.5,1.2-1.3,2.2-2.2,3.1c-1,0.9-2.1,1.6-3.3,2.1
		c-2.5,1.1-5.4,1.4-8.1,0.9l-35.3-7.6l-9.9-2.1h-0.2v-0.2c0.8-6.3,1.6-12.4,2.4-18.2V345h0.2l38,6.3l-0.2,0.2
		c0.9-7.9,1.5-14.3,2-18.8c0.2-2.2,0.4-3.9,0.6-5.1c0.1-0.6,0.1-1,0.2-1.3s0.1-0.5,0.1-0.5s0,0.2,0,0.5s-0.1,0.8-0.1,1.3
		c-0.1,1.2-0.3,2.9-0.5,5.1c-0.4,4.4-1.1,10.8-1.9,18.8v0.2h-0.2l-38-6.1l0.3-0.2c-0.8,5.8-1.6,11.9-2.4,18.2L399,363l9.9,2.1
		l35.3,7.6c2.6,0.5,5.3,0.2,7.8-0.8c1.2-0.5,2.2-1.2,3.2-2c0.9-0.9,1.6-1.9,2.1-3s0.9-2.2,1.3-3.4c0.4-1.1,0.7-2.2,1-3.4
		c0.6-2.2,1.1-4.3,1.6-6.4c1-4.1,1.7-7.8,2.3-11.1s1.2-6.1,1.6-8.4s0.8-4.1,1-5.3c0.1-0.6,0.2-1,0.3-1.4S466.6,327.3,466.6,327.3z"
		/>
	<path class="st5" d="M443.7,357.7c-1-1-1.8-2.1-2.5-3.4c-0.6-1-1.2-1.9-1.6-2.5c-0.2-0.3-0.5-0.6-0.9-0.7c0,0,0.1-0.1,0.4,0
		s0.6,0.3,0.8,0.5c0.6,0.8,1.2,1.6,1.7,2.4C442.4,355.2,443.1,356.4,443.7,357.7z"/>
	<path class="st0" d="M437.2,334.2c0,0-6.8-17.1,0.3-25.5c1.7-1.9,4.2-3,6.7-2.8c2.2,0.2,5.2,0.6,7.1,1.7c0,0-6-1.1-8.5,1.6
		c-1.8,2-6.3,8.3-1.6,23.5L437.2,334.2z"/>
	<path class="st0" d="M410.3,339.8l-6.9-22.6c0.8-1.5,2.5-2.3,4.1-1.9l6.6,24.5H410.3z"/>
	<path class="st17" d="M387.8,347.8c-0.1,0.1-3.8-2.7-8.3-6.3c-2.8-2.1-5.4-4.3-8-6.7c0.1-0.1,3.8,2.7,8.3,6.3
		C382.6,343.2,385.3,345.5,387.8,347.8z"/>
	<polygon class="st17" points="369.9,335.7 367.9,333.8 368.8,332.6 371.2,334.2 	"/>
	<path class="st15" d="M350.6,306.2c-0.5-1.9,0.6-3.8,2.4-4.3c3.7-1.1,9.5-2.5,11-1c2.4,2.2,8,7.4,8,7.4l7.8,16.2l-12.7,3.7
		l-3.6-12.4c0,0-5.8,0.3-5.2-2.8c0,0-2.9-1.1-2.5-2.9s2.8-2.2,2.8-2.2l-0.5-3.1l-7.6,1.3L350.6,306.2z"/>
	<path class="st17" d="M356.9,310.5h-6.4V303h6.4c2.1,0,3.8,1.7,3.8,3.8l0,0l0,0C360.6,308.8,358.9,310.5,356.9,310.5z"/>
	<path class="st15" d="M361.7,306.6l-9.6-2.5c0,0-2.6-0.7-1.2,2.1s5.4,2.2,6.9,3.8s2.4,4.4,8.8,5.5"/>
	<path class="st16" d="M366.6,315.5c-0.4,0-0.9,0-1.3-0.1c-1.1-0.2-2.3-0.6-3.3-1.1c-0.7-0.4-1.4-0.8-2-1.4
		c-0.7-0.6-1.3-1.3-1.8-2.1c-1-1.7-3.4-1.6-5.4-2.6c-0.5-0.2-1-0.6-1.4-1s-0.7-0.9-0.9-1.5c-0.1-0.3-0.2-0.5-0.2-0.8
		s0.1-0.7,0.3-0.9c0.5-0.3,1.1-0.4,1.6-0.2l4.9,1.3l3.3,0.9c0.4,0.1,0.8,0.2,1.2,0.4c-0.4,0-0.8-0.1-1.2-0.2l-3.4-0.8l-5-1.2
		c-0.4-0.1-0.8-0.1-1.2,0.1c-0.2,0.2-0.2,0.7,0,1.2s0.4,0.9,0.8,1.3s0.8,0.7,1.3,0.9c1,0.4,2,0.7,3,1c0.5,0.1,1,0.4,1.5,0.7
		c0.4,0.3,0.8,0.7,1.1,1.1c0.5,0.7,1.1,1.4,1.7,2.1c0.6,0.5,1.2,1,1.9,1.3C363.6,314.6,365.1,315.1,366.6,315.5z"/>
	<path class="st17" d="M366,362.1c-2.3-0.1-4.4-1.3-5.6-3.3c-1.5-2.7-1.6-5.9-0.4-8.8c0.1-0.2,0.2-0.4,0.2-0.5l-0.1-0.2
		c-0.6-1.7-0.9-3.5-0.9-5.2c-0.4-5.9-0.7-11.3-1-16.8s-0.7-10.9-1-16.8h0.5c0.4,5.9,0.7,11.3,1,16.8s0.7,10.9,1,16.8
		c0,1.7,0.3,3.4,0.8,5c0.6-1.1,1.7-2,2.9-2.4c0.9-0.2,1.8,0,2.5,0.5s1.2,1.2,1.2,2.1c0.1,1.8-1.2,3.3-3,3.4c-0.1,0-0.2,0-0.4,0
		c-1.5-0.2-2.7-1.2-3.3-2.5l-0.1,0.2c-1.2,2.7-1,5.7,0.4,8.3c1.3,2.4,4.1,3.5,6.7,2.8c2.3-0.8,4.1-3.6,4.4-6.9c0.1-3-0.6-6-2-8.7
		c-0.6-1.3-1.4-2.6-2.1-3.9s-1.5-2.6-2.1-4c-0.5-1-0.9-2.1-0.9-3.2c-0.1-1.2,0.6-2.3,1.6-2.9c1-0.3,2,0.2,2.3,1.2
		c0.1,0.2,0.1,0.4,0.1,0.7h-0.5c0-0.4-0.2-0.8-0.5-1.1c-0.3-0.3-0.8-0.4-1.2-0.2c-0.9,0.5-1.4,1.4-1.3,2.4c0.1,1.1,0.4,2.1,0.9,3
		c0.6,1.4,1.4,2.7,2.1,4s1.5,2.6,2.1,4c1.5,2.8,2.2,5.9,2,9c-0.2,2.9-1.8,6.2-4.7,7.3C367.1,362.1,366.6,362.2,366,362.1z
		 M360.9,349.5c0.5,1.3,1.7,2.3,3.1,2.6c0.8,0,1.5-0.3,2-0.8s0.8-1.3,0.8-2c-0.1-0.7-0.4-1.3-1-1.7c-0.6-0.4-1.4-0.6-2.1-0.5
		C362.4,347.5,361.4,348.4,360.9,349.5L360.9,349.5z"/>
	<path class="st17" d="M424.2,454.1l23.1-7.9c0,0,15.8,20.8,20.2,19.8l-13.7-45.4l-36.5,10.8L424.2,454.1z"/>
	<path class="st2" d="M441.1,432.7c0-1,0.7-1.8,1.7-1.9c1,0,1.8,0.7,1.9,1.7c0,1-0.8,1.9-1.8,2c-1-0.1-1.8-1-1.8-2"/>
	<path class="st2" d="M454.8,420.3l-3.5,1l13.5,43.6c0,0,1.5,1.8,2.9,1.1L454.8,420.3z"/>
	<path class="st5" d="M447.4,447c0.2-0.1,0-1.2,0.4-2.5s1.1-2.2,1-2.4s-1.3,0.5-1.8,2.1S447.2,447.1,447.4,447z"/>
	<path class="st5" d="M450.8,451.1c0.2,0,0.3-1.1,1-2.1s1.6-1.5,1.6-1.8s-1.4,0-2.2,1.3S450.5,451.2,450.8,451.1z"/>
	<path class="st5" d="M457.3,452.1c0-0.2-1.2-0.2-2.2,0.8s-1.2,2.1-1,2.1s0.7-0.8,1.5-1.5S457.3,452.4,457.3,452.1z"/>
	<path class="st5" d="M441.9,448.2c0.2-0.1-0.4-1.1-0.7-2.4s-0.2-2.4-0.4-2.4s-0.7,1.1-0.4,2.6S441.7,448.4,441.9,448.2z"/>
	<path class="st0" d="M421.4,392.4c-0.9-0.2-40,41.8-40.9,48.7s0.5,13,5.2,16.9s57.3-8.9,57.3-8.9l-5-22.1l19-6.4l-17-31.1
		L421.4,392.4z"/>
	<g class="st9">
		<path d="M412.2,401.7l-1.2,1.4c0,0,22.4,23.5,29.3,23.2l11-3.7L414,399.7L412.2,401.7z"/>
	</g>
	<path class="st5" d="M438.1,427.6c0,0.1-8.1,2.7-18.2,5.6s-18.4,5.3-18.4,5.1s8.1-2.6,18.2-5.6S438.1,427.5,438.1,427.6z"/>
	<path class="st17" d="M389.2,430.1l7.6,24.1c0,0-22,15.9-21,20.5l47.4-13.1l-10.3-38.1L389.2,430.1z"/>
	<path class="st2" d="M410.9,448.1c1,0,1.9,0.8,2,1.8c0,1-0.8,1.9-1.8,2c-1.1-0.1-1.9-0.9-2-2c0.1-1,1.1-2,2.1-1.8"/>
	<path class="st2" d="M423.5,462.6l-1-3.7L377,471.8c0,0-1.9,1.5-1.2,2.9L423.5,462.6z"/>
	<path class="st5" d="M396,454.2c0.1,0.2,1.3,0,2.6,0.5s2.2,1.2,2.4,1.1s-0.5-1.4-2.2-1.9S395.9,454,396,454.2z"/>
	<path class="st5" d="M391.6,457.6c0,0.2,1.1,0.4,2.2,1.1s1.6,1.7,1.8,1.7s0-1.4-1.3-2.3S391.5,457.4,391.6,457.6z"/>
	<path class="st5" d="M390.4,464.3c0.2,0,0.2-1.2-0.7-2.4s-2.2-1.3-2.2-1.1s0.8,0.7,1.6,1.6S390.2,464.4,390.4,464.3z"/>
	<path class="st5" d="M394.9,448.5c0.1,0.2,1.1-0.4,2.5-0.7s2.5-0.1,2.5-0.4s-1.1-0.8-2.7-0.4S394.7,448.4,394.9,448.5z"/>
	<g class="st9">
		<polygon points="423.5,453.5 420.6,442.1 422.8,441.1 409.5,405 407,407.2 417.4,440.2 421.1,454 		"/>
	</g>
	<path class="st0" d="M392.2,364.3c-5.2-1.1-10.6,0-14.9,3.2c-4.4,3.1-6.5,8.4-5.6,13.7c2.1,15,21.2,66,21.2,66l26.4-8
		c0.1,0,0.3-0.5,0.2-0.4c-0.2,0.4-13.4-42.2-13.1-41.7s26.7,21.8,37.6,25.7c10.1,3.6,21.3,0.3,27.7-8.3c2.6-3.6,2.7-19.3,0-27.6
		c0,0-76.3-21.6-77.7-22.2C393.5,364.6,392.9,364.4,392.2,364.3z"/>
	<path class="st0" d="M391.1,379.8c8.5,5.8,14.2,14.9,15.5,25.2"/>
	<path class="st5" d="M473,414.1l-0.3,0.5c-0.3,0.5-0.7,0.9-1.1,1.4c-1.5,1.7-3.3,3.2-5.2,4.4c-3.1,2-6.5,3.3-10.1,3.9
		c-2.3,0.4-4.6,0.4-6.9,0.1c-2.6-0.3-5.1-1.1-7.4-2.2c-1.3-0.5-2.5-1.2-3.7-1.9s-2.5-1.4-3.8-2.2c-2.5-1.6-5.1-3.3-7.8-5.1
		c-5.3-3.7-10.9-7.8-16.6-12.4l-2.2-1.8l-1.1-0.9l-0.3-0.3l-0.1-0.1c0.1,0-0.2-0.1,0.2,0.1c0.4-0.4,0.1-0.2,0.2-0.2v0.1l0.2,0.7
		c0.6,1.8,1.1,3.6,1.7,5.5c1.2,3.7,2.4,7.5,3.6,11.4c2.5,7.8,5.1,15.9,7.7,24.2l0.1,0.2l-0.2,0.1l-26.8,8.1l-0.2,0.1l-0.1-0.2
		c-1.7-4.6-3.5-9.5-5.2-14.4c-3.8-10.7-7.5-21.3-10.7-31.5c-1.6-5.1-3.1-10.2-4.3-15.2c-0.1-0.6-0.3-1.2-0.4-1.9s-0.2-1.3-0.4-1.9
		c-0.3-1.3-0.4-2.5-0.4-3.8c0-2.6,0.7-5.1,2.1-7.2c2.8-4.1,7.2-6.7,12.2-7.4c2.3-0.3,4.7-0.2,7,0.3l1.7,0.4l1.6,0.5l3.2,1l23.4,7
		l33.9,10.2l9.2,2.8l2.4,0.7c0.5,0.2,0.8,0.3,0.8,0.3s-0.3-0.1-0.8-0.2l-2.4-0.7l-9.2-2.7l-34-10l-23.4-6.9l-3.2-0.9l-1.6-0.5
		l-1.6-0.4c-2.2-0.5-4.5-0.6-6.8-0.3c-4.8,0.6-9.1,3.2-11.8,7.2c-1.3,2.1-2,4.5-2,7c0,1.3,0.1,2.5,0.4,3.8c0.1,0.6,0.2,1.2,0.4,1.9
		s0.3,1.2,0.4,1.9c1.2,5,2.7,10.1,4.3,15.2c3.2,10.2,6.9,20.8,10.7,31.5c1.8,4.9,3.5,9.8,5.2,14.4l-0.3-0.2l26.8-8l-0.2,0.3
		c-2.7-8.4-5.2-16.5-7.7-24.2c-1.2-3.9-2.4-7.7-3.6-11.4c-0.6-1.9-1.1-3.7-1.7-5.5l-0.2-0.7V398c0.1-0.1-0.2,0.1,0.2-0.3
		c0.5,0.2,0.1,0.1,0.3,0.1l0.1,0.1l0.2,0.2l1.1,0.9l2.1,1.8c5.8,4.6,11.3,8.8,16.6,12.5c2.6,1.9,5.2,3.6,7.8,5.1
		c1.2,0.8,2.5,1.5,3.7,2.2s2.5,1.4,3.7,1.9c2.3,1.2,4.8,1.9,7.3,2.2c2.2,0.3,4.5,0.3,6.8-0.1c3.6-0.5,7-1.8,10.1-3.8
		c1.9-1.2,3.7-2.6,5.2-4.3c0.4-0.4,0.8-0.9,1.1-1.4C472.8,414.2,473,414.1,473,414.1z"/>
	<path class="st5" d="M394.5,385.5c0.8,0.3,1.5,0.7,2.2,1.2c1.7,1.1,3.3,2.3,4.7,3.7c1.5,1.4,2.8,2.9,3.9,4.6
		c0.5,0.7,0.9,1.4,1.2,2.2c-0.5-0.6-1.1-1.3-1.5-2c-1.2-1.6-2.5-3.1-4-4.4c-1.4-1.4-3-2.6-4.6-3.8
		C395.8,386.5,395.1,386,394.5,385.5z"/>
	<path class="st5" d="M403.5,382.5c0.4,0.6,0.8,1.3,1,2c0.6,1.7,1.2,3.4,1.5,5.1c0.4,1.7,0.6,3.5,0.8,5.3c0.1,0.7,0.1,1.5,0,2.2
		c-0.2,0-0.3-3.4-1.2-7.4S403.4,382.6,403.5,382.5z"/>
	<path class="st17" d="M462,381.5l9.7-2.8l6.3,1.1l3,10.5c3,9.3,2.3,14.7-3.9,18.8c-1.8,1.2-3.5,1.9-4.8,1.3
		C468,408.6,462,381.5,462,381.5z"/>
	<polygon class="st17" points="471.7,378.7 410,368.6 410.1,369.4 471.7,387.8 	"/>
</g>
<g id="freepik--character-1--inject-16">
	<path class="st17" d="M86.9,426.7L80.8,448c0,0,19.3,13.4,18.6,17.4L58.2,455l8.1-33.5L86.9,426.7z"/>
	<path class="st2" d="M68.5,442.9c-0.9,0.1-1.6,0.8-1.6,1.6c0,0.9,0.7,1.6,1.6,1.7c0.9-0.1,1.7-0.8,1.7-1.8c-0.1-0.9-1-1.8-1.8-1.5"
		/>
	<g class="st12">
		<path class="st6" d="M58.2,455l1-3.4l39.1,11.2c0,0,1.6,1.3,1.1,2.5L58.2,455z"/>
	</g>
	<path class="st5" d="M81.5,447.9c-0.1,0.2-1.1,0-2.2,0.5s-1.9,1.1-2.1,1s0.4-1.2,1.8-1.7S81.6,447.7,81.5,447.9z"/>
	<path class="st5" d="M85.4,450.8c0,0.2-1,0.3-1.8,1s-1.3,1.5-1.5,1.5s0-1.2,1.1-2.1S85.4,450.6,85.4,450.8z"/>
	<path class="st5" d="M86.6,456.7c-0.2,0-0.2-1.1,0.6-2.1s1.8-1.2,1.9-1s-0.7,0.6-1.3,1.5S86.8,456.7,86.6,456.7z"/>
	<path class="st5" d="M82.4,442.9c-0.1,0.2-1-0.4-2.1-0.6s-2.1-0.1-2.2-0.3s1-0.7,2.3-0.5S82.5,442.8,82.4,442.9z"/>
	<path class="st17" d="M72.5,431.7l-1,22.1c0,0,21.9,8.4,22.1,12.5L51.2,466l0.1-34.5L72.5,431.7z"/>
	<path class="st2" d="M58.4,451.8c-0.9,0.3-1.4,1.1-1.2,2s1.1,1.4,1.9,1.2c0.9-0.3,1.4-1.2,1.3-2.1c-0.3-0.9-1.3-1.4-2.2-1.1"/>
	<g class="st12">
		<path class="st6" d="M51.2,466l0.1-3.5l40.6,1.6c0,0,1.9,0.9,1.7,2.2L51.2,466z"/>
	</g>
	<path class="st5" d="M72.2,453.6c0,0.2-1,0.3-2.1,1s-1.6,1.5-1.8,1.5s0.1-1.3,1.4-2.1S72.2,453.4,72.2,453.6z"/>
	<path class="st5" d="M76.6,455.5c0,0.2-0.9,0.5-1.6,1.4s-0.9,1.8-1.1,1.8s-0.3-1.2,0.6-2.3S76.6,455.3,76.6,455.5z"/>
	<path class="st5" d="M79.1,460.9c-0.2,0-0.5-1,0.1-2.2s1.5-1.6,1.6-1.4s-0.5,0.8-0.9,1.7S79.3,460.9,79.1,460.9z"/>
	<path class="st5" d="M71.9,448.5c-0.1,0.2-1-0.1-2.2,0s-2.1,0.4-2.2,0.3s0.8-0.9,2.2-1S72,448.4,71.9,448.5z"/>
	<path class="st5" d="M46.2,269.8v17.5l4.6,68.2c0,0-2.9,33.1-4.7,51.7c-1.5,16.2,1,44.4,1,44.4h27l9.7-94.1l6-58.7l10.4-26.7
		L46.2,269.8z"/>
	<path class="st5" d="M112.5,269.8l2.6,71c-0.2,13.3-3.8,38.2-8.6,50.6l-21.7,47.7l-1.2,4.3l-16.1-4l12-168.4L112.5,269.8z"/>
	<path class="st17" d="M93.8,288.6c0,0.1,0,0.3,0,0.4c0,0.3,0,0.7,0,1.2c0,1.1,0,2.7,0,4.8c0,4.2,0,10.2-0.1,17.6
		s-0.4,16.3-0.9,26.2s-1.2,20.7-3.6,31.9c-2,11.2-4.3,21.8-6.3,31.4s-3.8,18.3-5.1,25.7S75.6,441,75,445.2c-0.3,2.1-0.5,3.7-0.6,4.8
		c-0.1,0.5-0.1,0.9-0.2,1.2c0,0.1,0,0.3-0.1,0.4c0-0.1,0-0.3,0-0.4c0-0.3,0.1-0.7,0.1-1.2c0.1-1.1,0.2-2.7,0.5-4.8
		c0.5-4.1,1.4-10.1,2.7-17.5s3-16,5-25.7s4.2-20.2,6.4-31.4c2.3-11.1,3-22,3.6-31.8s0.8-18.7,1-26.1s0.2-13.5,0.3-17.6
		c0-2.1,0-3.7,0-4.8c0-0.5,0-0.9,0-1.2C93.7,288.9,93.8,288.7,93.8,288.6z"/>
	<path class="st0" d="M127.8,251.6c0.4,1.3,0.5,2.7,0.4,4.1c-0.2,2.1-0.3,7.2-5.9,9s-10.8-2.4-12.6-4.3s-1.5-8.1-1.5-8.1l9.2-4.1
		L127.8,251.6z"/>
	<path class="st0" d="M64.4,172.9l-4.6,7.5l-18.8,8l4.7,77.2l3.4,14l62.6-2.1l1.6-10.8v-52.1c-1.4-13.4-7.9-21.7-13.9-24.9l-3.9-2.7
		l-1.5-5l-5.5-5.2l-17.7-4.6L64.4,172.9z"/>
	<g class="st9">
		<path d="M43.6,259.7c4.1,6.3,11.5,9.5,18.9,8.4c6.3-1.1,11.6-5.2,17.6-7.3c10.5-3.6,22.5-0.7,32.8-4.8c0.2-1.8,0.1-4,0.2-5.2
			c-5.2-0.3-10.7-0.6-15.2-3l-4.2-1.5L43.6,259.7z"/>
	</g>
	<path class="st0" d="M41,188.3c0,0-8.9,7.6-6.3,27.6c2.4,18.5,6.7,44.3,12.3,47.3s17.9,1.5,26.9-3.6s35-18.8,35-18.8l-10.8-19.1
		l-34.7,13.5c0,0-4.5-30.7-7.2-36"/>
	<path class="st5" d="M56.3,199.1c0,0,0.1,0.2,0.3,0.6c0.1,0.2,0.2,0.4,0.3,0.7l0.3,1.1c0.5,1.6,1.1,4,1.8,7.1
		c1.3,6.2,3,15.2,4.7,26.5l-0.2-0.1l34.7-13.5l0.2-0.1l0.1,0.2c3.4,6.1,7,12.5,10.8,19.1l0.1,0.2L109,241l-22.2,12l-10.9,5.9
		c-1.8,1-3.6,2-5.4,2.8s-3.7,1.5-5.7,2c-3.8,1-7.7,1.5-11.6,1.3c-1.9-0.1-3.8-0.5-5.6-1.2l-0.7-0.3c-0.2-0.1-0.4-0.2-0.6-0.4
		c-0.4-0.3-0.7-0.6-1-1c-0.6-0.7-1.1-1.5-1.5-2.4c-1.5-3.2-2.6-6.6-3.5-10c-0.9-3.3-1.6-6.6-2.2-9.8c-1.2-6.3-2.1-12.3-2.9-17.7
		s-1.4-10.4-1.2-14.8c0.1-3.7,0.8-7.5,2-11c0.8-2.2,1.9-4.3,3.3-6.2c0.4-0.5,0.8-1,1.2-1.4c0.1-0.2,0.3-0.3,0.5-0.4l-0.4,0.4
		c-0.3,0.3-0.7,0.8-1.1,1.4c-1.3,1.9-2.4,4-3.2,6.3c-1.2,3.5-1.8,7.2-1.9,10.9c-0.2,4.3,0.5,9.3,1.3,14.7s1.7,11.4,3,17.7
		c0.6,3.2,1.3,6.4,2.2,9.7c0.8,3.4,2,6.7,3.5,9.9c0.4,0.8,0.9,1.6,1.4,2.3c0.3,0.3,0.6,0.7,0.9,0.9c0.2,0.1,0.4,0.2,0.5,0.3l0.6,0.3
		c1.7,0.7,3.5,1.1,5.4,1.1c3.8,0.1,7.7-0.4,11.4-1.5c1.9-0.5,3.8-1.2,5.6-1.9c1.8-0.8,3.6-1.8,5.4-2.7l10.9-5.9l22.2-12l-0.1,0.4
		l-10.8-19.1l0.3,0.1l-34.7,13.4l-0.2,0.1V235c-1.7-11.2-3.2-20.3-4.5-26.5c-0.6-3.1-1.2-5.5-1.7-7.1c-0.1-0.4-0.2-0.8-0.3-1.1
		l-0.3-0.7C56.3,199.3,56.3,199.1,56.3,199.1z"/>
	<polygon class="st0" points="59.3,210.4 81.8,208.9 86.8,218.3 61.5,222.8 	"/>
	<path class="st5" d="M59.3,210.4c0.1,0.3,0.2,0.6,0.2,0.9c0.1,0.6,0.3,1.5,0.5,2.5c0.4,2.2,1,5.2,1.7,9l-0.2-0.2l22.7-4.1l2.5-0.4
		l-0.2,0.4c-1.7-3.3-3.4-6.4-5-9.4l0.2,0.1l-16.1,0.9l-4.7,0.2h-1.3L59.3,210.4c0.1-0.1,0.2-0.1,0.4-0.1l1.2-0.1l4.6-0.4l16.3-1.2
		H82l0.1,0.1l5,9.4l0.2,0.3l-0.3,0.1l-2.5,0.4l-22.8,4h-0.2v-0.2c-0.6-3.8-1.2-6.9-1.5-9.2c-0.2-1-0.3-1.9-0.4-2.5
		C59.3,210.9,59.3,210.7,59.3,210.4z"/>
	<path class="st5" d="M63.5,235.1c0.1,0.1-1.9,2.5-3.6,5.9s-2.4,6.4-2.6,6.4c0-0.7,0.2-1.4,0.4-2c0.4-1.6,1-3.1,1.7-4.6
		s1.6-2.9,2.6-4.1C62.4,236,62.9,235.5,63.5,235.1z"/>
	<path class="st5" d="M86.1,192.1c-0.4-0.3-0.9-0.6-1.2-0.9l-3.3-2.6h0.3c-1.3,2-2.8,3.9-4.5,5.6l-0.2,0.2l-0.2-0.1l-3.4-2.9
		c-3.7-3-7.2-5.6-9.7-7.5l-3-2.2c-0.4-0.2-0.7-0.5-1.1-0.9c0.4,0.2,0.8,0.4,1.2,0.7c0.7,0.5,1.8,1.2,3.1,2.1
		c2.6,1.8,6.1,4.4,9.8,7.4c1.2,1,2.4,2,3.4,2.9H77c1.7-1.7,3.2-3.5,4.5-5.5l0.1-0.2l0.2,0.1L85,191
		C85.4,191.4,85.7,191.7,86.1,192.1z"/>
	<path class="st5" d="M95.3,187.4c0.1,0.4,0.2,0.8,0.2,1.2c0.1,1.1,0,2.2-0.1,3.3l-0.1,0.6L95,192c-0.8-1.2-1.7-2.4-2.7-3.5
		c-0.4-0.5-0.8-0.9-1.2-1.3c-0.2-0.2-0.4-0.4-0.6-0.6c-0.2-0.1-0.2-0.1-0.3,0.1l-1.7,2.3c-0.5,0.7-1,1.4-1.6,2.1
		c0.4-0.8,0.8-1.6,1.3-2.3l1.6-2.4c0.2-0.3,0.6-0.4,0.9-0.2l0.1,0.1c0.3,0.2,0.4,0.4,0.6,0.6c0.4,0.4,0.8,0.9,1.2,1.4
		c1,1.1,1.9,2.3,2.7,3.6l-0.4,0.1C95.4,189.2,95.2,187.4,95.3,187.4z"/>
	<path class="st5" d="M55.2,196c-0.5-0.5-1-1.1-1.4-1.7c-1.1-1.4-2.3-2.6-3.7-3.6c-1.4-0.9-3.1-1.5-4.7-1.8
		c-0.7-0.1-1.4-0.2-2.1-0.3c0.7-0.1,1.5-0.1,2.2,0c1.8,0.2,3.5,0.8,5,1.8c1.4,1,2.7,2.3,3.7,3.8C54.6,194.8,55,195.4,55.2,196z"/>
	<path class="st5" d="M104.2,209.9c-0.8-1.5-1.4-3.1-1.8-4.8c-0.6-1.6-1-3.3-1.3-5c0.8,1.5,1.4,3.1,1.8,4.8
		C103.5,206.5,103.9,208.2,104.2,209.9z"/>
	<path class="st5" d="M113.1,254c0.1,0.7,0.2,1.3,0.2,2c0.1,1.2,0.2,2.9,0.3,4.8c0.1,1.6,0.1,3.2-0.1,4.8c0,0.7-0.2,1.4-0.4,2
		c0-0.7,0-1.3,0.1-2c0-1.2,0-2.9,0-4.8s-0.2-3.5-0.1-4.8C112.9,255.4,112.9,254.7,113.1,254z"/>
	<path class="st2" d="M72.2,217c-0.5,0.5-0.4,1.3,0,1.7c0.5,0.5,1.3,0.4,1.7,0c0.5-0.5,0.4-1.3,0-1.7s-0.9-0.4-1.4-0.2"/>
	<g class="st9">
		<polygon points="57.8,203.7 64.1,222.4 84.9,218.6 64.8,226.5 63.1,233 		"/>
	</g>
	<g class="st9">
		<path d="M60.4,181.1L79,198l2.9-7.9l3,1l-3.2-2.7c0,0-3.5,5.4-4.5,5.5L60.4,181.1z"/>
	</g>
	<path class="st5" d="M95.9,221.5c-0.2-0.4-0.3-0.7-0.4-1.1c-0.2-0.8-0.5-1.9-0.9-3.1c-0.7-2.6-1.8-6.3-3.1-10.2s-2.6-7.5-3.6-10.1
		c-0.4-1.2-0.8-2.2-1.2-3c-0.2-0.4-0.3-0.7-0.4-1.1c0.2,0.3,0.4,0.7,0.6,1.1c0.3,0.7,0.8,1.7,1.3,3c1.1,2.5,2.4,6.1,3.8,10.1
		s2.3,7.6,3,10.3c0.3,1.3,0.6,2.4,0.7,3.2C95.8,220.7,95.9,221.1,95.9,221.5z"/>
	<path class="st5" d="M95.6,200.7c3.5,3.5,12.4,12.7,12.4,12.7l2.4-1.4l-12.6-13.4c-0.5-0.5-1.4-0.7-2-0.2l0,0
		c-0.7,0.5-0.9,1.4-0.5,2.2C95.5,200.6,95.5,200.6,95.6,200.7z"/>
	<path class="st15" d="M98.1,221.6l3-8.4c0.6-1.9,2.4-3.2,4.3-3.2c0.1,0,0.3,0,0.4,0c1.8,0.2,11,0.8,11,0.8l3.6,4
		c0.6,0.7,0.6,1.7,0,2.4l0,0l1,7.2l-2,1.4l0.2,5c0,0-1.8,1.2-2.6,0.8l-0.8-0.4L115,230l-3.4,4.8l-4.7,2.7L98.1,221.6z"/>
	<path class="st16" d="M120.5,217.5c-0.4-0.5-0.8-1-1.3-1.4s-1.1-0.8-1.7-1c-0.8-0.2-1.6-0.3-2.5-0.3c-2.2-0.1-4.4-0.4-6.6-0.9
		c2.2-0.1,4.4,0.1,6.6,0.4c0.9,0,1.7,0.2,2.6,0.4c0.7,0.3,1.3,0.7,1.8,1.2C120,216.3,120.3,216.8,120.5,217.5z"/>
	<path class="st16" d="M120.3,224.1c-0.2-0.6-0.5-1.2-0.7-1.8c-0.8-1.4-2.1-2.4-3.5-3c-1.5-0.5-3.1-0.8-4.7-0.8c-0.7,0-1.3,0-2-0.1
		c0.6-0.2,1.3-0.3,2-0.3c1.7-0.1,3.3,0.1,4.9,0.7c1.6,0.6,2.9,1.8,3.7,3.3C120.2,222.7,120.4,223.4,120.3,224.1z"/>
	<path class="st16" d="M119.4,230.2c-0.3-0.6-0.5-1.3-0.5-2s-0.2-1.4-0.4-2.1c-0.4-0.8-1.1-1.3-1.9-1.4c-1.6-0.3-3.2-0.6-4.8-0.7
		c-0.7,0-1.4-0.2-2-0.5c0.7,0,1.3,0,2,0.1c1.6,0,3.3,0.2,4.9,0.6c0.5,0.1,0.9,0.3,1.3,0.6s0.7,0.7,0.8,1.1c0.3,0.7,0.4,1.5,0.4,2.2
		C119.3,229.5,119.4,230.2,119.4,230.2z"/>
	<polygon class="st17" points="124.4,214.4 84.8,255.2 86.3,256.8 114.7,253.6 152.8,217.3 152.8,215.5 	"/>
	<g class="st9">
		<path d="M126.9,240.1c-1.5-1.4-3.6-2.1-5.7-1.9c-2.1,0.2-4,1-5.6,2.4c-1.3,1-2.3,2.4-2.8,4c-0.7,2.8,1.2,5.8,3.8,7.2l0.3-0.4
			l9.7-7.8c0.5-0.3,0.9-0.8,1.1-1.4C127.8,241.3,127.5,240.5,126.9,240.1z"/>
	</g>
	<path class="st15" d="M122.8,236.2c0,0,3.8,0.1,5.1,0.7c1.2,0.6,4.7,4.3,4.7,4.3s0,2.5-1,2.6c0.1,0.6,0.2,1.1,0.2,1.7
		c0.1,1.4,0.3,2.2-1.6,3.4c0,0,0.2,2.3-0.5,2.9c-0.5,0.4-1,0.8-1.5,1.1c0,0-2.2,2.7-3.5,2.5s-3.2,1.4-3.2,1.4s-7-2.9-6.3-3.8
		l2.4-2.7c0,0-4.8-3.5-4.7-4.6s0.5-1.2,0.5-1.2s-0.2-2.1,1.5-2.3c0,0,1.3-2.6,2.6-2.7s10.1,3.1,10.1,3.1l-3.3-2.8
		c0,0-3.3-0.5-3.2-1.6S122.8,236.2,122.8,236.2z"/>
	<path class="st16" d="M122.2,249.4c-0.1,0.1-2-1-4.4-2.2c-1.5-0.6-3-1.4-4.5-2.1c1.6,0.3,3.2,0.9,4.7,1.7
		C119.5,247.4,120.9,248.3,122.2,249.4z"/>
	<path class="st16" d="M126.7,246.3c-2-0.4-3.9-1.1-5.7-1.9c-1.9-0.6-3.8-1.4-5.5-2.4c2,0.5,3.9,1.1,5.7,1.9
		C123.1,244.6,125,245.4,126.7,246.3z"/>
	<path class="st5" d="M152.6,217.2c-0.2,0-0.3,0-0.5,0h-1.5l-5.7-0.1l-19.7-0.4l0.2-0.1l-9.9,10.3c-8,8.2-15.2,15.7-20.5,21.1
		l-6.3,6.4l-1.7,1.7c-0.2,0.2-0.4,0.4-0.6,0.6c0.2-0.2,0.4-0.4,0.6-0.6l1.7-1.8l6.2-6.5l20.4-21.2l9.9-10.2l0.1-0.1h0.1l19.7,0.6
		l5.7,0.2l1.5,0.1C152.3,217.1,152.5,217.2,152.6,217.2z"/>
	<path class="st5" d="M104.2,135.9c-1.2-1.4-3-2.3-4.9-2.5c-1-0.3-2.2-0.2-3.2,0.2c-1.2,0.8-1.8,2.2-1.6,3.6c0.2,1.4,0.6,2.7,1.2,4
		s0.8,2.7,0.6,4.1l3.6,8.6c2.3-0.9,3.5-3.5,2.6-5.8c-0.1-0.2-0.2-0.5-0.3-0.7c2.1-1.2,2.9-3.8,1.8-5.9c-0.1-0.2-0.3-0.5-0.5-0.7
		C105.2,139.9,105.3,137.4,104.2,135.9z"/>
	<path class="st5" d="M71.1,158.2l-0.4-17.3l-10.9-0.5c-2,0.5-3.1,2.5-2.6,4.4c0.2,0.8,0.7,1.5,1.3,2c-2.3,1-3.3,3.7-2.3,6
		c0.5,1.2,1.6,2.1,2.9,2.5c-1.6,1.9-1.3,4.8,0.7,6.3c0.6,0.5,1.4,0.8,2.2,1c0,2,1.1,4.2,3.1,4.8s4.3-0.9,5.2-2.9
		S71.1,160.3,71.1,158.2z"/>
	<path class="st5" d="M59.4,138.5c0,0,1.1,14.3,2.5,18.7c1.1,3.2,2.6,6.2,4.5,9.1l33.4-10.4c1.1-7.7,2.3-15.5,1.8-21.6L91,130.5
		L59.4,138.5z"/>
	<path class="st5" d="M66.5,157.2c-1.4-3.8-2.5-7.8-3.2-11.8s-0.5-8.2,0.8-12.1c0.2-0.6,2-4.5,2.6-4.4c0.4,0-0.6,3.7-0.4,4.1
		c2.1,3.7,2.9,8,2.5,12.2C68.4,149.2,67.7,153.2,66.5,157.2"/>
	<path class="st15" d="M89.6,183.9v-9.7c0,0,9.9-1.1,10.4-10.9c0.2-4.7,0-14.5-0.4-23.4c-0.4-9.5-8-17.1-17.5-17.5h-0.9
		c-10.2,0.2-15.8,9-15.3,19.2v33.2L86,189.3L89.6,183.9z"/>
	<path class="st16" d="M89.7,174.2c-4.5-0.2-8.9-1.7-12.6-4.2c0,0,2.8,7.2,12.6,6.8V174.2z"/>
	<path class="st5" d="M96.4,148.3c0,0.8-0.6,1.4-1.4,1.4c-0.7,0-1.4-0.5-1.4-1.3l0,0c0-0.8,0.6-1.4,1.4-1.4
		C95.7,147,96.4,147.5,96.4,148.3L96.4,148.3z"/>
	<path class="st5" d="M97.4,144c-0.2,0.2-1.2-0.6-2.7-0.7s-2.6,0.7-2.8,0.5s0.1-0.4,0.6-0.7c0.7-0.4,1.4-0.6,2.2-0.6
		c0.8,0,1.5,0.3,2.2,0.8C97.3,143.5,97.4,143.9,97.4,144z"/>
	<path class="st5" d="M82.9,148.6c0,0.8-0.6,1.4-1.4,1.4c-0.7,0-1.4-0.6-1.4-1.3l0,0c0-0.8,0.7-1.4,1.4-1.4
		C82.3,147.2,82.9,147.8,82.9,148.6L82.9,148.6z"/>
	<path class="st5" d="M82.6,144c-0.2,0.2-1.2-0.6-2.7-0.7s-2.6,0.6-2.8,0.5s0.1-0.4,0.6-0.7c0.7-0.4,1.4-0.6,2.2-0.6
		c0.8,0,1.5,0.3,2.2,0.8C82.5,143.6,82.7,143.9,82.6,144z"/>
	<path class="st5" d="M87.5,155.8c0.8-0.2,1.6-0.3,2.5-0.4c0.4,0,0.8-0.1,0.8-0.3c0-0.4,0-0.8-0.2-1.1c-0.3-0.9-0.7-1.9-1-3
		c-1.4-4.2-2.4-7.7-2.2-7.8s1.5,3.3,2.9,7.6c0.3,1,0.7,2,1,3c0.2,0.5,0.3,1,0.2,1.5c-0.1,0.3-0.4,0.5-0.7,0.5
		c-0.2,0-0.4,0.1-0.7,0.1C89.2,155.9,88.4,155.9,87.5,155.8z"/>
	<path class="st5" d="M83.1,156.6c0.2,0,0.2,1.6,1.5,2.8s3.1,1.1,3.1,1.3s-0.4,0.3-1.1,0.3c-1,0-1.9-0.4-2.6-1s-1.1-1.5-1.2-2.4
		C82.8,157,83,156.6,83.1,156.6z"/>
	<path class="st5" d="M83.3,138.8c-0.2,0.4-1.7,0.1-3.4,0.3s-3.2,0.6-3.4,0.2c-0.1-0.2,0.2-0.6,0.8-0.9c0.8-0.5,1.7-0.7,2.6-0.8
		s1.8,0.1,2.7,0.4C83,138.3,83.3,138.6,83.3,138.8z"/>
	<path class="st5" d="M96.9,138.9c-0.3,0.3-1.3-0.1-2.6-0.1s-2.3,0.1-2.5-0.2c-0.1-0.2,0.1-0.5,0.6-0.8c0.6-0.4,1.4-0.5,2.1-0.5
		s1.4,0.3,2,0.8C96.9,138.4,97.1,138.8,96.9,138.9z"/>
	<path class="st15" d="M66.4,148.9c-0.2-0.1-6.7-2.3-6.7,4.4s6.7,5.4,6.7,5.2S66.4,148.9,66.4,148.9z"/>
	<path class="st16" d="M64.3,156c0,0-0.1,0.1-0.3,0.2c-0.3,0.1-0.6,0.1-0.9,0c-0.9-0.6-1.4-1.6-1.3-2.6c0-0.6,0.1-1.1,0.3-1.7
		c0.1-0.4,0.5-0.8,0.9-0.9c0.3-0.1,0.6,0.1,0.7,0.3c0.1,0.2,0,0.3,0.1,0.3s0.2-0.1,0.1-0.4c0-0.2-0.1-0.3-0.3-0.4
		c-0.2-0.1-0.4-0.2-0.6-0.2c-0.6,0.1-1,0.5-1.2,1c-0.3,0.6-0.4,1.2-0.4,1.9c-0.1,1.2,0.6,2.4,1.7,2.9c0.4,0.1,0.8,0,1.1-0.2
		C64.3,156.1,64.4,156,64.3,156z"/>
	<path class="st5" d="M95.2,128.9c1.1-0.6-2.2-4.1-4.8-5.3c-4-1.8-10.2-2.9-13.9-1.9c-4.5,1.3-8.2,3.5-10.4,7.6
		c-2.2,4.1-3.2,8.8-2.9,13.5c0,1.4,0.3,2.8,1,4.1c0.9,1.5,2.7,2.4,2.7,4.5c0,0.7,0.2,1.4,0.7,2c1.2,1.3,2.7,0.1,3.4-1.1
		c1.5-2.6,1.6-5.8,1.8-8.8c0.2-2.1,0.1-4.3-0.4-6.4c-0.3-1.1-0.9-2.2-1.1-3.3c-0.3-1.1-0.2-2.4,0.5-3.4c0.2-0.2,0.4-0.4,0.6-0.6
		c1.9-1.6,4.5-2.1,6.9-1.3c3.8,1.3,10.2,3.3,11.9,2c1.2-0.8,2.2-1.8,3-3L95.2,128.9z"/>
	<path class="st0" d="M76.3,114.7c-0.5,0.1-11.9,2.2-15.1,10.6s-2.4,11-2.4,11c-0.5,0.3-0.9,0.6-1.2,1c-0.5,0.5,0.1,3.2,1.6,3
		c11.3-4.6,24.5-4.6,39.1-3.7l11.2,0.2c3.1,0.5,4.3-0.3,3-1.2c-1-0.6-9.8-4.5-9.8-4.5l-1.8-1.4l-4.4-6.6c0,0,0.6-0.9-0.5-1.7
		S85.6,113.8,76.3,114.7z"/>
	<path class="st5" d="M101,129.9c-0.1,0-0.3,0-0.4,0l-1.2-0.1c-1.1-0.1-2.7-0.1-4.6-0.1c-5.1,0-10.1,0.4-15.1,1.3
		c-5,0.9-9.9,2.1-14.8,3.6c-1.9,0.5-3.4,1-4.4,1.3l-1.2,0.4l-0.4,0.1l0.4-0.1l1.2-0.4c1-0.3,2.5-0.8,4.4-1.4
		c4.9-1.5,9.8-2.7,14.8-3.6c5-0.9,10.1-1.3,15.2-1.3C98.6,129.6,101,129.9,101,129.9z"/>
	<g class="st9">
		<path d="M65.7,119.4c0,0,12.3-1.6,17.7,1.3l-0.6-0.3l5.2,2.4c0.8,0.5,1.8,0.7,2.7,0.4c-2.3-2-4.9-3.5-7.8-4.5
			C77.9,116.8,69.7,115.8,65.7,119.4z"/>
	</g>
	<path class="st5" d="M65.6,119.4c0.4-0.3,0.7-0.5,1.1-0.7c1.1-0.6,2.2-1,3.3-1.3c1.7-0.4,3.5-0.6,5.3-0.6c2.2,0,4.3,0.5,6.3,1.5
		c1,0.5,2,1.1,2.9,1.7s1.8,1.1,2.6,1.7c0.7,0.6,1.5,1.1,2.3,1.6c0.7,0.4,1.5,0.5,2.4,0.6c3,0.2,4.9-0.4,4.8-0.6
		c-0.1,0.1-0.1,0.2-0.2,0.2c-0.3,0.1-0.6,0.2-0.9,0.3c-1.2,0.2-2.4,0.3-3.6,0.2c-0.8,0-1.7-0.2-2.4-0.6c-0.8-0.5-1.6-1-2.4-1.6
		s-1.7-1.1-2.6-1.7s-1.9-1.2-2.9-1.7c-2-0.9-4.1-1.4-6.2-1.5c-1.8-0.1-3.5,0.1-5.2,0.5c-1.2,0.3-2.3,0.7-3.3,1.2
		c-0.4,0.2-0.7,0.3-0.8,0.5L65.6,119.4z"/>
	<g class="st9">
		<path d="M60,128.9c2.1-0.1,4.1-0.3,6.1-0.9c2.3-0.4,4.7-0.8,7-1.3c1.8-0.4,3.8-0.8,5-2c0.1,0.9-0.2,1.8-0.9,2.4
			c-1.2,0.7-2.4,1.2-3.8,1.5c-4.6,1.2-9.3,2-14,2.2C59.6,130.1,59.8,129.5,60,128.9"/>
	</g>
	<path class="st0" d="M61.6,124.4c-1.4,0.6-2.3,0.9-2.4,2.1c-0.1,1,0.1,2.2,1.1,2.4c0.3,0,0.6,0,0.9,0l15.3-2.6c0.5,0,1-0.2,1.4-0.6
		c0.4-0.7,0.2-1.6-0.4-2.1c-0.7-0.4-1.5-0.6-2.3-0.6C70.6,123,66,123.4,61.6,124.4"/>
	<path class="st5" d="M77.7,126c0.2-0.2,0.3-0.4,0.4-0.7c0.2-0.7,0-1.5-0.6-1.9c-0.9-0.6-1.9-0.9-3-0.8c-1.2,0-2.6,0.1-4,0.2
		c-2.4,0.1-4.8,0.5-7.1,1c-0.9,0.2-1.6,0.4-2.1,0.6l-0.6,0.2l-0.2,0.1c0,0,0.1,0,0.2-0.1l0.6-0.2c0.7-0.3,1.4-0.5,2.1-0.7
		c2.3-0.6,4.7-1,7.1-1.1c1.4-0.1,2.8-0.1,4-0.1c1.1-0.1,2.2,0.2,3.1,0.8c0.6,0.5,0.8,1.3,0.5,2.1C78,125.6,77.9,125.8,77.7,126
		L77.7,126z"/>
	<polygon class="st6" points="98,125.4 88.4,124.9 89.2,127.6 99.6,127.7 	"/>
	<path class="st5" d="M83.2,133.4c0,0,4.3-0.5,9.6-1s9.6-0.9,9.6-0.9s-4.3,0.5-9.6,1S83.2,133.4,83.2,133.4z"/>
	<rect x="41.7" y="268.3" class="st17" width="73.5" height="12.3"/>
	<path class="st17" d="M43.9,274.2h34l0,0v34.5c0,3.8-3.1,6.9-6.9,6.9H50.8c-3.8,0-6.9-3.1-6.9-6.9l0,0L43.9,274.2L43.9,274.2z"/>
	<path class="st5" d="M77.9,285.5c-0.1-0.7-0.1-1.4-0.1-2.1c0-1.9-0.3-3.8-0.8-5.7c-0.2-0.6-0.5-1.1-0.9-1.6c-0.5-0.5-1-0.9-1.6-1.2
		c-1.3-0.8-2.8-1.2-4.3-1.4c-3.2-0.2-6.8-0.1-10.5-0.1s-7.3-0.3-10.5,0.4c-1.5,0.2-2.9,0.9-3.9,2c-0.8,1.1-1.2,2.3-1.2,3.6
		c-0.2,2.4-0.2,4.4-0.2,5.8c0,0.6,0,1.2,0,1.6c0,0.2,0,0.4,0,0.5c0-0.2-0.1-0.4-0.1-0.5c0-0.4,0-0.9,0-1.6c0-1.4-0.1-3.4,0.1-5.8
		c0-1.4,0.5-2.7,1.3-3.9c1.1-1.2,2.6-1.9,4.1-2.2c1.7-0.3,3.4-0.5,5.1-0.4c1.8,0,3.6,0,5.5,0c3.8,0,7.3-0.1,10.6,0.1
		c1.6,0.1,3.1,0.6,4.4,1.5c0.6,0.4,1.2,0.8,1.7,1.3s0.8,1.1,1,1.8c0.5,1.9,0.7,3.9,0.6,5.8c0,0.6,0,1.2,0,1.6
		C78.1,285.1,78,285.3,77.9,285.5z"/>
	<path class="st5" d="M77.7,289.1c0,0.1-7.5,0.3-16.7,0.3s-16.7-0.1-16.7-0.3s7.5-0.3,16.7-0.3S77.7,289,77.7,289.1z"/>
	<path class="st5" d="M53.7,316c-0.2,0-0.3-6-0.3-13.5s0.1-13.5,0.3-13.5s0.3,6,0.3,13.5S53.8,316,53.7,316z"/>
	<path class="st5" d="M69,315.9c-0.1,0-0.3-6-0.3-13.4s0.1-13.4,0.3-13.4s0.3,6,0.3,13.4S69.1,315.9,69,315.9z"/>
	<path class="st17" d="M115.1,268.3l4.2,5.9c0,0,3.8,35.3,2.1,37s-7.4,1.6-7.4,1.6l-1.6-42.3L115.1,268.3z"/>
	<path class="st5" d="M101.8,280.1c-0.7-3.9-0.7-8-0.2-11.9c0.2,2,0.2,4,0.1,6C101.9,276.2,101.9,278.1,101.8,280.1z"/>
	<path class="st5" d="M115.2,268.5c0.2,0.6,0.4,1.3,0.4,2c0.2,1.2,0.4,3,0.5,4.9c0.1,0.9,0,1.8-0.1,2.7c-0.1,0.8-0.5,1.5-1.2,2
		c-0.4,0.3-0.9,0.6-1.4,0.6c-0.4,0-0.6-0.1-0.6-0.1c0.6,0,1.3-0.3,1.7-0.8c0.5-0.5,0.8-1.1,0.9-1.8c0.1-0.9,0.1-1.8,0.1-2.6
		C115.5,271.6,115.1,268.5,115.2,268.5z"/>
</g>
</svg>
