<?xml version="1.0" encoding="UTF-8"?>
<svg id="Layer_2" data-name="Layer 2" xmlns="http://www.w3.org/2000/svg" viewBox="0 0 771.45 161.02">
  <defs>
    <style>
      .cls-1 {
        fill: #fff;
      }
    </style>
  </defs>
  <g id="Isolation_Mode" data-name="Isolation Mode">
    <g>
      <path class="cls-1" d="m209.28,7.7h7.47v49.68l19.06-12.61c1.92-1.27,4.15-2.02,6.45-2.03.01,0,.03,0,.04,0,16.82,0,24.61,9.97,24.61,23.67v28.34c0,19.31-13.24,25.23-28.97,25.23s-28.66-5.76-28.66-25.23V7.7Zm7.47,86.43c0,15.26,10.12,18.84,21.18,18.84s21.49-3.58,21.49-18.84v-25.07c0-13.55-6.39-19-14.95-19-2.02,0-5.45.31-8.88,2.65l-18.84,12.46v28.97Z"/>
      <path class="cls-1" d="m341.71,68.75v9.41c0,3.84-3.11,6.95-6.95,6.95h-45.05v8.88c0,14.64,14.3,18.69,26.81,18.69,6.17,0,16.25-.47,22.58-1.56v7.16c-7.15,1.09-14.79,1.71-23.72,1.71-17.55,0-33.47-6.07-33.47-28.03v-23.21c0-15.26,6.82-26.01,30.06-26.01s29.73,10.75,29.73,26.01Zm-10.75,8.88c1.63,0,2.95-1.32,2.95-2.95v-9.5c0-8.57-6.99-15.42-21.94-15.42-13.16,0-22.26,5.29-22.26,15.73v12.15h41.24Z"/>
      <path class="cls-1" d="m404.69,100.68c0,11.84-8.1,19.31-25.23,19.31-16.04,0-25.07-1.71-25.07-1.71v-7.63s12.93,1.87,21.8,1.87c13.86,0,21.02-3.12,21.02-11.99v-3.58c0-4.83-1.56-9.34-9.97-10.59l-15.89-2.18c-10.75-1.4-17.29-7.01-17.29-16.66v-4.83c0-11.84,6.85-19.93,26.79-19.93,9.34,0,14.02.93,19.62,1.56v7.32s-9.81-1.4-19-1.4c-14.02,0-19.93,4.05-19.93,12.46v3.43c0,4.83,1.56,9.5,9.97,10.59l15.89,2.18c11.06,1.4,17.29,7.16,17.29,16.66v5.14Z"/>
      <path class="cls-1" d="m454.21,118.59c-2.8.78-7.01,1.24-9.97,1.24-11.06,0-19.16-4.05-19.16-20.09v-48.12h-14.17v-7.17h14.17v-18.22l4.36-2.96h3.12v21.18h23.05v7.17h-23.05v46.57c0,10.28,3.27,14.02,12.15,14.02,1.71,0,7.48-.47,9.5-.78v7.16Z"/>
      <path class="cls-1" d="m514.48,118.28v-49.68c0-10.12-3.74-14.33-12.15-14.33-2.02,0-4.98.62-7.32,1.87l-17.13,9.5v52.64h-11.52V44.46h11.52v12.3l19.16-13.39c1.4-.47,3.12-.62,4.36-.62,17.6,0,24.61,9.97,24.61,23.67v51.86h-11.52Z"/>
      <path class="cls-1" d="m597.95,68.75v10.74c0,3.87-3.14,7.01-7.01,7.01h-43v6.85c0,12.93,11.69,15.73,23.7,15.73,6.82,0,16.88-.78,23.7-1.56v10.75c-8.44,1.09-15.91,1.71-24.84,1.71-17.54,0-34.58-6.07-34.58-28.03v-23.21c0-15.26,6.98-26.01,31.17-26.01s30.85,10.75,30.85,26.01Zm-14.84,7.32c1.56,0,2.83-1.27,2.83-2.83v-6.2c0-8.57-5.52-14.17-18.83-14.17-11.53,0-19.16,4.05-19.16,14.48v8.72h35.16Z"/>
      <path class="cls-1" d="m649.04,44.46h17.44l15.88,63.7h1.56l15.73-63.7h12.3l-19.78,73.82h-17.75l-15.89-64.32h-1.56l-15.89,64.32h-17.75l-19.78-73.82h12.3l15.73,63.7h1.56l15.88-63.7Z"/>
      <path class="cls-1" d="m771.45,100.21c0,13.24-9.19,19.78-27.72,19.78-13.39,0-24.76-1.71-24.76-1.71v-10.59s14.33,1.71,22.74,1.71c13.7,0,19-2.49,19-9.66v-3.27c0-4.21-2.03-7.94-9.81-9.03l-14.95-2.02c-10.28-1.4-17.29-8.26-17.29-17.91v-4.98c0-13.24,9.34-19.78,26.94-19.78,9.03,0,15.73.93,21.65,1.56v10.43s-11.37-1.4-19.93-1.4c-12.61,0-17.91,2.49-17.91,9.81v3.11c0,4.21,2.02,7.94,9.81,9.03l14.95,2.03c10.43,1.4,17.29,8.25,17.29,17.91v4.98Z"/>
      <path class="cls-1" d="m0,141.53V19.51c.11-.45.24-.89.33-1.34C2.15,7.78,11.19.04,21.79.03,61.06,0,100.33-.02,139.59.04c11.91,0,21.69,9.75,21.7,21.64.06,39.25.05,78.49,0,117.74,0,9.56-6.52,18-15.71,20.68-1.25.37-2.53.63-3.8.93H19.53c-.29-.09-.58-.22-.89-.28-9.16-1.71-15.09-7.05-17.86-15.9-.34-1.08-.53-2.22-.79-3.32Zm85.92-70.37c0-1.34.02-2.68,0-4.03-.04-2.55-1.14-3.68-3.65-3.69-4.67-.02-9.34-.02-14.01,0-2.55,0-3.66,1.12-3.67,3.64,0,20.01,0,40.02,0,60.04,0,2.57,1.17,3.7,3.78,3.71,4.31.01,8.61,0,12.92,0,3.68,0,4.56-.87,4.56-4.51,0-10.06-.02-20.12.01-30.18.01-3.84.85-7.49,2.99-10.74,2.6-3.96,6.42-5.18,10.94-4.56,4.13.56,6.91,3.01,7.86,6.93.8,3.32,1.16,6.81,1.21,10.22.15,9.69.03,19.39.04,29.08,0,2.63,1.13,3.73,3.75,3.74,4.72.01,9.45,0,14.17,0,2.79,0,3.91-1.12,3.91-3.92,0-11,.12-22.01-.1-33-.1-4.58-.58-9.22-1.55-13.69-1.79-8.27-6.34-14.46-14.96-16.73-2.51-.66-5.17-.99-7.76-1.04-8.01-.13-15.23,1.73-20.45,8.73Zm-52.22,26.04c0,9.85,0,19.7,0,29.55,0,2.87,1.24,4.08,4.14,4.09,4.31.01,8.61.01,12.91,0,2.99,0,4.24-1.2,4.24-4.17.01-19.7.01-39.39,0-59.09,0-2.99-1.21-4.15-4.24-4.17-4.25-.01-8.5-.01-12.75,0-3.19.01-4.3,1.16-4.3,4.4v29.39Zm24.35-53.2c.07-7.49-5.98-13.69-13.44-13.79-7.66-.1-13.95,5.98-14.02,13.57-.07,7.56,6.02,13.78,13.56,13.84,7.72.06,13.83-5.92,13.91-13.62Z"/>
    </g>
  </g>
</svg>