<?xml version="1.0" encoding="UTF-8"?>
<svg id="Layer_2" data-name="Layer 2" xmlns="http://www.w3.org/2000/svg" viewBox="0 0 882.2 197.71">
  <defs>
    <style>
      .cls-1, .cls-2 {
        fill: #fff;
      }

      .cls-2 {
        fill-rule: evenodd;
      }
    </style>
  </defs>
  <g id="Isolation_Mode" data-name="Isolation Mode">
    <g>
      <path class="cls-1" d="m289.17,22.05h7.89v52.41l20.1-13.3c2.02-1.34,4.38-2.13,6.8-2.14.01,0,.03,0,.04,0,17.74,0,25.96,10.51,25.96,24.97v29.9c0,20.37-13.96,26.62-30.56,26.62s-30.23-6.08-30.23-26.62V22.05Zm7.89,91.18c0,16.1,10.68,19.88,22.34,19.88s22.67-3.78,22.67-19.88v-26.45c0-14.29-6.74-20.04-15.77-20.04-2.14,0-5.75.33-9.36,2.79l-19.88,13.14v30.56Z"/>
      <path class="cls-1" d="m428.88,86.45v9.92c0,4.05-3.28,7.33-7.33,7.33h-47.52v9.36c0,15.44,15.08,19.71,28.28,19.71,6.51,0,17.14-.49,23.82-1.64v7.56c-7.54,1.15-15.6,1.81-25.02,1.81-18.51,0-35.31-6.41-35.31-29.57v-24.48c0-16.1,7.2-27.44,31.71-27.44s31.37,11.34,31.37,27.44Zm-11.34,9.36c1.72,0,3.12-1.4,3.12-3.12v-10.03c0-9.04-7.37-16.26-23.14-16.26-13.88,0-23.48,5.59-23.48,16.59v12.81h43.5Z"/>
      <path class="cls-1" d="m495.31,120.13c0,12.49-8.54,20.37-26.61,20.37-16.92,0-26.45-1.81-26.45-1.81v-8.05s13.64,1.97,23,1.97c14.62,0,22.18-3.29,22.18-12.65v-3.78c0-5.09-1.64-9.86-10.51-11.17l-16.76-2.3c-11.34-1.48-18.23-7.39-18.23-17.58v-5.09c0-12.49,7.23-21.03,28.26-21.03,9.86,0,14.78.99,20.7,1.64v7.72s-10.35-1.48-20.04-1.48c-14.79,0-21.03,4.27-21.03,13.14v3.61c0,5.09,1.64,10.02,10.51,11.17l16.76,2.3c11.66,1.48,18.23,7.56,18.23,17.58v5.42Z"/>
      <path class="cls-1" d="m547.55,139.02c-2.96.82-7.39,1.31-10.51,1.31-11.66,0-20.21-4.27-20.21-21.19v-50.76h-14.95v-7.56h14.95v-19.22l4.6-3.12h3.29v22.34h24.31v7.56h-24.31v49.12c0,10.84,3.45,14.78,12.81,14.78,1.81,0,7.89-.49,10.02-.82v7.56Z"/>
      <path class="cls-1" d="m611.13,138.69v-52.41c0-10.68-3.94-15.11-12.82-15.11-2.14,0-5.26.66-7.72,1.97l-18.07,10.02v55.53h-12.16V60.82h12.16v12.98l20.21-14.13c1.48-.49,3.29-.66,4.6-.66,18.57,0,25.96,10.51,25.96,24.97v54.71h-12.16Z"/>
      <path class="cls-1" d="m699.17,86.45v11.33c0,4.08-3.31,7.39-7.39,7.39h-45.36v7.23c0,13.64,12.33,16.59,25.01,16.59,7.19,0,17.81-.82,25.01-1.64v11.34c-8.91,1.15-16.78,1.81-26.2,1.81-18.5,0-36.48-6.41-36.48-29.57v-24.48c0-16.1,7.36-27.44,32.88-27.44s32.54,11.34,32.54,27.44Zm-15.66,7.72c1.65,0,2.98-1.34,2.98-2.98v-6.54c0-9.04-5.82-14.95-19.87-14.95-12.16,0-20.21,4.27-20.21,15.28v9.2h37.09Z"/>
      <path class="cls-1" d="m753.07,60.82h18.4l16.76,67.19h1.64l16.59-67.19h12.98l-20.86,77.87h-18.73l-16.76-67.85h-1.64l-16.76,67.85h-18.73l-20.86-77.87h12.98l16.59,67.19h1.64l16.76-67.19Z"/>
      <path class="cls-1" d="m882.2,119.64c0,13.96-9.69,20.86-29.24,20.86-14.13,0-26.12-1.81-26.12-1.81v-11.17s15.11,1.81,23.99,1.81c14.46,0,20.04-2.63,20.04-10.19v-3.45c0-4.44-2.14-8.38-10.35-9.53l-15.77-2.14c-10.84-1.48-18.23-8.71-18.23-18.89v-5.26c0-13.96,9.86-20.86,28.42-20.86,9.53,0,16.59.99,22.83,1.64v11.01s-11.99-1.48-21.03-1.48c-13.31,0-18.89,2.63-18.89,10.35v3.28c0,4.44,2.14,8.38,10.35,9.53l15.77,2.14c11.01,1.48,18.23,8.71,18.23,18.89v5.26Z"/>
      <path class="cls-2" d="m232.43,17.15c-3.22,34.74-17.17,119.03-24.26,157.94-3,16.46-8.91,21.98-14.63,22.52-12.43,1.18-21.87-8.43-33.92-16.53-18.85-12.67-29.49-20.57-47.79-32.93-21.14-14.29-7.43-22.15,4.61-34.99,3.15-3.36,57.94-54.47,59-59.12.13-.58.26-2.73-1-3.88-1.25-1.14-3.1-.75-4.43-.43-1.89.43-32,20.85-90.31,61.24-8.55,6.02-16.29,8.95-23.22,8.8-7.64-.17-22.35-4.44-33.28-8.08C9.78,107.21-.87,104.84.06,97.24c.48-3.95,5.8-8.01,15.93-12.13,62.42-27.91,104.04-46.3,124.87-55.19C200.32,4.56,212.67.14,220.73,0c1.77-.04,5.73.42,8.3,2.55,2.17,1.8,2.76,4.25,3.05,5.96.29,1.71.64,5.6.36,8.64Z"/>
    </g>
  </g>
</svg>