<svg width="100%" height="100%" viewBox="0 0 151 48" fill="none" xmlns="http://www.w3.org/2000/svg">
<g clip-path="url(#clip0_1267_749)">
<path d="M18.8791 34.838L7.92395 45.7932C7.1348 46.5823 6.06249 47.028 4.9484 47.028H4.88342C2.55776 47.028 0.677734 45.1433 0.677734 42.8223V31.8624H5.89074L13.8797 23.9106L18.8791 28.9148C20.5085 30.5534 20.5085 33.1994 18.8791 34.838Z" fill="white"/>
<path d="M18.8791 12.9371L7.92395 1.98185C7.1348 1.19271 6.06249 0.74707 4.94376 0.74707H4.87877C2.55776 0.74707 0.677734 2.62709 0.677734 4.95275V15.9126H5.89074L13.8797 23.9108L18.8791 18.9067C20.5271 17.2774 20.541 14.6175 18.9116 12.9695C18.9024 12.9603 18.8884 12.9463 18.8791 12.9371Z" fill="white"/>
<path d="M32.8613 8.4248H34.4303V18.8647L38.4364 16.2141C38.8403 15.9495 39.3091 15.7871 39.7919 15.7871C39.7919 15.7871 39.7965 15.7871 39.8012 15.7871C43.3338 15.7871 44.9724 17.8806 44.9724 20.7633V26.7191C44.9724 30.7762 42.1918 32.0203 38.8867 32.0203C35.5816 32.0203 32.866 30.8087 32.866 26.7191V8.4248H32.8613ZM34.4303 26.5891C34.4303 29.7967 36.5564 30.5487 38.882 30.5487C41.2077 30.5487 43.3987 29.7967 43.3987 26.5891V21.3204C43.3987 18.4748 42.0572 17.3282 40.2561 17.3282C39.829 17.3282 39.1095 17.3932 38.39 17.8853L34.4303 20.5034V26.5891Z" fill="white"/>
<path d="M60.6893 21.2557V23.2332C60.6893 24.0409 60.0347 24.6908 59.2317 24.6908H49.7666V26.5569C49.7666 29.6345 52.77 30.484 55.402 30.484C56.7018 30.484 58.8185 30.3865 60.1462 30.1591V31.6631C58.6421 31.8906 57.0406 32.0252 55.1606 32.0252C51.4748 32.0252 48.1279 30.7486 48.1279 26.1344V21.2557C48.1279 18.048 49.5623 15.792 54.4457 15.792C59.3292 15.792 60.6939 18.0527 60.6939 21.2557H60.6893ZM58.4286 23.1218C58.7721 23.1218 59.0506 22.8432 59.0506 22.4997V20.5037C59.0506 18.7025 57.5838 17.2635 54.4411 17.2635C51.6744 17.2635 49.7619 18.3776 49.7619 20.5686V23.1218H58.4286Z" fill="white"/>
<path d="M73.923 27.9634C73.923 30.4515 72.2194 32.0205 68.6218 32.0205C65.2517 32.0205 63.3531 31.6585 63.3531 31.6585V30.057C63.3531 30.057 66.0687 30.4515 67.9348 30.4515C70.8453 30.4515 72.354 29.797 72.354 27.9309V27.1789C72.354 26.1623 72.029 25.2153 70.2604 24.9554L66.9228 24.4958C64.6668 24.2034 63.2881 23.0243 63.2881 20.9957V19.9791C63.2881 17.491 64.7271 15.792 68.9189 15.792C70.8824 15.792 71.8619 15.987 73.041 16.1169V17.6534C73.041 17.6534 70.9799 17.361 69.0488 17.361C66.1012 17.361 64.8617 18.2105 64.8617 19.9791V20.6986C64.8617 21.7152 65.1913 22.6947 66.9553 22.9222L70.2929 23.3817C72.6186 23.6742 73.9276 24.8857 73.9276 26.8818V27.9634H73.923Z" fill="white"/>
<path d="M84.3318 31.7281C83.7422 31.8906 82.8603 31.9881 82.2382 31.9881C79.9126 31.9881 78.2136 31.1386 78.2136 27.7685V17.6535H75.2334V16.1495H78.2136V12.3198L79.1281 11.6978H79.7826V16.1495H84.6242V17.6535H79.7826V27.4389C79.7826 29.5974 80.4696 30.3819 82.3357 30.3819C82.6978 30.3819 83.9047 30.2845 84.3318 30.2195V31.7235V31.7281Z" fill="white"/>
<path d="M96.9949 31.6631V21.2232C96.9949 19.0971 96.2104 18.2105 94.4418 18.2105C94.0147 18.2105 93.3927 18.3405 92.9052 18.6051L89.303 20.6011V31.6631H86.8799V16.1494H89.303V18.735L93.3277 15.922C93.6201 15.8245 93.9822 15.792 94.2421 15.792C97.9418 15.792 99.4134 17.8855 99.4134 20.7683V31.6677H96.9902L96.9949 31.6631Z" fill="white"/>
<path d="M114.537 21.2554V23.5115C114.537 24.3238 113.878 24.983 113.065 24.983H104.032V26.422C104.032 29.1376 106.488 29.7271 109.013 29.7271C110.447 29.7271 112.559 29.5647 113.994 29.3976V31.6582C112.22 31.8857 110.651 32.0203 108.771 32.0203C105.086 32.0203 101.502 30.7437 101.502 26.1296V21.2508C101.502 18.0431 102.969 15.7871 108.052 15.7871C113.135 15.7871 114.532 18.0478 114.532 21.2508L114.537 21.2554ZM111.417 22.7919C111.747 22.7919 112.012 22.5273 112.012 22.1978V20.8933C112.012 19.0922 110.851 17.9132 108.052 17.9132C105.629 17.9132 104.027 18.7627 104.027 20.9583V22.7919H111.417Z" fill="white"/>
<path d="M125.274 16.1494H128.941L132.279 29.537H132.609L135.914 16.1494H138.499L134.345 31.6631H130.613L127.275 18.1455H126.95L123.612 31.6631H119.88L115.726 16.1494H118.311L121.616 29.537H121.946L125.284 16.1494H125.274Z" fill="white"/>
<path d="M150.999 27.8657C150.999 30.6463 149.068 32.0203 145.174 32.0203C142.361 32.0203 139.97 31.6582 139.97 31.6582V29.4347C139.97 29.4347 142.983 29.7968 144.747 29.7968C147.625 29.7968 148.739 29.2722 148.739 27.7682V27.0812C148.739 26.1992 148.312 25.41 146.678 25.1826L143.535 24.7555C141.377 24.4631 139.9 23.0194 139.9 20.9908V19.9417C139.9 17.1611 141.864 15.7871 145.564 15.7871C147.462 15.7871 148.869 15.9821 150.113 16.1121V18.3031C150.113 18.3031 147.722 18.0106 145.926 18.0106C143.275 18.0106 142.161 18.5352 142.161 20.0717V20.7262C142.161 21.6082 142.588 22.3974 144.222 22.6248L147.365 23.0519C149.556 23.3443 150.999 24.788 150.999 26.8166V27.8657Z" fill="white"/>
</g>
</svg>
