<?xml version="1.0" encoding="UTF-8"?>
<svg id="Camada_2" data-name="Camada 2" xmlns="http://www.w3.org/2000/svg" viewBox="0 0 308.9 103.14">
  <defs>
    <style>
      .cls-1 {
        fill: #fff;
      }
    </style>
  </defs>
  <g id="Camada_1-2" data-name="Camada 1">
    <g>
      <g>
        <path class="cls-1" d="m64.35,13.8h3.7v24.56l10.47-6.93c.69-.23,1.54-.31,2.16-.31,8.32,0,12.17,4.93,12.17,11.7v14.01c0,9.55-6.54,12.47-14.32,12.47s-14.17-2.85-14.17-12.47V13.8Zm3.7,42.73c0,7.55,5,9.32,10.47,9.32s10.62-1.77,10.62-9.32v-12.4c0-6.7-3.16-9.39-7.39-9.39-1,0-2.69.15-4.39,1.31l-9.32,6.16v14.32Z"/>
        <path class="cls-1" d="m129.18,43.98v8.08h-24.64v4.39c0,7.24,6.78,9.24,12.7,9.24,2.93,0,7.7-.23,10.7-.77v3.54c-3.39.54-7.01.85-11.24.85-8.32,0-15.86-3-15.86-13.86v-11.47c0-7.55,3.23-12.86,14.24-12.86s14.09,5.31,14.09,12.86Zm-3.7,4.39v-6.16c0-4.23-3.31-7.62-10.39-7.62-6.24,0-10.55,2.62-10.55,7.78v6.01h20.94Z"/>
        <path class="cls-1" d="m160.22,59.76c0,5.85-4,9.55-12.47,9.55-7.93,0-12.4-.85-12.4-.85v-3.77s6.39.92,10.78.92c6.85,0,10.39-1.54,10.39-5.93v-1.77c0-2.39-.77-4.62-4.93-5.24l-7.85-1.08c-5.31-.69-8.55-3.46-8.55-8.24v-2.39c0-5.85,3.39-9.86,13.24-9.86,4.62,0,6.93.46,9.7.77v3.62s-4.85-.69-9.39-.69c-6.93,0-9.86,2-9.86,6.16v1.69c0,2.39.77,4.7,4.93,5.24l7.85,1.08c5.47.69,8.55,3.54,8.55,8.24v2.54Z"/>
        <path class="cls-1" d="m186.24,68.62c-1.39.38-3.46.62-4.93.62-5.47,0-9.47-2-9.47-9.93v-23.79h-7.01v-3.54h7.01v-9.01l2.16-1.46h1.54v10.47h11.39v3.54h-11.39v23.02c0,5.08,1.62,6.93,6,6.93.85,0,3.7-.23,4.7-.38v3.54Z"/>
        <path class="cls-1" d="m196.4,38.05l9.47-6.62c.69-.23,1.54-.31,2.16-.31,8.32,0,12.17,4.93,12.17,11.7v14.01c0,9.93-7.01,12.47-14.78,12.47-3.31,0-6.54-.77-9.01-2.31v17.79h-5.7V31.97h5.7v6.08Zm0,19.02c0,5.08,3.54,7.08,9.01,7.08s9.08-2,9.08-7.08v-12.4c0-4.62-1.85-7.85-6-7.85-1,0-2.46.31-3.62.92l-8.47,4.7v14.63Z"/>
        <path class="cls-1" d="m229.21,68.46V13.8h5.7v54.67h-5.7Z"/>
        <path class="cls-1" d="m266.39,62.38l-9.47,6.62c-.69.23-1.62.31-2.16.31-7.31,0-11.63-4.16-11.63-10.24v-1.92c0-5.16,3.62-9.86,13.09-10.24l10.16-.38v-3.31c0-5.62-4.08-6.78-9.01-6.78-3.54,0-8.47.54-11.16.77v-5.31s8.78-.77,12.63-.77c6.78,0,13.24,2.39,13.24,12.32v25.02h-5.7v-6.08Zm0-11.16l-10.7.54c-4.54.23-6.93,2.39-6.93,5.39v2c0,2.54,1.92,4.7,5.31,4.7,1.62,0,3-.46,4.93-1.54l7.39-4.31v-6.78Z"/>
        <path class="cls-1" d="m285.18,84.79l5.47-16.32h-2.62l-12.4-36.5h5.93l10.32,31.41h.77l10.32-31.41h5.93l-17.86,52.82h-5.85Z"/>
      </g>
      <g>
        <g>
          <rect class="cls-1" x="0" y="5.45" width="5.05" height="27.22" rx="2.53" ry="2.53"/>
          <rect class="cls-1" x="7.37" y="0" width="5.05" height="32.67" rx="2.53" ry="2.53"/>
          <rect class="cls-1" x="14.74" y="5.45" width="5.05" height="32.22" rx="2.53" ry="2.53"/>
          <rect class="cls-1" x="22.1" y="12.75" width="5.05" height="37.15" rx="2.53" ry="2.53"/>
          <rect class="cls-1" x="29.47" y="19.91" width="5.05" height="25.53" rx="2.53" ry="2.53"/>
          <rect class="cls-1" x="36.84" y="27.39" width="5.05" height="10.57" rx="2.53" ry="2.53"/>
        </g>
        <g>
          <rect class="cls-1" x="0" y="70.47" width="5.05" height="27.22" rx="2.53" ry="2.53"/>
          <rect class="cls-1" x="7.37" y="70.47" width="5.05" height="32.67" rx="2.53" ry="2.53"/>
          <rect class="cls-1" x="14.74" y="65.47" width="5.05" height="32.22" rx="2.53" ry="2.53"/>
          <rect class="cls-1" x="22.1" y="53.24" width="5.05" height="37.15" rx="2.53" ry="2.53"/>
          <rect class="cls-1" x="29.47" y="57.7" width="5.05" height="25.53" rx="2.53" ry="2.53"/>
          <rect class="cls-1" x="36.84" y="65.18" width="5.05" height="10.57" rx="2.53" ry="2.53"/>
        </g>
      </g>
    </g>
  </g>
</svg>