<?xml version="1.0" encoding="UTF-8"?>
<svg id="Layer_2" data-name="Layer 2" xmlns="http://www.w3.org/2000/svg" viewBox="0 0 609.52 132.67">
  <defs>
    <style>
      .cls-1 {
        fill: #fff;
      }
    </style>
  </defs>
  <g id="Camada_1" data-name="Camada 1">
    <g>
      <path class="cls-1" d="m154.32,37.24c-.48-4.52-.96-9.08-1.95-13.5-1.85-8.42-7.13-13.78-15.65-15.31-5.58-1-11.29-1.43-16.95-1.85-5.52-.4-11.07-.62-16.61-.72l9.9,9.9c.08.08.14.16.22.24,11.15,11.25,11.05,29.41-.22,40.55l-34.15,34.17,23.14,23.16c7.35-.18,14.64-.5,21.91-1.06,4.34-.34,8.72-.7,13-1.55,7.81-1.55,12.96-6.33,15.1-14,1.93-6.83,2.31-13.88,2.75-20.91.3-4.82.48-9.66.52-14.5.08-8.22-.16-16.45-1.02-24.63ZM1.05,36.12c-.06.64-.1,1.27-.14,1.91C.44,45.24.02,52.49,0,59.72c-.02,6.91.46,13.84.82,20.75.28,5.22.86,10.42,2.09,15.53,1.99,8.4,7.17,13.76,15.69,15.31,5.56.98,11.23,1.41,16.87,1.83,5.8.42,11.63.62,17.45.76l2.65.06,23.34-23.22L24.32,36.12H1.05Z"/>
      <g>
        <path class="cls-1" d="m192.07,132.67l10.22-30.51h-3.17l-24.17-68.21h7.34l21.58,61.3h1.44l21.58-61.3h7.34l-35.25,98.71h-6.91Z"/>
        <path class="cls-1" d="m296.54,56.41v23.31c0,14.1-6.05,24.03-27.48,24.03s-27.48-9.93-27.48-24.03v-23.31c0-14.1,6.04-24.03,27.48-24.03s27.48,9.93,27.48,24.03Zm-48.06-.58v24.61c0,10.36,6.48,16.84,20.58,16.84s20.58-6.47,20.58-16.84v-24.61c0-10.36-6.47-16.84-20.58-16.84s-20.58,6.47-20.58,16.84Z"/>
        <path class="cls-1" d="m318.7,33.96v45.47c0,12.52,5.76,17.41,13.67,17.41,1.87,0,5.18-.15,8.34-2.3l17.41-11.51v-49.07h6.91v68.21h-6.91v-11.94l-19.57,12.95c-1.29.43-2.88.57-4.03.57-16.12,0-22.74-8.92-22.74-21.73v-48.06h6.91Z"/>
        <path class="cls-1" d="m378.99,0h10.65v45.33l17.7-12.38c1.29-.43,2.88-.57,4.03-.57,15.54,0,22.73,9.21,22.73,21.87v26.19c0,18.56-13.09,23.31-27.63,23.31s-27.48-4.75-27.48-23.31V0Zm10.65,80.72c0,9.5,6.62,13.38,16.84,13.38s16.98-3.89,16.98-13.38v-23.02c0-8.63-3.45-14.68-11.22-14.68-1.87,0-4.61.58-6.76,1.73l-15.83,8.78v27.19Z"/>
        <path class="cls-1" d="m502.17,56.41v16.4h-44.32v6.33c0,11.94,10.36,14.53,21.01,14.53,6.04,0,14.96-.72,21.01-1.44v9.93c-7.48,1.01-14.1,1.58-22.02,1.58-15.54,0-30.65-5.61-30.65-25.9v-21.44c0-14.1,6.19-24.03,27.63-24.03s27.34,9.93,27.34,24.03Zm-10.65,6.76v-8.35c0-7.91-4.89-13.1-16.69-13.1-10.22,0-16.98,3.74-16.98,13.38v8.06h33.67Z"/>
        <path class="cls-1" d="m560.16,85.47c0,12.23-8.49,18.28-25.61,18.28-12.38,0-22.88-1.58-22.88-1.58v-9.78s13.24,1.58,21.01,1.58c12.66,0,17.56-2.3,17.56-8.92v-3.02c0-3.89-1.87-7.34-9.07-8.35l-13.81-1.87c-9.5-1.29-15.97-7.63-15.97-16.55v-4.61c0-12.23,8.63-18.27,24.89-18.27,8.35,0,14.53.86,20,1.44v9.64s-10.5-1.29-18.42-1.29c-11.66,0-16.55,2.3-16.55,9.07v2.88c0,3.89,1.87,7.34,9.06,8.35l13.81,1.87c9.64,1.3,15.97,7.63,15.97,16.55v4.6Z"/>
        <path class="cls-1" d="m608.51,102.45c-2.3.57-7.34,1.15-10.07,1.15-12.81,0-19.43-5.18-19.43-20.72v-39.28h-12.23v-9.64h12.23v-15.69l5.04-3.88h5.61v19.57h19.86v9.64h-19.86v37.7c0,7.77,2.16,12.09,9.78,12.09,1.58,0,7.19-.43,9.07-.72v9.79Z"/>
      </g>
    </g>
  </g>
</svg>