<svg width="178" height="69" viewBox="0 0 178 69" fill="none" xmlns="http://www.w3.org/2000/svg">
<path d="M17 14.894H18.9626V28.133L24.523 24.398C24.8909 24.2733 25.341 24.2315 25.6677 24.2315C30.0835 24.2315 32.1278 26.8875 32.1278 30.5403V38.0938C32.1278 43.2401 28.6527 44.8171 24.523 44.8171C20.3934 44.8171 17 43.2812 17 38.0938V14.894ZM18.9626 37.9274C18.9626 41.9946 21.6203 42.9489 24.523 42.9489C27.4258 42.9489 30.1652 41.9946 30.1652 37.9274V31.2459C30.1652 27.6349 28.4887 26.1826 26.24 26.1826C25.7082 26.1826 24.8092 26.2655 23.9096 26.8882L18.9626 30.2087V37.928V37.9274Z" fill="#7A7A7A"/>
<path d="M51.4262 31.1628V35.5205H38.3427V37.886C38.3427 41.7868 41.9406 42.8664 45.089 42.8664C46.6426 42.8664 49.1775 42.7418 50.7722 42.4513V44.3606C48.973 44.651 47.0515 44.8175 44.8028 44.8175C40.387 44.8175 36.3801 43.1987 36.3801 37.3468V31.1628C36.3801 27.0955 38.0971 24.2319 43.9443 24.2319C49.7916 24.2319 51.4262 27.0955 51.4262 31.1628ZM49.4636 33.5283V30.2084C49.4636 27.9258 47.7055 26.0994 43.9443 26.0994C40.6326 26.0994 38.3427 27.5107 38.3427 30.2913V33.5283H49.4636Z" fill="#7A7A7A"/>
<path d="M67.9044 39.6706C67.9044 42.8247 65.7785 44.8168 61.281 44.8168C57.0697 44.8168 54.6981 44.3599 54.6981 44.3599V42.3266C54.6981 42.3266 58.0915 42.8247 60.4226 42.8247C64.0616 42.8247 65.9419 41.995 65.9419 39.6288V38.6745C65.9419 37.388 65.5329 36.1843 63.3253 35.8521L59.1551 35.2711C56.334 34.8978 54.6165 33.4036 54.6165 30.8305V29.544C54.6165 26.3899 56.4157 24.2319 61.6489 24.2319C64.1021 24.2319 65.3284 24.4813 66.8003 24.6471V26.5975C66.8003 26.5975 64.2243 26.2241 61.8122 26.2241C58.1327 26.2241 56.579 27.3031 56.579 29.544V30.4571C56.579 31.7437 56.988 32.9891 59.1956 33.2796L63.3658 33.8605C66.2685 34.2339 67.9038 35.7698 67.9038 38.3012V39.6706H67.9044Z" fill="#7A7A7A"/>
<path d="M80.9061 44.444C80.1698 44.6515 79.0663 44.7762 78.2895 44.7762C75.3868 44.7762 73.2602 43.6972 73.2602 39.4224V26.598H69.5396V24.6887H73.2602V19.8329L74.4049 19.0444H75.2228V24.6887H81.2739V26.598H75.2228V39.0073C75.2228 41.7462 76.0813 42.7423 78.4117 42.7423C78.8612 42.7423 80.3743 42.6176 80.9055 42.5347V44.444H80.9061Z" fill="#7A7A7A"/>
<path d="M156.977 13.3228L147.746 3.95311L149.333 2.34273C150.125 1.53823 151.412 1.53823 152.205 2.34273L158.563 8.7967C159.355 9.6012 159.355 10.9074 158.563 11.7119L156.976 13.3223L156.977 13.3228Z" fill="#7A7A7A"/>
<path d="M156.977 23.0229L147.747 13.6533L150.769 10.5853L158.563 18.4969C159.356 19.3014 159.356 20.6076 158.563 21.4121L156.977 23.0225L156.977 23.0229Z" fill="#7A7A7A"/>
<path d="M147.747 26.2583L156.978 16.8887L158.564 18.499C159.357 19.3035 159.357 20.6097 158.564 21.4142L152.206 27.8682C151.413 28.6727 150.127 28.6727 149.334 27.8682L147.748 26.2578L147.747 26.2583Z" fill="#7A7A7A"/>
<path d="M100.327 44.3597V32.2409H88.5925V44.3597H84.4224V16.3042H88.5925V28.5059H100.327V16.3042H104.497V44.3597H100.327Z" fill="#7A7A7A"/>
<path d="M112.43 24.6886V37.1391C112.43 39.297 113.288 40.5007 114.923 40.5007C115.332 40.5007 115.905 40.4178 116.354 40.252L120.32 38.5921V24.6886H124.49V44.3604H120.32V41.2481L115.863 44.6515C115.496 44.7761 115.046 44.8173 114.719 44.8173C110.303 44.8173 108.259 42.1613 108.259 38.5085V24.688H112.429L112.43 24.6886Z" fill="#7A7A7A"/>
<path d="M127.681 14.894H131.851V27.8007L136.307 24.398C136.675 24.2733 137.125 24.2315 137.452 24.2315C141.868 24.2315 143.912 26.8875 143.912 30.5403V38.0938C143.912 43.4476 139.905 44.8171 135.776 44.8171C131.646 44.8171 127.68 43.4476 127.68 38.0938V14.894H127.681ZM131.851 37.9274C131.851 39.8367 133.078 41.2479 135.776 41.2479C138.474 41.2479 139.743 39.8367 139.743 37.9274V31.9097C139.743 29.7518 138.884 28.5481 137.249 28.5481C136.84 28.5481 136.267 28.631 135.818 28.7968L131.852 30.4567V37.9274H131.851Z" fill="#7A7A7A"/>
<g style="mix-blend-mode:multiply">
<path d="M156.977 13.3228L147.747 3.95311L149.333 2.34273C150.126 1.53823 151.412 1.53823 152.205 2.34273L158.563 8.7967C159.356 9.6012 159.356 10.9074 158.563 11.7119L156.977 13.3223L156.977 13.3228Z" fill="#7A7A7A"/>
<path d="M156.977 23.0225L147.747 13.6528L150.769 10.5848L158.563 18.4964C159.356 19.3009 159.356 20.6071 158.563 21.4116L156.977 23.022L156.977 23.0225Z" fill="#7A7A7A"/>
<path d="M147.747 26.2573L156.977 16.8877L158.564 18.4981C159.356 19.3026 159.356 20.6088 158.564 21.4133L152.206 27.8672C151.413 28.6717 150.126 28.6717 149.334 27.8672L147.747 26.2569L147.747 26.2573Z" fill="#7A7A7A"/>
</g>
</svg>
