<svg width="159" height="69" viewBox="0 0 159 69" fill="none" xmlns="http://www.w3.org/2000/svg">
<path d="M0 25.5762H2.18218V40.2964L8.36477 36.1435C8.77375 36.0049 9.27425 35.9584 9.63747 35.9584C14.5474 35.9584 16.8204 38.9116 16.8204 42.973V51.3717C16.8204 57.0937 12.9565 58.8472 8.36477 58.8472C3.77305 58.8472 0 57.1395 0 51.3717V25.5762ZM2.18218 51.1867C2.18218 55.709 5.13727 56.77 8.36477 56.77C11.5923 56.77 14.6382 55.709 14.6382 51.1867V43.7576C14.6382 39.7426 12.7742 38.1278 10.2738 38.1278C9.68252 38.1278 8.68295 38.2199 7.68266 38.9123L2.18218 42.6043V51.1874V51.1867Z" fill="#7A7A7A"/>
<path d="M38.2781 43.6653V48.5106H23.7308V51.1408C23.7308 55.478 27.7312 56.6785 31.2318 56.6785C32.9593 56.6785 35.7778 56.5398 37.551 56.2169V58.3398C35.5504 58.6627 33.414 58.8478 30.9136 58.8478C26.0037 58.8478 21.5486 57.0479 21.5486 50.5413V43.6653C21.5486 39.143 23.4576 35.959 29.9591 35.959C36.4606 35.959 38.2781 39.143 38.2781 43.6653ZM36.096 46.2955V42.6042C36.096 40.0662 34.1411 38.0354 29.9591 38.0354C26.2769 38.0354 23.7308 39.6046 23.7308 42.6964V46.2955H36.096Z" fill="#7A7A7A"/>
<path d="M56.5999 53.1251C56.5999 56.632 54.2361 58.8471 49.2354 58.8471C44.5529 58.8471 41.916 58.339 41.916 58.339V56.0782C41.916 56.0782 45.6891 56.632 48.2809 56.632C52.3271 56.632 54.4178 55.7095 54.4178 53.0786V52.0175C54.4178 50.587 53.963 49.2487 51.5084 48.8793L46.8717 48.2333C43.735 47.8182 41.8252 46.1569 41.8252 43.2959V41.8654C41.8252 38.3584 43.8258 35.959 49.6444 35.959C52.3721 35.959 53.7357 36.2362 55.3723 36.4206V38.5892C55.3723 38.5892 52.508 38.1741 49.826 38.1741C45.7348 38.1741 44.0074 39.3738 44.0074 41.8654V42.8807C44.0074 44.3112 44.4621 45.696 46.9167 46.019L51.5535 46.6649C54.781 47.0801 56.5992 48.7878 56.5992 51.6024V53.1251H56.5999Z" fill="#7A7A7A"/>
<path d="M71.0565 58.4323C70.2379 58.6631 69.0109 58.8018 68.1472 58.8018C64.9197 58.8018 62.5552 57.602 62.5552 52.8489V38.5896H58.4182V36.4667H62.5552V31.0677L63.8279 30.1909H64.7374V36.4667H71.4655V38.5896H64.7374V52.3873C64.7374 55.4327 65.6919 56.5402 68.2831 56.5402C68.7828 56.5402 70.4652 56.4016 71.0558 56.3094V58.4323H71.0565Z" fill="#7A7A7A"/>
<path d="M155.639 23.8291L145.375 13.4111L147.139 11.6206C148.021 10.726 149.451 10.726 150.333 11.6206L157.402 18.7966C158.283 19.6912 158.283 21.1435 157.402 22.038L155.638 23.8286L155.639 23.8291Z" fill="#7A7A7A"/>
<path d="M155.639 34.6143L145.376 24.1963L148.736 20.785L157.403 29.5818C158.284 30.4763 158.284 31.9287 157.403 32.8232L155.639 34.6137L155.639 34.6143Z" fill="#7A7A7A"/>
<path d="M145.376 38.2119L155.639 27.7939L157.403 29.5845C158.284 30.479 158.284 31.9314 157.403 32.8259L150.334 40.002C149.452 40.8965 148.022 40.8965 147.14 40.002L145.376 38.2114L145.376 38.2119Z" fill="#7A7A7A"/>
<path d="M92.6501 58.3391V44.8644H79.6028V58.3391H74.9661V27.1445H79.6028V40.7115H92.6501V27.1445H97.2869V58.3391H92.6501Z" fill="#7A7A7A"/>
<path d="M106.107 36.4665V50.31C106.107 52.7094 107.062 54.0478 108.88 54.0478C109.335 54.0478 109.971 53.9556 110.471 53.7712L114.88 51.9256V36.4665H119.517V58.3393H114.88V54.8788L109.925 58.663C109.516 58.8016 109.016 58.8473 108.653 58.8473C103.743 58.8473 101.47 55.8941 101.47 51.8327V36.4658H106.106L106.107 36.4665Z" fill="#7A7A7A"/>
<path d="M123.065 25.5762H127.701V39.927L132.656 36.1435C133.065 36.0049 133.566 35.9584 133.929 35.9584C138.839 35.9584 141.112 38.9116 141.112 42.973V51.3717C141.112 57.3245 136.657 58.8472 132.065 58.8472C127.473 58.8472 123.064 57.3245 123.064 51.3717V25.5762H123.065ZM127.701 51.1867C127.701 53.3095 129.066 54.8787 132.066 54.8787C135.066 54.8787 136.476 53.3095 136.476 51.1867V44.4957C136.476 42.0963 135.521 40.758 133.703 40.758C133.248 40.758 132.612 40.8501 132.112 41.0345L127.702 42.8801V51.1867H127.701Z" fill="#7A7A7A"/>
<g style="mix-blend-mode:multiply">
<path d="M155.639 23.8291L145.375 13.4111L147.139 11.6206C148.021 10.726 149.451 10.726 150.333 11.6206L157.402 18.7966C158.283 19.6912 158.283 21.1435 157.402 22.038L155.638 23.8286L155.639 23.8291Z" fill="#7A7A7A"/>
<path d="M155.639 34.6138L145.375 24.1958L148.736 20.7845L157.402 29.5813C158.283 30.4758 158.283 31.9282 157.402 32.8227L155.638 34.6133L155.639 34.6138Z" fill="#7A7A7A"/>
<path d="M145.376 38.2114L155.639 27.7934L157.403 29.584C158.284 30.4785 158.284 31.9309 157.403 32.8254L150.333 40.0015C149.452 40.896 148.021 40.896 147.14 40.0015L145.376 38.2109L145.376 38.2114Z" fill="#7A7A7A"/>
</g>
</svg>
