<?xml version="1.0" encoding="UTF-8"?>
<svg id="Camada_1" data-name="Camada 1" xmlns="http://www.w3.org/2000/svg" viewBox="0 0 1080 1080">
  <defs>
    <style>
      .cls-1 {
        fill: #fff;
      }
    </style>
  </defs>
  <path class="cls-1" d="M621.92,540.55l-188.15,185.52h-122.7v255.8c0,54.17,44.31,98.12,98.98,98.12h1.5c26.28-.02,51.49-10.36,70.08-28.79l257.95-255.69c38.39-38.21,38.39-99.99,0-138.23l-117.66-116.74Zm118.44-255.35c-.26-.21-.52-.5-.78-.74L481.63,28.77C463.05,10.34,437.84,0,411.56,0h-1.5c-54.67,0-98.98,43.91-98.98,98.1v255.8h122.7l188.15,186.64,117.66-116.79c38.81-38.05,39.16-100.07,.78-138.56Z"/>
</svg>