<?xml version="1.0" encoding="UTF-8"?>
<svg id="Camada_2" data-name="Camada 2" xmlns="http://www.w3.org/2000/svg" xmlns:xlink="http://www.w3.org/1999/xlink" viewBox="0 0 29.7 70.91">
  <defs>
    <style>
      .cls-1 {
        fill: url(#Gradiente_sem_nome_2);
      }

      .cls-2 {
        fill: url(#Gradiente_sem_nome_2-2);
      }
    </style>
    <linearGradient id="Gradiente_sem_nome_2" data-name="Gradiente sem nome 2" x1="-1.65" y1="-300.48" x2="24.27" y2="-274.54" gradientTransform="translate(0 -235) scale(1 -1)" gradientUnits="userSpaceOnUse">
      <stop offset="0" stop-color="#0063f2"/>
      <stop offset=".5" stop-color="#0524dd"/>
      <stop offset="1" stop-color="#10069f"/>
    </linearGradient>
    <linearGradient id="Gradiente_sem_nome_2-2" data-name="Gradiente sem nome 2" x1="3.22" y1="-261.48" x2="19.42" y2="-245.27" xlink:href="#Gradiente_sem_nome_2"/>
  </defs>
  <g id="Camada_1-2" data-name="Camada 1">
    <g>
      <path class="cls-1" d="M27.82,52.17l-16.77,16.79c-1.19,1.21-2.8,1.91-4.5,1.95h-.11c-3.55,0-6.43-2.89-6.44-6.44v-16.84H8l12.16-12.18,7.66,7.62c2.51,2.5,2.52,6.56,.02,9.08,0,0-.01,.01-.02,.02Z"/>
      <path class="cls-2" d="M27.82,18.67L11.04,1.88C9.85,.69,8.23,.02,6.54,0h-.11C2.89,0,0,2.89,0,6.44V23.21H8l12.16,12.25,7.66-7.69c2.51-2.5,2.52-6.56,.02-9.08,0,0-.01-.01-.02-.02Z"/>
    </g>
  </g>
</svg>