<svg width="139" height="53" viewBox="0 0 139 53" fill="none" xmlns="http://www.w3.org/2000/svg">
<g clip-path="url(#clip0_320_163)">
<path d="M37.1606 51.4919L38.0873 44.8702H38.7756L38.3732 47.7377H41.8891L42.2862 44.8702H42.9746L42.048 51.4919H41.3596L41.7938 48.3802H38.2832L37.849 51.4919H37.1606Z" fill="#525252"/>
<path d="M45.426 51.5822C45.0183 51.5822 44.6794 51.4919 44.4041 51.3061C44.1287 51.1202 43.9275 50.8494 43.811 50.483C43.6945 50.1219 43.6681 49.6706 43.7422 49.1395C43.811 48.6457 43.9434 48.2103 44.1499 47.8386C44.3564 47.4669 44.6212 47.1748 44.9495 46.973C45.2778 46.7659 45.659 46.665 46.0985 46.665C46.5009 46.665 46.8398 46.7606 47.1151 46.9465C47.3905 47.1323 47.5811 47.4138 47.6976 47.7802C47.8141 48.1466 47.8353 48.6032 47.7611 49.1449C47.6976 49.6281 47.5652 50.0529 47.364 50.4193C47.1628 50.7857 46.9033 51.0724 46.5803 51.2795C46.2573 51.4866 45.8761 51.5875 45.4313 51.5875L45.426 51.5822ZM45.5107 51.0034C45.7861 51.0034 46.0297 50.929 46.2415 50.7857C46.4586 50.637 46.6333 50.4246 46.7763 50.1431C46.9192 49.8617 47.0145 49.5219 47.0675 49.1236C47.1151 48.7625 47.1098 48.4386 47.0569 48.1572C47.0039 47.8757 46.8927 47.6474 46.7233 47.4881C46.5539 47.3235 46.3156 47.2438 46.0085 47.2438C45.7278 47.2438 45.479 47.3182 45.2619 47.4616C45.0448 47.6049 44.8647 47.8173 44.7271 48.0988C44.5894 48.3802 44.4888 48.72 44.4358 49.1236C44.3882 49.4847 44.3882 49.8033 44.4464 50.09C44.4994 50.3715 44.6159 50.5945 44.7906 50.7591C44.9653 50.9237 45.2089 51.0087 45.516 51.0087L45.5107 51.0034Z" fill="#525252"/>
<path d="M48.6034 51.4919L49.2811 46.7553H49.9377L49.8424 47.4244C49.9907 47.2226 50.176 47.0421 50.409 46.8934C50.642 46.7394 50.9279 46.665 51.2721 46.665C51.5209 46.665 51.7592 46.7288 51.9869 46.8509C52.2199 46.9783 52.3681 47.1642 52.4423 47.4191C52.617 47.1854 52.8394 46.9996 53.0989 46.8668C53.3583 46.7341 53.6284 46.665 53.909 46.665C54.0625 46.665 54.2214 46.6916 54.3802 46.7394C54.5391 46.7872 54.6874 46.8721 54.8144 46.9943C54.9415 47.1164 55.0368 47.2863 55.0951 47.5093C55.1533 47.7324 55.1586 48.0138 55.1057 48.359L54.6556 51.4972H53.9725L54.412 48.4121C54.4544 48.1041 54.4438 47.8651 54.3802 47.6952C54.3167 47.5253 54.2161 47.4085 54.0784 47.3447C53.9408 47.281 53.7925 47.2438 53.6336 47.2438C53.4642 47.2438 53.2895 47.2757 53.12 47.3447C52.9506 47.4085 52.797 47.52 52.67 47.674C52.5429 47.8279 52.4582 48.0404 52.4158 48.3112L51.9657 51.4972H51.2827L51.7592 48.1306C51.791 47.9342 51.7645 47.7695 51.6851 47.6421C51.6057 47.5093 51.4997 47.4138 51.3621 47.3447C51.2244 47.281 51.0867 47.2438 50.9438 47.2438C50.7849 47.2438 50.6208 47.2757 50.446 47.3447C50.2766 47.4138 50.123 47.52 49.9907 47.6633C49.8583 47.812 49.7789 48.0032 49.7418 48.2368L49.2758 51.4919H48.5928H48.6034Z" fill="#525252"/>
<path d="M57.8695 51.5822C57.4565 51.5822 57.1123 51.4867 56.8263 51.2955C56.5404 51.1043 56.3392 50.8282 56.2174 50.4671C56.0956 50.106 56.0692 49.6706 56.1433 49.1661C56.2174 48.6617 56.3604 48.221 56.5722 47.8439C56.784 47.4669 57.054 47.1749 57.3876 46.9678C57.7159 46.7607 58.0972 46.6598 58.5208 46.6598C58.9444 46.6598 59.2674 46.7554 59.5268 46.9412C59.7863 47.1271 59.9663 47.3979 60.0616 47.743C60.1622 48.0935 60.1728 48.5077 60.104 48.9909L60.0616 49.283H56.8263C56.7787 49.6016 56.7893 49.8883 56.8475 50.1485C56.9058 50.4087 57.0276 50.6158 57.2076 50.7698C57.3876 50.9238 57.6312 51.0034 57.9383 51.0034C58.2454 51.0034 58.5102 50.9291 58.7484 50.7751C58.9867 50.6264 59.1509 50.4087 59.2462 50.1326H59.9028C59.8022 50.4512 59.6433 50.7167 59.4315 50.9291C59.2197 51.1415 58.9761 51.3061 58.7008 51.4123C58.4254 51.5185 58.1501 51.5769 57.8642 51.5769L57.8695 51.5822ZM56.9005 48.7785H59.4633C59.5109 48.4865 59.5003 48.221 59.4474 47.9873C59.3891 47.7537 59.2779 47.5678 59.1085 47.4298C58.9391 47.2917 58.7167 47.2227 58.4307 47.2227C58.1289 47.2227 57.8695 47.3023 57.6577 47.4563C57.4406 47.6103 57.2711 47.8068 57.144 48.0457C57.017 48.2847 56.9375 48.5289 56.9005 48.7838V48.7785Z" fill="#525252"/>
<path d="M63.4189 51.4919L64.3668 44.8702H68.1951L68.0998 45.5128H64.9598L64.6315 47.828H67.4749L67.3902 48.4705H64.5415L64.2026 50.8335H67.4379L67.3373 51.4919H63.4189Z" fill="#525252"/>
<path d="M71.5203 52.9629L71.8327 50.5893C71.7586 50.722 71.6527 50.8601 71.515 51.0141C71.3773 51.1681 71.2079 51.3008 71.0014 51.4123C70.7949 51.5238 70.5513 51.5822 70.2707 51.5822C69.9106 51.5822 69.5982 51.492 69.3387 51.3167C69.0793 51.1362 68.894 50.8601 68.7775 50.4884C68.6663 50.1167 68.6504 49.6387 68.7298 49.0546C68.7934 48.5555 68.9204 48.1307 69.1058 47.7696C69.2911 47.4085 69.5347 47.1377 69.8312 46.9465C70.1277 46.7554 70.4719 46.6598 70.869 46.6598C71.0861 46.6598 71.2714 46.6917 71.4303 46.7554C71.5891 46.8191 71.7162 46.8987 71.8274 46.9996C71.9333 47.1005 72.018 47.2014 72.0816 47.3129C72.1451 47.4244 72.1981 47.5253 72.2298 47.6209L72.3516 46.7554H73.0347L72.2192 52.9682H71.5203V52.9629ZM70.4613 51.0088C70.7525 51.0088 71.012 50.9238 71.2291 50.7539C71.4462 50.5839 71.6262 50.3503 71.7639 50.0582C71.9015 49.7662 71.9969 49.4423 72.0392 49.0812C72.1133 48.5289 72.0604 48.0829 71.8804 47.743C71.7003 47.4032 71.3932 47.2333 70.959 47.2333C70.5672 47.2333 70.2336 47.3873 69.9477 47.6899C69.6617 47.9926 69.4817 48.4546 69.397 49.0812C69.3176 49.6759 69.3652 50.1432 69.5452 50.4884C69.7253 50.8335 70.0271 51.0088 70.4613 51.0088Z" fill="#525252"/>
<path d="M75.5179 51.5822C75.2796 51.5822 75.0625 51.545 74.8666 51.476C74.6707 51.4069 74.5013 51.3061 74.3636 51.168C74.2259 51.0299 74.1253 50.86 74.0671 50.6582C74.0088 50.4564 73.9982 50.2175 74.0353 49.952L74.4854 46.7553H75.179L74.7342 49.8883C74.6866 50.2228 74.7448 50.4883 74.9037 50.6954C75.0625 50.9025 75.3379 51.0034 75.7297 51.0034C76.0792 51.0034 76.3704 50.9078 76.6087 50.7113C76.8469 50.5149 76.9899 50.2228 77.0482 49.8298L77.4824 46.75H78.1707L77.5035 51.4866H76.9529L77.0005 50.5892C76.9158 50.8175 76.8046 51.0034 76.651 51.1468C76.5028 51.2954 76.328 51.4016 76.1374 51.476C75.9468 51.5503 75.7403 51.5822 75.5232 51.5769L75.5179 51.5822Z" fill="#525252"/>
<path d="M78.9863 51.4919L79.6535 46.7553H80.326L79.6641 51.4919H78.9863ZM79.7859 45.6561L79.8918 44.8702H80.6172L80.506 45.6561H79.7859Z" fill="#525252"/>
<path d="M82.7031 51.5079C82.4118 51.5079 82.1947 51.4654 82.0465 51.3805C81.8982 51.2955 81.8029 51.1681 81.7658 50.9981C81.7288 50.8282 81.7235 50.6211 81.7552 50.3662L82.1947 47.2864H81.4746L81.5593 46.7501H82.29L82.6183 45.3854H83.169L82.9784 46.7448H83.9898L83.905 47.2864H82.8937L82.4648 50.3078C82.4277 50.5786 82.4489 50.7539 82.5283 50.8229C82.6077 50.8919 82.7507 50.9344 82.9572 50.9344H83.4126L83.3385 51.4283C83.2855 51.4495 83.2008 51.4654 83.0896 51.4814C82.9784 51.4973 82.8513 51.5026 82.7031 51.5026V51.5079Z" fill="#525252"/>
<path d="M84.6413 53C84.3925 53 84.1807 52.9629 84.0112 52.8938L84.0801 52.4265H84.5407C84.7525 52.4372 84.922 52.4159 85.0491 52.3628C85.1761 52.3097 85.2767 52.2407 85.3509 52.1557C85.4197 52.0708 85.478 51.9858 85.5203 51.9008L85.7639 51.4017L84.6943 46.7554H85.3985L86.2193 50.568L88.1096 46.7554H88.7821L86.161 51.938C86.018 52.2141 85.8645 52.4265 85.7056 52.5805C85.5468 52.7345 85.3773 52.846 85.2026 52.9098C85.0279 52.9735 84.8426 53.0053 84.6413 53.0053V53Z" fill="#525252"/>
<path d="M6.8306 37.8184C2.7693 37.8184 0 36.6024 0 31.6959V25.3025C0 21.5748 1.13843 18.9517 6.78824 18.9517C8.03786 18.9517 11.4532 19.334 11.4532 19.334V21.1607C11.4532 21.1607 8.15436 20.8155 6.56055 20.8155C3.75418 20.8155 1.8162 21.92 1.8162 24.9255V31.6215C1.8162 34.9297 3.71182 35.997 6.8253 35.997C8.41911 35.997 11.792 35.5776 11.792 35.5776V37.3246C11.792 37.3246 9.85936 37.8184 6.8253 37.8184H6.8306Z" fill="#525252"/>
<path d="M25.8342 34.2394L20.7139 37.6644C20.3698 37.7759 19.9197 37.8184 19.6496 37.8184C16.0437 37.8184 13.9204 35.7634 13.9204 32.7579V32.0357C13.9204 29.524 15.4772 27.2779 20.105 27.092L25.8342 26.8637V24.7343C25.8342 21.766 23.9386 20.7783 20.7139 20.7783C19.1943 20.7783 15.403 21.1607 15.403 21.1607V19.334C15.403 19.334 19.3478 18.9517 21.4341 18.9517C24.1663 18.9517 27.6557 20.019 27.6557 24.9255V37.4042H25.8342V34.2447V34.2394ZM25.8342 28.5735L19.8773 28.839C17.1451 28.9506 15.7419 30.1347 15.7419 31.9986V33.103C15.7419 34.5102 16.9174 35.997 19.0036 35.997C19.4961 35.997 20.4068 35.9599 21.2434 35.3864L25.8342 32.3437V28.5789V28.5735Z" fill="#525252"/>
<path d="M43.8166 33.0977C43.8166 35.9917 41.8468 37.8131 37.6691 37.8131C33.7613 37.8131 31.5639 37.3936 31.5639 37.3936V35.5298C31.5639 35.5298 34.7144 35.9864 36.8748 35.9864C40.253 35.9864 41.9951 35.2271 41.9951 33.0553V32.1791C41.9951 31.0003 41.6139 29.8958 39.57 29.5931L35.6993 29.0621C33.0836 28.7222 31.4897 27.3522 31.4897 24.9892V23.8104C31.4897 20.9164 33.1577 18.941 38.0132 18.941C40.2901 18.941 41.4285 19.1694 42.7946 19.3234V21.1129C42.7946 21.1129 40.4066 20.773 38.1668 20.773C34.7515 20.773 33.3112 21.7607 33.3112 23.8157V24.6547C33.3112 25.8335 33.6925 26.9752 35.7364 27.2407L39.607 27.7717C42.3022 28.1116 43.8166 29.524 43.8166 31.8446V33.0977Z" fill="#525252"/>
<path d="M49.2756 37.3989H47.4541V10.3865H49.2756V22.52L54.433 19.095C54.7771 18.9835 55.1901 18.941 55.4973 18.941C59.7439 18.941 61.4912 21.2987 61.4912 24.6494V37.3936H59.6698V25.3715C59.6698 22.0634 58.1924 20.7677 56.1062 20.7677C55.4602 20.7677 54.6289 20.8792 53.8664 21.3784L49.2756 24.421V37.3936V37.3989Z" fill="#525252"/>
<path d="M65.1714 10.3865H67.9778V22.3713L72.1185 19.4667C72.5844 19.1428 73.1298 18.9463 73.6964 18.9463C73.6964 18.9463 73.7017 18.9463 73.707 18.9463C77.8053 18.9463 79.701 21.3784 79.701 24.729V31.6534C79.701 36.5599 76.2486 37.8184 72.4203 37.8184C68.592 37.8184 65.1767 36.5652 65.1767 31.6534V10.3865H65.1714ZM67.9778 31.7277C67.9778 34.2394 69.7251 35.2642 72.415 35.2642C75.1049 35.2642 76.8893 34.2394 76.8893 31.7277V25.6424C76.8893 23.359 75.9786 21.7607 73.9294 21.7607C73.4369 21.7607 72.7168 21.9147 72.1449 22.2174L67.9725 24.5379V31.7277H67.9778Z" fill="#525252"/>
<path d="M97.4129 25.3025V28.5576C97.4129 29.1523 96.9311 29.6409 96.3327 29.6409H85.7268V31.3135C85.7268 34.4731 88.459 35.1581 91.2654 35.1581C92.8592 35.1581 95.2102 34.9669 96.804 34.7757V37.3989C94.8342 37.6644 93.0869 37.8184 91.0006 37.8184C86.9023 37.8184 82.9204 36.3369 82.9204 30.9684V25.3025C82.9204 21.5748 84.5513 18.9517 90.2011 18.9517C95.8509 18.9517 97.4076 21.5748 97.4076 25.3025H97.4129ZM94.0029 27.092C94.3365 27.092 94.6066 26.8212 94.6066 26.4867V24.8883C94.6066 22.7962 93.3146 21.4262 90.2064 21.4262C87.5112 21.4262 85.7321 22.4138 85.7321 24.9627V27.092H94.0029Z" fill="#525252"/>
<path d="M112.7 32.9862C112.7 36.2201 110.46 37.8184 105.948 37.8184C102.687 37.8184 99.9174 37.3989 99.9174 37.3989V34.8129C99.9174 34.8129 103.407 35.2324 105.456 35.2324C108.792 35.2324 110.084 34.6217 110.084 32.8747V32.0782C110.084 31.0534 109.591 30.14 107.696 29.8692L104.053 29.3754C101.548 29.0355 99.8433 27.3575 99.8433 24.9999V23.7838C99.8433 20.55 102.12 18.9517 106.404 18.9517C108.607 18.9517 110.237 19.18 111.678 19.334V21.8828C111.678 21.8828 108.908 21.543 106.822 21.543C103.751 21.543 102.459 22.1536 102.459 23.9378V24.6972C102.459 25.722 102.951 26.6354 104.847 26.9062L108.49 27.4C111.032 27.7452 112.7 29.4178 112.7 31.7755V32.9915V32.9862Z" fill="#525252"/>
<path d="M125.445 37.4732C124.836 37.6272 123.512 37.7759 122.792 37.7759C119.414 37.7759 117.671 36.4059 117.671 32.2959V21.9093H114.447V19.3605H117.671V15.2133L119.001 14.1885H120.478V19.3605H125.715V21.9093H120.478V31.8764C120.478 33.9314 121.044 35.0731 123.057 35.0731C123.475 35.0731 124.952 34.9615 125.445 34.8819V37.4679V37.4732Z" fill="#525252"/>
<path d="M138.412 16.0312L133.276 21.1819C132.905 21.5536 132.402 21.7607 131.878 21.7607H131.846C130.755 21.7607 129.876 20.874 129.876 19.7854V14.6293H132.323L136.072 10.891L138.417 13.2434C139.18 14.0133 139.18 15.2612 138.417 16.0312H138.412Z" fill="#525252"/>
<path d="M138.412 5.72959L133.276 0.5788C132.905 0.207093 132.402 0 131.878 0H131.846C130.755 0 129.876 0.886785 129.876 1.97535V7.13145H132.323L136.072 10.891L138.417 8.53862C139.19 7.77397 139.196 6.52079 138.433 5.74552C138.433 5.74552 138.423 5.7349 138.417 5.72959H138.412Z" fill="#525252"/>
</g>
<defs>
<clipPath id="clip0_320_163">
<rect width="139" height="53" fill="white"/>
</clipPath>
</defs>
</svg>
