<?xml version="1.0" encoding="UTF-8"?>
<svg id="Camada_2" data-name="Camada 2" xmlns="http://www.w3.org/2000/svg" xmlns:xlink="http://www.w3.org/1999/xlink" viewBox="0 0 206 135.7">
  <defs>
    <style>
      .cls-1 {
        fill: #fff;
      }

      .cls-2 {
        fill: #fff;
      }

      .cls-3 {
        fill: #fff;
      }
    </style>
    <linearGradient id="Gradiente_sem_nome_2" data-name="Gradiente sem nome 2" x1="90.43" y1="-458.78" x2="112.79" y2="-436.41" gradientTransform="translate(0 -402.3) scale(1 -1)" gradientUnits="userSpaceOnUse">
      <stop offset="0" stop-color="#0063f2"/>
      <stop offset=".5" stop-color="#0524dd"/>
      <stop offset="1" stop-color="#10069f"/>
    </linearGradient>
    <linearGradient id="Gradiente_sem_nome_2-2" data-name="Gradiente sem nome 2" x1="94.63" y1="-425.12" x2="108.61" y2="-411.14" xlink:href="#Gradiente_sem_nome_2"/>
  </defs>
  <g id="Camada_1-2" data-name="Camada 1">
    <g>
      <path class="cls-1" d="M115.87,45.03l-14.47,14.47c-1.05,1.05-2.47,1.63-3.95,1.63h-.08c-3.07,0-5.55-2.49-5.55-5.55h0v-14.48h6.88l10.54-10.53,6.6,6.61c2.17,2.17,2.18,5.68,.02,7.86Z"/>
      <path class="cls-3" d="M115.87,16.06L101.4,1.63C100.35,.58,98.93,0,97.45,0h-.08c-3.06,0-5.54,2.49-5.54,5.55v14.48h6.88l10.54,10.53,6.6-6.61c2.18-2.16,2.2-5.69,.04-7.87,0,0-.02-.02-.02-.02Z"/>
      <path class="cls-2" d="M22,113.93c0,4.9-3.52,8.03-10.99,8.03-3.66,.06-7.31-.18-10.93-.71v-3.15c3.15,.43,6.32,.68,9.5,.77,6.05,0,9.18-1.28,9.18-4.97v-1.47c0-2-.68-3.87-4.34-4.38l-6.88-.91c-4.68-.57-7.54-2.9-7.54-6.88v-2.05c0-4.91,2.99-8.26,11.68-8.26,2.86,.02,5.72,.24,8.56,.64v3.03c-2.75-.35-5.51-.54-8.28-.57-6.11,0-8.7,1.67-8.7,5.16v1.41c0,2.01,.68,3.93,4.35,4.39l6.88,.89c4.83,.59,7.54,2.97,7.54,6.88l-.02,2.15Z"/>
      <path class="cls-2" d="M51.82,100.71v3.91c0,1.57-1.26,2.85-2.83,2.86,0,0,0,0-.01,0H30.1v3.67c0,6.07,5.98,7.74,11.2,7.74,3.16,0,6.31-.21,9.44-.65v2.97c-3.28,.49-6.59,.72-9.91,.71-7.33,0-13.98-2.51-13.98-11.61v-9.6c0-6.32,2.85-10.77,12.62-10.77s12.36,4.45,12.36,10.77Zm-4.39,3.68c.63,0,1.15-.51,1.15-1.15v-4.02c0-3.56-2.93-6.39-9.18-6.39-5.51,0-9.3,2.19-9.3,6.52v5.04h17.33Z"/>
      <path class="cls-2" d="M54.39,90.63v2.37h6.18v34.05c0,3.04-.81,5.55-5.3,5.55-.75,0-1.5-.07-2.24-.2v3.03c1.01,.18,2.03,.26,3.05,.26,5.56,0,7.74-3.03,7.74-7.67v-37.4h-9.44Z"/>
      <rect class="cls-2" x="60.57" y="76.4" width="3.26" height="6.46"/>
      <path class="cls-2" d="M91.19,115.87l-9.18,5.74c-.62,.18-1.26,.26-1.9,.26-6.45,0-10.24-3.44-10.24-8.58v-1.16c0-4.26,2.78-8.03,11.06-8.39l10.26-.39v-3.54c0-5.04-3.44-6.71-9.18-6.71-2.72,0-9.51,.64-9.51,.64v-3.11s7.07-.64,10.8-.64c4.89,0,11.14,1.8,11.14,10.13v21.14h-3.24v-5.39Zm0-9.61l-10.66,.46c-4.89,.18-7.4,2.19-7.4,5.35v1.87c0,2.39,2.1,4.9,5.84,4.9,1.41,.05,2.8-.31,4-1.03l8.21-5.15v-6.39Z"/>
      <path class="cls-2" d="M100.49,76.4h4.99v19.34l7.38-4.59c1.04-.64,2.22-1.04,3.44-1.15,7.11,0,10.19,4.13,10.19,9.81v11.66c0,8.32-6.17,10.45-13.03,10.45s-12.96-2.13-12.96-10.45v-35.07Zm4.99,35.21c0,4.26,3.13,5.99,7.95,5.99s8.03-1.73,8.03-5.99v-10.32c0-3.87-1.95-7.18-5.62-7.18-1.11-.11-2.23,.18-3.15,.81l-7.2,4.5v12.19Z"/>
      <path class="cls-2" d="M157.26,100.71v4.5c0,1.58-1.28,2.86-2.86,2.86h-18.06v2.83c0,5.35,4.89,6.5,9.91,6.5,2.86,0,7.07-.32,9.91-.64v4.45c-3.44,.47-6.91,.7-10.38,.71-7.33,0-14.47-2.51-14.47-11.61v-9.6c0-6.32,2.93-10.77,13.04-10.77s12.89,4.45,12.89,10.77Zm-6.17,3.03c.63,0,1.15-.51,1.15-1.15v-2.59c0-3.54-2.29-5.87-7.87-5.87-4.83,0-8.03,1.69-8.03,6v3.61h14.75Z"/>
      <path class="cls-2" d="M183.89,113.73c0,5.48-4,8.19-12.08,8.19-3.61,0-7.22-.25-10.8-.71v-4.38s6.24,.71,9.91,.71c5.98,0,8.28-1.03,8.28-4v-1.35c0-1.74-.88-3.28-4.28-3.74l-6.52-.84c-4.49-.57-7.54-3.44-7.54-7.41v-2.06c0-5.48,4.07-8.19,11.75-8.19,3.15,.04,6.3,.25,9.43,.64v4.32s-4.96-.59-8.68-.59c-5.51,0-7.81,1.03-7.81,4.06v1.3c0,1.74,.88,3.29,4.28,3.74l6.52,.84c4.59,.59,7.54,3.44,7.54,7.41v2.06Z"/>
      <path class="cls-2" d="M206,121.34c-1.56,.31-3.15,.49-4.75,.52-6.05,0-9.18-2.29-9.18-9.28v-17.6h-5.74v-4.35h5.74v-8.74h5.02v8.74h8.89v4.32h-8.89v16.91c0,3.44,1.02,5.41,4.59,5.41,.75,0,3.44-.2,4.28-.32l.03,4.38Z"/>
    </g>
  </g>
</svg>