<?xml version="1.0" encoding="UTF-8"?>
<svg id="Camada_2" data-name="Camada 2" xmlns="http://www.w3.org/2000/svg" viewBox="0 0 1080 384.27">
  <defs>
    <style>
      .cls-1 {
        fill: #fff;
      }
    </style>
  </defs>
  <g id="Camada_1-2" data-name="Camada 1">
    <g>
      <g>
        <path class="cls-1" d="M151.12,283.06l-90.97,90.97c-6.55,6.56-15.44,10.24-24.71,10.24h-.53C15.63,384.27,0,368.64,0,349.36v-91.02H43.27l66.35-66.02,41.49,41.54c13.54,13.6,13.54,35.59,0,49.19Z"/>
        <path class="cls-1" d="M151.12,101.21L60.15,10.24C53.6,3.69,44.71,0,35.44,0h-.53C15.63,0,0,15.63,0,34.91V125.93H43.27l66.35,66.4,41.49-41.54c13.69-13.54,13.81-35.61,.27-49.3-.09-.09-.18-.18-.27-.27Z"/>
      </g>
      <g>
        <path class="cls-1" d="M264.85,92.6h13.25v88.08l37.55-24.85c2.49-.83,5.53-1.1,7.73-1.1,29.82,0,43.63,17.67,43.63,41.97v50.26c0,34.24-23.47,44.73-51.36,44.73s-50.81-10.22-50.81-44.73V92.6Zm13.25,153.25c0,27.06,17.95,33.41,37.55,33.41s38.11-6.35,38.11-33.41v-44.46c0-24.02-11.32-33.68-26.51-33.68-3.59,0-9.66,.55-15.74,4.69l-33.41,22.09v51.36Z"/>
        <path class="cls-1" d="M497.35,200.84v28.99h-88.36v15.74c0,25.96,24.3,33.14,45.56,33.14,10.49,0,27.61-.83,38.38-2.76v12.7c-12.15,1.93-25.13,3.04-40.32,3.04-29.82,0-56.88-10.77-56.88-49.7v-41.14c0-27.06,11.6-46.11,51.09-46.11s50.53,19.05,50.53,46.11Zm-13.25,15.74v-22.09c0-15.18-11.87-27.33-37.28-27.33-22.37,0-37.83,9.39-37.83,27.89v21.54h75.11Z"/>
        <path class="cls-1" d="M608.63,257.44c0,20.99-14.36,34.24-44.73,34.24-28.44,0-44.46-3.04-44.46-3.04v-13.53s22.92,3.32,38.66,3.32c24.58,0,37.28-5.52,37.28-21.26v-6.35c0-8.56-2.76-16.57-17.67-18.78l-28.17-3.87c-19.05-2.48-30.65-12.43-30.65-29.54v-8.56c0-20.99,12.15-35.34,47.5-35.34,16.57,0,24.85,1.66,34.8,2.76v12.98s-17.4-2.48-33.69-2.48c-24.85,0-35.34,7.18-35.34,22.09v6.08c0,8.56,2.76,16.84,17.67,18.78l28.16,3.87c19.61,2.48,30.65,12.7,30.65,29.55v9.11Z"/>
        <path class="cls-1" d="M696.45,289.2c-4.97,1.38-12.43,2.21-17.67,2.21-19.6,0-33.96-7.18-33.96-35.62v-85.32h-25.13v-12.7h25.13v-32.31l7.73-5.25h5.52v37.55h40.87v12.7h-40.87v82.57c0,18.22,5.8,24.85,21.54,24.85,3.04,0,13.26-.83,16.84-1.38v12.7Z"/>
        <path class="cls-1" d="M797.79,288.65v-85.32c0-16.57-6.63-28.17-21.54-28.17-3.59,0-8.84,1.11-12.98,3.32l-30.38,16.84v93.33h-20.43V92.6h20.43v86.98l33.97-23.75c2.48-.83,5.52-1.1,7.73-1.1,29.82,0,43.63,17.67,43.63,41.97v91.95h-20.43Z"/>
        <path class="cls-1" d="M863.51,157.76v87.53c0,16.57,6.63,25.95,21.54,25.95,3.59,0,8.56-1.1,12.98-3.31l30.37-16.84v-93.33h20.44v130.88h-20.44v-21.81l-33.96,23.75c-2.48,.83-5.52,1.1-7.73,1.1-29.82,0-43.63-17.67-43.63-41.97v-91.95h20.44Z"/>
        <path class="cls-1" d="M974.24,92.6h20.43v86.98l33.97-23.75c2.48-.83,5.52-1.1,7.73-1.1,29.82,0,43.63,17.67,43.63,41.97v50.26c0,35.62-25.13,44.73-53.02,44.73s-52.74-9.11-52.74-44.73V92.6Zm20.43,154.91c0,18.23,12.7,25.68,32.31,25.68s32.59-7.46,32.59-25.68v-44.18c0-16.57-6.63-28.17-21.54-28.17-3.59,0-8.84,1.11-12.98,3.32l-30.38,16.84v52.19Z"/>
      </g>
    </g>
  </g>
</svg>