<?xml version="1.0" encoding="UTF-8"?>
<svg id="Camada_2" data-name="Camada 2" xmlns="http://www.w3.org/2000/svg" xmlns:xlink="http://www.w3.org/1999/xlink" viewBox="0 0 334 113.28">
  <defs>
    <style>
      .cls-1 {
        fill: url(#Gradiente_sem_nome_2);
      }

      .cls-2 {
        fill: #525252;
      }

      .cls-3 {
        fill: url(#Gradiente_sem_nome_2-2);
      }
    </style>
    <linearGradient id="Gradiente_sem_nome_2" data-name="Gradiente sem nome 2" x1="-2.59" y1="-529.38" x2="38.85" y2="-487.95" gradientTransform="translate(0 -424.72) scale(1 -1)" gradientUnits="userSpaceOnUse">
      <stop offset="0" stop-color="#525252"/>
      <stop offset=".5" stop-color="#525252"/>
      <stop offset="1" stop-color="#525252"/>
    </linearGradient>
    <linearGradient id="Gradiente_sem_nome_2-2" data-name="Gradiente sem nome 2" x1="5.2" y1="-467.04" x2="31.12" y2="-441.11" xlink:href="#Gradiente_sem_nome_2"/>
  </defs>
  <g id="Camada_1-2" data-name="Camada 1">
    <g>
      <path class="cls-2" d="M106.67,66.52c0,6.05-4.37,9.92-13.59,9.92-4.52,.07-9.04-.22-13.51-.88v-3.94c3.9,.53,7.82,.85,11.75,.95,7.46,0,11.34-1.59,11.34-6.14v-1.83c0-2.47-.85-4.78-5.37-5.41l-8.5-1.12c-5.85-.72-9.4-3.59-9.4-8.46v-2.54c0-6.05,3.71-10.22,14.44-10.22,3.54,.03,7.07,.29,10.57,.79v3.74c-3.39-.43-6.81-.67-10.23-.71-7.56,0-10.73,2.07-10.73,6.36v1.76c0,2.47,.84,4.86,5.36,5.41l8.5,1.12c5.95,.72,9.31,3.67,9.31,8.5l.06,2.68Z"/>
      <path class="cls-2" d="M143.51,50.19v4.83c0,1.94-1.56,3.52-3.5,3.53,0,0-.02,0-.03,0h-23.32v4.54c0,7.5,7.39,9.57,13.83,9.57,3.9,.01,7.8-.26,11.67-.81v3.67c-4.05,.6-8.15,.9-12.25,.88-9.06,0-17.28-3.1-17.28-14.34v-11.86c0-7.81,3.53-13.31,15.59-13.31s15.28,5.5,15.28,13.31Zm-5.44,4.54c.78,0,1.42-.63,1.42-1.42v-4.96c0-4.38-3.61-7.88-11.34-7.88-6.79,0-11.5,2.71-11.5,8.05v6.21h21.42Z"/>
      <path class="cls-2" d="M146.68,37.76v2.93h7.63v42.07c0,3.76-1.01,6.86-6.53,6.86-.95,0-1.9-.09-2.83-.24v3.74c1.25,.21,2.52,.32,3.78,.31,6.87,0,9.55-3.74,9.55-9.47V37.76h-11.59Z"/>
      <rect class="cls-2" x="154.31" y="20.16" width="4.03" height="7.98"/>
      <path class="cls-2" d="M192.14,68.92l-11.34,7.16c-.76,.22-1.55,.32-2.34,.33-7.98,0-12.67-4.25-12.67-10.6v-1.5c0-5.26,3.44-9.92,13.68-10.36l12.66-.48v-4.47c0-6.21-4.25-8.28-11.34-8.28-3.35,0-11.74,.79-11.74,.79v-3.83s8.72-.79,13.34-.79c6.04,0,13.75,2.23,13.75,12.5v26.14h-4.03l.03-6.61Zm0-11.88l-13.17,.55c-6.04,.24-9.14,2.71-9.14,6.62v2.31c0,2.95,2.61,6.05,7.21,6.05,1.74,.06,3.46-.38,4.95-1.28l10.15-6.36v-7.9Z"/>
      <path class="cls-2" d="M203.63,20.16h6.15v23.9l9.1-5.67c1.29-.8,2.74-1.28,4.25-1.42,8.79,0,12.57,5.1,12.57,12.11v14.42c0,10.28-7.63,12.91-16.1,12.91s-16.02-2.64-16.02-12.91l.04-43.33Zm6.15,43.5c0,5.26,3.86,7.4,9.81,7.4s9.92-2.14,9.92-7.4v-12.76c0-4.78-2.41-8.87-6.93-8.87-1.38-.13-2.77,.23-3.91,1.01l-8.89,5.56v15.07Z"/>
      <path class="cls-2" d="M273.77,50.19v5.56c0,1.94-1.57,3.52-3.52,3.52h-22.33v3.52c0,6.61,6.05,8.04,12.25,8.04,3.53,0,8.73-.4,12.25-.79v5.5c-4.25,.58-8.54,.87-12.83,.88-9.06,0-17.86-3.1-17.86-14.34v-11.86c0-7.81,3.6-13.31,16.1-13.31s15.93,5.5,15.93,13.31Zm-7.61,3.74c.78,0,1.42-.63,1.42-1.42v-3.2c0-4.38-2.83-7.26-9.72-7.26-5.95,0-9.92,2.07-9.92,7.41v4.47h18.23Z"/>
      <path class="cls-2" d="M306.7,66.28c0,6.78-4.96,10.12-14.94,10.12-4.46,0-8.92-.3-13.34-.88v-5.41s7.73,.88,12.25,.88c7.39,0,10.23-1.28,10.23-4.95v-1.67c0-2.15-1.09-4.07-5.29-4.62l-8.05-1.03c-5.53-.72-9.31-4.25-9.31-9.16v-2.55c0-6.78,5.03-10.12,14.51-10.12,3.9,.05,7.79,.32,11.67,.79v5.34s-6.12-.72-10.74-.72c-6.79,0-9.64,1.28-9.64,5.02v1.6c0,2.14,1.08,4.05,5.27,4.62l8.05,1.03c5.67,.71,9.33,4.25,9.33,9.16v2.55Z"/>
      <path class="cls-2" d="M334,75.68c-1.93,.39-3.9,.6-5.87,.64-7.47,0-11.34-2.83-11.34-11.47v-21.76h-7.09v-5.33h7.09v-10.83h6.21v10.83h10.99v5.33h-10.99v20.88c0,4.25,1.26,6.69,5.67,6.69,.92,0,4.25-.24,5.27-.4l.06,5.41Z"/>
      <path class="cls-1" d="M44.55,83.45l-26.82,26.82c-1.93,1.93-4.55,3.02-7.29,3.02h-.16C4.61,113.28,0,108.68,0,102.99v-26.83H12.76l19.56-19.46,12.23,12.25c3.99,4.01,3.99,10.49,0,14.5Z"/>
      <path class="cls-3" d="M44.55,29.84L17.73,3.02C15.8,1.09,13.18,0,10.45,0h-.16C4.61,0,0,4.61,0,10.29v26.83H12.76l19.56,19.58,12.23-12.25c4.04-3.99,4.07-10.5,.08-14.53-.03-.03-.05-.05-.08-.08Z"/>
    </g>
  </g>
</svg>