<svg width="184" height="27" viewBox="0 0 184 27" fill="none" xmlns="http://www.w3.org/2000/svg">
<path d="M35.6117 26.7015C34.6851 26.7015 33.8954 26.5601 33.246 26.2737C32.5967 25.9619 32.0562 25.5994 31.6315 25.186C31.2314 24.7727 30.9295 24.3957 30.7294 24.0585C30.5539 23.7214 30.4556 23.5292 30.4275 23.4748H30.3539L29.715 26.6979H26.4087V6H30.3539V13.8492H30.4275C30.4521 13.773 30.5539 13.5519 30.7294 13.1893C30.9049 12.8268 31.1787 12.4244 31.5542 11.9857C31.9544 11.547 32.4984 11.0648 33.1477 10.753C33.8252 10.4158 34.6184 10.2092 35.5942 10.2092C37.121 10.2092 38.2442 10.5609 39.1708 11.2606C40.0975 11.9349 40.8942 13.0334 41.3189 14.277C41.7681 15.4951 41.9963 16.9417 41.9963 18.6239C41.9963 20.3061 41.7822 21.6403 41.3575 22.8549C40.9328 24.073 40.2413 25.0157 39.2901 25.69C38.3635 26.3643 37.135 26.6979 35.6082 26.6979L35.6117 26.7015ZM34.3727 23.3624C35.3976 23.3624 36.1873 23.1413 36.7384 22.7026C37.314 22.2349 37.7037 21.6403 37.9037 20.9152C38.1284 20.1648 38.2407 19.3889 38.2407 18.584C38.2407 17.7792 38.1284 17.0178 37.9037 16.2927C37.6791 15.5676 37.279 14.9839 36.7033 14.5453C36.1277 14.1066 35.3134 13.8854 34.2605 13.8854C33.3338 13.8854 32.5826 14.0921 32.007 14.5054C31.4314 14.8933 31.0172 15.4516 30.768 16.1767C30.5188 16.8764 30.3925 17.6777 30.3925 18.584C30.3925 19.4904 30.5188 20.3424 30.768 21.0675C31.0418 21.7672 31.47 22.3219 32.0457 22.7388C32.6459 23.1522 33.4215 23.3588 34.3762 23.3588L34.3727 23.3624Z" fill="white"/>
<path d="M81.5112 26.7013C80.2862 26.7013 79.3596 26.3823 78.7349 25.7406C78.1347 25.0989 77.8363 24.0547 77.8363 22.6118V12.6671H81.3989V23.4928H85.0001V26.7013H81.5112ZM75.5127 13.1058V10.2199C76.0638 10.2199 76.5131 10.18 76.8641 10.1002C77.215 10.0205 77.4889 9.84647 77.6889 9.57818C77.9136 9.3099 78.075 8.89659 78.1768 8.33464C78.275 7.77269 78.3277 6.99684 78.3277 6.00708H81.4024V10.2163H84.9299V13.1022H75.5162L75.5127 13.1058Z" fill="white"/>
<path d="M58.342 26.7016L63.9896 18.1962L58.6439 10.2129H62.8629L66.4008 15.8288L69.9424 10.2129H74.1964L68.8508 18.1962L74.5369 26.7016H70.318L66.4008 20.6434L62.561 26.7016H58.342Z" fill="white"/>
<path d="M51.112 26.6617C49.3289 26.6617 47.8722 26.2737 46.7421 25.4943C45.6364 24.6894 44.8081 23.667 44.2571 22.4198C43.7306 21.1763 43.4533 19.8784 43.4287 18.5297C43.4041 16.9236 43.6919 15.4952 44.2956 14.2516C44.9239 12.9827 45.8014 11.9966 46.9316 11.2969C48.0864 10.5718 49.4412 10.2092 50.9996 10.2092C52.379 10.2092 53.6215 10.521 54.7271 11.141C55.8328 11.7646 56.6963 12.6311 57.3245 13.7477C57.9774 14.8644 58.3143 16.1985 58.3424 17.7539V18.7654H47.0825C47.0825 20.2446 47.4335 21.383 48.1355 22.1878C48.862 22.9673 49.8308 23.3552 51.0347 23.3552C51.9894 23.3552 52.7791 23.1087 53.4074 22.6156C54.0603 22.1226 54.4499 21.4736 54.5762 20.6724H58.3038C58.202 21.789 57.8511 22.7969 57.2509 23.7069C56.6471 24.6133 55.8328 25.342 54.8044 25.8858C53.7759 26.4043 52.544 26.6653 51.1154 26.6653L51.112 26.6617ZM47.1984 16.978H54.5025C54.478 16.7967 54.4289 16.5103 54.3516 16.1224C54.2779 15.7345 54.1129 15.332 53.8637 14.9151C53.6145 14.5018 53.2495 14.1501 52.7722 13.8637C52.2948 13.5773 51.6806 13.4359 50.9259 13.4359C50.1713 13.4359 49.5571 13.5664 49.0797 13.8238C48.6024 14.0849 48.2373 14.4075 47.9881 14.7955C47.7354 15.1834 47.5494 15.5749 47.423 15.9629C47.2967 16.3508 47.2229 16.688 47.1984 16.9744V16.978Z" fill="white"/>
<path fill-rule="evenodd" clip-rule="evenodd" d="M0 6.01451V9.44058L7.69726 14.9187C8.8766 15.7598 10.4525 15.7598 11.6319 14.9187L19.3292 9.44058V6L10.6702 10.3143C10.0349 10.6297 9.29427 10.6297 8.65898 10.3143L0 6.01088V6.01451ZM0 19.824L3.5275 17.3079V20.734L7.70077 17.7683C8.88011 16.9308 10.449 16.9308 11.6284 17.7683L19.3292 23.2283V26.6797L10.6737 22.3799C10.0384 22.0645 9.29427 22.0645 8.65898 22.3799L0 26.7051V19.8276V19.824Z" fill="white"/>
<g clip-path="url(#clip0_536_94)">
<path d="M98.9998 7.74902H100.173V15.5474L103.498 13.3473C103.718 13.2738 103.987 13.2492 104.182 13.2492C106.823 13.2492 108.045 14.8137 108.045 16.9654V21.4148C108.045 24.4461 105.967 25.3751 103.498 25.3751C101.029 25.3751 98.9998 24.4703 98.9998 21.4148V7.74902ZM100.173 21.3167C100.173 23.7125 101.762 24.2746 103.498 24.2746C105.234 24.2746 106.872 23.7125 106.872 21.3167V17.381C106.872 15.254 105.869 14.3985 104.525 14.3985C104.207 14.3985 103.669 14.4473 103.131 14.8141L100.173 16.7701V21.3171V21.3167Z" fill="white"/>
<path d="M119.584 17.3321V19.899H111.761V21.2924C111.761 23.5901 113.913 24.2261 115.795 24.2261C116.724 24.2261 118.24 24.1527 119.193 23.9816V25.1062C118.117 25.2773 116.969 25.3753 115.624 25.3753C112.984 25.3753 110.588 24.4218 110.588 20.9748V17.3321C110.588 14.9363 111.614 13.2495 115.111 13.2495C118.607 13.2495 119.584 14.9363 119.584 17.3321ZM118.411 18.7255V16.77C118.411 15.4254 117.36 14.3496 115.111 14.3496C113.131 14.3496 111.761 15.1808 111.761 16.8188V18.7255H118.411Z" fill="white"/>
<path d="M129.437 22.3436C129.437 24.2015 128.166 25.375 125.477 25.375C122.959 25.375 121.541 25.1058 121.541 25.1058V23.9081C121.541 23.9081 123.57 24.2015 124.963 24.2015C127.139 24.2015 128.263 23.7128 128.263 22.319V21.7569C128.263 20.999 128.019 20.29 126.699 20.0943L124.205 19.7521C122.519 19.5322 121.492 18.6521 121.492 17.1364V16.3785C121.492 14.5207 122.568 13.2495 125.697 13.2495C127.163 13.2495 127.897 13.3964 128.777 13.4941V14.6429C128.777 14.6429 127.236 14.423 125.794 14.423C123.594 14.423 122.665 15.0586 122.665 16.3785V16.9164C122.665 17.6743 122.91 18.4079 124.23 18.579L126.723 18.9212C128.459 19.1411 129.437 20.0459 129.437 21.5369V22.3436H129.437Z" fill="white"/>
<path d="M137.211 25.1548C136.771 25.2771 136.111 25.3506 135.647 25.3506C133.911 25.3506 132.639 24.715 132.639 22.1969V14.6427H130.415V13.5181H132.639V10.6578L133.324 10.1934H133.813V13.5181H137.431V14.6427H133.813V21.9524C133.813 23.5657 134.326 24.1525 135.72 24.1525C135.988 24.1525 136.893 24.079 137.211 24.0302V25.1548H137.211Z" fill="white"/>
<path d="M182.696 6.82349L177.177 1.30433L178.125 0.355748C178.599 -0.118138 179.369 -0.118136 179.842 0.35575L183.644 4.15743C184.118 4.63132 184.118 5.40074 183.644 5.87463L182.696 6.82321L182.696 6.82349Z" fill="white"/>
<path d="M182.696 12.5371L177.177 7.01796L178.984 5.21078L183.644 9.87106C184.118 10.3449 184.118 11.1144 183.644 11.5883L182.696 12.5368L182.696 12.5371Z" fill="white"/>
<path d="M177.177 14.4429L182.696 8.92372L183.644 9.87231C184.118 10.3462 184.118 11.1156 183.644 11.5895L179.843 15.3912C179.369 15.8651 178.6 15.8651 178.126 15.3912L177.177 14.4426L177.177 14.4429Z" fill="white"/>
<path d="M148.823 25.1058V17.9673H141.807V25.1058H139.313V8.57983H141.807V15.7672H148.823V8.57983H151.317V25.1058H148.823Z" fill="white"/>
<path d="M156.06 13.5182V20.8521C156.06 22.1232 156.573 22.8322 157.551 22.8322C157.795 22.8322 158.138 22.7834 158.406 22.6857L160.778 21.708V13.5182H163.271V25.1057H160.778V23.2725L158.113 25.2772C157.893 25.3507 157.624 25.3749 157.429 25.3749C154.788 25.3749 153.566 23.8104 153.566 21.6587V13.5178H156.059L156.06 13.5182Z" fill="white"/>
<path d="M165.179 7.74902H167.672V15.3517L170.337 13.3473C170.557 13.2738 170.826 13.2492 171.021 13.2492C173.662 13.2492 174.884 14.8137 174.884 16.9654V21.4148C174.884 24.5684 172.488 25.3751 170.019 25.3751C167.55 25.3751 165.178 24.5684 165.178 21.4148V7.74902H165.179ZM167.672 21.3167C167.672 22.4414 168.406 23.2726 170.019 23.2726C171.633 23.2726 172.391 22.4414 172.391 21.3167V17.7721C172.391 16.5009 171.878 15.7919 170.9 15.7919C170.655 15.7919 170.313 15.8407 170.044 15.9384L167.673 16.9162V21.3167H167.672Z" fill="white"/>
</g>
<defs>
<clipPath id="clip0_536_94">
<rect width="85" height="25.3748" fill="white" transform="translate(99)"/>
</clipPath>
</defs>
</svg>
