<svg width="184" height="62" viewBox="0 0 184 62" fill="none" xmlns="http://www.w3.org/2000/svg">
<path d="M79 49.8H80.6V61.7H79V49.8Z" fill="white"/>
<path d="M82.9 53.2H84.4V61.7H82.9V53.2ZM88.9 56.5C88.9 55.8 88.7 55.2 88.4 54.9C88.1 54.6 87.6 54.4 86.9 54.4C86.3 54.4 85.8 54.6 85.3 54.9C84.8 55.2 84.4 55.8 84.1 56.5L83.7 56C83.9 55.5 84.2 55 84.5 54.5C84.9 54.1 85.3 53.7 85.8 53.5C86.3 53.2 86.8 53.1 87.4 53.1C88.4 53.1 89.1 53.4 89.6 53.9C90.1 54.4 90.4 55.2 90.4 56.1V61.7H88.9V56.5Z" fill="white"/>
<path d="M91.5 53.2H93.1L95.7 60.4H95.3L97.8 53.2H99.3L96.3 61.7H94.7L91.5 53.2Z" fill="white"/>
<path d="M104.4 61.8C103.5 61.8 102.8 61.6 102.1 61.3C101.4 60.9 100.9 60.4 100.5 59.8C100.1 59.1 99.9 58.4 99.9 57.5C99.9 56.6 100.1 55.9 100.5 55.2C100.9 54.5 101.4 54 102.1 53.6C102.8 53.2 103.5 53 104.2 53C104.9 53 105.6 53.1 106.2 53.4C106.8 53.7 107.2 54.1 107.6 54.7C107.9 55.3 108.1 55.9 108.1 56.7V57.6H101.5V56.4H107.2L106.7 57C106.7 56.1 106.5 55.4 106.1 54.9C105.7 54.4 105.1 54.2 104.3 54.2C103.8 54.2 103.3 54.3 102.9 54.6C102.5 54.8 102.2 55.2 101.9 55.7C101.7 56.2 101.6 56.7 101.6 57.4C101.6 58 101.7 58.6 102 59.1C102.3 59.6 102.6 59.9 103.1 60.2C103.6 60.4 104.1 60.6 104.7 60.6C105.2 60.6 105.7 60.5 106.2 60.3C106.7 60.1 107.1 59.8 107.5 59.5L108 60.7C107.5 61.1 107 61.4 106.4 61.6C105.7 61.7 105 61.8 104.4 61.8Z" fill="white"/>
<path d="M112.4 61.8C111.8 61.8 111.2 61.7 110.7 61.6C110.2 61.5 109.7 61.3 109.3 61.1L109.6 59.7C109.9 60 110.4 60.2 110.9 60.3C111.4 60.4 111.9 60.5 112.5 60.5C113.1 60.5 113.6 60.4 114 60.1C114.4 59.9 114.5 59.5 114.5 59.1C114.5 58.8 114.4 58.6 114.3 58.4C114.1 58.2 113.9 58.1 113.6 58.1C113.3 58 112.9 57.9 112.4 57.9C111.8 57.8 111.3 57.7 110.9 57.5C110.5 57.3 110.1 57.1 109.9 56.8C109.7 56.5 109.5 56 109.5 55.5C109.5 55 109.6 54.6 109.9 54.2C110.2 53.8 110.5 53.5 111 53.3C111.5 53.1 112.1 53 112.8 53C113.3 53 113.8 53.1 114.3 53.2C114.8 53.3 115.3 53.4 115.6 53.6L115.3 54.9C114.9 54.7 114.4 54.5 114 54.4C113.6 54.3 113.1 54.2 112.7 54.2C112.1 54.2 111.7 54.3 111.4 54.5C111.1 54.7 110.9 55 110.9 55.3C110.9 55.7 111 55.9 111.3 56.1C111.5 56.2 112 56.4 112.6 56.5L113 56.6C113.7 56.7 114.2 56.8 114.6 57C115 57.2 115.3 57.4 115.6 57.7C115.8 58 116 58.5 116 59C116 59.5 115.9 60 115.6 60.4C115.3 60.8 114.9 61.2 114.4 61.4C113.7 61.7 113.1 61.8 112.4 61.8Z" fill="white"/>
<path d="M121.1 61.8C120.3 61.8 119.6 61.6 119.1 61.2C118.6 60.8 118.4 60.2 118.4 59.3V50.5H119.9V59.1C119.9 59.6 120 59.9 120.2 60.1C120.4 60.3 120.8 60.4 121.3 60.4C121.7 60.4 122.1 60.3 122.5 60.2V61.5C122.3 61.6 122.1 61.7 121.8 61.7C121.6 61.8 121.4 61.8 121.1 61.8ZM116.7 53.2H122.5V54.5H116.7V53.2Z" fill="white"/>
<path d="M124.1 53.2H125.6V61.7H124.1V53.2ZM124.9 51.5C124.5 51.5 124.2 51.4 124.1 51.2C123.9 51 123.8 50.8 123.8 50.4C123.8 50.1 123.9 49.8 124.1 49.6C124.3 49.4 124.6 49.3 124.9 49.3C125.3 49.3 125.5 49.4 125.7 49.6C125.9 49.8 126 50 126 50.4C126 50.7 125.9 51 125.7 51.2C125.6 51.4 125.3 51.5 124.9 51.5Z" fill="white"/>
<path d="M127.9 53.2H129.4V61.7H127.9V53.2ZM133.4 56.3C133.4 55.6 133.2 55.1 132.9 54.8C132.6 54.5 132.1 54.3 131.5 54.3C130.9 54.3 130.4 54.5 130 54.8C129.6 55.1 129.2 55.6 128.9 56.3L128.5 55.7C128.7 55.2 128.9 54.7 129.3 54.3C129.6 53.9 130 53.5 130.5 53.3C131 53.1 131.5 52.9 132 52.9C132.6 52.9 133.1 53 133.5 53.2C133.9 53.4 134.3 53.8 134.5 54.2C134.7 54.6 134.8 55.1 134.8 55.8V61.5H133.3V56.3H133.4ZM138.7 56.3C138.7 55.6 138.5 55.1 138.2 54.8C137.9 54.5 137.4 54.3 136.8 54.3C136.2 54.3 135.7 54.5 135.3 54.8C134.9 55.1 134.5 55.6 134.2 56.3L133.8 55.7C134 55.2 134.2 54.7 134.6 54.3C134.9 53.9 135.3 53.5 135.8 53.3C136.3 53.1 136.8 52.9 137.3 52.9C137.9 52.9 138.4 53 138.8 53.2C139.2 53.4 139.6 53.8 139.8 54.2C140 54.6 140.1 55.1 140.1 55.8V61.5H138.6V56.3H138.7Z" fill="white"/>
<path d="M146.2 61.8C145.3 61.8 144.6 61.6 143.9 61.3C143.2 60.9 142.7 60.4 142.3 59.8C141.9 59.1 141.7 58.4 141.7 57.5C141.7 56.6 141.9 55.9 142.3 55.2C142.7 54.5 143.2 54 143.9 53.6C144.6 53.2 145.3 53 146 53C146.7 53 147.4 53.1 148 53.4C148.6 53.7 149 54.1 149.4 54.7C149.7 55.3 149.9 55.9 149.9 56.7V57.6H143.3V56.4H149L148.5 57C148.5 56.1 148.3 55.4 147.9 54.9C147.5 54.4 146.9 54.2 146.1 54.2C145.6 54.2 145.1 54.3 144.7 54.6C144.3 54.8 144 55.2 143.7 55.7C143.5 56.2 143.4 56.7 143.4 57.4C143.4 58 143.5 58.6 143.8 59.1C144.1 59.6 144.4 59.9 144.9 60.2C145.4 60.4 145.9 60.6 146.5 60.6C147 60.6 147.5 60.5 148 60.3C148.5 60.1 148.9 59.8 149.3 59.5L149.8 60.7C149.3 61.1 148.8 61.4 148.2 61.6C147.5 61.7 146.9 61.8 146.2 61.8Z" fill="white"/>
<path d="M151.4 53.2H152.9V61.7H151.4V53.2ZM157.3 56.5C157.3 55.8 157.1 55.2 156.8 54.9C156.5 54.6 156 54.4 155.3 54.4C154.7 54.4 154.2 54.6 153.7 54.9C153.2 55.2 152.8 55.8 152.5 56.5L152.1 56C152.3 55.5 152.6 55 152.9 54.5C153.3 54.1 153.7 53.7 154.2 53.5C154.7 53.2 155.2 53.1 155.8 53.1C156.8 53.1 157.5 53.4 158 53.9C158.5 54.4 158.8 55.2 158.8 56.1V61.7H157.3V56.5Z" fill="white"/>
<path d="M164.5 61.8C163.7 61.8 163 61.6 162.5 61.2C162 60.8 161.8 60.2 161.8 59.3V50.5H163.3V59.1C163.3 59.6 163.4 59.9 163.6 60.1C163.8 60.3 164.2 60.4 164.7 60.4C165.1 60.4 165.5 60.3 165.9 60.2V61.5C165.7 61.6 165.5 61.7 165.2 61.7C165.1 61.8 164.8 61.8 164.5 61.8ZM160.1 53.2H165.9V54.5H160.1V53.2Z" fill="white"/>
<path d="M171.2 61.8C170.4 61.8 169.7 61.6 169 61.3C168.3 60.9 167.8 60.4 167.4 59.8C167 59.1 166.8 58.4 166.8 57.5C166.8 56.6 167 55.8 167.4 55.2C167.8 54.5 168.3 54 169 53.7C169.7 53.3 170.4 53.2 171.2 53.2C172 53.2 172.7 53.4 173.4 53.7C174.1 54 174.6 54.6 175 55.2C175.4 55.8 175.6 56.6 175.6 57.5C175.6 58.4 175.4 59.2 175 59.8C174.6 60.5 174.1 61 173.4 61.3C172.7 61.6 172 61.8 171.2 61.8ZM171.2 60.4C171.7 60.4 172.2 60.3 172.6 60C173 59.8 173.4 59.4 173.6 58.9C173.8 58.4 174 57.9 174 57.3C174 56.7 173.9 56.1 173.6 55.7C173.4 55.2 173 54.9 172.6 54.6C172.2 54.4 171.7 54.2 171.2 54.2C170.6 54.2 170.1 54.3 169.7 54.6C169.3 54.8 169 55.2 168.7 55.7C168.5 56.2 168.4 56.7 168.4 57.3C168.4 57.9 168.5 58.4 168.7 58.9C168.9 59.4 169.3 59.7 169.7 60C170.2 60.3 170.7 60.4 171.2 60.4Z" fill="white"/>
<path d="M179.8 61.8C179.2 61.8 178.6 61.7 178.1 61.6C177.6 61.5 177.1 61.3 176.7 61.1L177 59.7C177.3 60 177.8 60.2 178.3 60.3C178.8 60.4 179.3 60.5 179.9 60.5C180.5 60.5 181 60.4 181.4 60.1C181.8 59.9 181.9 59.5 181.9 59.1C181.9 58.8 181.8 58.6 181.7 58.4C181.5 58.2 181.3 58.1 181 58.1C180.7 58 180.3 57.9 179.8 57.9C179.2 57.8 178.7 57.7 178.3 57.5C177.9 57.3 177.5 57.1 177.3 56.8C177.1 56.5 176.9 56 176.9 55.5C176.9 55 177 54.6 177.3 54.2C177.6 53.8 177.9 53.5 178.4 53.3C178.9 53.1 179.5 53 180.2 53C180.7 53 181.2 53.1 181.7 53.2C182.2 53.3 182.7 53.4 183 53.6L182.7 54.9C182.3 54.7 181.8 54.5 181.4 54.4C181 54.3 180.5 54.2 180.1 54.2C179.5 54.2 179.1 54.3 178.8 54.5C178.5 54.7 178.3 55 178.3 55.3C178.3 55.7 178.4 55.9 178.7 56.1C178.9 56.2 179.4 56.4 180 56.5L180.4 56.6C181.1 56.7 181.6 56.8 182 57C182.4 57.2 182.7 57.4 183 57.7C183.2 58 183.4 58.5 183.4 59C183.4 59.5 183.3 60 183 60.4C182.7 60.8 182.3 61.2 181.8 61.4C181.1 61.7 180.5 61.8 179.8 61.8Z" fill="white"/>
<path d="M163.6 21.6V40.4H155.3V7.4H163.6V11.4H164.8C167.1 8.4 171.1 6.8 175.1 6.8C180.8 6.8 184 10.1 184 14.6V40.4H175.7V15H169.7C166.5 15.1 163.6 17.4 163.6 21.6ZM142.8 20C142.6 16.2 140.2 13.3 136 13.3C135.1 13.3 134.2 13.4 133.3 13.7C132.4 14 131.7 14.5 131 15.1C130.3 15.7 129.8 16.5 129.5 17.3C129.1 18.1 129 19 129 20H142.8ZM151.1 26H128.7C128.9 30.4 131.4 34 136.3 34C139.6 34 142.8 32.2 143.3 28.9H150.9C150 36.5 144.8 40.9 136.1 40.9C126.1 40.9 120.5 34.9 120.5 23.8C120.5 12.7 126 6.7 136.1 6.7C146.5 6.8 151.9 13.5 151.1 26ZM100.7 14V40.5H109V15H118.8V7.3H107.7C104.1 7.4 100.7 9.7 100.7 14ZM78.8 14V40.5H87.1V15H96.9V7.3H85.8C82.2 7.4 78.8 9.7 78.8 14ZM55.4 34.5C52.6 34.5 50.9 33.1 50.9 30.5C50.9 27.7 52.8 25.8 57 25.8H63.1V26.5C63.1 27.5 62.9 28.6 62.6 29.5C62.2 30.5 61.7 31.3 60.9 32.1C60.2 32.8 59.3 33.4 58.4 33.9C57.5 34.2 56.4 34.5 55.4 34.5ZM52.6 41C54.6 41 56.5 40.6 58.3 39.8C60.1 39 61.6 37.7 62.9 36.2H64.1C64.4 39.3 66.4 40.5 70 40.5H73.9V33.7H71.2V14.1C71.2 9.7 67.6 7.4 63.6 7.4H45.8L45.3 14.7H63.2V20.1H54.7C47.1 20.1 42.9 23.8 42.9 30.6C42.8 36.5 46.1 41 52.6 41ZM33.1 0.2L30.8 33.4H29.1L27.5 13.3C27.5 12.4 27.3 11.5 26.9 10.7C26.5 9.9 26 9.2 25.4 8.6C24.7 8 24 7.5 23.1 7.2C22.3 6.9 21.4 6.8 20.5 6.8H19C17.2 6.7 15.5 7.4 14.2 8.6C12.9 9.8 12.1 11.5 12 13.3L10.4 33.4H8.7L7.4 14.8H0L1.3 34.5C1.3 35.4 1.5 36.3 1.9 37.1C2.3 37.9 2.8 38.6 3.5 39.3C4.2 39.9 4.9 40.4 5.8 40.7C6.6 41 7.5 41.1 8.4 41.1H10.4C12.2 41.2 13.9 40.5 15.3 39.3C16.6 38.1 17.4 36.4 17.5 34.6L19 14.3H20.4L22 34.4C22 35.3 22.2 36.2 22.6 37C23 37.8 23.5 38.5 24.1 39.1C24.8 39.7 25.5 40.2 26.4 40.5C27.2 40.8 28.1 40.9 29 40.9H31C31.9 40.9 32.8 40.8 33.6 40.5C34.4 40.2 35.2 39.7 35.9 39.1C36.6 38.5 37.1 37.8 37.4 36.9C37.8 36.1 38 35.2 38 34.3L40.5 0L33.1 0.2Z" fill="white"/>
</svg>
