<svg width="184" height="34" viewBox="0 0 184 34" fill="none" xmlns="http://www.w3.org/2000/svg">
<path d="M27.2726 21.7742C27.2726 23.3235 26.158 24.3091 23.7952 24.3091C22.6419 24.3263 21.4842 24.2531 20.3394 24.0853V23.0782C21.3378 23.2116 22.3406 23.2934 23.3434 23.3192C25.2499 23.3192 26.2441 22.9147 26.2441 21.7484V21.2793C26.2441 20.6466 26.0246 20.057 24.8712 19.8935L22.6978 19.6051C21.2001 19.42 20.2963 18.6884 20.2963 17.4403V16.7905C20.2963 15.2411 21.2474 14.1781 23.9889 14.1781C24.8927 14.1867 25.7965 14.2556 26.6916 14.3804V15.3358C25.8223 15.2239 24.9486 15.1637 24.075 15.1551C22.1426 15.1551 21.3335 15.6844 21.3335 16.7819V17.2295C21.3335 17.8621 21.5487 18.4732 22.7021 18.6153L24.8755 18.9036C26.399 19.0887 27.2554 19.8418 27.2554 21.077L27.2683 21.7613L27.2726 21.7742Z" fill="white"/>
<path d="M36.6892 17.5996V18.8348C36.6892 19.3297 36.2889 19.7342 35.794 19.7386C35.794 19.7386 35.7897 19.7386 35.7854 19.7386H29.8248V20.8962C29.8248 22.8114 31.7141 23.3408 33.3624 23.3408C34.3609 23.3408 35.355 23.2762 36.3449 23.1342V24.0724C35.3077 24.2273 34.2619 24.3005 33.2118 24.2962C30.8964 24.2962 28.7919 23.5043 28.7919 20.6294V17.5953C28.7919 15.5984 29.6956 14.1911 32.7771 14.1911C35.8586 14.1911 36.6849 15.5984 36.6849 17.5953L36.6892 17.5996ZM35.2991 18.7573C35.5013 18.7573 35.6606 18.5938 35.6606 18.3958V17.1262C35.6606 16.0072 34.7353 15.1121 32.7599 15.1121C31.0255 15.1121 29.8204 15.805 29.8204 17.1692V18.7573H35.2991Z" fill="white"/>
<path d="M37.5026 14.4191V15.1679H39.4521V25.9229C39.4521 26.8826 39.1939 27.6788 37.7823 27.6788C37.5413 27.6788 37.296 27.6573 37.0593 27.6186V28.574C37.3778 28.6299 37.7005 28.6558 38.0276 28.6558C39.7835 28.6558 40.4721 27.7003 40.4721 26.2328V14.4191H37.494H37.5069H37.5026Z" fill="white"/>
<path d="M40.4808 9.91738H39.4522V11.9573H40.4808V9.91738Z" fill="white"/>
<path d="M49.1269 22.3853L46.2262 24.2144C46.0325 24.2704 45.8303 24.2962 45.628 24.2962C43.588 24.2962 42.3873 23.2073 42.3873 21.5848V21.2018C42.3873 19.8591 43.2695 18.6669 45.8862 18.5507L49.1226 18.4259V17.2854C49.1226 15.6974 48.0338 15.168 46.2219 15.168C45.3655 15.168 43.2222 15.3703 43.2222 15.3703V14.3933C43.2222 14.3933 45.4515 14.1911 46.6307 14.1911C48.1758 14.1911 50.1469 14.7592 50.1469 17.3887V24.0724H49.1183L49.1269 22.3853ZM49.1269 19.3469L45.7614 19.4889C44.2164 19.5492 43.4245 20.1818 43.4245 21.1803V21.7699C43.4245 22.5231 44.0916 23.3192 45.2708 23.3192C45.7141 23.3365 46.153 23.2203 46.5361 22.9922L49.1312 21.3654V19.3469H49.1269Z" fill="white"/>
<path d="M52.0663 9.91738H53.6372V16.0287L55.9655 14.5783C56.2968 14.376 56.667 14.2512 57.0543 14.2168C59.3008 14.2168 60.2692 15.5208 60.2692 17.3112V20.9951C60.2692 23.6247 58.3196 24.2961 56.1505 24.2961C53.9815 24.2961 52.0534 23.6204 52.0534 20.9951L52.0663 9.91738ZM53.6372 21.0382C53.6372 22.3809 54.6227 22.9318 56.1462 22.9318C57.6697 22.9318 58.6811 22.3852 58.6811 21.0382V17.776C58.6811 16.5537 58.0657 15.5079 56.908 15.5079C56.5551 15.4735 56.2022 15.5638 55.9095 15.7661L53.6372 17.1863V21.0382Z" fill="white"/>
<path d="M69.9956 17.5996V19.0198C69.9956 19.5148 69.5911 19.9193 69.0962 19.9193H63.3894V20.8188C63.3894 22.5058 64.9388 22.8717 66.5225 22.8717C67.4263 22.8717 68.7562 22.7684 69.6556 22.6694V24.0767C68.5668 24.223 67.4737 24.3005 66.3762 24.3005C64.0608 24.3005 61.81 23.5086 61.81 20.6337V17.5996C61.81 15.6027 62.731 14.1954 65.9286 14.1954C69.1263 14.1954 70.0042 15.6027 70.0042 17.5996H69.9956ZM68.0504 18.555C68.2526 18.555 68.4119 18.3915 68.4119 18.1935V17.3758C68.4119 16.2569 67.6888 15.5209 65.9243 15.5209C64.4008 15.5209 63.3894 16.0503 63.3894 17.4146V18.555H68.0504Z" fill="white"/>
<path d="M78.418 21.714C78.418 23.4484 77.1484 24.3005 74.5963 24.3005C73.4558 24.3005 72.3153 24.223 71.1878 24.0767V22.6909C71.1878 22.6909 73.1632 22.9147 74.3209 22.9147C76.2102 22.9147 76.9375 22.5876 76.9375 21.6494V21.2233C76.9375 20.6725 76.6578 20.1818 75.5862 20.0398L73.529 19.7773C72.1174 19.5922 71.149 18.6885 71.149 17.4361V16.7819C71.149 15.0475 72.4359 14.1954 74.8588 14.1954C75.8573 14.2083 76.8515 14.2771 77.8413 14.3976V15.7619C77.8413 15.7619 76.2748 15.5769 75.0955 15.5769C73.3611 15.5769 72.6295 15.9039 72.6295 16.8594V17.2682C72.6295 17.8148 72.905 18.3054 73.9766 18.4517L76.0338 18.7143C77.4841 18.895 78.418 19.8031 78.418 21.0555V21.714Z" fill="white"/>
<path d="M85.3986 24.1153C84.9037 24.2143 84.4001 24.2702 83.8966 24.2788C81.9857 24.2788 80.9959 23.5558 80.9959 21.348V15.7833H79.184V14.419H80.9959V11.6517H82.584V14.419H85.3943V15.7833H82.584V21.1199C82.584 22.2087 82.9067 22.8285 84.0343 22.8285C84.271 22.8285 85.1232 22.7682 85.3814 22.7252L85.3943 24.111L85.3986 24.1153Z" fill="white"/>
<path d="M11.3919 26.0994L4.53611 32.9552C4.04119 33.4501 3.37411 33.7256 2.67261 33.7256H2.63387C1.17922 33.7299 0 32.5506 0 31.1003V24.2402H3.26222L8.26313 19.2651L11.3919 22.3982C12.4119 23.4225 12.4119 25.0794 11.3919 26.1037V26.0994Z" fill="white"/>
<path d="M11.3919 12.3964L4.53181 5.53623C4.04119 5.04561 3.36981 4.76587 2.67261 4.76587H2.63387C1.17922 4.76587 0 5.94509 0 7.39544V14.2556H3.26221L8.26313 19.2608L11.3919 16.1277C12.4248 15.1077 12.4334 13.4422 11.4134 12.4136C11.4048 12.405 11.4005 12.4007 11.3919 12.3921V12.3964Z" fill="white"/>
<path d="M99 8.54893H100.173V16.3473L103.498 14.1472C103.718 14.0737 103.987 14.0491 104.183 14.0491C106.823 14.0491 108.045 15.6136 108.045 17.7653V22.2147C108.045 25.246 105.967 26.175 103.498 26.175C101.029 26.175 99 25.2702 99 22.2147V8.54893ZM100.173 22.1166C100.173 24.5124 101.763 25.0745 103.498 25.0745C105.234 25.0745 106.872 24.5124 106.872 22.1166V18.1809C106.872 16.0539 105.869 15.1984 104.525 15.1984C104.207 15.1984 103.669 15.2472 103.131 15.614L100.173 17.57V22.1166Z" fill="white"/>
<path d="M119.584 18.1322V20.6991H111.761V22.0925C111.761 24.3902 113.913 25.0262 115.795 25.0262C116.724 25.0262 118.24 24.9528 119.193 24.7817V25.9063C118.118 26.0774 116.969 26.1754 115.624 26.1754C112.984 26.1754 110.588 25.2219 110.588 21.7749V18.1322C110.588 15.7364 111.615 14.0496 115.111 14.0496C118.607 14.0496 119.584 15.7364 119.584 18.1322ZM118.411 19.5256V17.57C118.411 16.2255 117.36 15.1497 115.111 15.1497C113.131 15.1497 111.761 15.9809 111.761 17.6189V19.5256H118.411Z" fill="white"/>
<path d="M129.437 23.1437C129.437 25.0016 128.166 26.1751 125.477 26.1751C122.959 26.1751 121.541 25.9059 121.541 25.9059V24.7082C121.541 24.7082 123.57 25.0016 124.963 25.0016C127.139 25.0016 128.264 24.5129 128.264 23.1191V22.557C128.264 21.7991 128.019 21.0901 126.699 20.8944L124.206 20.5522C122.519 20.3323 121.492 19.4522 121.492 17.9365V17.1786C121.492 15.3208 122.568 14.0496 125.697 14.0496C127.164 14.0496 127.897 14.1965 128.777 14.2941V15.443C128.777 15.443 127.237 15.2231 125.794 15.2231C123.594 15.2231 122.665 15.8587 122.665 17.1786V17.7165C122.665 18.4744 122.91 19.208 124.23 19.3791L126.723 19.7213C128.459 19.9412 129.437 20.846 129.437 22.337L129.437 23.1437Z" fill="white"/>
<path d="M137.211 25.9549C136.771 26.0772 136.111 26.1506 135.647 26.1506C133.911 26.1506 132.64 25.5151 132.64 22.997V15.4428H130.415V14.3182H132.64V11.4579L133.324 10.9934H133.813V14.3182H137.431V15.4428H133.813V22.7525C133.813 24.3658 134.326 24.9526 135.72 24.9526C135.989 24.9526 136.893 24.8791 137.211 24.8303L137.211 25.9549Z" fill="white"/>
<path d="M182.696 7.62344L177.177 2.10429L178.125 1.15571C178.599 0.68182 179.369 0.681823 179.842 1.15571L183.644 4.95739C184.118 5.43128 184.118 6.2007 183.644 6.67459L182.696 7.62344Z" fill="white"/>
<path d="M182.696 13.3371L177.177 7.81795L178.984 6.01077L183.644 10.6711C184.118 11.1449 184.118 11.9144 183.644 12.3882L182.696 13.3371Z" fill="white"/>
<path d="M177.177 15.2429L182.696 9.72379L183.645 10.6724C184.119 11.1463 184.119 11.9157 183.645 12.3896L179.843 16.1913C179.369 16.6651 178.6 16.6651 178.126 16.1913L177.177 15.2429Z" fill="white"/>
<path d="M148.823 25.9058V18.7672H141.807V25.9058H139.314V9.37978H141.807V16.5672H148.823V9.37978H151.317V25.9058H148.823Z" fill="white"/>
<path d="M156.06 14.3181V21.652C156.06 22.9232 156.573 23.6322 157.551 23.6322C157.796 23.6322 158.138 23.5833 158.407 23.4857L160.778 22.5079V14.3181H163.271V25.9057H160.778V24.0724L158.113 26.0772C157.893 26.1506 157.624 26.1748 157.429 26.1748C154.788 26.1748 153.566 24.6103 153.566 22.4587V14.3178L156.06 14.3181Z" fill="white"/>
<path d="M165.179 8.54893H167.672V16.1516L170.337 14.1472C170.557 14.0737 170.826 14.0491 171.021 14.0491C173.662 14.0491 174.884 15.6136 174.884 17.7653V22.2147C174.884 25.3683 172.488 26.175 170.019 26.175C167.55 26.175 165.179 25.3683 165.179 22.2147L165.179 8.54893ZM167.672 22.1166C167.672 23.2413 168.406 24.0725 170.019 24.0725C171.633 24.0725 172.391 23.2413 172.391 22.1166V18.572C172.391 17.3008 171.878 16.5918 170.9 16.5918C170.655 16.5918 170.313 16.6406 170.044 16.7383L167.673 17.7161L167.672 22.1166Z" fill="white"/>
</svg>
