<?xml version="1.0" encoding="UTF-8"?>
<svg id="Camada_1" data-name="Camada 1" xmlns="http://www.w3.org/2000/svg" viewBox="0 0 1920 1080">
  <defs>
    <style>
      .cls-1 {
        fill: #fff;
      }

      .cls-1, .cls-2 {
        fill-rule: evenodd;
      }

      .cls-2 {
        fill: #fff;
      }
    </style>
  </defs>
  <path class="cls-2" d="M22.92,583.52v-153.9c0-19.48-.62-28.42-15.84-28.42H0v-8.03H75.49c35.88,0,56.17,9.63,55.7,39.35-.24,15.46-17.24,37.18-41.61,45.88,23.01,4.4,46.97,28.68,46.97,52.96,0,45.1-38.69,52.16-68.15,52.16H22.92Zm24.81-106.87h18.14c27.4-.03,41.47-25.88,41.47-39.35,0-35.61-29.01-38.39-59.61-36.09v75.43h0Zm0,78.62c0,11.15,14.92,19.24,25.4,20.64,26.29,3.54,41.53-18.54,41.6-35.99,.13-33.29-29.44-55.7-53.78-54.58-4.11,.19-10.68-.15-13.22,.28v69.65h0Zm300.91-84.63c15.89-18.98,39.82-27.32,54.19-27.32,7.39,0,13.76,1.89,19.08,5.57,5.35,3.7,9.6,9.81,12.75,18.32,2.2,5.95,3.55,13.92,3.55,26.16v58.1c0,8.54,.72,14.32,2.07,17.41,1.06,2.42,2.83,4.37,5.21,5.72,2.42,1.37,7.64,2.07,14.12,2.07v5.47h-67.11v-5.47h2.83c6.28,0,11.89-.95,14.41-2.88,2.48-1.9,4.24-4.77,5.21-8.45,.38-1.47,.61-6.12,.61-13.87v-55.92c0-12.4-1.63-21.46-4.81-27.08-3.18-5.61-9.75-8.4-17.34-8.4-11.69,0-33.2,6.43-44.79,19.33v72.07c0,9.16,.55,14.78,1.62,16.95,1.4,2.84,3.33,4.93,5.77,6.28,2.42,1.33,8.98,1.97,16.42,1.97v5.47h-67.41v-5.47h2.99c6.93,0,11.59-1.72,14.02-5.21,2.43-3.49,3.65-10.17,3.65-19.99v-66.07c0-13.45-9.1-20.77-23.64-25.02l46.59-18.22v28.49h0Zm229.59,5.9c-6.32-9.95-18.47-24.32-35.89-25.12-29.08-1.32-40.12,30.08-40.23,52.81-.22,42.96,15.4,69.49,52.78,70.58,10.67,.31,25.04-2.87,35.55-9.52l.36,12.02c-15.03,9.25-28.65,10.59-47.98,10.59-40.27,0-66.43-31.33-66.43-68.74,0-40.31,27.2-76.71,72.53-76.71,13.79,0,37.19,4.92,46.25,15.97l-16.94,18.12h0Zm99.21-34.88c37.74,0,68.33,32.71,68.33,73.07s-30.59,73.07-68.33,73.07-68.33-32.71-68.33-73.07,30.59-73.07,68.33-73.07h0Zm0,8.61c23.55,0,42.65,28.86,42.65,64.46s-19.1,64.46-42.65,64.46-42.65-28.86-42.65-64.46,19.1-64.46,42.65-64.46h0Zm-511.26,38.15c-.14-31.24,33.21-46.26,53.56-46.26,12.09,0,21.96,2.03,29.71,6.07,5.82,3.04,7.56,7.6,10.33,14.13,1.78,4.19,2.54,12.91,2.68,26.01l.76,69.79c.19,17.17,20.7,17.5,26.02,15.59l.27,6.54c-8.75,5.95-17.73,8.64-24.54,7.68-14.19-2-21.93-14.95-23.3-26.72-9.66,11.9-26.55,26.62-46.26,26.62-17.3,0-32.33-11.77-31.59-35.6,1.01-32.54,55.65-42.06,76.63-49.7v-15.92c0-20.48-2.44-33.74-25.15-33.74-16.55,0-24.28,7.02-22.95,26.16l-26.16,9.37h0Zm74.25,53.3v-30.05c-13.59,5.35-39.94,12.14-48.81,24.58-3.39,4.76-7.47,17.56-.3,28.05,14.16,20.72,49.11,1.07,49.11-22.59h0Z"/>
  <path class="cls-1" d="M973.56,488.42c-.14-31.24,33.21-46.26,53.56-46.26,12.09,0,21.96,2.03,29.71,6.07,5.82,3.04,7.56,7.6,10.33,14.13,1.78,4.19,2.54,12.91,2.68,26.01l.76,69.79c.19,17.17,20.7,17.5,26.02,15.59l.27,6.54c-8.75,5.95-17.73,8.64-24.54,7.68-14.19-2-21.93-14.95-23.3-26.72-9.66,11.9-26.55,26.62-46.26,26.62-17.3,0-32.33-11.77-31.59-35.6,1.01-32.54,55.65-42.06,76.63-49.7v-15.92c0-20.48-2.44-33.74-25.15-33.74-16.55,0-24.28,7.02-22.95,26.16l-26.16,9.37h0Zm74.25,53.3v-30.05c-13.59,5.35-39.94,12.14-48.81,24.58-3.39,4.76-7.47,17.56-.3,28.05,14.16,20.72,49.11,1.07,49.11-22.59h0Zm-258.71,41.8v-156.76c0-26.51-3.16-25.3-22.41-25.3v-8.3h71.12c65.43,0,108.14,18.53,108.14,94.17,0,46.18-29.28,96.18-100.58,96.18h-56.26Zm24.71-27.84c3.71,16.78,26.46,19.43,34.5,19.43,42.22,0,71.46-29.01,71.46-86.47,0-26.27-8.9-47.26-23.15-62.38-15.28-16.21-29.02-26.41-82.81-25.33v154.75h0Zm301.64,61.03c7.52,3.53,19.53,3.55,24.66,1.9,22.52-7.22,29.75-19.56,38.63-38.67l-50.2-105.1c-5.84-12.22-9.52-20.28-21.58-20.87v-7.86h56.43v7.86h-3.14c-12.36,0-12.58,6.05-4.86,22.79l35.38,76.71,36.68-80.3c4.53-9.92,6.25-19.42-10.16-19.42v-7.64h42.17v7.64c-6.74,0-11.66-.33-21.02,19.42l-63.05,132.94c-10.75,22.66-33.68,43.26-72.12,31.28l12.17-20.68h0Zm433.05-170.6h56.78v7.78h-4.15c-13.49,0-10.86,9.15-6.04,19.55l38.4,82.67,34.45-85.52c4.13-10.24,4.18-16.56-13.78-16.56v-7.91h46.71v7.91c-6.08,0-11.74-.48-18.68,15.87l-50,117.83h-8.72l-53.87-114.88c-6.1-13.01-8.17-17.86-21.1-18.95v-7.78h0Zm349.63-53.31v158.68c0,8.45,.59,14.08,1.82,16.8,1.24,2.74,3.14,4.86,5.72,6.28,2.53,1.42,7.34,2.13,14.32,2.13v5.47h-66.5v-5.47c6.23,0,12.18-.66,14.45-1.92,2.28-1.26,4.07-3.38,5.36-6.33,1.28-2.92,1.92-8.6,1.92-16.95v-117.54c0-12.58-15.83-20.63-24.17-24.44l47.06-16.7h0Zm-427.83,48.87c37.74,0,68.33,32.71,68.33,73.07s-30.59,73.07-68.33,73.07-68.33-32.71-68.33-73.07,30.59-73.07,68.33-73.07h0Zm0,8.61c23.55,0,42.65,28.86,42.65,64.46s-19.1,64.46-42.65,64.46-42.65-28.86-42.65-64.46,19.1-64.46,42.65-64.46h0Zm247.46,38.15c-.14-31.24,33.21-46.26,53.56-46.26,12.09,0,21.96,2.03,29.71,6.07,5.82,3.04,7.56,7.6,10.33,14.13,1.78,4.19,2.54,12.91,2.68,26.01l.76,69.79c.19,17.17,20.7,17.5,26.02,15.59l.27,6.54c-8.75,5.95-17.73,8.64-24.54,7.68-14.19-2-21.93-14.95-23.3-26.72-9.66,11.9-26.55,26.62-46.26,26.62-17.3,0-32.33-11.77-31.59-35.6,1.02-32.54,55.65-42.06,76.63-49.7v-15.92c0-20.48-2.44-33.74-25.15-33.74-16.55,0-24.28,7.02-22.95,26.16l-26.16,9.37h0Zm74.25,53.3v-30.05c-13.59,5.35-39.94,12.14-48.81,24.58-3.39,4.76-7.47,17.56-.3,28.05,14.16,20.72,49.11,1.07,49.11-22.59h0Zm-421.31-65.17c-6.32-9.95-18.47-24.32-35.89-25.12-29.08-1.32-40.12,30.08-40.23,52.81-.22,42.96,15.4,69.49,52.78,70.58,10.67,.31,25.04-2.87,35.55-9.52l.36,12.02c-15.03,9.25-28.65,10.59-47.98,10.59-40.27,0-66.43-31.33-66.43-68.74,0-40.31,27.2-76.71,72.53-76.71,13.79,0,37.19,4.92,46.25,15.97l-16.94,18.12h0Z"/>
  <polygon class="cls-2" points="789.11 626.14 850.17 626.14 850.17 687.21 789.11 687.21 789.11 626.14 789.11 626.14"/>
  <polygon class="cls-1" points="850.17 626.14 911.23 626.14 911.23 687.21 850.17 687.21 850.17 626.14 850.17 626.14"/>
</svg>