<?xml version="1.0" encoding="UTF-8"?>
<svg id="Camada_1" data-name="Camada 1" xmlns="http://www.w3.org/2000/svg" viewBox="0 0 1920 1080">
  <defs>
    <style>
      .cls-1, .cls-2 {
        fill: #fff;
      }

      .cls-2 {
        fill-rule: evenodd;
      }
    </style>
  </defs>
  <path id="path84" class="cls-2" d="M1351.3,500.85h30.13l-1.05-84.02h.36l42.95,84.02h40.72v-122.95h-29.96l.52,83.5h-.36l-41.57-83.5h-41.74v122.95"/>
  <path id="path86" class="cls-2" d="M1509.36,500.85h32.74v-98.63h30.32v-24.32h-93.38v24.32h30.32v98.63"/>
  <path id="path88" class="cls-2" d="M1586.97,500.85h32.77v-48.61h6.85c12.16,0,16.4,5.28,23.08,26.41l7.04,22.2h34.17l-11.97-33.48c-6.16-14.97-6.88-24.29-17.44-27.1v-.36c15.85-3.71,23.61-14.64,23.61-31.01,0-21.13-17.77-31.01-39.64-31.01h-58.46v122.95Zm32.77-99.7h8.61c12.52,0,23.96,2.12,23.96,13.56,0,13.92-13.37,14.28-23.96,14.28h-8.61v-27.84"/>
  <path id="path90" class="cls-2" d="M569.28,500.85h33.26l9.71-26.25h46.16l9.13,26.25h35.93l-47.38-122.95h-40.17l-46.66,122.95Zm81.38-49.49h-30.84l15.85-48.09h.36l14.64,48.09"/>
  <path id="path92" class="cls-2" d="M466.05,500.85h51.78c22.01,0,47.93-6.16,47.93-35.57,0-14.97-8.47-23.8-24.84-27.13v-.36c13.73-4.59,21.65-13.21,21.65-28.72,0-21.13-17.06-31.17-39.95-31.17h-56.56v122.95Zm32.77-52.13h10.04c11.28,0,24.13,1.24,24.13,14.61,0,12.52-12.52,14.28-24.49,14.28h-9.68v-28.89Zm0-47.57h9.52c10.92,0,21.49,1.07,21.49,12.33,0,10.4-11.11,13.04-21.84,13.04h-9.16v-25.37"/>
  <path id="path94" class="cls-2" d="M710.94,500.85h30.13l-1.07-84.02h.36l42.97,84.02h40.69v-122.95h-29.93l.52,83.5h-.36l-41.57-83.5h-41.74v122.95"/>
  <path id="path96" class="cls-2" d="M944.4,472.32c-9,3.52-19.92,6.33-30.65,6.33-23.96,0-41.05-14.61-41.05-38.74s15.13-39.81,38.41-39.81c11.25,0,21.49,2.81,32.05,8.61l2.64-26.58c-11.8-3.52-23.96-6.36-36.45-6.36-40.55,0-70.49,21.32-70.49,64.13,0,46.49,37.88,63.06,70.65,63.06,16.73,0,27.13-2.64,36.45-4.95l-1.57-25.7"/>
  <path id="path98" class="cls-2" d="M949.22,439.39c0,39.09,21.49,63.58,61.65,63.58s61.65-24.49,61.65-63.58-21.13-63.61-61.65-63.61-61.65,24.13-61.65,63.61Zm33.84,0c0-21.32,7.92-39.29,27.81-39.29s27.84,17.97,27.84,39.29-7.92,39.26-27.84,39.26-27.81-19.01-27.81-39.26"/>
  <path id="path100" class="cls-2" d="M1229.12,472.32c-8.97,3.52-19.89,6.33-30.65,6.33-23.94,0-41.05-14.61-41.05-38.74s15.16-39.81,38.41-39.81c11.28,0,21.51,2.81,32.05,8.61l2.67-26.58c-11.8-3.52-23.96-6.36-36.48-6.36-40.5,0-70.46,21.32-70.46,64.13,0,46.49,37.86,63.06,70.65,63.06,16.73,0,27.1-2.64,36.45-4.95l-1.6-25.7"/>
  <path id="path102" class="cls-2" d="M1245.57,500.85h88.59v-23.25h-55.82v-27.84h50.9v-23.25h-50.9v-25.37h53.9v-23.25h-86.66v122.95"/>
  <path id="path104" class="cls-2" d="M1694.43,500.85h33.26l9.71-26.25h46.16l9.13,26.25h35.93l-47.38-122.95h-40.17l-46.66,122.95Zm81.38-49.49h-30.84l15.85-48.09h.39l14.61,48.09"/>
  <path id="path106" class="cls-2" d="M1836.5,500.85h83.5v-24.32h-50.73v-98.63h-32.77v122.95"/>
  <path id="path108" class="cls-2" d="M466.05,688.69h44.73c41.93,0,72.77-16.04,72.77-62.01s-29.96-60.94-72.77-60.94h-44.73v122.95Zm32.77-98.63h12.68c23.96,0,38.21,12.68,38.21,37.17s-13.73,37.14-38.21,37.14h-12.68v-74.31"/>
  <path id="path110" class="cls-2" d="M590.66,627.23c0,39.09,21.51,63.58,61.65,63.58s61.65-24.49,61.65-63.58-21.13-63.61-61.65-63.61-61.65,24.13-61.65,63.61h0Zm33.84,0c0-21.32,7.9-39.29,27.81-39.29s27.84,17.97,27.84,39.29-7.95,39.26-27.84,39.26-27.81-19.01-27.81-39.26"/>
  <path id="path112" class="cls-2" d="M770.64,688.69h51.78c22.01,0,47.9-6.16,47.9-35.57,0-14.97-8.45-23.8-24.82-27.13v-.36c13.73-4.59,21.62-13.21,21.62-28.72,0-21.13-17.06-31.17-39.95-31.17h-56.54v122.95Zm32.74-52.13h10.04c11.28,0,24.13,1.24,24.13,14.61,0,12.52-12.52,14.28-24.49,14.28h-9.68v-28.89Zm0-47.57h9.52c10.92,0,21.49,1.07,21.49,12.33,0,10.4-11.09,13.04-21.84,13.04h-9.16v-25.37"/>
  <path id="path114" class="cls-2" d="M885.34,688.69h32.77v-48.61h6.85c12.16,0,16.37,5.28,23.08,26.41l7.04,22.2h34.17l-11.97-33.48c-6.16-14.97-6.88-24.29-17.44-27.1v-.36c15.85-3.71,23.61-14.64,23.61-31.01,0-21.13-17.8-31.01-39.64-31.01h-58.46v122.95Zm32.77-99.7h8.61c12.52,0,23.96,2.12,23.96,13.56,0,13.92-13.37,14.28-23.96,14.28h-8.61v-27.84"/>
  <path id="path116" class="cls-2" d="M992.69,688.69h33.29l9.68-26.25h46.16l9.16,26.25h35.93l-47.38-122.95h-40.17l-46.69,122.95Zm81.41-49.49h-30.84l15.85-48.09h.36l14.64,48.09"/>
  <path id="path118" class="cls-1" d="M1236.85,565.74h32.77v122.95h-32.77v-122.95Z"/>
  <path id="path120" class="cls-2" d="M1291.88,688.69h83.5v-24.32h-50.73v-98.63h-32.77v122.95"/>
  <path id="path122" class="cls-2" d="M1131.48,685.52c10.92,3.52,25.2,5.28,36.65,5.28,27.29,0,54.09-8.64,54.09-40.52,0-44.38-58.13-31.01-58.13-50.9,0-10.76,13.73-11.44,22.01-11.44,9.33,0,18.85,1.76,27.29,5.64l2.15-25.37c-8.28-2.83-19.92-4.59-31.72-4.59-24.65,0-53.54,8.12-53.54,37.69,0,44.76,58.13,30.32,58.13,53.21,0,9.85-9.88,11.97-20.28,11.97-13.56,0-25.37-3.52-33.81-8.09l-2.83,27.13"/>
  <g>
    <path id="path124" class="cls-1" d="M134.59,753.1h119.63l37.39-37.39h-119.6l-.03-67.31h22.43l37.39-37.36h-89.74v-89.74l-37.36,37.39v22.43H37.39v-119.63L0,498.88v119.63H67.31v67.28h67.28v67.31"/>
    <path id="path126" class="cls-1" d="M269.18,483.92v-89.71l37.39-37.39v89.71h89.74l-37.41,37.39h-89.71"/>
    <path id="path128" class="cls-1" d="M172.01,356.82h-29.95v89.71l89.74,.03-37.39,37.36H104.7l-.03-22.4-37.39-.03v-29.92l104.7-104.67,.03,29.92"/>
    <path id="path130" class="cls-1" d="M396.31,611.04v-29.92h29.89l-104.67,104.67h-29.92v-37.39h-22.43v-89.71l37.39-37.39v89.74h89.74"/>
  </g>
</svg>