<?xml version="1.0" encoding="UTF-8"?>
<svg id="Camada_1" data-name="Camada 1" xmlns="http://www.w3.org/2000/svg" viewBox="0 0 1920 1080">
  <defs>
    <style>
      .cls-1, .cls-2 {
        fill: #fff;
      }

      .cls-2 {
        fill-rule: evenodd;
      }
    </style>
  </defs>
  <path id="path2" class="cls-1" d="M78.33,253.06c-.04,1.02-.04,2.24-.04,4.67v9.05c0,2.43,0,3.65,.04,4.67,1.14,30.47,27.04,54.92,59.31,56.01,1.09,.04,2.38,.04,4.97,.04s3.86,0,4.93-.04c32.29-1.09,58.2-25.54,59.33-56.01,.05-1.02,.05-2.24,.05-4.67v-9.05c0-2.43,0-3.65-.05-4.67-1.13-30.47-27.04-54.94-59.31-56.01-1.09-.04-2.38-.04-4.95-.04s-3.88,0-4.97,.04c-32.27,1.07-58.16,25.54-59.31,56.01Zm842.53,216.1v249.79c0,43.44,16.77,63.01,69.72,63.01,22.18,0,43.98-6.17,57.04-10.82v100.67c-22.19,7.45-56.12,11.19-83.88,11.19-111.29,0-164.05-55.75-164.05-152.12V226.83h121.17v160.31h126.76v82.03h-126.76v-.02Z"/>
  <path id="path4" class="cls-2" d="M1088.62,620.99c0-147.96,93.31-248.75,242.62-248.75,159.54,0,238.61,116.4,230.26,285.18h-348.4c6.31,86.59,46.94,130.51,118.92,130.51,60.84,0,93.13-29.35,107.04-70.85h118.37c-23,101.74-103.57,165.91-226.17,165.91-151.38,0-242.64-99.84-242.64-249.71v-12.3Zm241.71-151.79c-66.41,0-106.09,35.55-117.23,106.22l226.7-1.87c-6.52-65.93-42.13-104.35-109.48-104.35h0Z"/>
  <path id="path6" class="cls-1" d="M556.43,372.24c-77.93,0-126.02,46.04-150.08,91.33l-5.58-76.43h-115.55v480.93h121.15v-270.3c0-79.78,42.31-128.6,106.25-128.6s87.62,42.31,87.62,115.55v283.35h121.15v-309.44c.19-107.36-46.41-186.4-164.96-186.4h0Zm1193.94,91.33c30.76-60.21,93.57-91.33,140.74-91.33,8.38,0,21.61,1.11,28.89,2.78v94.15c-11.71-1.19-23.46-1.81-35.23-1.87-86.12,0-134.4,51.82-134.4,139.81v260.96h-121.19V387.14h117.44l3.73,76.43h.02ZM0,387.14v81.93H81.98v399.01h121.21V387.14H0Z"/>
</svg>