<?xml version="1.0" encoding="UTF-8"?>
<svg id="Camada_1" data-name="Camada 1" xmlns="http://www.w3.org/2000/svg" viewBox="0 0 1920 1080">
  <defs>
    <style>
      .cls-1 {
        fill: #10069f;
      }

      .cls-2 {
        fill: #fff;
      }
    </style>
  </defs>
  <g id="g7736">
    <g id="g7742">
      <path id="path7744" class="cls-2" d="M600.06,0h719.93c99.51,0,180,80.7,180,180.08V900.12c0,99.36-80.5,179.88-180,179.88H600.06c-99.55,0-180.06-80.52-180.06-179.88V180.08C420,80.7,500.52,0,600.06,0"/>
    </g>
  </g>
  <path id="path7746" class="cls-1" d="M510,900.01h83.96v-360.09h-83.96v360.09Z"/>
  <g id="g7750">
    <g id="g7756">
      <path id="path7758" class="cls-1" d="M970.18,622.26c-51.48,0-89.88,13.38-110.73,25.52l15.77,53.06c18.93-11.45,51.54-21.73,80.98-21.73,49.12-.14,59.5,24.83,59.5,37.47v2.9c-108.85-.47-176.07,34.88-176.07,104.65,0,41.06,32.55,82.5,92.6,82.5,35.77,0,65.97-12.97,84.31-34.68h.89l9.18,28.05h68.34v-159.62c0-64.87-31.86-118.13-124.76-118.13m47.95,178.14c0,4.28-.41,9.16-1.4,13.58-.12,.57-.67,2.45-.83,2.86-.18,.45-.36,.91-.55,1.36-7.46,17.59-27.16,34.15-53.66,34.15-23.08,0-38.99-11.96-38.99-34.63,0-25.41,21.68-38.51,54.03-43.49,7.56-1.2,15.89-1.91,24.81-2.25,5.37-.18,10.88-.24,16.6-.16v28.6Z"/>
    </g>
    <g id="g7760">
      <path id="path7762" class="cls-1" d="M1326.88,630.2v158.18c0,6.36-.79,12.04-2.82,17.15-6.73,16.23-23.29,34.61-50.56,34.61-34.27,0-49.29-25.19-49.29-67.3v-142.82h-81.96v157.81c0,21.12,2.55,39.07,7.64,53.87,5.07,14.79,12,27.06,20.81,36.64,8.82,9.65,19.39,16.68,31.7,21.12,12.3,4.44,25.92,6.67,40.76,6.67,12.93,0,24.36-1.58,34.35-4.74,9.97-3.12,18.58-6.93,25.8-11.39,7.23-4.4,13.29-9.22,18.18-14.43,4.88-5.17,8.73-9.79,11.47-13.88l10.56,38.32h66.49v-269.8h-83.13Z"/>
    </g>
    <g id="g7764">
      <path id="path7766" class="cls-1" d="M672.75,539.92v90.1h-38.26v61.55h38.26v109.72c0,36.3,7.28,63.55,23.02,80.13,13.5,14.49,37.23,25.23,65.97,25.23,24.68,0,34.43-3.69,45.5-7.98v-62.68c-2.27,1.07-8.73,2.35-17.15,2.35-29.08,0-35.81-18.1-35.81-51.17v-95.6h52.06v-61.55h-52.06v-90.1h-81.53Z"/>
    </g>
  </g>
  <g id="g7768">
    <path id="path7770" class="cls-1" d="M1295.86,539.89l-50.6,72.76h58.57l71.36-72.76h-79.32Z"/>
  </g>
</svg>