<?xml version="1.0" encoding="UTF-8"?>
<svg id="Camada_1" data-name="Camada 1" xmlns="http://www.w3.org/2000/svg" viewBox="0 0 1920 1080">
  <defs>
    <style>
      .cls-1 {
        fill: #fff;
      }

      .cls-2 {
        fill: #fff;
      }
    </style>
  </defs>
  <path class="cls-1" d="M335.97,817.38c-75.36,56.2-155.16,62.45-236.11,24.61C38.04,813.1,4.12,758.54,1.87,690.92c-3.42-102.74-1.1-205.68-1.15-308.53,0-1.94,.81-3.88,1.53-7.09H122.42c0,8.25,0,15.62,0,22.99,0,78.17-.96,156.36,.68,234.5,.41,19.64,5.48,41.15,14.91,58.21,15.78,28.55,52.11,39.62,82.52,30.44,33.99-10.25,52.26-35.29,52.26-71.67,0-83.66,0-167.32,0-250.97v-23.5h122.79v21.9c0,80.91-.05,161.83,.02,242.74,.04,49.19,31.66,83.85,76.38,83.98,45.46,.13,77.26-33.39,77.44-82.7,.3-80.91,.07-161.83,.06-242.74,0-7.38,0-14.76,0-23.28h117.16c.6,4.04,1.51,7.29,1.5,10.54-.21,102.16,1.21,204.36-1.31,306.47-2.31,93.47-84.06,169.01-177.48,171.34-56.61,1.42-109.53-5.51-153.38-46.16Z"/>
  <path class="cls-1" d="M1382.36,862.33h-117.19c0-7.68,0-14.92,0-22.15-.01-82.97,.41-165.94-.23-248.9-.31-40.13-29.5-71.78-68.98-77.43-34.12-4.88-70.97,19.73-81.3,55.67-3.15,10.97-3.74,22.97-3.78,34.5-.31,78.17-.16,156.33-.16,234.5,0,7.39,0,14.79,0,23.38h-120.93c-.33-7.25-.93-14.49-.94-21.73-.06-83.65-1.72-167.36,.76-250.93,1.07-36.04-28.53-71.37-69.03-75.72-34.99-3.76-72.18,23.94-80.22,60.28-2.34,10.6-3.06,21.73-3.1,32.63-.26,76.79-.14,153.59-.14,230.39,0,8.01,0,16.01,0,25.18h-119.86c-.4-7.74-1.15-15.6-1.16-23.46-.09-87.76,2.71-175.64-.78-263.27-4.47-112.28,80.15-220.82,234.63-199.3,31.9,4.44,61.4,14.99,86.31,35.42,10.93,8.96,17.62,6.82,27.9-.72,102.68-75.38,253.97-37.99,303.39,75.67,8.81,20.25,14.79,43.43,15.14,65.37,1.58,100.08,.69,200.21,.64,300.31,0,2.67-.48,5.34-.96,10.31Z"/>
  <path class="cls-1" d="M1919.99,611.84c.89,134.06-108.19,246.11-240.16,246.72-139.41,.64-247.71-106.4-249.12-246.23-1.32-131.81,108.41-243.1,240.52-243.92,139.21-.87,247.85,105.45,248.76,243.43Zm-368.57,1.8c.3,73.1,55.83,131.8,124.55,131.67,68.56-.13,124.39-59.56,124.08-132.06-.32-74.01-56.76-133.87-125.66-133.29-67.93,.57-123.26,60.73-122.96,133.68Z"/>
  <path class="cls-2" d="M666.55,275.45c-.3,33.72-26.7,60.06-59.82,59.71-33.12-.35-58.18-27.1-57.72-61.59,.47-34.4,26.03-59.9,59.61-59.47,32.96,.43,58.23,27.19,57.93,61.35Z"/>
</svg>