<svg width="91" height="28" viewBox="0 0 91 28" fill="none" xmlns="http://www.w3.org/2000/svg">
<g clip-path="url(#clip0_977_364)">
<path d="M90.4923 13.4004L86.0501 17.7092C85.7318 18.0179 85.2981 18.1924 84.8461 18.1924H84.8184C83.8774 18.1924 83.1162 17.4541 83.1162 16.5414V12.2327H85.229L88.4673 9.10962L90.4923 11.0783C91.152 11.7226 91.152 12.7651 90.4923 13.4049V13.4004Z" fill="#EDEDED"/>
<path d="M90.4923 4.79195L86.0501 0.483221C85.7318 0.174497 85.2981 0 84.8461 0H84.8184C83.8774 0 83.1162 0.738255 83.1162 1.65101V5.95973H85.229L88.4673 9.10515L90.4923 7.13647C91.1612 6.49664 91.1658 5.44966 90.5062 4.80089C90.5062 4.80089 90.497 4.79195 90.4923 4.78747V4.79195Z" fill="#EDEDED"/>
<path d="M0 8.19687H1.36083V16.9575L5.21265 14.4877C5.46637 14.4072 5.78005 14.3758 6.00608 14.3758C9.06448 14.3758 10.4807 16.1342 10.4807 18.5503V23.5481C10.4807 26.953 8.07269 27.9955 5.21265 27.9955C2.35261 27.9955 0 26.9843 0 23.5481V8.19687ZM1.36083 23.4407C1.36083 26.1342 3.2014 26.7651 5.21265 26.7651C7.22391 26.7651 9.11983 26.1342 9.11983 23.4407V19.0201C9.11983 16.6309 7.95737 15.6689 6.4028 15.6689C6.03376 15.6689 5.41101 15.7226 4.78826 16.1342L1.36083 18.3311V23.4407Z" fill="#EDEDED"/>
<path d="M23.2771 18.962V21.8479H14.2173V23.4139C14.2173 25.9955 16.7083 26.7114 18.8902 26.7114C19.965 26.7114 21.7226 26.6309 22.8251 26.4385V27.7002C21.5796 27.8926 20.2464 28 18.6918 28C15.6335 28 12.8564 26.9306 12.8564 23.0559V18.962C12.8564 16.2685 14.0466 14.3758 18.0968 14.3758C22.147 14.3758 23.2771 16.2729 23.2771 18.962ZM21.9163 20.528V18.3311C21.9163 16.8188 20.6985 15.6107 18.0922 15.6107C15.7995 15.6107 14.2127 16.5459 14.2127 18.3848V20.528H21.9163Z" fill="#EDEDED"/>
<path d="M34.6895 24.5951C34.6895 26.6846 33.2179 28 30.1042 28C27.1888 28 25.5466 27.7002 25.5466 27.7002V26.3535C25.5466 26.3535 27.8946 26.6846 29.5091 26.6846C32.0278 26.6846 33.3333 26.1342 33.3333 24.5682V23.9374C33.3333 23.0872 33.0519 22.2908 31.5204 22.0716L28.6326 21.6868C26.6767 21.4407 25.4912 20.4519 25.4912 18.7472V17.8971C25.4912 15.8076 26.7367 14.3803 30.3625 14.3803C32.0601 14.3803 32.9135 14.5459 33.9329 14.6532V15.9418C33.9329 15.9418 32.1477 15.6957 30.4778 15.6957C27.9269 15.6957 26.852 16.4116 26.852 17.8926V18.4966C26.852 19.3468 27.1334 20.1745 28.6649 20.3624L31.5527 20.7472C33.5639 20.9933 34.6941 22.0089 34.6941 23.6868V24.5951H34.6895Z" fill="#EDEDED"/>
<path d="M43.6937 27.7539C43.1816 27.8926 42.4205 27.9732 41.8808 27.9732C39.8695 27.9732 38.398 27.2573 38.398 24.4295V15.9418H35.8193V14.6801H38.398V11.4676L39.1914 10.9441H39.7588V14.6801H43.9474V15.9418H39.7588V24.1521C39.7588 25.9642 40.3539 26.6219 41.9684 26.6219C42.2821 26.6219 43.3292 26.5414 43.6983 26.4832V27.745L43.6937 27.7539Z" fill="#EDEDED"/>
<path d="M58.2482 15.7763C58.2482 18.0537 56.5183 19.8971 54.1703 19.8971H48.4502V27.6958H45.5625V9.13199H54.1703C56.5183 9.13199 58.2482 10.9709 58.2482 13.2528V15.7808V15.7763ZM55.3604 13.9105C55.3604 12.3714 54.6823 11.6286 52.8971 11.6286H48.4502V17.396H52.8971C54.6823 17.396 55.3604 16.6532 55.3604 15.1141V13.906V13.9105Z" fill="#EDEDED"/>
<path d="M59.7793 27.6957V14.6756H62.667V17.6957H62.81C62.81 17.6957 63.6588 14.6488 67.2292 14.5369V17.5302C64.0278 17.4497 62.7547 20.3043 62.6716 20.4966V27.6913H59.7839L59.7793 27.6957Z" fill="#EDEDED"/>
<path d="M80.0535 19.047V23.4676C80.0535 27.0112 77.1104 28 74.2504 28C71.3903 28 68.4473 27.0112 68.4473 23.4676V19.047C68.4473 16.3535 70.0341 14.3758 74.2504 14.3758C78.4666 14.3758 80.0535 16.3535 80.0535 19.047ZM71.3304 19.3781V23.0022C71.3304 24.9799 72.5205 25.6958 74.2458 25.6958C75.971 25.6958 77.1612 24.9799 77.1612 23.0022V19.3781C77.1612 17.4005 75.971 16.6846 74.2458 16.6846C72.5205 16.6846 71.3304 17.4005 71.3304 19.3781Z" fill="#EDEDED"/>
</g>
<defs>
<clipPath id="clip0_977_364">
<rect width="91" height="28" fill="white"/>
</clipPath>
</defs>
</svg>
