<svg width="201" height="96" viewBox="0 0 201 96" fill="none" xmlns="http://www.w3.org/2000/svg">
<g clip-path="url(#clip0_2311_584)">
<path d="M30.506 34.2477C28.2522 32.9125 25.4035 32.6538 23.0157 32.6538C14.2769 32.6538 8.08521 38.7206 8.08521 47.5495C8.08521 56.3784 14.5366 62.4035 23.0157 62.4035C25.3114 62.4035 28.336 62.103 30.5479 60.6844V55.2602C28.6879 56.6371 26.0068 57.4132 23.5351 57.4132C17.8629 57.4132 13.925 53.6663 13.925 47.5578C13.925 41.4494 18.0807 37.6524 23.2335 37.6524C26.1744 37.6524 28.0344 38.1281 30.506 39.5467V34.2477Z" fill="white"/>
<path d="M53.17 62.0612H59.06L49.1902 33.0459H42.1355L32.2656 62.0612H37.9798L40.0576 55.4771H51.0921L53.17 62.0612ZM41.482 51.0376L41.8674 49.7858C45.202 39.2378 45.5874 37.0848 45.5874 37.0848C45.5874 37.0848 46.0231 39.2378 49.3075 49.7441L49.6929 51.0376H41.4736H41.482Z" fill="white"/>
<path d="M77.9285 34.2475C75.7668 33.2127 73.1276 32.8289 70.8319 32.8289C64.7742 32.8289 60.7944 36.0583 60.7944 41.0069C60.7944 45.9554 64.5145 47.8497 67.891 49.4019C71.0497 50.8205 73.5633 51.7718 73.5633 54.0917C73.5633 56.4116 71.7451 57.6633 69.1478 57.6633C66.3745 57.6633 63.5174 56.8038 61.0123 54.993V60.5507C63.132 61.7524 66.2488 62.4033 69.1897 62.4033C75.1636 62.4033 79.3193 59.1321 79.3193 53.9248C79.3193 48.7176 75.2976 46.7816 71.6194 45.1877C68.8881 43.986 66.6845 42.8595 66.6845 40.7983C66.6845 38.9457 68.2429 37.5688 71.0162 37.5688C73.3957 37.5688 75.993 38.3449 77.9452 39.5048V34.2558L77.9285 34.2475Z" fill="white"/>
<path d="M101.639 62.0612H107.53L97.6597 33.0459H90.605L80.7351 62.0612H86.4492L88.5271 55.4771H99.5616L101.639 62.0612ZM89.9514 51.0376L90.3369 49.7858C93.6715 39.2378 94.0569 37.0848 94.0569 37.0848C94.0569 37.0848 94.4926 39.2378 97.777 49.7441L98.1624 51.0376H89.9431H89.9514Z" fill="white"/>
<path d="M14.411 71.3073V69.0625H0V95.6828H2.48841V83.7162H13.0034V81.4631H2.48841V71.3073H14.411Z" fill="white"/>
<path d="M20.695 69.0625H18.2065V95.6911H20.695V69.0625Z" fill="white"/>
<path d="M25.8979 95.6828H28.3864V84.4255C28.3864 76.2058 28.3026 71.9415 28.3026 71.9415C28.3026 71.9415 30.9083 76.2475 35.9689 84.5007L42.8309 95.6828H46.2409V69.0542H43.7525V80.3532C43.7525 88.6898 43.8363 92.7955 43.8363 92.7955C43.8363 92.7955 41.3479 88.6898 36.2119 80.3115L29.308 69.0542H25.8979V95.6828Z" fill="white"/>
<path d="M69.3823 95.6828H72.0718L62.7214 69.0542H59.1103L49.5588 95.6828H52.2483L54.854 88.2976H66.8185L69.3907 95.6828H69.3823ZM55.6165 86.1279L56.2197 84.4673C60.3922 72.6509 60.9117 71.1154 60.9117 71.1154C60.9117 71.1154 61.3893 72.6592 65.4864 84.4255L66.0896 86.1279H55.6165Z" fill="white"/>
<path d="M75.356 95.6828H77.8444V84.4255C77.8444 76.2058 77.7607 71.9415 77.7607 71.9415C77.7607 71.9415 80.3664 76.2475 85.427 84.5007L92.289 95.6828H95.699V69.0542H93.2106V80.3532C93.2106 88.6898 93.286 92.7955 93.286 92.7955C93.286 92.7955 90.7976 88.6898 85.6616 80.3115L78.7577 69.0542H75.3477V95.6828H75.356Z" fill="white"/>
<path d="M119.838 70.1225C117.952 69.1712 115.908 68.7039 113.018 68.7039C105.51 68.7039 99.4946 74.078 99.4946 82.2143C99.4946 90.9431 105.117 96.0001 113.177 96.0001C115.749 96.0001 118.313 95.4076 119.921 94.2977V91.6107C118.397 92.7956 115.95 93.6635 113.302 93.6635C106.558 93.6635 102.067 89.199 102.067 82.2059C102.067 75.2129 106.843 71.0237 112.942 71.0237C116.478 71.0237 117.835 71.658 119.846 72.6844V70.1141L119.838 70.1225Z" fill="white"/>
<path d="M125.979 69.0625H123.49V95.6911H125.979V69.0625Z" fill="white"/>
<path d="M149.322 95.6828H152.011L142.661 69.0542H139.05L129.498 95.6828H132.188L134.793 88.2976H146.758L149.33 95.6828H149.322ZM135.556 86.1279L136.159 84.4673C140.331 72.6509 140.851 71.1154 140.851 71.1154C140.851 71.1154 141.328 72.6592 145.426 84.4255L146.029 86.1279H135.556Z" fill="white"/>
<path d="M155.304 69.0625V95.6911H163.213C172.287 95.6911 176.577 89.132 176.577 82.2224C176.577 74.3198 170.879 69.0708 163.012 69.0708H155.304V69.0625ZM157.792 93.438V71.3156H163.012C169.597 71.3156 173.971 76.2975 173.971 82.2224C173.971 88.1473 170.837 93.4464 163.213 93.4464H157.792V93.438Z" fill="white"/>
<path d="M198.311 95.6828H201L191.65 69.0542H188.039L178.487 95.6828H181.177L183.782 88.2976H195.738L198.311 95.6828ZM184.545 86.1279L185.148 84.4673C189.32 72.6509 189.84 71.1154 189.84 71.1154C189.84 71.1154 190.317 72.6592 194.415 84.4255L195.018 86.1279H184.545Z" fill="white"/>
<path d="M113.855 58.1224C113.855 56.7121 115.003 55.5688 116.419 55.5688H198.436C199.852 55.5688 201 56.7121 201 58.1224C201 59.5327 199.852 60.6759 198.436 60.6759H116.419C115.003 60.6759 113.855 59.5327 113.855 58.1224Z" fill="white"/>
<path d="M118.128 36C119.075 36 119.838 36.7594 119.838 37.7024V54.7177H116.419V37.7024C116.419 36.7594 117.182 36 118.128 36Z" fill="white"/>
<path d="M132.648 40.2559C136.427 40.2559 139.485 43.3018 139.485 47.0653V54.726H125.812V47.0653C125.812 43.3018 128.87 40.2559 132.648 40.2559Z" fill="white"/>
<path d="M158.705 40.2559C161.303 40.2559 163.406 42.3504 163.406 44.9374V54.726H154.005V44.9374C154.005 42.3504 156.108 40.2559 158.705 40.2559Z" fill="white"/>
<path fill-rule="evenodd" clip-rule="evenodd" d="M201 49.6189V54.726H182.207V49.6189C184.05 50.8456 185.416 50.8456 186.648 49.6189C186.974 49.2017 187.284 48.8595 187.594 48.6008H190.51C190.77 48.8679 191.021 49.2017 191.264 49.6189C193.107 51.8887 194.649 51.8887 195.881 49.6189C196.853 48.3004 198.905 48.3004 201.008 49.6189H201Z" fill="white"/>
<path d="M190.51 48.5926H187.594C188.65 47.683 189.63 47.683 190.51 48.5926Z" fill="white"/>
<path d="M201 54.7177V49.6106C198.897 48.2921 196.844 48.2921 195.872 49.6106C194.641 51.8804 193.108 51.8804 191.256 49.6106C191.013 49.1934 190.762 48.8512 190.502 48.5925H187.586C187.276 48.8596 186.966 49.1934 186.639 49.6106C185.408 50.8373 184.042 50.8373 182.199 49.6106V54.7177H200.992H201Z" fill="white"/>
<path d="M201 54.7177V49.6106C198.897 48.2921 196.844 48.2921 195.872 49.6106C194.641 51.8804 193.108 51.8804 191.256 49.6106C191.013 49.1934 190.762 48.8512 190.502 48.5925H187.586C187.276 48.8596 186.966 49.1934 186.639 49.6106C185.408 50.8373 184.042 50.8373 182.199 49.6106V54.7177H200.992H201Z" fill="white"/>
<path d="M161.73 26.637H155.681C154.755 26.637 154.005 27.3842 154.005 28.3059V34.331C154.005 35.2527 154.755 36 155.681 36H161.73C162.656 36 163.406 35.2527 163.406 34.331V28.3059C163.406 27.3842 162.656 26.637 161.73 26.637Z" fill="white"/>
<path d="M176.258 26.637H170.209C169.284 26.637 168.533 27.3842 168.533 28.3059V34.331C168.533 35.2527 169.284 36 170.209 36H176.258C177.184 36 177.934 35.2527 177.934 34.331V28.3059C177.934 27.3842 177.184 26.637 176.258 26.637Z" fill="white"/>
<path d="M176.258 41.1072H170.209C169.284 41.1072 168.533 41.8544 168.533 42.7762V48.8012C168.533 49.723 169.284 50.4702 170.209 50.4702H176.258C177.184 50.4702 177.934 49.723 177.934 48.8012V42.7762C177.934 41.8544 177.184 41.1072 176.258 41.1072Z" fill="white"/>
<path d="M147.177 9.62158C148.123 9.62158 148.886 10.381 148.886 11.3239V54.7259H145.467V11.3239C145.467 10.381 146.23 9.62158 147.177 9.62158Z" fill="white"/>
<path d="M147.336 16.3977C147.981 17.324 147.755 18.5925 146.825 19.235L118.329 38.9457C117.399 39.5883 116.126 39.363 115.481 38.4367C114.836 37.5104 115.07 36.242 115.992 35.5994L144.479 15.8887C145.409 15.2462 146.682 15.4715 147.327 16.3977H147.336Z" fill="white"/>
<path d="M162.107 0.876265C162.752 1.80255 162.518 3.07098 161.596 3.71354L146.758 13.9778C145.828 14.6204 144.554 14.395 143.909 13.4688C143.264 12.5425 143.498 11.274 144.42 10.6315L159.258 0.367225C160.188 -0.275334 161.462 -0.0500214 162.107 0.876265Z" fill="white"/>
<path d="M193.074 25.3519C192.412 26.2699 191.139 26.4785 190.217 25.8192L159.677 3.99725C158.756 3.338 158.546 2.06957 159.208 1.15163C159.87 0.23369 161.144 0.0250665 162.065 0.684316L192.605 22.5063C193.526 23.1655 193.736 24.434 193.074 25.3519Z" fill="white"/>
<path d="M189.036 21.5298C189.982 21.5298 190.745 22.2892 190.745 23.2322V40.2474H187.326V23.2322C187.326 22.2892 188.089 21.5298 189.036 21.5298Z" fill="white"/>
<path d="M51.6533 26.7037H53.0525L53.4798 20.7454C53.7479 16.9902 53.9574 13.6188 53.9574 13.6188L58.4734 26.3198H60.124L62.227 20.737C63.5592 17.1904 64.9165 13.4603 64.9165 13.4603C64.9165 13.4603 65.2097 17.1654 65.5281 20.737L66.0476 26.6953H67.4468L66.1565 11.6494H64.2378L62.1599 17.1654C60.8697 20.5785 59.3113 24.826 59.3113 24.826C59.3113 24.826 57.7948 20.4533 56.6218 17.1654L54.6361 11.6494H52.7174L51.6533 26.6953V26.7037Z" fill="white"/>
<path d="M72.1975 11.658H70.7983V26.7039H72.1975V11.658Z" fill="white"/>
<path d="M75.708 26.7037H77.1072V20.3365C77.1072 15.6884 77.0653 13.2767 77.0653 13.2767C77.0653 13.2767 78.5316 15.7134 81.3802 20.3782L85.2427 26.6953H87.1614V11.6578H85.7622V18.0416C85.7622 22.7565 85.8041 25.0764 85.8041 25.0764C85.8041 25.0764 84.4049 22.7565 81.5143 18.0166L77.6267 11.6494H75.708V26.6953V26.7037Z" fill="white"/>
<path d="M99.8047 11.658V18.4007H91.9457V11.658H90.5381V26.7039H91.9457V19.6691H99.8047V26.7039H101.212V11.658H99.8047Z" fill="white"/>
<path d="M114.802 26.7039H116.319L111.057 11.658H109.021L103.642 26.7039H105.158L106.625 22.5314H113.361L114.81 26.7039H114.802ZM107.052 21.3047L107.395 20.3701C109.741 13.6941 110.035 12.8262 110.035 12.8262C110.035 12.8262 110.303 13.6941 112.615 20.3534L112.959 21.313H107.06L107.052 21.3047Z" fill="white"/>
</g>
<defs>
<clipPath id="clip0_2311_584">
<rect width="201" height="96" fill="white"/>
</clipPath>
</defs>
</svg>
