<?xml version="1.0" encoding="UTF-8"?>
<svg id="Camada_2" data-name="Camada 2" xmlns="http://www.w3.org/2000/svg" viewBox="0 0 1080 1079.86">
  <defs>
    <style>
      .cls-1 {
        fill: #0524DD;
      }
    </style>
  </defs>
  <g id="Camada_1-2" data-name="Camada 1">
    <g>
      <path class="cls-1" d="M0,539.33C.76,240.75,243.53-1.3,540.91,0c299.05,1.31,540.62,243.81,539.08,541.14-1.55,298.61-242.75,539.11-540.27,538.71C241.32,1079.46-.76,837.03,0,539.33Zm972.37,.13c-.72-238.44-195.93-433.06-433.14-431.85-238.76,1.22-433.04,196.3-431.59,433.39,1.45,238.31,195.19,431.48,432.51,431.25,238.04-.23,432.94-195.39,432.22-432.79Z"/>
      <path class="cls-1" d="M593.81,393.21c0,47.23-.32,94.46,.16,141.69,.19,18.97-6.34,34.16-19.71,47.4-44.94,44.52-89.51,89.42-134.31,134.08-17,16.95-30.6,16.8-47.68-.16-9.87-9.81-19.74-19.62-29.52-29.53-15.78-15.99-15.89-29.98-.1-45.82,38.41-38.53,77.13-76.75,115.15-115.66,4.63-4.74,7.99-12.95,8.03-19.58,.53-84.76,.33-169.52,.36-254.28,.01-27.1,8.46-35.48,35.54-35.51,13.5-.01,26.99-.09,40.49,.02,21.75,.17,31.47,9.82,31.54,31.88,.14,48.49,.04,96.99,.05,145.49Z"/>
    </g>
  </g>
</svg>