<?xml version="1.0" encoding="UTF-8"?>
<svg id="Camada_1" data-name="Camada 1" xmlns="http://www.w3.org/2000/svg" viewBox="0 0 1080 1080">
  <defs>
    <style>
      .cls-1 {
        fill: #0524dd; 
      }

      .cls-2 {
        fill: #0524DD;
      }
    </style>
  </defs>
  <g>
    <path class="cls-2" d="M1079.74,331.73v45.57H2.06c-.47-4.89-.85-9.78-1.18-14.62,.02-.02,.02-.03,0-.05,.02-13.18,.03-27.11,.03-41.85,0-1.91,.03-3.82,.1-5.71,3.68-42.88,18.59-82.11,56.55-114.1,27.28-23,58.58-36.44,94.31-37.99,20.95-.9,41.98-.17,64.54-.17v-54.14c0-17.28-.1-34.55,.03-51.85,.26-32.07,22.43-55.64,52.68-56.17,31.2-.56,54.62,22.19,55.3,54.9,.62,30.34,.16,60.69,.17,91.05v14.81h431.42v-29.19c0-25.29-.35-50.58,.1-75.87,.57-32.84,23.47-55.9,54.53-55.73,30.86,.19,53.34,23.83,53.49,56.67,.16,34.07,.03,68.15,.03,103.83v1.34c18.35,0,34.73-.09,51.12,.02,91.67,.62,159.56,65.76,164.31,156.01v.02c.1,4.41,.12,8.83,.12,13.23Z"/>
    <path class="cls-2" d="M1080.61,378.17H1.27l-.07-.78c-.42-4.41-.8-9.11-1.16-14.37l-.02-.02v-.29s-.02-.38-.02-.38l.03-.02c.02-13.09,.03-26.91,.03-41.53,0-1.92,.03-3.84,.11-5.74,4.21-49.15,22.28-85.59,56.85-114.73,28.29-23.84,60.19-36.69,94.83-38.19,14.41-.62,28.67-.47,43.77-.32,6.54,.07,13.17,.14,19.94,.14v-53.27c0-5.18,0-10.36-.02-15.55-.02-11.9-.04-24.2,.05-36.31C215.85,24.3,238.36,.32,269.12-.21c31.9-.61,55.5,22.88,56.18,55.75,.43,21.01,.34,42.37,.25,63.03-.04,9.35-.08,18.69-.08,28.04v13.95h429.69v-28.33c0-7.66-.03-15.32-.06-22.98-.07-17.34-.15-35.27,.17-52.9,.57-32.84,23.71-56.58,55.06-56.58,.12,0,.23,0,.35,0,31.34,.19,54.2,24.39,54.36,57.53,.11,23.6,.08,46.79,.06,71.34-.01,10.71-.02,21.53-.02,32.5v.47c5.58,0,10.97,0,16.24-.02,11.77-.02,22.88-.04,34.02,.03,44.48,.3,85.44,16.15,115.34,44.63,29.82,28.4,47.52,68.24,49.83,112.2,.11,4.55,.12,9.08,.12,13.3v46.43ZM2.85,376.43H1078.88v-44.7c0-4.21-.01-8.72-.12-13.21-4.78-90.74-71.99-154.55-163.45-155.18-11.13-.07-22.24-.05-34-.03-5.54,0-11.23,.02-17.11,.02h-.87v-2.2c0-10.97,.01-21.79,.02-32.5,.03-24.55,.05-47.74-.06-71.33-.15-32.15-22.29-55.62-52.63-55.8-.11,0-.23,0-.34,0-30.37,0-52.77,23.03-53.33,54.88-.31,17.62-.24,35.54-.17,52.86,.03,7.66,.06,15.33,.06,22.99v30.06H323.74v-15.68c0-9.35,.04-18.7,.08-28.05,.09-20.65,.18-42-.25-62.98-.66-31.87-23.56-54.65-54.42-54.05-29.77,.51-51.57,23.77-51.83,55.31-.1,12.1-.08,24.4-.05,36.29,0,5.18,.02,10.37,.02,15.55v55h-.87c-7.08,0-14.01-.07-20.83-.14-15.08-.15-29.32-.3-43.68,.32-34.25,1.48-65.8,14.19-93.79,37.78C23.92,230.45,6.05,266.52,1.88,315.14c-.07,1.84-.1,3.74-.1,5.63,0,14.61-.02,28.42-.03,41.5v.58c.35,4.95,.71,9.41,1.1,13.59Z"/>
  </g>
  <path class="cls-1" d="M318,721.35c2.17-10.4,8.42-18.16,16.06-25.08,3.21-2.91,6.14-6.14,9.24-9.18,14.6-14.34,35.04-14.42,49.57,.03,25.55,25.41,50.97,50.94,76.45,76.41,.81,.81,1.66,1.59,2.82,2.7,1.26-1.19,2.5-2.31,3.67-3.48,70.09-70.08,140.18-140.17,210.26-210.25,16.51-16.51,36.21-16.55,52.68-.11,4,3.99,7.99,7.97,11.97,11.97,15.84,15.92,15.9,35.94,.09,51.79-24.02,24.07-48.08,48.1-72.12,72.14-62.62,62.62-125.23,125.24-187.85,187.85-12.46,12.46-24.83,12.47-37.28,.02-39.7-39.7-79.33-79.47-119.15-119.04-7.39-7.34-14.09-14.86-16.41-25.35v-10.42Z"/>
  <path class="cls-2" d="M919.86,1080H160.14c-89.74,0-162.75-73.01-162.75-162.75V487.12H66.77v430.12c0,51.48,41.89,93.37,93.37,93.37H919.86c51.48,0,93.37-41.89,93.37-93.37V487.12h69.38v430.12c0,89.74-73.01,162.75-162.75,162.75Z"/>
</svg>