<?xml version="1.0" encoding="UTF-8"?>
<svg id="Camada_1" data-name="Camada 1" xmlns="http://www.w3.org/2000/svg" viewBox="0 0 1080 1080">
  <defs>
    <style>
      .cls-1 {
        fill: #0524dd;
      }

      .cls-2 {
        fill: #0524DD;
      }
    </style>
  </defs>
  <path class="cls-2" d="M721.04,50.48c34.81,0,63.13,28.32,63.13,63.13V966.39c0,34.81-28.32,63.13-63.13,63.13H359.16c-34.81,0-63.13-28.32-63.13-63.13V113.61c0-34.81,28.32-63.13,63.13-63.13h361.89M721.04,0H359.16C296.41,0,245.55,50.86,245.55,113.61V966.39c0,62.74,50.86,113.61,113.61,113.61h361.89c62.74,0,113.61-50.86,113.61-113.61V113.61C834.65,50.86,783.79,0,721.04,0h0Z"/>
  <path class="cls-1" d="M540.5,883.63c26.97,.15,48.82,22.13,48.75,49.04-.07,26.91-21.93,48.69-48.98,48.81-27.43,.12-49.78-22.36-49.3-49.56,.48-26.99,22.48-48.44,49.53-48.29Z"/>
  <path class="cls-1" d="M612.27,148.05h-144.33c-13.94,0-25.24-11.3-25.24-25.24s11.3-25.24,25.24-25.24h144.33c13.94,0,25.24,11.3,25.24,25.24s-11.3,25.24-25.24,25.24Z"/>
</svg>