<?xml version="1.0" encoding="UTF-8"?>
<svg id="Camada_1" data-name="Camada 1" xmlns="http://www.w3.org/2000/svg" viewBox="0 0 1080 1080">
  <defs>
    <style>
      .cls-1 {
        fill: #27E0FF;
      }

      .cls-2 {
        fill: #0524DD;
      }
    </style>
  </defs>
  <path class="cls-1" d="M540.4,69.49c109.11,0,216.28,39.38,301.78,110.88,42.29,35.37,77.63,77.11,105.03,124.06,28.31,48.51,47.22,101.12,56.21,156.35,19.83,121.91-6.9,244.32-75.28,344.67-68.34,100.3-172.19,169.63-292.44,195.21-13.63,2.9-28.17,4.99-43.57,7.21-5.85,.84-11.85,1.71-17.92,2.63h-70.03c-9.29-1.75-18.48-3.36-27.43-4.93-22.66-3.97-44.07-7.71-63.91-13.2-89.11-24.65-168.29-75-228.99-145.62-60.66-70.57-98.72-156.53-110.06-248.58-14.94-121.21,16.92-241.65,89.71-339.13,72.83-97.54,179.51-162.56,300.39-183.09,25.22-4.28,50.96-6.46,76.49-6.46h.01M540.37,0c-29.12,0-58.59,2.42-88.12,7.44C165.77,56.09-30.62,319.11,4.81,606.67c26.52,215.24,180.52,394.89,389.49,452.69,33.74,9.33,68.8,13.88,103.24,20.65h82.03c23.54-3.73,47.31-6.41,70.59-11.36,285.03-60.65,468.79-330.5,421.85-619.02C1029.6,188.95,797.62-.01,540.37,0h0Z"/>
  <path class="cls-2" d="M535.76,866.46c-7.44,0-14.89,.2-22.33-.04-12.28-.4-18.35-5.75-19.1-18.13-.83-13.61-.52-27.29-.93-40.93-.4-13.14-2.32-14.88-15.18-18.07-25.79-6.39-52.09-11.41-77.09-20.13-32.78-11.44-34.18-16.38-24.77-49.62,3.79-13.41,7.65-26.81,12.03-40.03,5.03-15.18,9.69-17.18,24.1-9.82,30.47,15.56,62.71,24.8,96.68,28.13,20.19,1.98,39.67-.96,57.76-10.36,30.06-15.62,35.73-51.75,10.46-74.3-11.31-10.09-25.49-17.49-39.31-24.13-28.72-13.79-58.78-24.9-86.97-39.63-30.25-15.8-54.79-38.55-67.75-71.36-25.93-65.64,5.68-140.73,72.36-171.96,9.24-4.33,18.74-8.25,28.43-11.41,11.48-3.74,16.24-11.23,16.06-22.95-.19-12.09,0-24.2,.31-36.29,.43-16.49,4.26-20.49,20.41-20.76,13.95-.24,27.92-.24,41.87,.27,12.97,.48,17.33,4.47,18.49,17.27,1,11.1,.85,22.3,1.15,33.46,.42,15.36,3.5,18.11,18.46,21.7,22.81,5.48,45.7,11.03,67.94,18.42,19.5,6.47,21.83,12.94,16.2,32.46-4.81,16.66-9.47,33.37-14.94,49.82-4.6,13.83-9.91,16.06-23.19,9.72-31.96-15.25-65.47-23.12-100.84-20.72-10.91,.74-22.45,2.85-32.22,7.46-26.96,12.7-31.46,44.44-8.25,63.09,14.02,11.26,30.78,19.48,47.09,27.44,23.92,11.66,49.19,20.64,72.73,32.95,51.17,26.77,80.6,69.14,83.14,127.48,2.73,62.81-39.69,120.1-102.4,141.12-2.64,.89-5.35,1.58-8.01,2.41-16.22,5.04-20.22,10.76-20.14,27.65,.06,13.64,.02,27.31-.58,40.93-.57,12.93-6.4,18.33-19.33,18.73-7.44,.23-14.89,.04-22.33,.04,0,.03,0,.06,0,.1Z"/>
</svg>