<?xml version="1.0" encoding="UTF-8"?>
<svg id="Layer_2" data-name="Layer 2" xmlns="http://www.w3.org/2000/svg" viewBox="0 0 1080 753.37">
  <defs>
    <style>
      .cls-1 {
        fill: #fff;
      }
    </style>
  </defs>
  <g id="Camada_1" data-name="Camada 1">
    <path class="cls-1" d="m0,422.17v-92.89c.72-8.33,1.39-16.65,2.17-24.94,4.96-54.21,9.11-108.54,15.23-162.61,4.57-40.39,22.76-74.11,55.71-99.31,26.04-19.93,56.46-27.13,87.89-29.18C240.01,8.12,319.1,1.8,398.24.75c120.73-1.58,241.57-.58,362.3,2.22,61.11,1.41,122.23,7.7,183.05,14.44,60.62,6.69,103.62,47.27,117.73,106.61,12.92,54.3,17.3,109.8,18.15,165.31,1.09,69.55.57,139.25-2.31,208.75-1.72,41.65-7.12,83.43-14.69,124.43-11.52,62.45-49.82,102.43-113.18,111.98-51.72,7.8-104.23,12.24-156.54,13.99-99.93,3.33-199.99,5.08-299.98,4.88-116.18-.2-232.38-2.22-347.94-16.83-66.63-8.44-112.8-48.47-124.98-114.32-7.72-41.71-10.93-84.26-15.23-126.52-2.5-24.4-3.14-49.01-4.62-73.5Zm433.66-208.17v324.49c94.29-54.25,187.3-107.74,282.09-162.26-94.79-54.52-187.82-108.03-282.09-162.23Z"/>
  </g>
</svg>