<?xml version="1.0" encoding="utf-8"?>
<!-- Generator: Adobe Illustrator 27.1.1, SVG Export Plug-In . SVG Version: 6.00 Build 0)  -->
<svg version="1.1" id="Camada_2" xmlns="http://www.w3.org/2000/svg" xmlns:xlink="http://www.w3.org/1999/xlink" x="0px" y="0px"
	 viewBox="0 0 184.7 241.4" style="enable-background:new 0 0 184.7 241.4;" xml:space="preserve">
<style type="text/css">
	.st0{fill:#0063F2;}
	.st1{fill:#FFFFFF;}
	.st2{fill:#0524DD;}
	.st3{fill:#1B42EA;}
	.st4{fill:#10069F;}
	.st5{enable-background:new    ;}
</style>
<g id="OBJECTS">
	<g>
		<g>
			<path class="st0" d="M183.2,27.6v213.8H1.5V27.6C1.5,12.4,13.9,0,29.2,0h126.4C170.8,0,183.2,12.4,183.2,27.6z"/>
			<path class="st1" d="M173.9,27.6v213.8h-163V27.6c0-10.1,8.2-18.2,18.3-18.2h19c1.6,0,2.8,1.3,2.8,2.8c0,5.9,4.8,10.6,10.6,10.6
				h61.7c2.9,0,5.6-1.2,7.5-3.1s3.1-4.6,3.1-7.5c0-1.6,1.3-2.8,2.8-2.8h18.9C165.7,9.4,173.8,17.5,173.9,27.6L173.9,27.6z"/>
			<path class="st2" d="M102.1,14H82.6c-0.8,0-1.5,0.7-1.5,1.5c0,0.8,0.7,1.5,1.5,1.5h19.5c0.8,0,1.5-0.7,1.5-1.5S103,14,102.1,14z"
				/>
			<path class="st2" d="M113.6,15.4c0,1.2-0.9,2.1-2.1,2.1s-2.1-0.9-2.1-2.1s0.9-2.1,2.1-2.1S113.6,14.3,113.6,15.4z"/>
			<path class="st3" d="M172.9,8.8c-2.8-2.4-6.1-4.2-9.6-5.2c-1.8-0.5-3.5-0.8-5.3-0.9c-0.9,0-1.8-0.1-2.7,0l-2.8,0.1
				c-7.4,0.2-14.8,0.3-22.1,0.4c-7.4,0.1-14.8,0.2-22.1,0.2L86.1,3.4L63.9,3.4c-7.4-0.1-14.8-0.1-22.1-0.2L30.8,3l-1.4,0
				c-0.5,0-0.9,0-1.3,0c-0.9,0-1.8,0.1-2.7,0.2c-0.4,0-0.9,0.2-1.3,0.2c-0.4,0.1-0.9,0.2-1.3,0.3L21.4,4l-1.3,0.4
				c-0.2,0.1-0.4,0.1-0.6,0.2l-0.6,0.3c-0.4,0.2-0.8,0.3-1.2,0.6c-0.8,0.4-1.6,0.8-2.4,1.3c-0.8,0.5-1.5,1-2.2,1.6
				c-0.4,0.3-0.7,0.6-1,0.9l-0.5,0.4l-0.5,0.5c-2.6,2.5-4.7,5.6-6.1,9.1c0.6-1.8,1.3-3.5,2.2-5.1c0.9-1.6,2-3.1,3.3-4.5L11,9.1
				l0.5-0.5c0.3-0.3,0.7-0.7,1-1c0.7-0.6,1.4-1.2,2.2-1.7c0.8-0.6,1.6-1,2.4-1.5c0.4-0.2,0.8-0.4,1.3-0.6L19,3.4
				c0.2-0.1,0.4-0.2,0.7-0.3C20.1,3,20.6,2.8,21,2.6l1.4-0.4c0.5-0.2,0.9-0.2,1.4-0.4c0.5-0.1,0.9-0.2,1.4-0.3
				C26.1,1.5,27,1.3,28,1.3c0.5,0,1-0.1,1.4-0.1l1.4,0L41.8,1c7.4-0.1,14.8-0.2,22.1-0.2l22.1-0.1l22.1,0.1
				c7.4,0.1,14.8,0.1,22.1,0.2c7.4,0.1,14.8,0.2,22.1,0.4l2.8,0.1c0.9,0,1.9,0.1,2.8,0.2c1.9,0.2,3.7,0.7,5.5,1.3
				c1.8,0.6,3.5,1.4,5,2.4C170.1,6.3,171.5,7.5,172.9,8.8L172.9,8.8z"/>
			<path class="st2" d="M183.9,123.7c0.5,0,0.8-0.4,0.8-0.8V77.5c0-0.5-0.4-0.8-0.8-0.8h-0.7v47L183.9,123.7L183.9,123.7z"/>
			<g>
				<path class="st2" d="M0.8,46C0.4,46,0,46.4,0,46.8v12.7c0,0.5,0.4,0.8,0.8,0.8h0.7V46L0.8,46L0.8,46z"/>
				<path class="st2" d="M0.8,70.6c-0.5,0-0.8,0.4-0.8,0.8v22.1c0,0.5,0.4,0.8,0.8,0.8h0.7V70.6C1.5,70.6,0.8,70.6,0.8,70.6z"/>
				<path class="st2" d="M0.8,101.9c-0.5,0-0.8,0.4-0.8,0.8v22.1c0,0.5,0.4,0.8,0.8,0.8h0.7v-23.7C1.5,101.9,0.8,101.9,0.8,101.9z"
					/>
			</g>
		</g>
		<g>
			<path class="st4" d="M62,68.3c-0.1,0.5-0.3,1-0.6,1.3c-0.4,0.4-0.9,0.8-1.5,0.8c-1.4,0.1-2.8,0-4.1,0c0-0.8,0-1.7,0-2.6
				c0-2.1,0-4.2,0-6.3c0-0.8,0-1.6-0.3-2.3c0,0,0-0.1,0-0.2c1.2,0.1,2.4-0.2,3.6,0.3c1.6,0.6,2.5,1.7,2.8,3.4c0,0,0,0.1,0,0.1
				L62,68.3L62,68.3z"/>
			<path class="st2" d="M47.3,70.5c-1.9,0-3.9,0-5.8,0c-0.7,0-1-0.3-1-1c0-2.8,0-5.5,0-8.3c0-2.1,1.3-3.7,3.3-4.2
				c0.3-0.1,0.6-0.1,0.9-0.1c1.7,0,3.4,0,5.1,0c2,0,3.7,1.3,4.1,3.3c0.1,0.3,0.1,0.7,0.1,1c0,2.8,0,5.5,0,8.3c0,0.7-0.3,1-1,1
				C51.2,70.5,49.3,70.5,47.3,70.5L47.3,70.5z"/>
			<path class="st2" d="M47.4,45.7c2.8,0,5.1,2.3,5.1,5c0,2.8-2.3,5.1-5.1,5.1c-2.8,0-5.1-2.3-5.1-5.1C42.3,48,44.6,45.7,47.4,45.7z
				"/>
			<path class="st4" d="M38.9,70.5c-0.9,0-1.9,0-2.8,0c-0.5,0-1,0-1.5-0.1c-1.2-0.3-1.9-1.3-1.9-2.5c0-1.5,0-2.9,0-4.4
				c0-2.5,1.8-4.3,4.2-4.4c0.7,0,1.5,0,2.2,0c-0.1,0.2-0.1,0.4-0.2,0.6c-0.1,0.5-0.2,1.1-0.2,1.6c0,2.5,0,5,0,7.5
				C38.9,69.4,38.9,69.9,38.9,70.5L38.9,70.5z"/>
			<path class="st4" d="M42.2,54.2c0,2.1-1.7,3.8-3.8,3.8c-2.1,0-3.8-1.7-3.8-3.8c0-2.1,1.7-3.8,3.8-3.8
				C40.6,50.5,42.2,52.2,42.2,54.2z"/>
			<path class="st4" d="M60.1,54.2c0,2.1-1.7,3.8-3.8,3.8c-2.1,0-3.8-1.7-3.8-3.8c0-2.1,1.7-3.8,3.8-3.8
				C58.3,50.5,60,52.1,60.1,54.2L60.1,54.2z"/>
		</g>
		<g class="st5">
			<path class="st2" d="M33.8,124.9v-13.5h2.7l4.4,12.8h0l4.3-12.8h2.7v13.5h-1.6l0.1-12.7h0L42,124.9h-2.3l-4.4-12.7h0l0.1,12.7
				H33.8z"/>
			<path class="st2" d="M53.6,125.1c-0.9,0-1.6-0.2-2.2-0.7c-0.6-0.4-1-1-1.3-1.8c-0.3-0.8-0.4-1.6-0.4-2.6c0-1.5,0.3-2.7,1-3.6
				c0.6-0.9,1.6-1.4,2.9-1.4c0.7,0,1.2,0.1,1.7,0.3c0.5,0.2,0.8,0.5,1.1,0.8c0.3,0.3,0.5,0.7,0.6,1.1l0-0.1v-2.1h1.6v9.8h-1.3
				l-0.2-1.9l0,0c-0.1,0.3-0.4,0.6-0.6,1s-0.6,0.6-1.1,0.8C54.9,125,54.3,125.1,53.6,125.1z M54.2,123.7c1,0,1.7-0.3,2.1-1
				s0.7-1.5,0.7-2.7c0-1.2-0.2-2.1-0.7-2.7c-0.5-0.6-1.2-0.9-2.1-0.9c-1.1,0-1.8,0.3-2.3,1c-0.5,0.7-0.7,1.5-0.7,2.5
				c0,1.1,0.2,2,0.7,2.6C52.5,123.4,53.2,123.7,54.2,123.7z"/>
			<path class="st2" d="M61.7,114c-0.4,0-0.6-0.1-0.7-0.3c-0.1-0.2-0.2-0.4-0.2-0.7c0-0.2,0.1-0.5,0.2-0.6c0.1-0.2,0.4-0.3,0.7-0.3
				c0.4,0,0.6,0.1,0.7,0.3c0.1,0.2,0.2,0.4,0.2,0.6c0,0.3-0.1,0.5-0.2,0.7C62.3,114,62,114,61.7,114z M60.9,124.9v-9.8h1.5v9.8H60.9
				z"/>
			<path class="st2" d="M68.6,125.1c-0.9,0-1.7-0.2-2.3-0.6c-0.6-0.4-1-0.9-1.3-1.4c-0.3-0.5-0.4-1-0.4-1.4H66c0,0,0,0.1,0,0.4
				c0,0.2,0.1,0.5,0.3,0.8s0.4,0.5,0.7,0.8c0.4,0.2,0.9,0.3,1.5,0.3c0.7,0,1.3-0.1,1.9-0.4c0.5-0.3,0.8-0.7,0.8-1.2
				c0-0.5-0.2-0.8-0.5-1.1s-0.7-0.4-1.2-0.6c-0.5-0.1-1-0.3-1.6-0.4s-1.1-0.3-1.5-0.5c-0.5-0.2-0.9-0.5-1.2-0.9
				c-0.3-0.4-0.5-0.9-0.5-1.5c0-0.8,0.4-1.4,1.1-1.9c0.7-0.5,1.6-0.7,2.8-0.7c0.6,0,1.3,0.1,1.9,0.3s1.2,0.5,1.6,1s0.6,1.2,0.6,2.1
				h-1.4c0-0.6-0.1-1.1-0.4-1.4s-0.7-0.5-1.1-0.6c-0.4-0.1-0.8-0.2-1.2-0.2c-0.7,0-1.3,0.1-1.7,0.4c-0.4,0.3-0.7,0.6-0.7,1.1
				c0,0.4,0.2,0.8,0.5,1c0.3,0.2,0.7,0.4,1.2,0.6c0.5,0.1,1,0.3,1.6,0.4c0.6,0.1,1.1,0.3,1.6,0.5c0.5,0.2,0.9,0.5,1.2,0.9
				s0.5,0.9,0.5,1.6c0,0.9-0.4,1.6-1.2,2C70.7,124.9,69.7,125.1,68.6,125.1z"/>
			<path class="st2" d="M84.5,125.1c-0.9,0-1.7-0.2-2.4-0.6c-0.6-0.4-1.1-1-1.4-1.8c-0.3-0.8-0.5-1.6-0.5-2.6c0-1.5,0.4-2.7,1.1-3.6
				c0.7-0.9,1.8-1.4,3.2-1.4c0.7,0,1.2,0.1,1.6,0.3c0.4,0.2,0.8,0.5,1.1,0.8s0.5,0.6,0.6,0.8c0.1,0.3,0.2,0.4,0.2,0.5h0l0-6.2h1.6
				v13.5h-1.3l-0.2-2.2h0c0,0.1-0.1,0.2-0.3,0.5c-0.1,0.3-0.4,0.5-0.6,0.8s-0.6,0.5-1.1,0.8C85.7,125,85.1,125.1,84.5,125.1z
				 M84.9,123.7c0.9,0,1.7-0.3,2.3-1c0.6-0.6,0.9-1.5,0.9-2.7c0-1.1-0.3-2-0.8-2.6c-0.6-0.6-1.3-1-2.3-1c-0.8,0-1.4,0.2-1.8,0.5
				s-0.8,0.8-1.1,1.3c-0.2,0.5-0.3,1.1-0.3,1.8c0,0.6,0.1,1.2,0.3,1.7c0.2,0.6,0.5,1,1,1.4C83.5,123.6,84.1,123.7,84.9,123.7z"/>
			<path class="st2" d="M96.2,125.1c-1.1,0-2-0.2-2.7-0.7c-0.7-0.5-1.2-1.1-1.5-1.9c-0.3-0.8-0.5-1.6-0.5-2.4c0-0.9,0.2-1.7,0.5-2.5
				s0.9-1.4,1.6-1.8c0.7-0.4,1.5-0.7,2.5-0.7c1.2,0,2.3,0.4,3.1,1.2c0.8,0.8,1.3,1.9,1.3,3.3c0,0.1,0,0.2,0,0.5H93
				c0,1.2,0.3,2.1,0.8,2.7c0.6,0.6,1.3,1,2.3,1c0.8,0,1.4-0.2,1.9-0.6c0.5-0.4,0.9-0.9,1-1.6h1.5c-0.2,1-0.6,1.8-1.4,2.5
				C98.4,124.8,97.4,125.1,96.2,125.1z M93,119.3h6c0-0.3-0.1-0.7-0.3-1.2c-0.2-0.5-0.5-0.9-0.9-1.2c-0.4-0.3-1-0.5-1.7-0.5
				c-0.7,0-1.2,0.1-1.7,0.4c-0.4,0.3-0.8,0.7-1,1.1C93.2,118.4,93.1,118.8,93,119.3z"/>
		</g>
		<g class="st5">
			<path class="st2" d="M33.4,146.9v-2c0.8-0.4,1.5-0.8,2.2-1.2s1.3-0.8,2-1.3c0.7-0.5,1.3-1,1.9-1.6c0.6-0.6,1-1.2,1.3-1.8
				c0.4-0.7,0.5-1.4,0.3-1.9c-0.1-0.6-0.4-1-0.9-1.2s-1-0.4-1.7-0.4c-0.9,0-1.6,0.3-2.1,0.8c-0.5,0.5-0.7,1.4-0.5,2.7l-2.3-0.4
				c-0.1-1.1,0-2,0.5-2.8c0.4-0.8,1-1.4,1.9-1.8c0.8-0.4,1.8-0.6,2.8-0.6c0.9,0,1.6,0.1,2.3,0.4c0.7,0.3,1.2,0.7,1.7,1.3
				c0.4,0.6,0.7,1.2,0.7,1.9c0.1,0.7-0.1,1.5-0.5,2.3c-0.3,0.6-0.7,1.2-1.3,1.7c-0.5,0.6-1.1,1.1-1.7,1.5c-0.6,0.4-1.2,0.8-1.8,1.2
				c-0.6,0.3-1.1,0.6-1.5,0.8c-0.4,0.2-0.7,0.3-0.9,0.3h7.9v2.1H33.4z"/>
			<path class="st2" d="M47.2,146.9c-0.6,0-1-0.1-1.2-0.4s-0.3-0.6-0.3-1.1c0-0.4,0.1-0.7,0.3-1c0.2-0.3,0.6-0.4,1.2-0.4
				c0.5,0,0.9,0.1,1.1,0.4s0.3,0.6,0.3,1c0,0.4-0.1,0.8-0.3,1.1S47.7,146.9,47.2,146.9z"/>
			<path class="st2" d="M56.5,147.1c-2,0-3.5-0.6-4.4-1.9s-1.4-3-1.4-5.1c0-1.4,0.2-2.7,0.6-3.7c0.4-1,1-1.8,1.9-2.4
				c0.9-0.5,2-0.8,3.3-0.8c2,0,3.5,0.6,4.4,1.8c0.9,1.2,1.4,2.9,1.4,5c0,1.4-0.2,2.6-0.6,3.7c-0.4,1.1-1.1,1.9-1.9,2.4
				C58.9,146.9,57.8,147.1,56.5,147.1z M56.5,145.1c1.2,0,2.1-0.4,2.7-1.2c0.6-0.8,0.9-2.1,0.9-3.7s-0.3-2.8-0.9-3.6
				s-1.5-1.2-2.7-1.2c-1.2,0-2.1,0.4-2.7,1.1c-0.6,0.8-0.9,2-0.9,3.7c0,1.6,0.3,2.9,0.9,3.7C54.3,144.7,55.2,145.1,56.5,145.1z"/>
			<path class="st2" d="M69.5,147.1c-2,0-3.5-0.6-4.4-1.9s-1.4-3-1.4-5.1c0-1.4,0.2-2.7,0.6-3.7c0.4-1,1-1.8,1.9-2.4
				c0.9-0.5,2-0.8,3.3-0.8c2,0,3.5,0.6,4.4,1.8c0.9,1.2,1.4,2.9,1.4,5c0,1.4-0.2,2.6-0.6,3.7c-0.4,1.1-1.1,1.9-1.9,2.4
				C72,146.9,70.9,147.1,69.5,147.1z M69.5,145.1c1.2,0,2.1-0.4,2.7-1.2c0.6-0.8,0.9-2.1,0.9-3.7s-0.3-2.8-0.9-3.6s-1.5-1.2-2.7-1.2
				c-1.2,0-2.1,0.4-2.7,1.1c-0.6,0.8-0.9,2-0.9,3.7c0,1.6,0.3,2.9,0.9,3.7C67.4,144.7,68.3,145.1,69.5,145.1z"/>
			<path class="st2" d="M82.6,147.1c-2,0-3.5-0.6-4.4-1.9s-1.4-3-1.4-5.1c0-1.4,0.2-2.7,0.6-3.7c0.4-1,1-1.8,1.9-2.4
				c0.9-0.5,2-0.8,3.3-0.8c2,0,3.5,0.6,4.4,1.8c0.9,1.2,1.4,2.9,1.4,5c0,1.4-0.2,2.6-0.6,3.7c-0.4,1.1-1.1,1.9-1.9,2.4
				C85.1,146.9,84,147.1,82.6,147.1z M82.6,145.1c1.2,0,2.1-0.4,2.7-1.2c0.6-0.8,0.9-2.1,0.9-3.7s-0.3-2.8-0.9-3.6s-1.5-1.2-2.7-1.2
				c-1.2,0-2.1,0.4-2.7,1.1c-0.6,0.8-0.9,2-0.9,3.7c0,1.6,0.3,2.9,0.9,3.7C80.5,144.7,81.4,145.1,82.6,145.1z"/>
		</g>
		<g class="st5">
			<path class="st2" d="M39.4,169.1c-0.6,0-1.1-0.1-1.5-0.3c-0.4-0.2-0.7-0.4-1-0.7c-0.2-0.3-0.4-0.5-0.6-0.7
				c-0.1-0.2-0.2-0.3-0.2-0.4h0v6.1h-2.5V159h2.1l0.4,2.2h0c0,0,0.1-0.2,0.2-0.4c0.1-0.2,0.3-0.5,0.5-0.7c0.2-0.3,0.6-0.5,1-0.7
				c0.4-0.2,0.9-0.3,1.6-0.3c1.5,0,2.5,0.5,3.2,1.4c0.6,0.9,1,2.2,1,3.7c0,1.5-0.3,2.7-1,3.6C41.9,168.7,40.9,169.1,39.4,169.1z
				 M38.7,167c0.7,0,1.2-0.1,1.5-0.4c0.4-0.3,0.6-0.6,0.7-1.1c0.1-0.5,0.2-0.9,0.2-1.4c0-0.5-0.1-1-0.2-1.4
				c-0.2-0.4-0.4-0.8-0.8-1.1s-0.9-0.4-1.5-0.4c-0.9,0-1.5,0.3-1.9,0.8c-0.4,0.6-0.6,1.2-0.6,2.1c0,0.9,0.2,1.6,0.6,2.1
				C37.1,166.8,37.8,167,38.7,167z"/>
			<path class="st2" d="M45.2,168.9V159h2.3l0.2,2.7c0.1-0.4,0.3-0.8,0.6-1.3c0.3-0.4,0.7-0.8,1.2-1.1c0.5-0.3,1.2-0.4,2-0.4h0.4
				v2.7h-0.4c-1.4,0-2.3,0.2-2.9,0.7s-0.8,1.2-0.8,2.2v4.2H45.2z"/>
			<path class="st2" d="M57.8,169.1c-1.1,0-2-0.2-2.8-0.6c-0.7-0.4-1.3-1-1.7-1.8c-0.4-0.8-0.6-1.6-0.6-2.6c0-1.5,0.4-2.7,1.2-3.6
				s2.1-1.4,3.8-1.4c1.6,0,2.8,0.5,3.7,1.4s1.3,2.2,1.3,3.7c0,0.9-0.2,1.8-0.5,2.6c-0.4,0.8-0.9,1.4-1.6,1.8
				C59.9,168.9,58.9,169.1,57.8,169.1z M57.8,167c0.7,0,1.2-0.2,1.6-0.5c0.4-0.3,0.6-0.7,0.8-1.2c0.1-0.5,0.2-0.9,0.2-1.4
				c0-0.5-0.1-1-0.2-1.5c-0.1-0.5-0.4-0.9-0.8-1.2c-0.4-0.3-0.9-0.5-1.6-0.5c-0.7,0-1.3,0.2-1.6,0.5s-0.6,0.7-0.8,1.2
				c-0.1,0.5-0.2,1-0.2,1.5c0,0.5,0.1,1,0.2,1.4c0.1,0.5,0.4,0.9,0.8,1.2C56.6,166.9,57.1,167,57.8,167z"/>
			<path class="st2" d="M70.6,169.1c-0.6,0-1.1-0.1-1.5-0.3c-0.4-0.2-0.7-0.4-1-0.7c-0.2-0.3-0.4-0.5-0.6-0.7
				c-0.1-0.2-0.2-0.3-0.2-0.4h0v6.1h-2.5V159h2.1l0.4,2.2h0c0,0,0.1-0.2,0.2-0.4c0.1-0.2,0.3-0.5,0.5-0.7c0.2-0.3,0.6-0.5,1-0.7
				c0.4-0.2,0.9-0.3,1.6-0.3c1.5,0,2.5,0.5,3.2,1.4c0.6,0.9,1,2.2,1,3.7c0,1.5-0.3,2.7-1,3.6C73.1,168.7,72,169.1,70.6,169.1z
				 M69.9,167c0.7,0,1.2-0.1,1.5-0.4c0.4-0.3,0.6-0.6,0.7-1.1c0.1-0.5,0.2-0.9,0.2-1.4c0-0.5-0.1-1-0.2-1.4
				c-0.2-0.4-0.4-0.8-0.8-1.1s-0.9-0.4-1.5-0.4c-0.9,0-1.5,0.3-1.9,0.8c-0.4,0.6-0.6,1.2-0.6,2.1c0,0.9,0.2,1.6,0.6,2.1
				C68.3,166.8,69,167,69.9,167z"/>
			<path class="st2" d="M81,169.1c-1.1,0-2-0.2-2.8-0.6c-0.7-0.4-1.3-1-1.7-1.8c-0.4-0.8-0.6-1.6-0.6-2.6c0-1.5,0.4-2.7,1.2-3.6
				s2.1-1.4,3.8-1.4c1.6,0,2.8,0.5,3.7,1.4s1.3,2.2,1.3,3.7c0,0.9-0.2,1.8-0.5,2.6c-0.4,0.8-0.9,1.4-1.6,1.8
				C83,168.9,82.1,169.1,81,169.1z M81,167c0.7,0,1.2-0.2,1.6-0.5c0.4-0.3,0.6-0.7,0.8-1.2c0.1-0.5,0.2-0.9,0.2-1.4
				c0-0.5-0.1-1-0.2-1.5c-0.1-0.5-0.4-0.9-0.8-1.2c-0.4-0.3-0.9-0.5-1.6-0.5c-0.7,0-1.3,0.2-1.6,0.5s-0.6,0.7-0.8,1.2
				c-0.1,0.5-0.2,1-0.2,1.5c0,0.5,0.1,1,0.2,1.4c0.1,0.5,0.4,0.9,0.8,1.2C79.7,166.9,80.2,167,81,167z"/>
			<path class="st2" d="M91.8,169.1c-0.4,0-0.9-0.1-1.4-0.2c-0.5-0.1-1-0.4-1.4-0.6c-0.5-0.3-0.8-0.7-1.1-1.1s-0.4-1-0.4-1.6h2.3
				c0,0,0,0.1,0,0.3c0,0.2,0.1,0.4,0.2,0.6c0.1,0.2,0.3,0.4,0.6,0.6c0.3,0.2,0.7,0.3,1.2,0.3c0.6,0,1.1-0.1,1.4-0.3
				c0.3-0.2,0.5-0.5,0.5-0.8c0-0.4-0.1-0.6-0.4-0.8s-0.7-0.4-1.1-0.5c-0.5-0.1-1-0.3-1.5-0.4c-0.5-0.1-1-0.3-1.5-0.5
				c-0.5-0.2-0.8-0.5-1.1-0.9c-0.3-0.4-0.4-0.9-0.4-1.5c0-0.9,0.4-1.6,1.1-2.1s1.7-0.7,2.8-0.7c0.8,0,1.5,0.1,2.2,0.4
				c0.7,0.2,1.2,0.6,1.7,1.2s0.6,1.2,0.6,2.1h-2.3c0-0.5-0.1-0.9-0.3-1.1c-0.2-0.2-0.5-0.4-0.9-0.5s-0.7-0.1-1-0.1
				c-0.6,0-1,0.1-1.3,0.3c-0.3,0.2-0.4,0.5-0.4,0.8c0,0.4,0.1,0.7,0.4,0.9c0.3,0.2,0.7,0.4,1.2,0.5c0.5,0.1,1,0.3,1.5,0.4
				c0.5,0.1,1,0.3,1.5,0.5c0.5,0.2,0.9,0.5,1.2,0.9c0.3,0.4,0.4,0.9,0.4,1.5c0,0.9-0.4,1.6-1.2,2.1C94,168.9,93,169.1,91.8,169.1z"
				/>
			<path class="st2" d="M100.8,168.9c-0.8,0-1.4-0.2-1.8-0.6c-0.4-0.4-0.6-1-0.6-1.9v-5.7H97V159c0.5,0,0.8,0,1.1-0.1
				s0.4-0.3,0.6-0.7c0.1-0.4,0.2-0.9,0.2-1.7h2v2.5h2.3v1.7h-2.3v6.2h2.3v1.9H100.8z"/>
			<path class="st2" d="M108.3,169.1c-1.4,0-2.3-0.5-2.9-1.4c-0.6-0.9-0.9-2.1-0.9-3.6c0-1.5,0.3-2.7,0.9-3.7s1.5-1.4,2.9-1.4
				c0.8,0,1.4,0.1,1.8,0.4c0.4,0.3,0.8,0.5,1,0.9c0.2,0.3,0.4,0.6,0.4,0.7l0,0v-2h2.5v9.9H112l-0.4-1.6h0c0,0.1-0.2,0.4-0.4,0.7
				c-0.2,0.3-0.6,0.6-1,0.8S109,169.1,108.3,169.1z M109.3,167c0.9,0,1.5-0.3,1.8-0.9c0.3-0.6,0.5-1.3,0.5-2.1
				c0-0.9-0.2-1.6-0.5-2.1c-0.3-0.5-0.9-0.8-1.8-0.8c-0.6,0-1.1,0.1-1.5,0.4c-0.3,0.3-0.6,0.6-0.7,1.1c-0.1,0.4-0.2,0.9-0.2,1.5
				c0,0.5,0.1,1,0.2,1.5c0.1,0.4,0.4,0.8,0.7,1.1C108.2,166.9,108.7,167,109.3,167z"/>
			<path class="st2" d="M119.9,169.1c-0.4,0-0.9-0.1-1.4-0.2c-0.5-0.1-1-0.4-1.4-0.6s-0.8-0.7-1.1-1.1s-0.4-1-0.4-1.6h2.3
				c0,0,0,0.1,0,0.3c0,0.2,0.1,0.4,0.2,0.6c0.1,0.2,0.3,0.4,0.6,0.6c0.3,0.2,0.7,0.3,1.2,0.3c0.6,0,1.1-0.1,1.4-0.3s0.5-0.5,0.5-0.8
				c0-0.4-0.1-0.6-0.4-0.8s-0.7-0.4-1.1-0.5c-0.5-0.1-1-0.3-1.5-0.4c-0.5-0.1-1-0.3-1.5-0.5c-0.5-0.2-0.8-0.5-1.1-0.9
				c-0.3-0.4-0.4-0.9-0.4-1.5c0-0.9,0.4-1.6,1.1-2.1c0.7-0.5,1.7-0.7,2.8-0.7c0.8,0,1.5,0.1,2.2,0.4c0.7,0.2,1.2,0.6,1.7,1.2
				s0.6,1.2,0.6,2.1h-2.3c0-0.5-0.1-0.9-0.3-1.1c-0.2-0.2-0.5-0.4-0.9-0.5c-0.3-0.1-0.7-0.1-1-0.1c-0.6,0-1,0.1-1.3,0.3
				s-0.4,0.5-0.4,0.8c0,0.4,0.1,0.7,0.4,0.9s0.7,0.4,1.2,0.5c0.5,0.1,1,0.3,1.5,0.4c0.5,0.1,1,0.3,1.5,0.5c0.5,0.2,0.9,0.5,1.2,0.9
				c0.3,0.4,0.4,0.9,0.4,1.5c0,0.9-0.4,1.6-1.2,2.1C122.2,168.9,121.2,169.1,119.9,169.1z"/>
		</g>
		<g class="st5">
			<path class="st2" d="M36.6,190.9c-0.8,0-1.4-0.2-1.8-0.6s-0.6-1-0.6-1.9v-5.7h-1.5V181c0.5,0,0.8,0,1.1-0.1
				c0.3-0.1,0.4-0.3,0.6-0.7c0.1-0.4,0.2-0.9,0.2-1.7h2v2.5h2.3v1.7h-2.3v6.2h2.3v1.9H36.6z"/>
			<path class="st2" d="M45.1,191.1c-1.1,0-2-0.2-2.8-0.6c-0.7-0.4-1.3-1-1.7-1.8c-0.4-0.8-0.6-1.6-0.6-2.6c0-1.5,0.4-2.7,1.2-3.6
				s2.1-1.4,3.8-1.4c1.6,0,2.8,0.5,3.7,1.4s1.3,2.2,1.3,3.7c0,0.9-0.2,1.8-0.5,2.6c-0.4,0.8-0.9,1.4-1.6,1.8
				C47.2,190.9,46.2,191.1,45.1,191.1z M45.1,189c0.7,0,1.2-0.2,1.6-0.5c0.4-0.3,0.6-0.7,0.8-1.2c0.1-0.5,0.2-0.9,0.2-1.4
				c0-0.5-0.1-1-0.2-1.5c-0.1-0.5-0.4-0.9-0.8-1.2c-0.4-0.3-0.9-0.5-1.6-0.5c-0.7,0-1.3,0.2-1.6,0.5s-0.6,0.7-0.8,1.2
				c-0.1,0.5-0.2,1-0.2,1.5c0,0.5,0.1,1,0.2,1.4c0.1,0.5,0.4,0.9,0.8,1.2C43.9,188.9,44.4,189,45.1,189z"/>
			<path class="st2" d="M56,191.1c-1.5,0-2.5-0.5-3.1-1.4s-0.9-2.1-0.9-3.6c0-1.6,0.3-2.8,1-3.7s1.7-1.4,3.1-1.4
				c0.6,0,1.1,0.1,1.6,0.3c0.4,0.2,0.8,0.4,1,0.7c0.2,0.3,0.4,0.5,0.5,0.7c0.1,0.2,0.2,0.4,0.2,0.4h0v-5.8h2.5v13.5h-2.1l-0.4-1.8h0
				c0,0-0.1,0.2-0.2,0.4c-0.1,0.2-0.3,0.4-0.6,0.7c-0.3,0.3-0.6,0.5-1,0.7C57.1,191,56.6,191.1,56,191.1z M56.8,189
				c0.9,0,1.6-0.3,2-0.8c0.4-0.6,0.6-1.3,0.6-2.1c0-0.8-0.2-1.5-0.6-2.1c-0.4-0.6-1-0.8-1.9-0.8c-0.7,0-1.2,0.1-1.5,0.4
				s-0.6,0.6-0.8,1.1c-0.1,0.4-0.2,0.9-0.2,1.4c0,0.5,0.1,1,0.2,1.4s0.4,0.8,0.7,1.1C55.6,188.9,56.1,189,56.8,189z"/>
			<path class="st2" d="M68.6,191.1c-1.1,0-2-0.2-2.8-0.6c-0.7-0.4-1.3-1-1.7-1.8c-0.4-0.8-0.6-1.6-0.6-2.6c0-1.5,0.4-2.7,1.2-3.6
				s2.1-1.4,3.8-1.4c1.6,0,2.8,0.5,3.7,1.4s1.3,2.2,1.3,3.7c0,0.9-0.2,1.8-0.5,2.6c-0.4,0.8-0.9,1.4-1.6,1.8
				C70.6,190.9,69.7,191.1,68.6,191.1z M68.6,189c0.7,0,1.2-0.2,1.6-0.5c0.4-0.3,0.6-0.7,0.8-1.2c0.1-0.5,0.2-0.9,0.2-1.4
				c0-0.5-0.1-1-0.2-1.5c-0.1-0.5-0.4-0.9-0.8-1.2c-0.4-0.3-0.9-0.5-1.6-0.5c-0.7,0-1.3,0.2-1.6,0.5s-0.6,0.7-0.8,1.2
				c-0.1,0.5-0.2,1-0.2,1.5c0,0.5,0.1,1,0.2,1.4c0.1,0.5,0.4,0.9,0.8,1.2C67.3,188.9,67.9,189,68.6,189z"/>
			<path class="st2" d="M80.5,190.9V181h2.1l0,2.1h0c0-0.1,0.1-0.2,0.2-0.4c0.1-0.2,0.3-0.5,0.5-0.7c0.2-0.3,0.5-0.5,0.9-0.7
				c0.4-0.2,0.8-0.3,1.4-0.3c0.8,0,1.4,0.2,1.8,0.6c0.4,0.4,0.7,0.9,0.9,1.5h0c0-0.1,0.1-0.2,0.2-0.4c0.1-0.2,0.3-0.5,0.6-0.7
				c0.2-0.3,0.6-0.5,0.9-0.7c0.4-0.2,0.9-0.3,1.4-0.3c0.6,0,1.1,0.1,1.5,0.4c0.4,0.3,0.7,0.6,0.9,1s0.4,0.8,0.5,1.3
				c0.1,0.5,0.1,0.9,0.1,1.3c0,0.4,0,0.8,0,1v4.8h-2.1v-4.8c0-0.2,0-0.5,0-0.9c0-0.3-0.1-0.6-0.2-1c-0.1-0.3-0.3-0.6-0.6-0.8
				s-0.6-0.3-1.1-0.3c-0.6,0-1,0.1-1.3,0.4s-0.5,0.7-0.6,1.1c-0.1,0.5-0.2,0.9-0.2,1.4v4.7h-2.1v-4.8c0-0.2,0-0.5,0-0.9
				c0-0.3-0.1-0.6-0.2-1c-0.1-0.3-0.3-0.6-0.6-0.8c-0.3-0.2-0.6-0.3-1.1-0.3c-0.6,0-1,0.1-1.3,0.4s-0.5,0.7-0.6,1.1
				s-0.2,0.9-0.2,1.4v4.7H80.5z"/>
			<path class="st2" d="M100.9,191.1c-1.1,0-2.1-0.2-2.8-0.7c-0.7-0.5-1.2-1.1-1.6-1.9c-0.3-0.8-0.5-1.6-0.5-2.4
				c0-1,0.2-1.9,0.6-2.7c0.4-0.8,1-1.4,1.7-1.8c0.7-0.4,1.6-0.7,2.6-0.7c0.9,0,1.7,0.2,2.4,0.6c0.7,0.4,1.3,0.9,1.7,1.6
				c0.4,0.7,0.6,1.5,0.6,2.5c0,0,0,0.2,0,0.6h-7.2c0,1,0.2,1.7,0.7,2.2s1.1,0.7,1.8,0.7c0.6,0,1.1-0.2,1.5-0.5
				c0.4-0.3,0.7-0.7,0.7-1.2h2.4c-0.1,1-0.6,1.9-1.3,2.6S102.3,191.1,100.9,191.1z M97.5,179.9v-0.2l2.8-2.6h1l2.8,2.6v0.2H102
				l-1.1-1.2h-0.1l-1.1,1.2H97.5z M98.4,185.1h4.7c0-0.1-0.1-0.3-0.1-0.5c-0.1-0.2-0.2-0.5-0.3-0.7c-0.2-0.3-0.4-0.5-0.7-0.6
				c-0.3-0.2-0.7-0.3-1.2-0.3c-0.6,0-1.1,0.1-1.5,0.4c-0.3,0.3-0.6,0.6-0.7,0.9C98.5,184.6,98.4,184.9,98.4,185.1z"/>
			<path class="st2" d="M111.6,191.1c-0.4,0-0.9-0.1-1.4-0.2c-0.5-0.1-1-0.4-1.4-0.6s-0.8-0.7-1.1-1.1s-0.4-1-0.4-1.6h2.3
				c0,0,0,0.1,0,0.3c0,0.2,0.1,0.4,0.2,0.6c0.1,0.2,0.3,0.4,0.6,0.6c0.3,0.2,0.7,0.3,1.2,0.3c0.6,0,1.1-0.1,1.4-0.3s0.5-0.5,0.5-0.8
				c0-0.4-0.1-0.6-0.4-0.8s-0.7-0.4-1.1-0.5c-0.5-0.1-1-0.3-1.5-0.4c-0.5-0.1-1-0.3-1.5-0.5c-0.5-0.2-0.8-0.5-1.1-0.9
				c-0.3-0.4-0.4-0.9-0.4-1.5c0-0.9,0.4-1.6,1.1-2.1c0.7-0.5,1.7-0.7,2.8-0.7c0.8,0,1.5,0.1,2.2,0.4c0.7,0.2,1.2,0.6,1.7,1.2
				s0.6,1.2,0.6,2.1h-2.3c0-0.5-0.1-0.9-0.3-1.1c-0.2-0.2-0.5-0.4-0.9-0.5c-0.3-0.1-0.7-0.1-1-0.1c-0.6,0-1,0.1-1.3,0.3
				s-0.4,0.5-0.4,0.8c0,0.4,0.1,0.7,0.4,0.9s0.7,0.4,1.2,0.5c0.5,0.1,1,0.3,1.5,0.4c0.5,0.1,1,0.3,1.5,0.5c0.5,0.2,0.9,0.5,1.2,0.9
				c0.3,0.4,0.4,0.9,0.4,1.5c0,0.9-0.4,1.6-1.2,2.1C113.8,190.9,112.8,191.1,111.6,191.1z"/>
		</g>
	</g>
</g>
</svg>
