<?xml version="1.0" encoding="utf-8"?>
<!-- Generator: Adobe Illustrator 27.1.1, SVG Export Plug-In . SVG Version: 6.00 Build 0)  -->
<svg version="1.1" id="Camada_2" xmlns="http://www.w3.org/2000/svg" xmlns:xlink="http://www.w3.org/1999/xlink" x="0px" y="0px"
	 viewBox="0 0 184.7 241.4" style="enable-background:new 0 0 184.7 241.4;" xml:space="preserve">
<style type="text/css">
	.st0{fill:#0063F2;}
	.st1{fill:#FFFFFF;}
	.st2{fill:#0524DD;}
	.st3{fill:#1B42EA;}
	.st4{fill:#27E0FF;}
	.st5{enable-background:new    ;}
</style>
<g id="OBJECTS">
	<g>
		<g>
			<path class="st0" d="M183.2,27.6v213.8H1.5V27.6C1.5,12.4,13.9,0,29.1,0h126.4C170.8,0,183.2,12.4,183.2,27.6z"/>
			<path class="st1" d="M173.9,27.6v213.8h-163V27.6c0-10.1,8.2-18.2,18.3-18.2h19c1.6,0,2.8,1.3,2.8,2.8c0,5.9,4.8,10.6,10.6,10.6
				h61.7c2.9,0,5.6-1.2,7.5-3.1c1.9-1.9,3.1-4.6,3.1-7.5c0-1.6,1.3-2.8,2.8-2.8h18.9C165.7,9.4,173.8,17.5,173.9,27.6L173.9,27.6z"
				/>
			<path class="st2" d="M102.1,14H82.6c-0.8,0-1.5,0.7-1.5,1.5c0,0.8,0.7,1.5,1.5,1.5h19.5c0.8,0,1.5-0.7,1.5-1.5S103,14,102.1,14z"
				/>
			<path class="st2" d="M113.6,15.4c0,1.2-0.9,2.1-2.1,2.1s-2.1-0.9-2.1-2.1s0.9-2.1,2.1-2.1S113.6,14.3,113.6,15.4z"/>
			<path class="st3" d="M172.9,8.8c-2.8-2.4-6.1-4.2-9.6-5.2c-1.8-0.5-3.5-0.8-5.3-0.9c-0.9,0-1.8-0.1-2.7,0l-2.8,0.1
				c-7.4,0.2-14.8,0.3-22.1,0.4c-7.4,0.1-14.8,0.2-22.1,0.2L86.1,3.4L63.9,3.4c-7.4-0.1-14.8-0.1-22.1-0.2L30.8,3l-1.4,0
				c-0.5,0-0.9,0-1.3,0c-0.9,0-1.8,0.1-2.7,0.2c-0.4,0-0.9,0.2-1.3,0.2c-0.4,0.1-0.9,0.2-1.3,0.3L21.4,4l-1.3,0.4
				c-0.2,0.1-0.4,0.1-0.6,0.2l-0.6,0.3c-0.4,0.2-0.8,0.3-1.2,0.6c-0.8,0.4-1.6,0.8-2.4,1.3c-0.8,0.5-1.5,1-2.2,1.6
				c-0.4,0.3-0.7,0.6-1,0.9l-0.5,0.4l-0.5,0.5c-2.6,2.5-4.7,5.6-6.1,9.1c0.6-1.8,1.3-3.5,2.2-5.1c0.9-1.6,2-3.1,3.3-4.5L11,9.1
				l0.5-0.5c0.3-0.3,0.7-0.7,1-1c0.7-0.6,1.4-1.2,2.2-1.7c0.8-0.6,1.6-1,2.4-1.5c0.4-0.2,0.8-0.4,1.3-0.6L19,3.4
				c0.2-0.1,0.4-0.2,0.7-0.3C20.1,3,20.6,2.8,21,2.6l1.4-0.4c0.5-0.2,0.9-0.2,1.4-0.4c0.5-0.1,0.9-0.2,1.4-0.3
				C26.1,1.5,27,1.3,28,1.3c0.5,0,1-0.1,1.4-0.1l1.4,0L41.8,1c7.4-0.1,14.8-0.2,22.1-0.2l22.1-0.1l22.1,0.1
				c7.4,0.1,14.8,0.1,22.1,0.2c7.4,0.1,14.8,0.2,22.1,0.4l2.8,0.1c0.9,0,1.9,0.1,2.8,0.2c1.9,0.2,3.7,0.7,5.5,1.3
				c1.8,0.6,3.5,1.4,5,2.4C170.1,6.3,171.5,7.5,172.9,8.8L172.9,8.8z"/>
			<path class="st2" d="M183.9,123.7c0.5,0,0.8-0.4,0.8-0.8V77.5c0-0.5-0.4-0.8-0.8-0.8h-0.7v47L183.9,123.7L183.9,123.7z"/>
			<g>
				<path class="st2" d="M0.8,46C0.4,46,0,46.4,0,46.8v12.7c0,0.5,0.4,0.8,0.8,0.8h0.7V46L0.8,46L0.8,46z"/>
				<path class="st2" d="M0.8,70.6c-0.5,0-0.8,0.4-0.8,0.8v22.1c0,0.5,0.4,0.8,0.8,0.8h0.7V70.6C1.5,70.6,0.8,70.6,0.8,70.6z"/>
				<path class="st2" d="M0.8,101.9c-0.5,0-0.8,0.4-0.8,0.8v22.1c0,0.5,0.4,0.8,0.8,0.8h0.7v-23.7C1.5,101.9,0.8,101.9,0.8,101.9z"
					/>
			</g>
		</g>
		<g>
			<path class="st2" d="M47.5,43.7c3.8,1.6,7.7,3.1,11.5,4.7c0.5,0.2,1,0.4,1.4,0.6c0.7,0.3,1.1,0.8,1.1,1.6c0,0.7,0,1.4,0,2.1
				c0,1-0.7,1.7-1.7,1.7c-0.3,0-0.6,0-1,0c-8,0-16.1,0-24.1,0c-1,0-1.7-0.5-1.8-1.4c0-0.3,0-0.6,0-1c0-0.5,0-1,0-1.5
				c0-0.8,0.4-1.3,1.1-1.6c2.2-0.9,4.4-1.8,6.6-2.7c1.9-0.8,3.9-1.6,5.8-2.4c0.2-0.1,0.3-0.1,0.5-0.2C47.2,43.7,47.4,43.7,47.5,43.7
				L47.5,43.7z M46.4,49.1c0,0.3,0,0.6,0,0.9c0,0.5,0.4,0.8,0.8,0.8c0.5,0,0.8-0.4,0.8-0.9c0-0.6,0-1.2,0-1.8c0-0.5-0.4-0.8-0.8-0.8
				s-0.8,0.4-0.8,0.8C46.4,48.5,46.4,48.8,46.4,49.1L46.4,49.1z"/>
			<path class="st2" d="M47.3,67.2c4.2,0,8.3,0,12.5,0c1.2,0,1.9,0.7,1.9,1.9c0,0.5,0,1.1,0,1.6c0,1.2-0.7,1.9-1.9,1.9
				c-4.4,0-8.7,0-13.1,0c-3.9,0-7.9,0-11.8,0c-1.2,0-1.9-0.7-1.9-1.9c0-0.5,0-1.1,0-1.6c0-1.2,0.7-1.8,1.8-1.8
				C38.9,67.2,43.1,67.2,47.3,67.2z"/>
			<path class="st4" d="M40.9,65.5h-5.2v-9.3h5.2V65.5z"/>
			<path class="st4" d="M44.6,56.2h5.2v9.3h-5.2V56.2z"/>
			<path class="st4" d="M58.9,65.5h-5.2v-9.3h5.2V65.5z"/>
			<path class="st4" d="M46.4,49.1c0-0.3,0-0.6,0-0.9c0-0.5,0.4-0.8,0.8-0.8s0.8,0.3,0.8,0.8c0,0.6,0,1.2,0,1.8
				c0,0.5-0.4,0.9-0.8,0.9s-0.8-0.4-0.8-0.8C46.4,49.7,46.4,49.4,46.4,49.1L46.4,49.1z"/>
		</g>
		<g class="st5">
			<path class="st2" d="M33.6,121v-13.5h2.7l4.4,12.8h0l4.3-12.8h2.7V121h-1.6l0.1-12.7h0L41.8,121h-2.3l-4.4-12.7h0l0.1,12.7H33.6z
				"/>
			<path class="st2" d="M53.4,121.2c-0.9,0-1.6-0.2-2.2-0.7c-0.6-0.4-1-1-1.3-1.8c-0.3-0.8-0.4-1.6-0.4-2.6c0-1.5,0.3-2.7,1-3.6
				c0.6-0.9,1.6-1.4,2.9-1.4c0.7,0,1.2,0.1,1.7,0.3c0.5,0.2,0.8,0.5,1.1,0.8c0.3,0.3,0.5,0.7,0.6,1.1l0-0.1v-2.1h1.6v9.8h-1.3
				l-0.2-1.9l0,0c-0.1,0.3-0.4,0.6-0.6,1s-0.6,0.6-1.1,0.8C54.7,121.1,54.1,121.2,53.4,121.2z M54,119.8c1,0,1.7-0.3,2.1-1
				s0.7-1.5,0.7-2.7c0-1.2-0.2-2.1-0.7-2.7c-0.5-0.6-1.2-0.9-2.1-0.9c-1.1,0-1.8,0.3-2.3,1c-0.5,0.7-0.7,1.5-0.7,2.5
				c0,1.1,0.2,2,0.7,2.6C52.2,119.5,53,119.8,54,119.8z"/>
			<path class="st2" d="M61.5,110.1c-0.4,0-0.6-0.1-0.7-0.3c-0.1-0.2-0.2-0.4-0.2-0.7c0-0.2,0.1-0.5,0.2-0.6
				c0.1-0.2,0.4-0.3,0.7-0.3c0.4,0,0.6,0.1,0.7,0.3c0.1,0.2,0.2,0.4,0.2,0.6c0,0.3-0.1,0.5-0.2,0.7C62.1,110,61.8,110.1,61.5,110.1z
				 M60.7,121v-9.8h1.5v9.8H60.7z"/>
			<path class="st2" d="M68.4,121.2c-0.9,0-1.7-0.2-2.3-0.6c-0.6-0.4-1-0.9-1.3-1.4c-0.3-0.5-0.4-1-0.4-1.4h1.5c0,0,0,0.1,0,0.4
				c0,0.2,0.1,0.5,0.3,0.8s0.4,0.5,0.7,0.8c0.4,0.2,0.9,0.3,1.5,0.3c0.7,0,1.3-0.1,1.9-0.4c0.5-0.3,0.8-0.7,0.8-1.2
				c0-0.5-0.2-0.8-0.5-1.1s-0.7-0.4-1.2-0.6c-0.5-0.1-1-0.3-1.6-0.4s-1.1-0.3-1.5-0.5c-0.5-0.2-0.9-0.5-1.2-0.9
				c-0.3-0.4-0.5-0.9-0.5-1.5c0-0.8,0.4-1.4,1.1-1.9c0.7-0.5,1.6-0.7,2.8-0.7c0.6,0,1.3,0.1,1.9,0.3s1.2,0.5,1.6,1s0.6,1.2,0.6,2.1
				H71c0-0.6-0.1-1.1-0.4-1.4s-0.7-0.5-1.1-0.6c-0.4-0.1-0.8-0.2-1.2-0.2c-0.7,0-1.3,0.1-1.7,0.4c-0.4,0.3-0.7,0.6-0.7,1.1
				c0,0.4,0.2,0.8,0.5,1c0.3,0.2,0.7,0.4,1.2,0.6c0.5,0.1,1,0.3,1.6,0.4c0.6,0.1,1.1,0.3,1.6,0.5c0.5,0.2,0.9,0.5,1.2,0.9
				s0.5,0.9,0.5,1.6c0,0.9-0.4,1.6-1.2,2C70.5,121,69.5,121.2,68.4,121.2z"/>
			<path class="st2" d="M84.3,121.2c-0.9,0-1.7-0.2-2.4-0.6c-0.6-0.4-1.1-1-1.4-1.8c-0.3-0.8-0.5-1.6-0.5-2.6c0-1.5,0.4-2.7,1.1-3.6
				c0.7-0.9,1.8-1.4,3.2-1.4c0.7,0,1.2,0.1,1.6,0.3c0.4,0.2,0.8,0.5,1.1,0.8s0.5,0.6,0.6,0.8c0.1,0.3,0.2,0.4,0.2,0.5h0l0-6.2h1.6
				V121h-1.3l-0.2-2.2h0c0,0.1-0.1,0.2-0.3,0.5c-0.1,0.3-0.4,0.5-0.6,0.8s-0.6,0.5-1.1,0.8C85.4,121.1,84.9,121.2,84.3,121.2z
				 M84.6,119.8c0.9,0,1.7-0.3,2.3-1c0.6-0.6,0.9-1.5,0.9-2.7c0-1.1-0.3-2-0.8-2.6c-0.6-0.6-1.3-1-2.3-1c-0.8,0-1.4,0.2-1.8,0.5
				s-0.8,0.8-1.1,1.3c-0.2,0.5-0.3,1.1-0.3,1.8c0,0.6,0.1,1.2,0.3,1.7c0.2,0.6,0.5,1,1,1.4C83.3,119.6,83.9,119.8,84.6,119.8z"/>
			<path class="st2" d="M96,121.2c-1.1,0-2-0.2-2.7-0.7c-0.7-0.5-1.2-1.1-1.5-1.9c-0.3-0.8-0.5-1.6-0.5-2.4c0-0.9,0.2-1.7,0.5-2.5
				s0.9-1.4,1.6-1.8c0.7-0.4,1.5-0.7,2.5-0.7c1.2,0,2.3,0.4,3.1,1.2c0.8,0.8,1.3,1.9,1.3,3.3c0,0.1,0,0.2,0,0.5h-7.6
				c0,1.2,0.3,2.1,0.8,2.7c0.6,0.6,1.3,1,2.3,1c0.8,0,1.4-0.2,1.9-0.6c0.5-0.4,0.9-0.9,1-1.6h1.5c-0.2,1-0.6,1.8-1.4,2.5
				C98.2,120.9,97.2,121.2,96,121.2z M92.8,115.4h6c0-0.3-0.1-0.7-0.3-1.2c-0.2-0.5-0.5-0.9-0.9-1.2c-0.4-0.3-1-0.5-1.7-0.5
				c-0.7,0-1.2,0.1-1.7,0.4c-0.4,0.3-0.8,0.7-1,1.1C93,114.4,92.9,114.9,92.8,115.4z"/>
		</g>
		<g class="st5">
			<path class="st2" d="M33.6,143v-13.5h5c1.7,0,3.1,0.3,4.1,0.9c1,0.6,1.5,1.6,1.5,3.1c0,1.1-0.3,2-0.8,2.7c-0.5,0.7-1.3,1-2.3,1
				c0.6,0,1,0.1,1.3,0.4c0.3,0.2,0.5,0.6,0.6,0.9s0.2,0.8,0.2,1.2c0,0.4,0.1,0.8,0.2,1.1c0.1,0.3,0.2,0.5,0.4,0.7
				c0.2,0.1,0.6,0.1,1-0.1v1.4c-0.3,0.3-0.7,0.4-1.1,0.5s-0.8,0.1-1.2-0.1c-0.4-0.1-0.7-0.4-1-0.9s-0.4-1-0.4-1.8
				c0-0.7,0-1.3-0.1-1.7c-0.1-0.4-0.3-0.7-0.6-1c-0.3-0.2-0.8-0.3-1.5-0.4c-0.7,0-1.6-0.1-2.8-0.1v5.6H33.6z M36,135.6h2.4
				c0.8,0,1.4,0,1.9-0.1c0.5-0.1,0.9-0.2,1.1-0.5s0.4-0.7,0.4-1.4c0-0.7-0.2-1.2-0.5-1.5s-0.7-0.5-1.3-0.6s-1.3-0.1-2.1-0.1H36
				V135.6z"/>
			<path class="st2" d="M51.3,145.6l0.1-2.4c-0.8-0.1-1.5-0.3-2.2-0.7c-0.7-0.4-1.3-0.9-1.8-1.5c-0.5-0.6-0.8-1.5-0.9-2.5l2.4-0.4
				c0,0,0,0.2,0.1,0.5c0,0.3,0.2,0.6,0.4,1c0.2,0.4,0.6,0.7,1,1c0.5,0.3,1.1,0.4,1.9,0.4c0.9,0,1.5-0.2,2-0.6s0.7-0.7,0.7-1.1
				c0-0.4-0.1-0.8-0.4-1.1c-0.3-0.3-0.7-0.5-1.2-0.7c-0.5-0.2-1-0.3-1.6-0.5c-0.6-0.1-1.2-0.3-1.8-0.5s-1.1-0.4-1.6-0.7
				c-0.5-0.3-0.9-0.7-1.1-1.2c-0.3-0.5-0.4-1.1-0.3-1.9c0-1,0.5-1.8,1.2-2.4c0.8-0.6,1.8-1,3.2-1.1l-0.1-2.4h2.4l-0.1,2.5
				c0.8,0.1,1.4,0.4,2,0.8c0.6,0.4,1.1,0.9,1.4,1.5s0.5,1.4,0.5,2.3l-2.3,0.3c0-0.6-0.1-1.1-0.4-1.5c-0.2-0.4-0.6-0.6-0.9-0.8
				s-0.7-0.3-1.1-0.3c-0.4,0-0.7-0.1-0.9-0.1c-0.6,0-1.2,0.1-1.7,0.4c-0.5,0.3-0.8,0.7-0.8,1.2c0,0.5,0.2,0.8,0.5,1.1
				c0.3,0.3,0.7,0.5,1.2,0.7c0.5,0.2,1.1,0.3,1.6,0.5c0.6,0.1,1.2,0.3,1.8,0.5c0.6,0.2,1.1,0.4,1.6,0.7c0.5,0.3,0.9,0.7,1.2,1.2
				c0.3,0.5,0.4,1.1,0.3,1.9c-0.1,1-0.5,1.8-1.3,2.4c-0.8,0.6-1.7,1-2.9,1.1l0.1,2.4H51.3z"/>
			<path class="st2" d="M59.8,143v-2c0.8-0.4,1.5-0.8,2.2-1.2s1.3-0.8,2-1.3c0.7-0.5,1.3-1,1.9-1.6c0.6-0.6,1-1.2,1.3-1.8
				c0.4-0.7,0.5-1.4,0.3-1.9c-0.1-0.6-0.4-1-0.9-1.2s-1-0.4-1.7-0.4c-0.9,0-1.6,0.3-2.1,0.8c-0.5,0.5-0.7,1.4-0.5,2.7l-2.3-0.4
				c-0.1-1.1,0-2,0.5-2.8c0.4-0.8,1-1.4,1.9-1.8c0.8-0.4,1.8-0.6,2.8-0.6c0.9,0,1.6,0.1,2.3,0.4c0.7,0.3,1.2,0.7,1.7,1.3
				c0.4,0.6,0.7,1.2,0.7,1.9c0.1,0.7-0.1,1.5-0.5,2.3c-0.3,0.6-0.7,1.2-1.3,1.7c-0.5,0.6-1.1,1.1-1.7,1.5c-0.6,0.4-1.2,0.8-1.8,1.2
				c-0.6,0.3-1.1,0.6-1.5,0.8c-0.4,0.2-0.7,0.3-0.9,0.3h7.9v2.1H59.8z"/>
			<path class="st2" d="M73.5,143c-0.6,0-1-0.1-1.2-0.4s-0.3-0.6-0.3-1.1c0-0.4,0.1-0.7,0.3-1c0.2-0.3,0.6-0.4,1.2-0.4
				c0.5,0,0.9,0.1,1.1,0.4s0.3,0.6,0.3,1c0,0.4-0.1,0.8-0.3,1.1S74.1,143,73.5,143z"/>
			<path class="st2" d="M82.5,143.2c-1.1,0-2-0.2-2.7-0.6c-0.7-0.4-1.3-0.8-1.7-1.4c-0.4-0.6-0.7-1.2-0.8-1.9l2.4-0.3
				c0,0.1,0.1,0.3,0.2,0.5c0.1,0.2,0.3,0.5,0.5,0.7c0.2,0.2,0.5,0.5,0.9,0.6c0.4,0.2,0.8,0.3,1.4,0.3c0.9,0,1.6-0.3,2.1-0.8
				c0.5-0.5,0.7-1.1,0.8-1.8c0-0.5,0-0.9-0.2-1.4s-0.5-0.8-0.9-1.1s-1-0.4-1.6-0.4c-0.6,0-1.1,0.1-1.5,0.3c-0.4,0.2-0.6,0.4-0.8,0.7
				c-0.2,0.2-0.2,0.3-0.3,0.4l-2.5-0.4l0.7-7.1h8.8v2.1h-7.1l-0.5,4.3c0,0,0.1-0.1,0.2-0.3c0.1-0.2,0.4-0.4,0.6-0.6s0.7-0.5,1.2-0.6
				c0.5-0.2,1-0.3,1.7-0.3c1.1,0,2,0.2,2.6,0.7c0.7,0.4,1.2,1,1.5,1.7s0.4,1.4,0.4,2.2c-0.1,0.8-0.3,1.5-0.7,2.2
				c-0.4,0.7-1,1.3-1.8,1.7C84.5,143,83.6,143.2,82.5,143.2z"/>
		</g>
		<g class="st5">
			<path class="st2" d="M39.1,165.2c-0.6,0-1.1-0.1-1.5-0.3s-0.8-0.4-1-0.7c-0.3-0.3-0.5-0.5-0.6-0.7c-0.1-0.2-0.2-0.3-0.2-0.4h0
				l-0.4,1.8h-2.1v-13.5h2.5v5.8h0c0,0,0.1-0.2,0.2-0.4c0.1-0.2,0.3-0.5,0.5-0.7c0.2-0.3,0.6-0.5,1-0.7c0.4-0.2,0.9-0.3,1.6-0.3
				c1.4,0,2.5,0.5,3.1,1.4c0.6,0.9,1,2.2,1,3.7c0,1.5-0.3,2.7-0.9,3.6C41.6,164.7,40.6,165.2,39.1,165.2z M38.3,163.1
				c0.7,0,1.2-0.1,1.5-0.4c0.4-0.3,0.6-0.6,0.7-1.1c0.1-0.5,0.2-0.9,0.2-1.4c0-0.5-0.1-1-0.2-1.4c-0.1-0.4-0.4-0.8-0.8-1.1
				c-0.4-0.3-0.9-0.4-1.5-0.4c-0.9,0-1.5,0.3-1.9,0.8c-0.4,0.6-0.6,1.2-0.6,2.1c0,0.9,0.2,1.6,0.6,2.1
				C36.8,162.9,37.4,163.1,38.3,163.1z"/>
			<path class="st2" d="M46.6,154c-0.5,0-0.9-0.1-1-0.4s-0.3-0.6-0.3-0.9c0-0.4,0.1-0.7,0.3-0.9s0.5-0.4,1-0.4c0.5,0,0.8,0.1,1,0.4
				s0.3,0.6,0.3,0.9c0,0.4-0.1,0.7-0.3,0.9S47.1,154,46.6,154z M45.3,165v-9.9h2.4v9.9H45.3z"/>
			<path class="st2" d="M50.2,165v-13.5h2.4V165H50.2z"/>
			<path class="st2" d="M54.8,165v-13.5h2.5v5.8h0c0,0,0.1-0.2,0.2-0.4s0.3-0.5,0.5-0.7c0.2-0.3,0.6-0.5,1-0.7
				c0.4-0.2,0.9-0.3,1.5-0.3c0.9,0,1.5,0.2,2,0.5c0.5,0.4,0.9,0.8,1.1,1.4c0.2,0.5,0.4,1.1,0.4,1.7c0.1,0.6,0.1,1.1,0.1,1.5v4.8
				h-2.4v-4.8c0-0.5-0.1-1-0.2-1.5c-0.1-0.4-0.3-0.8-0.6-1.1c-0.3-0.3-0.8-0.4-1.4-0.4s-1.1,0.1-1.4,0.4c-0.3,0.3-0.6,0.7-0.7,1.1
				c-0.1,0.5-0.2,0.9-0.2,1.5v4.7H54.8z"/>
			<path class="st2" d="M70.8,165.2c-1.1,0-2-0.2-2.8-0.6c-0.7-0.4-1.3-1-1.7-1.8c-0.4-0.8-0.6-1.6-0.6-2.6c0-1.5,0.4-2.7,1.2-3.6
				s2.1-1.4,3.8-1.4c1.6,0,2.8,0.5,3.7,1.4s1.3,2.2,1.3,3.7c0,0.9-0.2,1.8-0.5,2.6c-0.4,0.8-0.9,1.4-1.6,1.8
				C72.8,165,71.9,165.2,70.8,165.2z M72,153.6c-0.4,0-0.7-0.1-1-0.2c-0.2-0.1-0.4-0.3-0.6-0.5c-0.2-0.2-0.3-0.3-0.4-0.5
				c-0.1-0.1-0.3-0.2-0.5-0.2c-0.3,0-0.4,0.1-0.5,0.3c-0.1,0.2-0.1,0.6-0.1,1h-1.5c0-0.3,0-0.6,0-0.9c0-0.3,0.1-0.6,0.2-0.9
				s0.3-0.5,0.5-0.7s0.6-0.3,1.1-0.3c0.4,0,0.7,0.1,1,0.2c0.2,0.1,0.4,0.3,0.6,0.5c0.2,0.2,0.3,0.3,0.4,0.5s0.3,0.2,0.5,0.2
				c0.3,0,0.4-0.1,0.5-0.3c0-0.2,0.1-0.6,0.1-1h1.4c0,0.4,0,0.9-0.1,1.3c-0.1,0.4-0.2,0.8-0.5,1.1C73,153.5,72.6,153.6,72,153.6z
				 M70.8,163.1c0.7,0,1.2-0.2,1.6-0.5c0.4-0.3,0.6-0.7,0.8-1.2c0.1-0.5,0.2-0.9,0.2-1.4c0-0.5-0.1-1-0.2-1.5
				c-0.1-0.5-0.4-0.9-0.8-1.2c-0.4-0.3-0.9-0.5-1.6-0.5c-0.7,0-1.3,0.2-1.6,0.5s-0.6,0.7-0.8,1.2c-0.1,0.5-0.2,1-0.2,1.5
				c0,0.5,0.1,1,0.2,1.4c0.1,0.5,0.4,0.9,0.8,1.2C69.5,163,70.1,163.1,70.8,163.1z"/>
			<path class="st2" d="M82.1,165.2c-1.1,0-2.1-0.2-2.8-0.7c-0.7-0.5-1.2-1.1-1.6-1.9c-0.3-0.8-0.5-1.6-0.5-2.4c0-1,0.2-1.9,0.6-2.7
				c0.4-0.8,1-1.4,1.7-1.8c0.7-0.4,1.6-0.7,2.6-0.7c0.9,0,1.7,0.2,2.4,0.6c0.7,0.4,1.3,0.9,1.7,1.6c0.4,0.7,0.6,1.5,0.6,2.5
				c0,0,0,0.2,0,0.6h-7.2c0,1,0.2,1.7,0.7,2.2c0.4,0.5,1.1,0.7,1.8,0.7c0.6,0,1.1-0.2,1.5-0.5c0.4-0.3,0.7-0.7,0.7-1.2h2.4
				c-0.1,1-0.6,1.9-1.3,2.6C84.5,164.8,83.4,165.2,82.1,165.2z M79.6,159.2h4.7c0-0.1-0.1-0.3-0.1-0.5c-0.1-0.2-0.2-0.5-0.3-0.7
				s-0.4-0.5-0.7-0.6c-0.3-0.2-0.7-0.3-1.2-0.3c-0.6,0-1.1,0.1-1.5,0.4c-0.3,0.3-0.6,0.6-0.7,0.9C79.7,158.7,79.6,159,79.6,159.2z"
				/>
			<path class="st2" d="M92.7,165.2c-0.4,0-0.9-0.1-1.4-0.2c-0.5-0.1-1-0.4-1.4-0.6c-0.5-0.3-0.8-0.7-1.1-1.1s-0.4-1-0.4-1.6h2.3
				c0,0,0,0.1,0,0.3c0,0.2,0.1,0.4,0.2,0.6c0.1,0.2,0.3,0.4,0.6,0.6c0.3,0.2,0.7,0.3,1.2,0.3c0.6,0,1.1-0.1,1.4-0.3
				c0.3-0.2,0.5-0.5,0.5-0.8c0-0.4-0.1-0.6-0.4-0.8s-0.7-0.4-1.1-0.5c-0.5-0.1-1-0.3-1.5-0.4c-0.5-0.1-1-0.3-1.5-0.5
				c-0.5-0.2-0.8-0.5-1.1-0.9c-0.3-0.4-0.4-0.9-0.4-1.5c0-0.9,0.4-1.6,1.1-2.1s1.7-0.7,2.8-0.7c0.8,0,1.5,0.1,2.2,0.4
				c0.7,0.2,1.2,0.6,1.7,1.2c0.4,0.5,0.6,1.2,0.6,2.1h-2.3c0-0.5-0.1-0.9-0.3-1.1c-0.2-0.2-0.5-0.4-0.9-0.5c-0.3-0.1-0.7-0.1-1-0.1
				c-0.6,0-1,0.1-1.3,0.3c-0.3,0.2-0.4,0.5-0.4,0.8c0,0.4,0.1,0.7,0.4,0.9c0.3,0.2,0.7,0.4,1.2,0.5c0.5,0.1,1,0.3,1.5,0.4
				c0.5,0.1,1,0.3,1.5,0.5c0.5,0.2,0.9,0.5,1.2,0.9s0.4,0.9,0.4,1.5c0,0.9-0.4,1.6-1.2,2.1S93.9,165.2,92.7,165.2z"/>
			<path class="st2" d="M108.3,165.2c-1.1,0-2.1-0.2-2.8-0.7c-0.7-0.5-1.2-1.1-1.6-1.9c-0.3-0.8-0.5-1.6-0.5-2.4
				c0-1,0.2-1.9,0.6-2.7s1-1.4,1.7-1.8c0.7-0.4,1.6-0.7,2.6-0.7c0.9,0,1.7,0.2,2.4,0.6s1.3,0.9,1.7,1.6s0.6,1.5,0.6,2.5
				c0,0,0,0.2,0,0.6h-7.2c0,1,0.2,1.7,0.7,2.2c0.4,0.5,1.1,0.7,1.8,0.7c0.6,0,1.1-0.2,1.5-0.5c0.4-0.3,0.7-0.7,0.7-1.2h2.4
				c-0.1,1-0.6,1.9-1.3,2.6C110.8,164.8,109.7,165.2,108.3,165.2z M105.8,159.2h4.7c0-0.1-0.1-0.3-0.1-0.5c-0.1-0.2-0.2-0.5-0.3-0.7
				c-0.2-0.3-0.4-0.5-0.7-0.6c-0.3-0.2-0.7-0.3-1.2-0.3c-0.6,0-1.1,0.1-1.5,0.4c-0.3,0.3-0.6,0.6-0.7,0.9
				C105.9,158.7,105.9,159,105.8,159.2z"/>
			<path class="st2" d="M114.8,165v-9.9h2.1l0,2.1h0c0-0.1,0.1-0.2,0.2-0.4c0.1-0.2,0.3-0.5,0.5-0.7c0.2-0.3,0.5-0.5,0.9-0.7
				c0.4-0.2,0.8-0.3,1.4-0.3c0.8,0,1.4,0.2,1.8,0.6c0.4,0.4,0.7,0.9,0.9,1.5h0c0-0.1,0.1-0.2,0.2-0.4c0.1-0.2,0.3-0.5,0.6-0.7
				c0.2-0.3,0.6-0.5,0.9-0.7c0.4-0.2,0.9-0.3,1.4-0.3c0.6,0,1.1,0.1,1.5,0.4c0.4,0.3,0.7,0.6,0.9,1s0.4,0.8,0.5,1.3
				c0.1,0.5,0.1,0.9,0.1,1.3c0,0.4,0,0.8,0,1v4.8h-2.1v-4.8c0-0.2,0-0.5,0-0.9c0-0.3-0.1-0.6-0.2-1c-0.1-0.3-0.3-0.6-0.6-0.8
				s-0.6-0.3-1.1-0.3c-0.6,0-1,0.1-1.3,0.4s-0.5,0.7-0.6,1.1c-0.1,0.5-0.2,0.9-0.2,1.4v4.7h-2.1v-4.8c0-0.2,0-0.5,0-0.9
				c0-0.3-0.1-0.6-0.2-1c-0.1-0.3-0.3-0.6-0.6-0.8c-0.3-0.2-0.6-0.3-1.1-0.3c-0.6,0-1,0.1-1.3,0.4s-0.5,0.7-0.6,1.1
				c-0.1,0.5-0.2,0.9-0.2,1.4v4.7H114.8z"/>
		</g>
		<g class="st5">
			<path class="st2" d="M37.2,187.2c-0.4,0-0.9-0.1-1.4-0.2c-0.5-0.1-1-0.4-1.4-0.6c-0.5-0.3-0.8-0.7-1.1-1.1s-0.4-1-0.4-1.6h2.3
				c0,0,0,0.1,0,0.3c0,0.2,0.1,0.4,0.2,0.6c0.1,0.2,0.3,0.4,0.6,0.6c0.3,0.2,0.7,0.3,1.2,0.3c0.6,0,1.1-0.1,1.4-0.3
				c0.3-0.2,0.5-0.5,0.5-0.8c0-0.4-0.1-0.6-0.4-0.8s-0.7-0.4-1.1-0.5c-0.5-0.1-1-0.3-1.5-0.4c-0.5-0.1-1-0.3-1.5-0.5
				c-0.5-0.2-0.8-0.5-1.1-0.9c-0.3-0.4-0.4-0.9-0.4-1.5c0-0.9,0.4-1.6,1.1-2.1s1.7-0.7,2.8-0.7c0.8,0,1.5,0.1,2.2,0.4
				s1.2,0.6,1.7,1.2c0.4,0.5,0.6,1.2,0.6,2.1h-2.3c0-0.5-0.1-0.9-0.3-1.1c-0.2-0.2-0.5-0.4-0.9-0.5s-0.7-0.1-1-0.1
				c-0.6,0-1,0.1-1.3,0.3c-0.3,0.2-0.4,0.5-0.4,0.8c0,0.4,0.1,0.7,0.4,0.9c0.3,0.2,0.7,0.4,1.2,0.5c0.5,0.1,1,0.3,1.5,0.4
				c0.5,0.1,1,0.3,1.5,0.5c0.5,0.2,0.9,0.5,1.2,0.9c0.3,0.4,0.4,0.9,0.4,1.5c0,0.9-0.4,1.6-1.2,2.1C39.5,187,38.5,187.2,37.2,187.2z
				"/>
			<path class="st2" d="M47.7,187.2c-1.1,0-2-0.2-2.8-0.6c-0.7-0.4-1.3-1-1.7-1.8c-0.4-0.8-0.6-1.6-0.6-2.6c0-1.5,0.4-2.7,1.2-3.6
				s2.1-1.4,3.8-1.4c1.6,0,2.8,0.5,3.7,1.4s1.3,2.2,1.3,3.7c0,0.9-0.2,1.8-0.5,2.6c-0.4,0.8-0.9,1.4-1.6,1.8
				C49.8,187,48.8,187.2,47.7,187.2z M47.7,185.1c0.7,0,1.2-0.2,1.6-0.5c0.4-0.3,0.6-0.7,0.8-1.2c0.1-0.5,0.2-0.9,0.2-1.4
				c0-0.5-0.1-1-0.2-1.5c-0.1-0.5-0.4-0.9-0.8-1.2c-0.4-0.3-0.9-0.5-1.6-0.5c-0.7,0-1.3,0.2-1.6,0.5s-0.6,0.7-0.8,1.2
				c-0.1,0.5-0.2,1-0.2,1.5c0,0.5,0.1,1,0.2,1.4c0.1,0.5,0.4,0.9,0.8,1.2C46.4,185,47,185.1,47.7,185.1z"/>
			<path class="st2" d="M54.6,187v-13.5H57V187H54.6z"/>
			<path class="st2" d="M60.7,176c-0.5,0-0.9-0.1-1-0.4s-0.3-0.6-0.3-0.9c0-0.4,0.1-0.7,0.3-0.9s0.5-0.4,1-0.4c0.5,0,0.8,0.1,1,0.4
				s0.3,0.6,0.3,0.9c0,0.4-0.1,0.7-0.3,0.9S61.2,176,60.7,176z M59.5,187v-9.9h2.4v9.9H59.5z"/>
			<path class="st2" d="M68.8,187.2c-0.9,0-1.8-0.2-2.5-0.6c-0.8-0.4-1.4-0.9-1.8-1.7s-0.7-1.7-0.7-2.7c0-1.1,0.3-2,0.7-2.8
				c0.4-0.8,1-1.4,1.8-1.8c0.7-0.4,1.6-0.6,2.6-0.6c1,0,1.8,0.2,2.5,0.6c0.7,0.4,1.2,0.9,1.6,1.5c0.4,0.6,0.6,1.2,0.6,1.9h-2.3
				c-0.2-1.2-1.1-1.8-2.4-1.8c-0.9,0-1.5,0.3-2,0.8c-0.5,0.5-0.7,1.2-0.7,2.1c0,0.9,0.2,1.7,0.7,2.2c0.5,0.6,1.1,0.8,2,0.8
				c0.6,0,1.1-0.2,1.6-0.5s0.7-0.8,0.9-1.4h2.3c0,0.7-0.3,1.3-0.7,1.9c-0.4,0.6-0.9,1.1-1.6,1.5C70.6,187,69.8,187.2,68.8,187.2z"/>
			<path class="st2" d="M76.9,176c-0.5,0-0.9-0.1-1-0.4s-0.3-0.6-0.3-0.9c0-0.4,0.1-0.7,0.3-0.9s0.5-0.4,1-0.4c0.5,0,0.8,0.1,1,0.4
				s0.3,0.6,0.3,0.9c0,0.4-0.1,0.7-0.3,0.9S77.4,176,76.9,176z M75.7,187v-9.9h2.4v9.9H75.7z"/>
			<path class="st2" d="M83.6,187c-0.8,0-1.4-0.2-1.8-0.6s-0.6-1-0.6-1.9v-5.7h-1.5v-1.7c0.5,0,0.8,0,1.1-0.1
				c0.3-0.1,0.4-0.3,0.6-0.7c0.1-0.4,0.2-0.9,0.2-1.7h2v2.5h2.3v1.7h-2.3v6.2h2.3v1.9H83.6z"/>
			<path class="st2" d="M91.1,187.2c-1.4,0-2.3-0.5-2.9-1.4c-0.6-0.9-0.9-2.1-0.9-3.6c0-1.5,0.3-2.7,0.9-3.7s1.5-1.4,2.9-1.4
				c0.8,0,1.4,0.1,1.8,0.4c0.4,0.3,0.8,0.5,1,0.9c0.2,0.3,0.4,0.6,0.4,0.7l0,0v-2h2.5v9.9h-2.1l-0.4-1.6h0c0,0.1-0.2,0.4-0.4,0.7
				c-0.2,0.3-0.6,0.6-1,0.8C92.4,187.1,91.8,187.2,91.1,187.2z M92.1,185.1c0.9,0,1.5-0.3,1.8-0.9c0.3-0.6,0.5-1.3,0.5-2.1
				c0-0.9-0.2-1.6-0.5-2.1c-0.3-0.5-0.9-0.8-1.8-0.8c-0.6,0-1.1,0.1-1.5,0.4c-0.3,0.3-0.6,0.6-0.7,1.1c-0.1,0.4-0.2,0.9-0.2,1.5
				c0,0.5,0.1,1,0.2,1.5c0.1,0.4,0.4,0.8,0.7,1.1C91,185,91.5,185.1,92.1,185.1z"/>
			<path class="st2" d="M103.3,187.2c-0.9,0-1.8-0.2-2.5-0.6s-1.4-0.9-1.8-1.7c-0.4-0.7-0.7-1.7-0.7-2.7c0-1.1,0.3-2,0.7-2.8
				c0.4-0.8,1-1.4,1.8-1.8c0.7-0.4,1.6-0.6,2.6-0.6c1,0,1.8,0.2,2.5,0.6s1.2,0.9,1.6,1.5c0.4,0.6,0.6,1.2,0.6,1.9h-2.3
				c-0.2-1.2-1.1-1.8-2.4-1.8c-0.9,0-1.5,0.3-2,0.8c-0.5,0.5-0.7,1.2-0.7,2.1c0,0.9,0.2,1.7,0.7,2.2c0.5,0.6,1.1,0.8,2,0.8
				c0.6,0,1.1-0.2,1.6-0.5s0.7-0.8,0.9-1.4h2.3c0,0.7-0.3,1.3-0.7,1.9c-0.4,0.6-0.9,1.1-1.6,1.5C105.2,187,104.3,187.2,103.3,187.2z
				 M100.5,190.3l0.7-1.2c0.2,0.2,0.4,0.3,0.7,0.4s0.7,0.2,1,0.2c0.4,0,0.7,0,0.9-0.1s0.4-0.3,0.3-0.6c0-0.2-0.1-0.4-0.3-0.5
				c-0.2-0.1-0.5-0.1-0.8-0.1c-0.3,0-0.6,0.2-0.8,0.3l-1-0.6l1-2.2l1.1,0.4l-0.9,1.5c0.2-0.2,0.5-0.3,0.9-0.4c0.4-0.1,0.7-0.1,1.1,0
				c0.4,0.1,0.7,0.2,0.9,0.5s0.4,0.6,0.4,1c0,0.5-0.2,0.9-0.5,1.2c-0.4,0.3-0.8,0.5-1.4,0.6c-0.6,0.1-1.2,0.1-1.8,0
				C101.6,190.9,101,190.7,100.5,190.3z"/>
			<path class="st2" d="M114.5,187.2c-1.1,0-2-0.2-2.8-0.6c-0.7-0.4-1.3-1-1.7-1.8c-0.4-0.8-0.6-1.6-0.6-2.6c0-1.5,0.4-2.7,1.2-3.6
				s2.1-1.4,3.8-1.4c1.6,0,2.8,0.5,3.7,1.4s1.3,2.2,1.3,3.7c0,0.9-0.2,1.8-0.5,2.6c-0.4,0.8-0.9,1.4-1.6,1.8
				C116.6,187,115.6,187.2,114.5,187.2z M115.8,175.6c-0.4,0-0.7-0.1-1-0.2s-0.4-0.3-0.6-0.5c-0.2-0.2-0.3-0.3-0.4-0.5
				c-0.1-0.1-0.3-0.2-0.5-0.2c-0.3,0-0.4,0.1-0.5,0.3c-0.1,0.2-0.1,0.6-0.1,1h-1.5c0-0.3,0-0.6,0-0.9c0-0.3,0.1-0.6,0.2-0.9
				c0.1-0.3,0.3-0.5,0.5-0.7s0.6-0.3,1.1-0.3c0.4,0,0.7,0.1,1,0.2c0.2,0.1,0.4,0.3,0.6,0.5c0.2,0.2,0.3,0.3,0.4,0.5
				c0.1,0.1,0.3,0.2,0.5,0.2c0.3,0,0.4-0.1,0.5-0.3c0-0.2,0.1-0.6,0.1-1h1.4c0,0.4,0,0.9-0.1,1.3c-0.1,0.4-0.2,0.8-0.5,1.1
				S116.4,175.6,115.8,175.6z M114.5,185.1c0.7,0,1.2-0.2,1.6-0.5c0.4-0.3,0.6-0.7,0.8-1.2c0.1-0.5,0.2-0.9,0.2-1.4
				c0-0.5-0.1-1-0.2-1.5c-0.1-0.5-0.4-0.9-0.8-1.2s-0.9-0.5-1.6-0.5c-0.7,0-1.3,0.2-1.6,0.5s-0.6,0.7-0.8,1.2
				c-0.1,0.5-0.2,1-0.2,1.5c0,0.5,0.1,1,0.2,1.4c0.1,0.5,0.4,0.9,0.8,1.2C113.2,185,113.8,185.1,114.5,185.1z"/>
			<path class="st2" d="M125.8,187.2c-1.1,0-2.1-0.2-2.8-0.7c-0.7-0.5-1.2-1.1-1.6-1.9c-0.3-0.8-0.5-1.6-0.5-2.4
				c0-1,0.2-1.9,0.6-2.7s1-1.4,1.7-1.8c0.7-0.4,1.6-0.7,2.6-0.7c0.9,0,1.7,0.2,2.4,0.6s1.3,0.9,1.7,1.6s0.6,1.5,0.6,2.5
				c0,0,0,0.2,0,0.6h-7.2c0,1,0.2,1.7,0.7,2.2c0.4,0.5,1.1,0.7,1.8,0.7c0.6,0,1.1-0.2,1.5-0.5c0.4-0.3,0.7-0.7,0.7-1.2h2.4
				c-0.1,1-0.6,1.9-1.3,2.6C128.2,186.8,127.2,187.2,125.8,187.2z M123.3,181.2h4.7c0-0.1-0.1-0.3-0.1-0.5c-0.1-0.2-0.2-0.5-0.3-0.7
				c-0.2-0.3-0.4-0.5-0.7-0.6c-0.3-0.2-0.7-0.3-1.2-0.3c-0.6,0-1.1,0.1-1.5,0.4c-0.3,0.3-0.6,0.6-0.7,0.9
				C123.4,180.7,123.3,181,123.3,181.2z"/>
			<path class="st2" d="M136.4,187.2c-0.4,0-0.9-0.1-1.4-0.2c-0.5-0.1-1-0.4-1.4-0.6c-0.5-0.3-0.8-0.7-1.1-1.1s-0.4-1-0.4-1.6h2.3
				c0,0,0,0.1,0,0.3c0,0.2,0.1,0.4,0.2,0.6c0.1,0.2,0.3,0.4,0.6,0.6c0.3,0.2,0.7,0.3,1.2,0.3c0.6,0,1.1-0.1,1.4-0.3
				c0.3-0.2,0.5-0.5,0.5-0.8c0-0.4-0.1-0.6-0.4-0.8s-0.7-0.4-1.1-0.5s-1-0.3-1.5-0.4c-0.5-0.1-1-0.3-1.5-0.5
				c-0.5-0.2-0.8-0.5-1.1-0.9c-0.3-0.4-0.4-0.9-0.4-1.5c0-0.9,0.4-1.6,1.1-2.1c0.7-0.5,1.7-0.7,2.8-0.7c0.8,0,1.5,0.1,2.2,0.4
				c0.7,0.2,1.2,0.6,1.7,1.2c0.4,0.5,0.6,1.2,0.6,2.1h-2.3c0-0.5-0.1-0.9-0.3-1.1c-0.2-0.2-0.5-0.4-0.9-0.5c-0.3-0.1-0.7-0.1-1-0.1
				c-0.6,0-1,0.1-1.3,0.3c-0.3,0.2-0.4,0.5-0.4,0.8c0,0.4,0.1,0.7,0.4,0.9c0.3,0.2,0.7,0.4,1.2,0.5s1,0.3,1.5,0.4
				c0.5,0.1,1,0.3,1.5,0.5c0.5,0.2,0.9,0.5,1.2,0.9s0.4,0.9,0.4,1.5c0,0.9-0.4,1.6-1.2,2.1S137.7,187.2,136.4,187.2z"/>
		</g>
	</g>
</g>
</svg>
