<?xml version="1.0" encoding="utf-8"?>
<!-- Generator: Adobe Illustrator 27.1.1, SVG Export Plug-In . SVG Version: 6.00 Build 0)  -->
<svg version="1.1" id="Camada_2" xmlns="http://www.w3.org/2000/svg" xmlns:xlink="http://www.w3.org/1999/xlink" x="0px" y="0px"
	 viewBox="0 0 181.7 234.6" style="enable-background:new 0 0 181.7 234.6;" xml:space="preserve">
<style type="text/css">
	.st0{fill:#10069F;}
	.st1{fill:#FFFFFF;}
	.st2{fill:#0524DD;}
	.st3{fill:#0524DD;}
	.st4{enable-background:new    ;}
</style>
<g id="OBJECTS">
	<g>
		<g>
			<path class="st0" d="M181.7,0v207c0,15.3-12.4,27.6-27.6,27.6H27.6C12.4,234.6,0,222.3,0,207V0H181.7z"/>
			<path class="st1" d="M172.3,0v207c0,10.1-8.2,18.3-18.3,18.3H27.6c-10.1,0-18.3-8.2-18.3-18.3V0H172.3z"/>
		</g>
		<g>
			<path class="st0" d="M47.1,61.4c2,0,3.9,0,5.9,0c0.7,0,1.2,0.2,1.6,0.8c0.3,0.6,0.3,1.2-0.1,1.8c-0.3,0.5-0.6,1-0.9,1.5
				c-0.2,0.3-0.4,0.4-0.7,0.4c-3.8,0-7.6,0-11.4,0c-0.3,0-0.5-0.1-0.7-0.4c-0.3-0.6-0.7-1.1-1-1.7c-0.7-1.2,0.1-2.5,1.5-2.5
				C43.1,61.4,45.1,61.4,47.1,61.4L47.1,61.4z"/>
			<path class="st2" d="M59.1,76c-1.1-2.9-2.9-5.2-5.1-7.4c-0.2-0.2-0.5-0.2-0.7-0.2c-2.1,0-4.2,0-6.3,0s-4.2,0-6.3,0
				c-0.4,0-0.7,0.1-0.9,0.4c-0.8,0.9-1.6,1.7-2.3,2.6c-2,2.6-3.4,5.5-3.5,8.9c-0.1,2.9,0.7,5.4,2.9,7.3c1.5,1.4,3.4,2.1,5.4,2.6
				c2.2,0.5,4.4,0.5,6.6,0.4c1.8-0.1,3.6-0.4,5.3-1.2c2.8-1.2,4.7-3.1,5.5-6.1C60.4,80.8,60.1,78.4,59.1,76L59.1,76z"/>
			<path class="st3" d="M47,86.5c-0.2,0-0.3,0-0.5,0c-0.3,0-0.4-0.1-0.4-0.4c0-0.3,0-0.6,0-0.9c0-0.3,0-0.3-0.3-0.4
				c-0.6-0.1-1.1-0.2-1.7-0.4c-0.7-0.2-0.7-0.3-0.5-1.1c0.1-0.3,0.2-0.6,0.3-0.9c0.1-0.3,0.2-0.4,0.5-0.2c0.7,0.3,1.3,0.5,2.1,0.6
				c0.4,0,0.8,0,1.2-0.2c0.7-0.3,0.8-1.1,0.2-1.6c-0.2-0.2-0.5-0.4-0.8-0.5c-0.6-0.3-1.3-0.5-1.9-0.8c-0.7-0.3-1.2-0.8-1.5-1.5
				c-0.6-1.4,0.1-3,1.6-3.7c0.2-0.1,0.4-0.2,0.6-0.2c0.2-0.1,0.3-0.2,0.3-0.5c0-0.3,0-0.5,0-0.8c0-0.4,0.1-0.4,0.4-0.4
				c0.3,0,0.6,0,0.9,0c0.3,0,0.4,0.1,0.4,0.4c0,0.2,0,0.5,0,0.7c0,0.3,0.1,0.4,0.4,0.5c0.5,0.1,1,0.2,1.5,0.4
				c0.4,0.1,0.5,0.3,0.3,0.7c-0.1,0.4-0.2,0.7-0.3,1.1c-0.1,0.3-0.2,0.3-0.5,0.2C48.7,76.1,48,76,47.2,76c-0.2,0-0.5,0.1-0.7,0.2
				c-0.6,0.3-0.7,1-0.2,1.4c0.3,0.2,0.7,0.4,1,0.6c0.5,0.2,1.1,0.4,1.6,0.7c1.1,0.6,1.7,1.5,1.8,2.8c0.1,1.3-0.8,2.6-2.2,3
				c-0.1,0-0.1,0-0.2,0.1c-0.3,0.1-0.4,0.2-0.4,0.6c0,0.3,0,0.6,0,0.9c0,0.3-0.1,0.4-0.4,0.4C47.3,86.6,47.1,86.6,47,86.5L47,86.5
				L47,86.5z"/>
		</g>
		<g class="st4">
			<path class="st2" d="M34.9,138.6v-13.5h2.7l4.4,12.8h0l4.3-12.8h2.7v13.5h-1.6l0.1-12.7h0L43,138.6h-2.3l-4.4-12.7h0l0.1,12.7
				H34.9z"/>
			<path class="st2" d="M54.7,138.9c-0.9,0-1.6-0.2-2.2-0.7c-0.6-0.4-1-1-1.3-1.8c-0.3-0.8-0.4-1.6-0.4-2.6c0-1.5,0.3-2.7,1-3.6
				c0.6-0.9,1.6-1.4,2.9-1.4c0.7,0,1.2,0.1,1.7,0.3c0.5,0.2,0.8,0.5,1.1,0.8c0.3,0.3,0.5,0.7,0.6,1.1l0-0.1v-2.1h1.6v9.8h-1.3
				l-0.2-1.9l0,0c-0.1,0.3-0.4,0.6-0.6,1c-0.3,0.3-0.6,0.6-1.1,0.8C55.9,138.7,55.4,138.9,54.7,138.9z M55.3,137.5
				c1,0,1.7-0.3,2.1-1c0.4-0.7,0.7-1.5,0.7-2.7c0-1.2-0.2-2.1-0.7-2.7c-0.5-0.6-1.2-0.9-2.1-0.9c-1.1,0-1.8,0.3-2.3,1
				c-0.5,0.7-0.7,1.5-0.7,2.5c0,1.1,0.2,2,0.7,2.6C53.5,137.1,54.3,137.5,55.3,137.5z"/>
			<path class="st2" d="M62.7,127.8c-0.4,0-0.6-0.1-0.7-0.3c-0.1-0.2-0.2-0.4-0.2-0.7c0-0.2,0.1-0.5,0.2-0.6
				c0.1-0.2,0.4-0.3,0.7-0.3c0.4,0,0.6,0.1,0.7,0.3c0.1,0.2,0.2,0.4,0.2,0.6c0,0.3-0.1,0.5-0.2,0.7
				C63.3,127.7,63.1,127.8,62.7,127.8z M62,138.6v-9.8h1.5v9.8H62z"/>
			<path class="st2" d="M69.7,138.9c-0.9,0-1.7-0.2-2.3-0.6c-0.6-0.4-1-0.9-1.3-1.4c-0.3-0.5-0.4-1-0.4-1.4h1.5c0,0,0,0.1,0,0.4
				c0,0.2,0.1,0.5,0.3,0.8c0.1,0.3,0.4,0.5,0.7,0.8c0.4,0.2,0.9,0.3,1.5,0.3c0.7,0,1.3-0.1,1.9-0.4c0.5-0.3,0.8-0.7,0.8-1.2
				c0-0.5-0.2-0.8-0.5-1.1c-0.3-0.2-0.7-0.4-1.2-0.6c-0.5-0.1-1-0.3-1.6-0.4s-1.1-0.3-1.5-0.5s-0.9-0.5-1.2-0.9
				c-0.3-0.4-0.5-0.9-0.5-1.5c0-0.8,0.4-1.4,1.1-1.9c0.7-0.5,1.6-0.7,2.8-0.7c0.6,0,1.3,0.1,1.9,0.3c0.6,0.2,1.2,0.5,1.6,1
				s0.6,1.2,0.6,2.1h-1.4c0-0.6-0.1-1.1-0.4-1.4s-0.7-0.5-1.1-0.6c-0.4-0.1-0.8-0.2-1.2-0.2c-0.7,0-1.3,0.1-1.7,0.4
				s-0.7,0.6-0.7,1.1c0,0.4,0.2,0.8,0.5,1c0.3,0.2,0.7,0.4,1.2,0.6c0.5,0.1,1,0.3,1.6,0.4s1.1,0.3,1.6,0.5c0.5,0.2,0.9,0.5,1.2,0.9
				c0.3,0.4,0.5,0.9,0.5,1.6c0,0.9-0.4,1.6-1.2,2C71.8,138.6,70.8,138.9,69.7,138.9z"/>
			<path class="st2" d="M85.5,138.9c-0.9,0-1.7-0.2-2.4-0.6c-0.6-0.4-1.1-1-1.4-1.8c-0.3-0.8-0.5-1.6-0.5-2.6c0-1.5,0.4-2.7,1.1-3.6
				c0.7-0.9,1.8-1.4,3.2-1.4c0.7,0,1.2,0.1,1.6,0.3c0.4,0.2,0.8,0.5,1.1,0.8c0.3,0.3,0.5,0.6,0.6,0.8s0.2,0.4,0.2,0.5h0l0-6.2h1.6
				v13.5h-1.3l-0.2-2.2h0c0,0.1-0.1,0.2-0.3,0.5c-0.1,0.3-0.4,0.5-0.6,0.8c-0.3,0.3-0.6,0.5-1.1,0.8S86.2,138.9,85.5,138.9z
				 M85.9,137.5c0.9,0,1.7-0.3,2.3-1c0.6-0.6,0.9-1.5,0.9-2.7c0-1.1-0.3-2-0.8-2.6c-0.6-0.6-1.3-1-2.3-1c-0.8,0-1.4,0.2-1.8,0.5
				c-0.5,0.3-0.8,0.8-1.1,1.3c-0.2,0.5-0.3,1.1-0.3,1.8c0,0.6,0.1,1.2,0.3,1.7c0.2,0.6,0.5,1,1,1.4
				C84.6,137.3,85.2,137.5,85.9,137.5z"/>
			<path class="st2" d="M97.2,138.9c-1.1,0-2-0.2-2.7-0.7c-0.7-0.5-1.2-1.1-1.5-1.9c-0.3-0.8-0.5-1.6-0.5-2.4c0-0.9,0.2-1.7,0.5-2.5
				c0.4-0.8,0.9-1.4,1.6-1.8c0.7-0.4,1.5-0.7,2.5-0.7c1.2,0,2.3,0.4,3.1,1.2c0.8,0.8,1.3,1.9,1.3,3.3c0,0.1,0,0.2,0,0.5H94
				c0,1.2,0.3,2.1,0.8,2.7c0.6,0.6,1.3,1,2.3,1c0.8,0,1.4-0.2,1.9-0.6c0.5-0.4,0.9-0.9,1-1.6h1.5c-0.2,1-0.6,1.8-1.4,2.5
				C99.4,138.5,98.4,138.9,97.2,138.9z M94.1,133.1h6c0-0.3-0.1-0.7-0.3-1.2s-0.5-0.9-0.9-1.2c-0.4-0.3-1-0.5-1.7-0.5
				c-0.7,0-1.2,0.1-1.7,0.4c-0.4,0.3-0.8,0.7-1,1.1C94.3,132.1,94.2,132.6,94.1,133.1z"/>
		</g>
		<g class="st4">
			<path class="st2" d="M34.8,160.6v-13.5h5c1.7,0,3.1,0.3,4.1,0.9s1.5,1.6,1.5,3.1c0,1.1-0.3,2-0.8,2.7c-0.5,0.7-1.3,1-2.3,1
				c0.6,0,1,0.1,1.3,0.4c0.3,0.2,0.5,0.6,0.6,0.9c0.1,0.4,0.2,0.8,0.2,1.2c0,0.4,0.1,0.8,0.2,1.1c0.1,0.3,0.2,0.5,0.4,0.7
				c0.2,0.1,0.6,0.1,1-0.1v1.4c-0.3,0.3-0.7,0.4-1.1,0.5s-0.8,0.1-1.2-0.1c-0.4-0.1-0.7-0.4-1-0.9c-0.3-0.4-0.4-1-0.4-1.8
				c0-0.7,0-1.3-0.1-1.7c-0.1-0.4-0.3-0.7-0.6-1s-0.8-0.3-1.5-0.4c-0.7,0-1.6-0.1-2.8-0.1v5.6H34.8z M37.3,153.3h2.4
				c0.8,0,1.4,0,1.9-0.1c0.5-0.1,0.9-0.2,1.1-0.5s0.4-0.7,0.4-1.4c0-0.7-0.2-1.2-0.5-1.5s-0.7-0.5-1.3-0.6s-1.3-0.1-2.1-0.1h-1.9
				V153.3z"/>
			<path class="st2" d="M52.6,163.2l0.1-2.4c-0.8-0.1-1.5-0.3-2.2-0.7c-0.7-0.4-1.3-0.9-1.8-1.5c-0.5-0.6-0.8-1.5-0.9-2.5l2.4-0.4
				c0,0,0,0.2,0.1,0.5s0.2,0.6,0.4,1c0.2,0.4,0.6,0.7,1,1s1.1,0.4,1.9,0.4c0.9,0,1.5-0.2,2-0.6c0.4-0.4,0.7-0.7,0.7-1.1
				c0-0.4-0.1-0.8-0.4-1.1c-0.3-0.3-0.7-0.5-1.2-0.7s-1-0.3-1.6-0.5c-0.6-0.1-1.2-0.3-1.8-0.5s-1.1-0.4-1.6-0.7
				c-0.5-0.3-0.9-0.7-1.1-1.2c-0.3-0.5-0.4-1.1-0.3-1.9c0-1,0.5-1.8,1.2-2.4c0.8-0.6,1.8-1,3.2-1.1l-0.1-2.4H55l-0.1,2.5
				c0.8,0.1,1.4,0.4,2,0.8c0.6,0.4,1.1,0.9,1.4,1.5c0.4,0.6,0.5,1.4,0.5,2.3l-2.3,0.3c0-0.6-0.1-1.1-0.4-1.5
				c-0.2-0.4-0.6-0.6-0.9-0.8s-0.7-0.3-1.1-0.3c-0.4,0-0.7-0.1-0.9-0.1c-0.6,0-1.2,0.1-1.7,0.4s-0.8,0.7-0.8,1.2
				c0,0.5,0.2,0.8,0.5,1.1s0.7,0.5,1.2,0.7s1.1,0.3,1.6,0.5c0.6,0.1,1.2,0.3,1.8,0.5s1.1,0.4,1.6,0.7s0.9,0.7,1.2,1.2
				c0.3,0.5,0.4,1.1,0.3,1.9c-0.1,1-0.5,1.8-1.3,2.4c-0.8,0.6-1.7,1-2.9,1.1l0.1,2.4H52.6z"/>
			<path class="st2" d="M66.3,160.9c-1.1,0-2-0.2-2.7-0.6c-0.7-0.4-1.3-0.8-1.7-1.4c-0.4-0.6-0.7-1.2-0.8-1.9l2.4-0.3
				c0,0.1,0.1,0.3,0.2,0.5c0.1,0.2,0.3,0.5,0.5,0.7s0.5,0.5,0.9,0.6c0.4,0.2,0.8,0.3,1.4,0.3c0.9,0,1.6-0.3,2.1-0.8
				c0.5-0.5,0.7-1.1,0.8-1.8c0-0.5,0-0.9-0.2-1.4c-0.2-0.4-0.5-0.8-0.9-1.1c-0.4-0.3-1-0.4-1.6-0.4c-0.6,0-1.1,0.1-1.5,0.3
				c-0.4,0.2-0.6,0.4-0.8,0.7c-0.2,0.2-0.2,0.3-0.3,0.4l-2.5-0.4l0.7-7.1H71v2.1h-7.1l-0.5,4.3c0,0,0.1-0.1,0.2-0.3
				c0.1-0.2,0.4-0.4,0.6-0.6s0.7-0.5,1.2-0.6s1-0.3,1.7-0.3c1.1,0,2,0.2,2.6,0.7c0.7,0.4,1.2,1,1.5,1.7c0.3,0.7,0.4,1.4,0.4,2.2
				c-0.1,0.8-0.3,1.5-0.7,2.2c-0.4,0.7-1,1.3-1.8,1.7C68.3,160.6,67.4,160.9,66.3,160.9z"/>
			<path class="st2" d="M79.2,160.9c-2,0-3.5-0.6-4.4-1.9s-1.4-3-1.4-5.1c0-1.4,0.2-2.7,0.6-3.7s1-1.8,1.9-2.4
				c0.9-0.5,2-0.8,3.3-0.8c2,0,3.5,0.6,4.4,1.8c0.9,1.2,1.4,2.9,1.4,5c0,1.4-0.2,2.6-0.6,3.7c-0.4,1.1-1.1,1.9-1.9,2.4
				C81.6,160.6,80.5,160.9,79.2,160.9z M79.2,158.8c1.2,0,2.1-0.4,2.7-1.2c0.6-0.8,0.9-2.1,0.9-3.7s-0.3-2.8-0.9-3.6
				c-0.6-0.8-1.5-1.2-2.7-1.2c-1.2,0-2.1,0.4-2.7,1.1s-0.9,2-0.9,3.7c0,1.6,0.3,2.9,0.9,3.7C77,158.4,77.9,158.8,79.2,158.8z"/>
			<path class="st2" d="M92.2,160.9c-2,0-3.5-0.6-4.4-1.9s-1.4-3-1.4-5.1c0-1.4,0.2-2.7,0.6-3.7s1-1.8,1.9-2.4
				c0.9-0.5,2-0.8,3.3-0.8c2,0,3.5,0.6,4.4,1.8c0.9,1.2,1.4,2.9,1.4,5c0,1.4-0.2,2.6-0.6,3.7c-0.4,1.1-1.1,1.9-1.9,2.4
				C94.7,160.6,93.6,160.9,92.2,160.9z M92.2,158.8c1.2,0,2.1-0.4,2.7-1.2c0.6-0.8,0.9-2.1,0.9-3.7s-0.3-2.8-0.9-3.6
				c-0.6-0.8-1.5-1.2-2.7-1.2c-1.2,0-2.1,0.4-2.7,1.1s-0.9,2-0.9,3.7c0,1.6,0.3,2.9,0.9,3.7C90.1,158.4,91,158.8,92.2,158.8z"/>
		</g>
		<g class="st4">
			<path class="st2" d="M34.4,182.6v-9.9h2.1l0,2.1h0c0-0.1,0.1-0.2,0.2-0.4c0.1-0.2,0.3-0.5,0.5-0.7c0.2-0.3,0.5-0.5,0.9-0.7
				c0.4-0.2,0.8-0.3,1.4-0.3c0.8,0,1.4,0.2,1.8,0.6c0.4,0.4,0.7,0.9,0.9,1.5h0c0-0.1,0.1-0.2,0.2-0.4c0.1-0.2,0.3-0.5,0.6-0.7
				c0.2-0.3,0.6-0.5,0.9-0.7c0.4-0.2,0.9-0.3,1.4-0.3c0.6,0,1.1,0.1,1.5,0.4c0.4,0.3,0.7,0.6,0.9,1s0.4,0.8,0.5,1.3
				c0.1,0.5,0.1,0.9,0.1,1.3c0,0.4,0,0.8,0,1v4.8h-2.1v-4.8c0-0.2,0-0.5,0-0.9c0-0.3-0.1-0.6-0.2-1c-0.1-0.3-0.3-0.6-0.6-0.8
				s-0.6-0.3-1.1-0.3c-0.6,0-1,0.1-1.3,0.4s-0.5,0.7-0.6,1.1s-0.2,0.9-0.2,1.4v4.7h-2.1v-4.8c0-0.2,0-0.5,0-0.9c0-0.3-0.1-0.6-0.2-1
				c-0.1-0.3-0.3-0.6-0.6-0.8s-0.6-0.3-1.1-0.3c-0.6,0-1,0.1-1.3,0.4s-0.5,0.7-0.6,1.1c-0.1,0.5-0.2,0.9-0.2,1.4v4.7H34.4z"/>
			<path class="st2" d="M51.8,171.7c-0.5,0-0.9-0.1-1-0.4s-0.3-0.6-0.3-0.9c0-0.4,0.1-0.7,0.3-0.9c0.2-0.3,0.5-0.4,1-0.4
				c0.5,0,0.8,0.1,1,0.4s0.3,0.6,0.3,0.9c0,0.4-0.1,0.7-0.3,0.9S52.3,171.7,51.8,171.7z M50.6,182.6v-9.9H53v9.9H50.6z"/>
			<path class="st2" d="M55.4,182.6v-13.5h2.4v13.5H55.4z"/>
			<path class="st2" d="M60,182.6v-13.5h2.5v5.8h0c0,0,0.1-0.2,0.2-0.4c0.1-0.2,0.3-0.5,0.5-0.7c0.2-0.3,0.6-0.5,1-0.7
				c0.4-0.2,0.9-0.3,1.5-0.3c0.9,0,1.5,0.2,2,0.5c0.5,0.4,0.9,0.8,1.1,1.4s0.4,1.1,0.4,1.7s0.1,1.1,0.1,1.5v4.8H67v-4.8
				c0-0.5-0.1-1-0.2-1.5c-0.1-0.4-0.3-0.8-0.6-1.1c-0.3-0.3-0.8-0.4-1.4-0.4s-1.1,0.1-1.4,0.4c-0.3,0.3-0.6,0.7-0.7,1.1
				s-0.2,0.9-0.2,1.5v4.7H60z"/>
			<path class="st2" d="M76,182.9c-1.1,0-2-0.2-2.8-0.6c-0.7-0.4-1.3-1-1.7-1.8c-0.4-0.8-0.6-1.6-0.6-2.6c0-1.5,0.4-2.7,1.2-3.6
				s2.1-1.4,3.8-1.4c1.6,0,2.8,0.5,3.7,1.4s1.3,2.2,1.3,3.7c0,0.9-0.2,1.8-0.5,2.6c-0.4,0.8-0.9,1.4-1.6,1.8
				C78.1,182.6,77.2,182.9,76,182.9z M77.3,171.3c-0.4,0-0.7-0.1-1-0.2c-0.2-0.1-0.4-0.3-0.6-0.5c-0.2-0.2-0.3-0.3-0.4-0.5
				c-0.1-0.1-0.3-0.2-0.5-0.2c-0.3,0-0.4,0.1-0.5,0.3c-0.1,0.2-0.1,0.6-0.1,1h-1.5c0-0.3,0-0.6,0-0.9c0-0.3,0.1-0.6,0.2-0.9
				c0.1-0.3,0.3-0.5,0.5-0.7s0.6-0.3,1.1-0.3c0.4,0,0.7,0.1,1,0.2s0.4,0.3,0.6,0.5c0.2,0.2,0.3,0.3,0.4,0.5c0.1,0.1,0.3,0.2,0.5,0.2
				c0.3,0,0.4-0.1,0.5-0.3c0-0.2,0.1-0.6,0.1-1h1.4c0,0.4,0,0.9-0.1,1.3c-0.1,0.4-0.2,0.8-0.5,1.1C78.3,171.2,77.9,171.3,77.3,171.3
				z M76,180.8c0.7,0,1.2-0.2,1.6-0.5c0.4-0.3,0.6-0.7,0.8-1.2c0.1-0.5,0.2-0.9,0.2-1.4c0-0.5-0.1-1-0.2-1.5
				c-0.1-0.5-0.4-0.9-0.8-1.2c-0.4-0.3-0.9-0.5-1.6-0.5c-0.7,0-1.3,0.2-1.6,0.5s-0.6,0.7-0.8,1.2c-0.1,0.5-0.2,1-0.2,1.5
				c0,0.5,0.1,1,0.2,1.4c0.1,0.5,0.4,0.9,0.8,1.2C74.8,180.6,75.3,180.8,76,180.8z"/>
			<path class="st2" d="M87.3,182.9c-1.1,0-2.1-0.2-2.8-0.7c-0.7-0.5-1.2-1.1-1.6-1.9c-0.3-0.8-0.5-1.6-0.5-2.4c0-1,0.2-1.9,0.6-2.7
				c0.4-0.8,1-1.4,1.7-1.8c0.7-0.4,1.6-0.7,2.6-0.7c0.9,0,1.7,0.2,2.4,0.6c0.7,0.4,1.3,0.9,1.7,1.6c0.4,0.7,0.6,1.5,0.6,2.5
				c0,0,0,0.2,0,0.6h-7.2c0,1,0.2,1.7,0.7,2.2s1.1,0.7,1.8,0.7c0.6,0,1.1-0.2,1.5-0.5c0.4-0.3,0.7-0.7,0.7-1.2h2.4
				c-0.1,1-0.6,1.9-1.3,2.6S88.7,182.9,87.3,182.9z M84.8,176.9h4.7c0-0.1-0.1-0.3-0.1-0.5c-0.1-0.2-0.2-0.5-0.3-0.7
				c-0.2-0.3-0.4-0.5-0.7-0.6c-0.3-0.2-0.7-0.3-1.2-0.3c-0.6,0-1.1,0.1-1.5,0.4c-0.3,0.3-0.6,0.6-0.7,0.9
				C84.9,176.4,84.8,176.6,84.8,176.9z"/>
			<path class="st2" d="M98,182.9c-0.4,0-0.9-0.1-1.4-0.2c-0.5-0.1-1-0.4-1.4-0.6c-0.5-0.3-0.8-0.7-1.1-1.1s-0.4-1-0.4-1.6h2.3
				c0,0,0,0.1,0,0.3c0,0.2,0.1,0.4,0.2,0.6c0.1,0.2,0.3,0.4,0.6,0.6c0.3,0.2,0.7,0.3,1.2,0.3c0.6,0,1.1-0.1,1.4-0.3
				c0.3-0.2,0.5-0.5,0.5-0.8c0-0.4-0.1-0.6-0.4-0.8s-0.7-0.4-1.1-0.5s-1-0.3-1.5-0.4c-0.5-0.1-1-0.3-1.5-0.5
				c-0.5-0.2-0.8-0.5-1.1-0.9c-0.3-0.4-0.4-0.9-0.4-1.5c0-0.9,0.4-1.6,1.1-2.1c0.7-0.5,1.7-0.7,2.8-0.7c0.8,0,1.5,0.1,2.2,0.4
				c0.7,0.2,1.2,0.6,1.7,1.2c0.4,0.5,0.6,1.2,0.6,2.1h-2.3c0-0.5-0.1-0.9-0.3-1.1c-0.2-0.2-0.5-0.4-0.9-0.5c-0.3-0.1-0.7-0.1-1-0.1
				c-0.6,0-1,0.1-1.3,0.3c-0.3,0.2-0.4,0.5-0.4,0.8c0,0.4,0.1,0.7,0.4,0.9c0.3,0.2,0.7,0.4,1.2,0.5s1,0.3,1.5,0.4
				c0.5,0.1,1,0.3,1.5,0.5c0.5,0.2,0.9,0.5,1.2,0.9s0.4,0.9,0.4,1.5c0,0.9-0.4,1.6-1.2,2.1S99.2,182.9,98,182.9z"/>
		</g>
		<g class="st4">
			<path class="st2" d="M39,204.9c-1.1,0-2.1-0.2-2.8-0.7c-0.7-0.5-1.2-1.1-1.6-1.9c-0.3-0.8-0.5-1.6-0.5-2.4c0-1,0.2-1.9,0.6-2.7
				c0.4-0.8,1-1.4,1.7-1.8c0.7-0.4,1.6-0.7,2.6-0.7c0.9,0,1.7,0.2,2.4,0.6c0.7,0.4,1.3,0.9,1.7,1.6c0.4,0.7,0.6,1.5,0.6,2.5
				c0,0,0,0.2,0,0.6h-7.2c0,1,0.2,1.7,0.7,2.2s1.1,0.7,1.8,0.7c0.6,0,1.1-0.2,1.5-0.5c0.4-0.3,0.7-0.7,0.7-1.2h2.4
				c-0.1,1-0.6,1.9-1.3,2.6S40.4,204.9,39,204.9z M36.5,198.9h4.7c0-0.1-0.1-0.3-0.1-0.5c-0.1-0.2-0.2-0.5-0.3-0.7
				c-0.2-0.3-0.4-0.5-0.7-0.6c-0.3-0.2-0.7-0.3-1.2-0.3c-0.6,0-1.1,0.1-1.5,0.4c-0.3,0.3-0.6,0.6-0.7,0.9
				C36.6,198.4,36.5,198.6,36.5,198.9z"/>
			<path class="st2" d="M45.5,204.6v-9.9h2.1l0,2.1h0c0-0.1,0.1-0.2,0.2-0.4c0.1-0.2,0.3-0.5,0.5-0.7c0.2-0.3,0.5-0.5,0.9-0.7
				c0.4-0.2,0.8-0.3,1.4-0.3c0.8,0,1.4,0.2,1.8,0.6c0.4,0.4,0.7,0.9,0.9,1.5h0c0-0.1,0.1-0.2,0.2-0.4c0.1-0.2,0.3-0.5,0.6-0.7
				c0.2-0.3,0.6-0.5,0.9-0.7c0.4-0.2,0.9-0.3,1.4-0.3c0.6,0,1.1,0.1,1.5,0.4c0.4,0.3,0.7,0.6,0.9,1s0.4,0.8,0.5,1.3
				c0.1,0.5,0.1,0.9,0.1,1.3c0,0.4,0,0.8,0,1v4.8h-2.1v-4.8c0-0.2,0-0.5,0-0.9c0-0.3-0.1-0.6-0.2-1c-0.1-0.3-0.3-0.6-0.6-0.8
				s-0.6-0.3-1.1-0.3c-0.6,0-1,0.1-1.3,0.4s-0.5,0.7-0.6,1.1s-0.2,0.9-0.2,1.4v4.7h-2.1v-4.8c0-0.2,0-0.5,0-0.9c0-0.3-0.1-0.6-0.2-1
				c-0.1-0.3-0.3-0.6-0.6-0.8s-0.6-0.3-1.1-0.3c-0.6,0-1,0.1-1.3,0.4s-0.5,0.7-0.6,1.1c-0.1,0.5-0.2,0.9-0.2,1.4v4.7H45.5z"/>
			<path class="st2" d="M67.4,204.9c-0.6,0-1.1-0.1-1.5-0.3c-0.4-0.2-0.7-0.4-1-0.7c-0.2-0.3-0.4-0.5-0.6-0.7
				c-0.1-0.2-0.2-0.3-0.2-0.4h0v6.1h-2.5v-14.3h2.1l0.4,2.2h0c0,0,0.1-0.2,0.2-0.4c0.1-0.2,0.3-0.5,0.5-0.7c0.2-0.3,0.6-0.5,1-0.7
				c0.4-0.2,0.9-0.3,1.6-0.3c1.5,0,2.5,0.5,3.2,1.4c0.6,0.9,1,2.2,1,3.7c0,1.5-0.3,2.7-1,3.6C69.9,204.4,68.8,204.9,67.4,204.9z
				 M66.7,202.8c0.7,0,1.2-0.1,1.5-0.4c0.4-0.3,0.6-0.6,0.7-1.1s0.2-0.9,0.2-1.4c0-0.5-0.1-1-0.2-1.4c-0.2-0.4-0.4-0.8-0.8-1.1
				s-0.9-0.4-1.5-0.4c-0.9,0-1.5,0.3-1.9,0.8c-0.4,0.6-0.6,1.2-0.6,2.1c0,0.9,0.2,1.6,0.6,2.1C65.1,202.5,65.8,202.8,66.7,202.8z"/>
			<path class="st2" d="M73.2,204.6v-9.9h2.3l0.2,2.7c0.1-0.4,0.3-0.8,0.6-1.3s0.7-0.8,1.2-1.1c0.5-0.3,1.2-0.4,2-0.4h0.4v2.7h-0.4
				c-1.4,0-2.3,0.2-2.9,0.7s-0.8,1.2-0.8,2.2v4.2H73.2z"/>
			<path class="st2" d="M85.8,204.9c-1.1,0-2.1-0.2-2.8-0.7c-0.7-0.5-1.2-1.1-1.6-1.9c-0.3-0.8-0.5-1.6-0.5-2.4c0-1,0.2-1.9,0.6-2.7
				c0.4-0.8,1-1.4,1.7-1.8c0.7-0.4,1.6-0.7,2.6-0.7c0.9,0,1.7,0.2,2.4,0.6c0.7,0.4,1.3,0.9,1.7,1.6c0.4,0.7,0.6,1.5,0.6,2.5
				c0,0,0,0.2,0,0.6h-7.2c0,1,0.2,1.7,0.7,2.2s1.1,0.7,1.8,0.7c0.6,0,1.1-0.2,1.5-0.5c0.4-0.3,0.7-0.7,0.7-1.2h2.4
				c-0.1,1-0.6,1.9-1.3,2.6S87.1,204.9,85.8,204.9z M83.3,198.9h4.7c0-0.1-0.1-0.3-0.1-0.5c-0.1-0.2-0.2-0.5-0.3-0.7
				c-0.2-0.3-0.4-0.5-0.7-0.6c-0.3-0.2-0.7-0.3-1.2-0.3c-0.6,0-1.1,0.1-1.5,0.4c-0.3,0.3-0.6,0.6-0.7,0.9
				C83.4,198.4,83.3,198.6,83.3,198.9z"/>
			<path class="st2" d="M96.4,204.9c-0.4,0-0.9-0.1-1.4-0.2c-0.5-0.1-1-0.4-1.4-0.6s-0.8-0.7-1.1-1.1s-0.4-1-0.4-1.6h2.3
				c0,0,0,0.1,0,0.3c0,0.2,0.1,0.4,0.2,0.6c0.1,0.2,0.3,0.4,0.6,0.6c0.3,0.2,0.7,0.3,1.2,0.3c0.6,0,1.1-0.1,1.4-0.3s0.5-0.5,0.5-0.8
				c0-0.4-0.1-0.6-0.4-0.8s-0.7-0.4-1.1-0.5c-0.5-0.1-1-0.3-1.5-0.4c-0.5-0.1-1-0.3-1.5-0.5c-0.5-0.2-0.8-0.5-1.1-0.9
				c-0.3-0.4-0.4-0.9-0.4-1.5c0-0.9,0.4-1.6,1.1-2.1c0.7-0.5,1.7-0.7,2.8-0.7c0.8,0,1.5,0.1,2.2,0.4c0.7,0.2,1.2,0.6,1.7,1.2
				s0.6,1.2,0.6,2.1h-2.3c0-0.5-0.1-0.9-0.3-1.1c-0.2-0.2-0.5-0.4-0.9-0.5c-0.3-0.1-0.7-0.1-1-0.1c-0.6,0-1,0.1-1.3,0.3
				s-0.4,0.5-0.4,0.8c0,0.4,0.1,0.7,0.4,0.9s0.7,0.4,1.2,0.5c0.5,0.1,1,0.3,1.5,0.4c0.5,0.1,1,0.3,1.5,0.5c0.5,0.2,0.9,0.5,1.2,0.9
				c0.3,0.4,0.4,0.9,0.4,1.5c0,0.9-0.4,1.6-1.2,2.1C98.7,204.6,97.6,204.9,96.4,204.9z"/>
			<path class="st2" d="M105.4,204.6c-0.8,0-1.4-0.2-1.8-0.6c-0.4-0.4-0.6-1-0.6-1.9v-5.7h-1.5v-1.7c0.5,0,0.8,0,1.1-0.1
				c0.3-0.1,0.4-0.3,0.6-0.7c0.1-0.4,0.2-0.9,0.2-1.7h2v2.5h2.3v1.7h-2.3v6.2h2.3v1.9H105.4z"/>
			<path class="st2" d="M112.9,204.9c-1.4,0-2.3-0.5-2.9-1.4c-0.6-0.9-0.9-2.1-0.9-3.6c0-1.5,0.3-2.7,0.9-3.7s1.5-1.4,2.9-1.4
				c0.8,0,1.4,0.1,1.8,0.4c0.4,0.3,0.8,0.5,1,0.9c0.2,0.3,0.4,0.6,0.4,0.7l0,0v-2h2.5v9.9h-2.1l-0.4-1.6h0c0,0.1-0.2,0.4-0.4,0.7
				c-0.2,0.3-0.6,0.6-1,0.8S113.6,204.9,112.9,204.9z M113.9,202.8c0.9,0,1.5-0.3,1.8-0.9c0.3-0.6,0.5-1.3,0.5-2.1
				c0-0.9-0.2-1.6-0.5-2.1c-0.3-0.5-0.9-0.8-1.8-0.8c-0.6,0-1.1,0.1-1.5,0.4c-0.3,0.3-0.6,0.6-0.7,1.1c-0.1,0.4-0.2,0.9-0.2,1.5
				c0,0.5,0.1,1,0.2,1.5c0.1,0.4,0.4,0.8,0.7,1.1C112.8,202.7,113.3,202.8,113.9,202.8z"/>
			<path class="st2" d="M124.6,204.9c-1.5,0-2.5-0.5-3.1-1.4s-0.9-2.1-0.9-3.6c0-1.6,0.3-2.8,1-3.7c0.6-0.9,1.7-1.4,3.1-1.4
				c0.6,0,1.1,0.1,1.6,0.3c0.4,0.2,0.8,0.4,1,0.7c0.2,0.3,0.4,0.5,0.5,0.7c0.1,0.2,0.2,0.4,0.2,0.4h0v-5.8h2.5v13.5h-2.1l-0.4-1.8h0
				c0,0-0.1,0.2-0.2,0.4c-0.1,0.2-0.3,0.4-0.6,0.7c-0.3,0.3-0.6,0.5-1,0.7S125.2,204.9,124.6,204.9z M125.4,202.8
				c0.9,0,1.6-0.3,2-0.8c0.4-0.6,0.6-1.3,0.6-2.1c0-0.8-0.2-1.5-0.6-2.1c-0.4-0.6-1-0.8-1.9-0.8c-0.7,0-1.2,0.1-1.5,0.4
				s-0.6,0.6-0.8,1.1c-0.1,0.4-0.2,0.9-0.2,1.4c0,0.5,0.1,1,0.2,1.4s0.4,0.8,0.7,1.1C124.2,202.7,124.7,202.8,125.4,202.8z"/>
			<path class="st2" d="M137.2,204.9c-1.1,0-2-0.2-2.8-0.6c-0.7-0.4-1.3-1-1.7-1.8c-0.4-0.8-0.6-1.6-0.6-2.6c0-1.5,0.4-2.7,1.2-3.6
				s2.1-1.4,3.8-1.4c1.6,0,2.8,0.5,3.7,1.4s1.3,2.2,1.3,3.7c0,0.9-0.2,1.8-0.5,2.6c-0.4,0.8-0.9,1.4-1.6,1.8
				C139.2,204.6,138.3,204.9,137.2,204.9z M137.2,202.8c0.7,0,1.2-0.2,1.6-0.5c0.4-0.3,0.6-0.7,0.8-1.2c0.1-0.5,0.2-0.9,0.2-1.4
				c0-0.5-0.1-1-0.2-1.5c-0.1-0.5-0.4-0.9-0.8-1.2s-0.9-0.5-1.6-0.5c-0.7,0-1.3,0.2-1.6,0.5s-0.6,0.7-0.8,1.2
				c-0.1,0.5-0.2,1-0.2,1.5c0,0.5,0.1,1,0.2,1.4c0.1,0.5,0.4,0.9,0.8,1.2C135.9,202.6,136.4,202.8,137.2,202.8z"/>
			<path class="st2" d="M148,204.9c-0.4,0-0.9-0.1-1.4-0.2c-0.5-0.1-1-0.4-1.4-0.6s-0.8-0.7-1.1-1.1s-0.4-1-0.4-1.6h2.3
				c0,0,0,0.1,0,0.3c0,0.2,0.1,0.4,0.2,0.6c0.1,0.2,0.3,0.4,0.6,0.6c0.3,0.2,0.7,0.3,1.2,0.3c0.6,0,1.1-0.1,1.4-0.3s0.5-0.5,0.5-0.8
				c0-0.4-0.1-0.6-0.4-0.8s-0.7-0.4-1.1-0.5c-0.5-0.1-1-0.3-1.5-0.4c-0.5-0.1-1-0.3-1.5-0.5c-0.5-0.2-0.8-0.5-1.1-0.9
				c-0.3-0.4-0.4-0.9-0.4-1.5c0-0.9,0.4-1.6,1.1-2.1c0.7-0.5,1.7-0.7,2.8-0.7c0.8,0,1.5,0.1,2.2,0.4c0.7,0.2,1.2,0.6,1.7,1.2
				s0.6,1.2,0.6,2.1H150c0-0.5-0.1-0.9-0.3-1.1c-0.2-0.2-0.5-0.4-0.9-0.5c-0.3-0.1-0.7-0.1-1-0.1c-0.6,0-1,0.1-1.3,0.3
				s-0.4,0.5-0.4,0.8c0,0.4,0.1,0.7,0.4,0.9s0.7,0.4,1.2,0.5c0.5,0.1,1,0.3,1.5,0.4c0.5,0.1,1,0.3,1.5,0.5c0.5,0.2,0.9,0.5,1.2,0.9
				c0.3,0.4,0.4,0.9,0.4,1.5c0,0.9-0.4,1.6-1.2,2.1C150.3,204.6,149.2,204.9,148,204.9z"/>
		</g>
	</g>
</g>
</svg>
