<?xml version="1.0" encoding="UTF-8"?>
<svg id="Camada_1" data-name="Camada 1" xmlns="http://www.w3.org/2000/svg" viewBox="0 0 1920 1080">
  <defs>
    <style>
      .cls-1 {
        fill: #525252;
      }
    </style>
  </defs>
  <path class="cls-1" d="M0,389.93c2.19-.1,3.93-.25,5.66-.25,54.05-.01,108.1-.64,162.14,.21,36.05,.57,63.67,17.38,79.34,50.15,15.35,32.1,12.88,63.75-8.23,93-9.45,13.1-22.55,21.91-38.09,28.11,42.85,30.76,58.38,73.81,60.03,124.22h-49.5c-3.41-76.12-41.86-114.72-120.24-109.16v-42.9c13.11,0,25.88,.26,38.62-.08,11.43-.31,23.14,.14,34.21-2.21,48.8-10.32,50.82-60.85,30.93-82.61-9.1-9.96-20.5-15.84-33.71-16.03-36.83-.52-73.67-.15-110.51-.11-.4,0-.81,.23-1.82,.54v252.49H0V389.93Z"/>
  <path class="cls-1" d="M1004.73,389.93h42.48v106.6c2.27-1.52,3.34-2.13,4.29-2.88,32.34-25.84,68.36-31.12,106.17-15.71,38.85,15.84,61.22,46.25,66.24,87.74,7.01,57.97-26.34,106.66-81.18,120.95-69.57,18.13-137.48-32.85-138.13-104.4-.57-62.55-.12-125.11-.11-187.66,0-1.29,.13-2.58,.24-4.63Zm110.38,121.37c-37.93,.05-67.75,30.34-67.82,68.88-.07,38.14,29.78,68.52,67.4,68.6,38.09,.08,67.65-30.06,67.59-68.93-.06-38.55-29.5-68.6-67.17-68.55Z"/>
  <path class="cls-1" d="M697.06,497.03v-106.92h42.47v7.17c0,61.02,.03,122.03,0,183.05-.04,58.27-43.35,104.95-101.48,109.44-58.48,4.52-109.01-35.17-117.9-92.6-9.27-59.89,29.56-115.24,89.18-125.84,29.11-5.17,56.04,1.46,79.83,19.47,2.24,1.7,4.42,3.47,7.92,6.23Zm-135.11,83.32c0,38.49,29.4,68.36,67.33,68.43,37.47,.07,67.62-30.42,67.68-68.43,.05-38.63-30.16-69.11-68.43-69.05-37.58,.06-66.58,30.14-66.57,69.05Z"/>
  <path class="cls-1" d="M1463.61,597.18h-172.84c2.93,14.93,9.84,26.87,20.84,36.08,23.53,19.7,50.25,21.42,78.38,12.26,13.89-4.52,25.37-13,35.7-23.94,10.02,8.99,19.79,17.76,30.36,27.25-3.82,3.54-7.27,7.08-11.07,10.2-39.29,32.34-83.53,39.76-130.76,22.48-50.11-18.33-74.6-66.45-67-118.07,8.76-59.46,58.14-97.85,118.08-93.43,61.33,4.52,101.39,49.54,99.47,111.85-.15,4.82-.72,9.62-1.16,15.32Zm-42.59-36.89c-.2-26-28.02-49.81-59.66-51.2-41.52-1.82-66.12,26.86-69.69,51.2h129.35Z"/>
  <path class="cls-1" d="M872.72,469.87c63.54,0,111.04,47.28,111.02,110.5-.02,62.7-47.59,109.57-111.13,109.64-65.2,.07-110.91-50.71-109.73-112.05,1.18-61.4,47.62-108.09,109.84-108.09Zm68.21,110.24c-.03-39.28-29.38-68.83-68.33-68.8-38.65,.03-67.04,29.66-66.95,69.89,.09,38.17,29.65,67.81,67.39,67.59,38.67-.23,67.92-29.82,67.89-68.68Z"/>
  <path class="cls-1" d="M387.38,469.87c63.01,0,110.5,47.09,111.03,110.08,.52,62.34-47.9,110.07-111.65,110.04-62.88-.03-109.5-47.04-109.39-110.32,.1-63.03,46.97-109.8,110.01-109.8Zm68.19,111.19c1.04-37.19-28.36-68.75-64.97-69.75-39.38-1.07-69.71,27.4-70.65,66.32-.96,39.82,27.06,70.07,65.9,71.15,38.38,1.07,68.62-28.31,69.72-67.72Z"/>
  <path class="cls-1" d="M1715.93,659.62c4.71-11.8,9.42-23.59,13.76-34.46,14.7,6.5,28.76,13.93,43.62,19.03,25.4,8.71,51.66,11.53,78.04,4.6,6.77-1.78,13.68-5.43,18.94-10.03,11.36-9.95,9.11-24.96-5.01-30.04-15.24-5.47-31.27-8.88-47.1-12.59-16.5-3.87-33.19-6.93-49.74-10.57-4.71-1.04-9.33-2.66-13.85-4.38-18.26-6.96-31.77-18.37-34.01-39.05-2.45-22.61,3.91-41.95,23.25-55.48,18.05-12.63,38.88-16.04,60.26-16.71,34.03-1.07,66.54,5.64,97.6,19.69,4.91,2.22,5.91,4.46,4.1,9.43-3.36,9.25-6.05,18.74-9.04,28.23-11.74-4.29-22.85-8.95-34.32-12.41-23.69-7.14-47.93-9.61-72.53-5.93-5.16,.77-10.36,2.32-15.14,4.41-7.07,3.09-11.99,8.42-11.98,16.68,.02,8.04,4.8,13.53,11.8,16,10.32,3.64,20.99,6.43,31.65,8.94,21.84,5.14,43.95,9.19,65.58,15.06,9.79,2.65,19.32,7.61,27.9,13.17,28.23,18.26,24.25,59.03,4.88,79.01-15.71,16.2-35.69,23.26-57.22,26.06-45.94,5.97-88.91-3.52-128.9-26.74-.74-.43-1.38-1.03-2.54-1.91Z"/>
  <path class="cls-1" d="M1695.18,685.46h-42.58v-7.66c0-34.79,.4-69.59-.24-104.38-.2-10.6-1.74-21.71-5.33-31.61-8.39-23.1-32.36-34.94-59.45-31.06-35.34,5.06-56.98,30.87-57.15,68.53-.14,32.59-.03,65.18-.03,97.77v8.27h-42.33v-210.46h39.19v25.47c5.55-4.46,9.95-8.35,14.7-11.76,34.76-24.96,88.42-25.38,119.7-.86,20.37,15.97,29.38,38.09,32.02,62.92,1.49,13.96,1.35,28.12,1.45,42.19,.2,28.41,.06,56.81,.06,85.22v7.4Z"/>
</svg>