<?xml version="1.0" encoding="UTF-8"?>
<svg id="Camada_1" data-name="Camada 1" xmlns="http://www.w3.org/2000/svg" viewBox="0 0 1920 1080">
  <defs>
    <style>
      .cls-1 {
        font-size: 121.55px;
      }

      .cls-1, .cls-2 {
        fill: #0a3300;
      }

      .cls-3, .cls-4 {
        letter-spacing: -.02em;
      }

      .cls-3, .cls-5, .cls-6, .cls-7 {
        font-family: Niva-Alt-Book, Niva-Alt-Book;
      }

      .cls-4 {
        font-family: Niva-Book, Niva-Book;
      }

      .cls-5 {
        letter-spacing: -.02em;
      }

      .cls-6 {
        letter-spacing: -.04em;
      }

      .cls-7 {
        letter-spacing: -.04em;
      }
    </style>
  </defs>
  <g>
    <path class="cls-2" d="M941.69,72.87c-16.93-10.52-17.31-10.69-30.18,4.43-3.98,4.68-7.65,4.6-11.81,1.74-3.75-2.58-6.86-6.07-10.46-8.89-12.81-10.02-23.94-7-29.94,8.04-1.5,3.77-2.59,7.72-4.3,11.39-2.61,5.59-5.4,10.46-13.46,8.94-13.95-2.64-27.14-3.14-34.97,12.91-2.37,4.86-8.4,8.23-15.39,5.87-9.68-3.26-17.95-.15-25.3,6.43-3.01,2.7-5.82,5.66-10.64,5.38-8.6-.5-10.91,4.67-10.59,12.32,.42,10.03-6.1,13.15-14.41,11.86-12.51-1.94-23.31-2.38-30.07,11.48-3.75,7.69-9.9,3.8-15.01,.12-14.28-10.29-17.82-9.81-29.47,3.47-10.9,12.41-23.08,22.02-41.25,18.48-3.75-.73-8.64,.03-9.6,3.66-4.65,17.56-27.38,12.48-33.87,27.61-.93,2.18-3.97,.86-6.08-.35-1.95-1.13-5.06-3.2-6.12-2.5-14.8,9.73-36.61-.23-48.49,17.28-1.53,2.26-3.11,5.75-6.09,4.3-11.71-5.68-23.99-.86-32.99,3.18-10.97,4.92-23.23,9.68-32.53,18.47-2.63,2.49-5.18,5.13-8.11,7.21-13.79,9.74-15.5,22.46-2.63,33.99,9.88,8.85,10.36,13.9-1.21,21.66-19.13,12.83-19.31,25.46-10.45,47.4,5.27,13.04,14.14,21.34,22.18,31.45,5.42,6.81,9.73,6.71,16.21,4.18,4.14-1.62,9.01-4.63,10.23,3.15,3.01,19.23,18.01,27.16,32.96,35.18,4.85,2.6,9.79,5.03,14.56,7.75,18.92,10.81,24.94,9.49,31.87-10.67,4.08-11.87,12.69-16.92,21.56-12.6,13.62,6.63,29.35,3.64,42.05,11.91,1.45,.94,4.37,2.12,4.92,1.55,7.26-7.49,18.9-3.98,25.42-8.55,9-6.31,24.38-4.76,27.1-20.51,.72-4.14,8.39-2.34,12.47-.65,18.41,7.63,37.11,6.23,56.56,5.05,56.22-3.43,111.84,.18,164.51,23.23,12.37,5.41,23.25,11.97,29.39,25.22,10.08,21.75,5.75,39.09-14.85,51.87-15.45,9.58-32.54,15.15-50.58,16.23-115.98,6.95-230.77,22.61-344.53,46-3.96,.82-6.96,.74-10.22-1.47-59.03-39.99-110.94-86.71-136.11-155.67-29.62-81.16-8.34-153.12,44.8-217.62,42.2-51.22,96.18-87.42,155.38-115.74C722.56,16.08,882.39-5.92,1047.34,1.3c91.13,3.99,180.47,18.9,267.08,47.87,88.27,29.52,170.56,69.88,236.19,138.03,42.26,43.88,70.37,94.97,72.57,157.31,1.88,53.12-17.1,99.66-48.62,141.41-24.22,32.07-53.93,58.59-86.7,81.73-4.04,2.85-7.49,5.66-13.61,3.81-52.13-15.77-106.25-19.82-159.98-25.25-61.56-6.22-123.35-10.28-185.07-14.91-17.77-1.33-35.69,1.38-53.47-2.26-30.14-6.17-43.69-20.66-46.3-51.18-1.44-16.88,6.85-29.89,20.07-38.31,43.84-27.92,91.32-44.93,144.17-40.01,13.49,1.26,27,4.25,40.64,5.77,11.23,1.25,17.04,11.76,26.18,16.87,7.95,4.44,15.5,12.48,16.85-6.49,7.36,8.63,14.86,9.93,23.66,7.51,6.42-1.77,13.01-1.78,16.39,5.79,1.68,3.75,4.24,3.83,7.84,3.13,26.15-5.07,49.65-1.46,71.89,15.6,10.49,8.04,25.98,9.64,39.3,13.86,2.98,.94,6.66-.12,9.52,1,18.67,7.34,32.13-.88,42.75-14.95,6.63-8.79,20.03-9.31,23.87-21.37,.99-3.11,4.59,.52,6.65,1.77,5.1,3.08,10.04,7.12,16.26,6.67,8.54-.61,16.84-1.56,13.49-14.52-2.04-7.9-.16-14.96,11.04-10.72,4,1.51,4.88-.9,4.94-3.91,.08-4.11-.26-8.23-.32-12.35-.13-8.84-4.05-17.58,6.94-24.79,7.63-5.01,4.96-23.96-2.79-29.95-20.47-15.83-29.43-37.78-34.69-62-1.26-5.8-2.61-12.23-11.54-9.61-1.87,.55-5.74-.06-6.19-1.16-4.84-11.79-18.84-11.12-26.18-19.58-2.79-3.21-7.18-5.27-12.46-4.05-7.29,1.68-12.39-1.47-14.38-8.82-.67-2.46-2.03-3.79-4.27-4.82-19.93-9.21-38.28-6.48-54.82,8.88-5.29,4.91-10.93,3.61-16.76,2.8-7.23-1.01-3.97-6.9-4.92-10.86-.74-3.07-.75-7.23-2.76-8.92-14.3-12.02-27.66-26.58-47.96-27.29-9.59-.33-7.6-6.75-9.6-11.82-2.65-6.71,2.62-15.93-4.61-20.42-9.56-5.95-21.14-5.07-32.07-5.9-.45-.03-1.24-.13-1.32,.05-6.31,13.96-23.58,9.78-32.37,19.51-7.49,8.29-14.02,6.71-19.52-3.05-5.07-9-6.74-19.07-10.4-27.84-4.58-10.98-17.19-19.45-30.92-20.89-12.29-1.29-22.21-4.44-26.6-17.52-1.74-5.17-7.36-8.33-12.17-7.49-18.61,3.28-26.94-9.67-36.43-21.33-7.59-9.33-20.87-9.09-27.68,.88-5.93,8.67-10.51,10-17.5,.65-4.11-5.5-10.63-11.55-17.44-1.72-4.47,6.45-7.3,.44-9.2-1.95-8.37-10.5-16.81-13.85-29.45-5.63-7.62,4.96-15.53-.36-22.45-5.54-12.79-9.58-42.95-3.45-50.44,9.87Z"/>
    <path class="cls-2" d="M1452.43,880.16h-62.82c11.84-10,12.36-22.31,12.57-35.29,.89-54.84,2.4-109.66,3.77-168.02,64.35,48.48,126.53,95.34,188.59,142.1,4.92-4.13,3.04-8.56,2.98-12.34-.5-32.51-1.31-65.02-1.89-97.53-.21-11.86,.67-23.97-14.82-32.03h72.64c-23.87,12.56-23.34,30.91-23.07,50.13,.69,49,.24,98.01,.25,147.01,0,3.94,0,7.89,0,11.9-6.6,.13-9.27-4.17-12.67-6.83-56.31-44.03-112.48-88.24-168.81-132.23-3.29-2.57-6.33-8.46-11.2-5.61-3.6,2.1-1.45,7.61-1.47,11.56-.14,31.6,.06,63.2-.15,94.8-.08,11.99-1.03,24,16.1,32.38Z"/>
    <path class="cls-2" d="M594.07,767c11.46,.45,22.9,1.01,34.18-1.97,16.26-4.28,24.93-13.56,26.93-29.11,2.04-15.79-3.72-26.48-19.25-34.34-22.07-11.18-45.98-11.07-69.89-10.93-6.29,.04-7.47,3.43-7.54,8.77-.63,50.86-1.39,101.71-2.14,152.57-.18,12.31,12.87,13.89,19.17,22.66h-68.93c9.91-6.38,10.23-14.82,10.18-23.99-.3-49.03-.36-98.06,.03-147.08,.09-10.69-.44-20.17-13.31-25.71,11.21-5.92,21.79-4.39,31.68-5.22,38.96-3.26,77.88-3.82,116.14,6.33,9.35,2.48,18.24,6.02,26.35,11.41,23.79,15.81,27.49,47.04,7.92,67.81-7.69,8.15-17.27,13.52-27.47,17.87-19.56,8.33-19.41,8.2-5.07,24.94,23.8,27.79,50.13,52.92,82.09,76.45-22.61,1.22-40.72,2.34-58.15-11.64-35.28-28.29-67.21-59.46-94.41-95.51,1.95-7.6,7.31-3.41,11.49-3.31Z"/>
    <path class="cls-2" d="M244.6,766.99c13.27,.35,26.61,1.52,39.5-2.97,13.83-4.82,21.93-14.04,23.4-29.08,1.48-15.12-4.69-25.78-17.73-32.63-22.79-11.97-47.61-11.94-72.43-11.59-5.78,.08-6.27,3.99-6.33,8.46-.69,51.28-1.39,102.56-2.21,153.84-.17,10.46,9.74,13.4,15.17,21.25h-64.68c9.68-6.07,10.11-14.58,10.05-23.89-.31-47.62-.32-95.25-.02-142.87,.07-12.03,.77-23.74-12.53-31.07,53.04-6.18,105.35-11.38,156.65,5.86,20.25,6.81,35.48,18.84,36.53,42.89,1.03,23.7-12.75,37.22-31.57,47.15-19.32,10.2-40.57,14.16-61.99,16.83-13.42,1.68-14.04-12.29-21.1-18.44,.82-6.93,5.48-4.3,9.31-3.74Z"/>
    <path class="cls-2" d="M878.75,670.63c46.39,68.62,86.9,139.21,133.85,204.94h-64.86c13.59-12.42,4.36-22.95-1.81-33.96-20.59-36.71-41.28-73.37-61.53-110.26-5.28-9.63-8.14-9.94-13.61,.04-21.99,40.12-44.53,79.93-67.01,119.77-4.15,7.36-7.22,14.72-3.59,24.05h-50.91c42.69-67.45,85.55-135.18,129.47-204.58Z"/>
    <path class="cls-2" d="M1003.44,701.07q-3.38-30.35,24.38-30.48c62.37-.41,124.73-.7,187.1-1.52,9.33-.12,13.36,1.96,12.38,11.96-.84,8.61-.17,17.36-.17,29.45-24.39-28.27-55.2-17.13-83.4-19.49-6.74-.56-8.67,2.7-8.71,8.97-.3,49.48-.91,98.96-1.16,148.44-.05,9.58,6.19,16.86,11.73,25.69h-65.12c11.1-7.53,10.12-17.79,10.25-27.79,.64-46.73,1.1-93.46,2.15-140.18,.2-9.07-1.56-13.34-11.76-13.09-16.49,.4-33-.56-49.51-.92-9.81-.22-19.09,1.52-28.16,8.96Z"/>
    <path class="cls-2" d="M868.9,561.26c89.09-19.14,197.08-11.47,250.68,4.21-28.37,8.07-55.19,16.56-80.55,28.95-17.39,8.5-34.22,17.91-45.9,33.92-4.58,6.29-6.76,2.86-10.05-.77-30.68-33.9-69.25-53.22-113.9-61.2-1.92-1.6-1.89-3.31-.29-5.11Z"/>
    <path class="cls-2" d="M1700.25,874.14c15.51-9.61,15.18-22.91,14.84-36.91-1.05-43.51-1.67-87.05-1.75-130.57-.02-13.89-1.24-26.36-19.01-35.15h78.46c-24.42,13.09-20.15,33.26-19.58,52.39,1.23,41.22,2.57,82.44,3.56,123.66,.24,10.01,1.73,19.08,13.89,26.58h-70.41Z"/>
    <path class="cls-2" d="M457.06,874.8h-67.06c15.6-10.38,15.68-23.85,15.28-38.38-1.24-44.36-1.76-88.75-1.9-133.13-.04-12.92-2.58-23.58-18.66-31.35h77.3c-22.16,11.88-19.49,30.82-18.85,49.38,1.46,42.07,2.73,84.15,3.73,126.23,.24,10.06,1.83,19.04,10.17,27.25Z"/>
    <path class="cls-2" d="M1334.14,674.08c-11.38,7.72-16.9,17.58-16.25,32.18,2.09,47.1,3.18,94.25,4.31,141.39,.24,10.05,1.83,19,13.87,26.55h-70.48c15.97-9.83,15.31-23.69,14.96-38.09-1.1-45.31-1.77-90.63-2-135.95-.06-12.38-4.28-21.19-15.4-26.61-.52-2.23,.48-3.49,2.65-3.51,21.42-.22,42.85-.18,64.27-.03,2.64,.02,4.26,1.18,4.08,4.08Z"/>
    <path class="cls-2" d="M1231.15,380.88c-9.93,5.21-18.62,6.68-27.57-.48-5.93-4.74-12.33-5.82-20.27-2.36-10.42,4.55-21.72,1.18-32.55-.32-8.49-1.17-15.63-.2-23.22,4.97-10.88,7.41-23.95,3.03-36.03,2.8-4.46-.08-2.87-4.93-1.2-7.59,3.46-5.52,7.39-10.19-.8-15.75-3.5-2.38-2.92-8.34,2.65-9.26,19.64-3.24,39.67-14.42,58.49,3.24,5.89,5.52,11.9,.16,17.45-2.89,14.84-8.17,26.66-5.06,36.62,8.77,6.34,8.8,18.48,9.87,26.43,18.87Z"/>
    <path class="cls-2" d="M1041.25,406.44c-12.98,.67-18.81,4.91-23,12.88-3.32,6.31-11.58,5.11-17.41,6.01-10.32,1.59-13.17,4.15-6.94,13.69,2.08,3.19,5.69,7.15,2.59,14.8-7.5-15.71-24.22-19.56-31.98-33.39-5.08-9.05-7.28-17.84-2.03-27.12,6.44-11.38,16.28-17.87,29.67-18.09,1.7-.03,4.52,.51,4.97,1.57,7.54,17.62,27.22,17.6,44.13,29.65Z"/>
    <path class="cls-2" d="M773.94,384.82c-22.1-.94-44.18,2.74-65.38-5.64-6.32-2.5-9.44-6.02-13.47-11.24-6.19-8.04-4.17-20.36-15.37-25.89-3.3-1.63,.15-10,2.69-13.48,3.28-4.49,7.25-.09,10.07,2.76,8.75,8.87,22.23,7.84,32.1,16.09,4.75,3.97,13.46,6.25,16.75,12.16,7.41,13.32,22.21,15.75,32.61,25.25Z"/>
    <path class="cls-2" d="M1331.65,403.97c13.9-1.38,25.69-8.8,39.45-11.29,15.24-2.76,32.62,.08,46.15-12.19,5.52-5,14.81-4.25,22.49-3.87,6.71,.33,7.02,6.59,6.94,11.47-.09,5.66-5.28,6.63-9.07,5.53-17.33-5.07-31.86,5.16-47.19,9.04-19.86,5.02-38.97,3.85-58.78,1.32Z"/>
    <path class="cls-2" d="M903.2,376.94c14.29,.14,21.88-15.07,36.65-16.29,3.72-.31,8.06-2.64,12.59-2.52,4.25,.11,10.43-3.32,11.71,2.69,1.05,4.92-4.42,6.82-9.23,7.76-5.09,1-6.07,5.54-5.54,9.63,1.02,7.97-3.79,13.45-6.96,22.19-7.94-19.64-31.16-6.34-39.21-23.47Z"/>
    <path class="cls-2" d="M825.97,376.82c11.34-.39,18.28-5.81,22.39-15.3,1.23-2.84,4.07-5.74,7.67-2.68,8.17,6.94,18.74,11.34,22.64,22.84,1.65,4.86,.55,8.47-3.81,6.72-12.48-5.01-25.37,1.77-37.69-2.55-4.41-1.55-8.32-3.17-11.2-9.03Z"/>
    <path class="cls-2" d="M647.9,385.85c-17.49,9.81-26.61,9.11-39.57-2.59-3.13-2.83-6.44-2.62-9.97-3.34-3.68-.75-9.98,1.24-9.24-6.47,.75-7.85,4.56-14.32,11.45-17.08,4.1-1.64,7.31,4.87,8.22,7.74,5.91,18.51,21.7,19.37,39.1,21.74Z"/>
    <path class="cls-2" d="M1265.63,394.01c12.36,1.97,21.65-6.87,32.49-2.21,2.08,.89,3.99-1.34,5.67-3,15.25-15,32.53-17.14,51.84-6.9-24.45-.22-44.26,15.79-67.87,18.14-7.07,.7-14.91,2.35-22.13-6.03Z"/>
    <path class="cls-2" d="M791.86,357.77c-11.8-17.52-35.52-16.86-49.9-31.54,9.38-4.15,34.45,3.24,41.87,5.4,14.24,4.15,9.08,14.68,11.1,23,.63,2.66-.15,3.95-3.07,3.15Z"/>
    <path class="cls-2" d="M1064.53,372.05c-1.85,6.61-8.21,9.98-11.22,16.3-3.24,6.81-9.44-.47-13.85-2.28-5.39-2.22-15.08-3.54-12.44-11.25,2.07-6.06,10.64-7.9,17.98-5.2,4.68,1.72,8.98-.99,13.5-.95,3.62-1.74,6.26-1.74,6.04,3.38Z"/>
    <path class="cls-2" d="M920.56,413.89c-16.46,7.52-28.37-4.89-42.17-6.48-1.14-.13-2.96-2.71-2.82-3.97,.35-3.13,3.11-3.91,5.98-4.43,15.62-2.87,28.9,.3,39.02,14.88Z"/>
    <path class="cls-2" d="M1334.14,674.08c-7.28-5.83-15.77-2.62-23.53-2.46-15.82,.34-31.83-2.79-47.47,1.92-4.5-2.49-2.17-4.59,.9-4.63,23.37-.27,46.76-.5,70.12,.08,5.56,.14,6.84,3.34-.02,5.08Z"/>
    <path class="cls-2" d="M585.55,404.18c-8.21-8.25-19.69-4.38-33.08-8.1,12.03-5.86,20-12.59,28.74-.25,1.71,2.42,5.12,3.62,7.75,5.39-.26,2-2.03,2.24-3.41,2.95Z"/>
    <path class="cls-2" d="M1762.09,944.7c4,.49,6.81,2.31,6.94,6.69,.13,4.29-2.2,6.88-6.36,7.11-4.77,.27-7.73-2.19-7.61-7.19,.1-4.35,3.01-6.17,7.02-6.61Z"/>
    <path class="cls-2" d="M1204.53,946.93c-1.05,2.01-1.45,3.31-2.27,4.26-3.58,4.16-5.08,11.19-12.67,10.05-3.12-.47-2.72-2.93-1.67-5.16,3.1-6.6,5.95-13.66,16.62-9.14Z"/>
    <path class="cls-2" d="M1284.6,944.78c4.59-.03,7.6,1.7,8.07,5.94,.54,4.89-2.18,7.84-6.97,7.87-3.98,.03-6.78-2.22-6.98-6.61-.2-4.39,2.39-6.43,5.88-7.21Z"/>
    <path class="cls-2" d="M860.72,952.05c-.33,4.34-3.01,6.59-7.02,6.49-4.75-.11-7.46-2.97-6.89-7.87,.49-4.28,3.54-6.09,7.58-5.75,4.17,.35,6.33,2.89,6.32,7.13Z"/>
    <path class="cls-2" d="M1487.63,951.17c-.39,5.01-2.8,7.43-7.12,7.31-4.26-.11-6.76-2.48-6.72-6.94,.04-4.56,2.83-6.64,6.99-6.67,4.41-.04,6.45,2.75,6.85,6.3Z"/>
    <path class="cls-2" d="M1670.35,950.63c-.28,6.05-3.12,8.03-7.28,7.86-4.29-.17-6.79-2.78-6.53-7.16,.25-4.34,2.93-6.63,7.27-6.41,4.35,.23,6.49,2.81,6.55,5.71Z"/>
    <path class="cls-2" d="M657.77,951.83c-.24,4.54-2.76,6.61-7.03,6.35-4.52-.27-6.22-3.28-5.85-7.4,.32-3.62,2.52-5.66,6.29-5.62,4.42,.04,6.58,2.36,6.59,6.66Z"/>
    <path class="cls-2" d="M585.55,404.18c1.14-.98,2.27-1.97,3.41-2.95,4.29,.26,8.59,.51,12.88,.77,1.53,5.29-4.07,2.88-5.44,5.04-4.2,1.26-8.03,1.13-10.85-2.85Z"/>
    <path class="cls-2" d="M868.9,561.26c.1,1.7,.19,3.41,.29,5.11-3.46,.92-6.74,.77-10.11-1.86,2.28-4.41,6.17-3.52,9.83-3.25Z"/>
    <path class="cls-2" d="M596.4,407.03c1.81-1.68,3.63-3.36,5.44-5.04,3.81-.56,6.82,.44,8.75,4.46-4.85,2.05-9.54,1.01-14.18,.58Z"/>
    <path class="cls-2" d="M1064.53,372.05c-1.19-2.58-3.52-3.15-6.04-3.38,2.85-2.72,5.98-4.87,10.75-5.58,.4,4.63-2.43,6.66-4.72,8.96Z"/>
    <path class="cls-2" d="M791.86,357.77l3.07-3.15c3.91,1.26,6.26,3.84,7.41,8.01-5.35,1.26-7.71-2.22-10.49-4.87Z"/>
    <path class="cls-2" d="M594.07,767c-3.51,2.2-8.73-1.52-11.49,3.31-3.84-2.66-4.31-5.08,1.05-5.61,3.53-.35,7.32-.08,10.44,2.3Z"/>
    <path class="cls-2" d="M244.6,766.99c-2.89,1.78-7.5-.73-9.31,3.74-2.35-.87-4.56-3.48-2.93-4.81,3.88-3.16,8.28-1.07,12.24,1.07Z"/>
  </g>
  <text class="cls-1" transform="translate(140.1 1032.35)"><tspan class="cls-5" x="0" y="0">Companh</tspan><tspan class="cls-6" x="490.45" y="0">i</tspan><tspan class="cls-5" x="524.36" y="0">a Hipo</tspan><tspan class="cls-7" x="856.79" y="0">t</tspan><tspan class="cls-3" x="901.88" y="0">ecá</tspan><tspan class="cls-4" x="1079.22" y="0">r</tspan><tspan class="cls-3" x="1122.12" y="0">ia Piratini</tspan></text>
</svg>