<?xml version="1.0" encoding="UTF-8"?>
<svg id="Camada_1" data-name="Camada 1" xmlns="http://www.w3.org/2000/svg" viewBox="0 0 1920 1080">
  <defs>
    <style>
      .cls-1 {
        fill: #5c3b6b;
      }
    </style>
  </defs>
  <path class="cls-1" d="M0,519.21c4.46-3.62,9.62-4.47,15.27-4.47,80.61,.09,161.22,.08,241.83,.04,13.32,0,22.89,5.52,29.64,17.22,39.93,69.28,80.12,138.4,120.21,207.58,.87,1.49,1.79,2.97,2.5,4.54,3.38,7.47,.83,11.67-7.36,11.71-20.8,.1-41.6,.03-62.41,.03-32.36,0-64.72-.22-97.08,.12-11.12,.12-18.75-4.62-24.06-13.77-9.24-15.92-18.41-31.87-27.42-47.92-6.11-10.88-15.43-15.86-27.69-15.88-18.2-.02-36.41-.27-54.6,.08-13.55,.26-22.96-5.4-29.65-17.03-24.8-43.14-49.83-86.15-74.86-129.16C3.07,530.16,2.54,527.41,0,526.12v-6.91Z"/>
  <path class="cls-1" d="M376.27,324.01c10.23,4.4,16.65,12.25,22.13,21.79,38.68,67.34,77.73,134.48,116.64,201.7,1.43,2.48,2.88,4.99,3.88,7.66,2.07,5.53-.56,8.79-5.76,10.38-1.34,.41-2.86,.31-4.3,.31-52.3,.01-104.59,.07-156.89-.03-11.02-.02-19.28-5.32-24.73-14.77-8.77-15.2-17.67-30.34-26.01-45.77-6.76-12.51-16.89-18.15-30.96-17.97-17.62,.23-35.25-.16-52.87,.12-13.13,.21-22.56-5.11-29.11-16.46-24.87-43.1-49.89-86.12-74.93-129.12-3.46-5.94-6.41-11.66-.64-17.82H376.27Z"/>
  <path class="cls-1" d="M1464.97,487.84c14.44,0,28.89-.18,43.33,.09,5.56,.1,8.04-.61,7.73-7.43-.66-14.34,.19-28.75,.18-43.13,0-5.82,2.42-9.74,7.43-12.57,14.3-8.07,28.47-16.38,42.78-24.46,7.07-3.99,8.26-3.27,8.28,4.91,.06,25.04,.23,50.08-.12,75.11-.09,6.21,1.91,7.69,7.85,7.61,23.68-.31,47.38,.14,71.06-.29,7.05-.13,8.92,2.24,8.73,8.85-.4,13.8-.26,27.63-.05,41.44,.08,5.26-1.15,7.63-7.22,7.59-24.25-.14-48.51,.54-72.76,.36-6.48-.05-8.35,1.65-8.18,8.15,.5,20.13-.12,40.3,.52,60.42,.76,23.79,19.63,41.27,43.41,41.21,12.13-.03,24.27,.21,36.4-.11,5.46-.15,7.92,1.4,7.83,7.19-.23,14.67-.07,29.35-.08,44.03,0,3.55,.07,7.39-5.04,7.28-20.45-.45-41.03,1.82-61.3-2.66-46.32-10.26-79.34-51.04-79.47-98.16-.06-20.15-.17-40.29,.1-60.44,.07-5.33-1.65-6.88-6.93-6.84-30.04,.21-60.09,.19-90.13,.01-4.75-.03-6.58,1.17-6.51,6.22,.27,20.43-.26,40.87,.27,61.29,.65,24.76,19.45,42.26,44.31,42.18,12.13-.04,24.27,.18,36.4-.1,4.93-.11,6.54,1.57,6.47,6.44-.23,15.25-.24,30.51,0,45.76,.08,5-1.84,6.56-6.61,6.4-16.72-.56-33.47,.71-50.19-1.2-49.06-5.63-88.09-48.82-88.41-98.31-.14-20.43-.19-40.87,.09-61.3,.08-5.52-1.44-7.39-7.23-7.44-20.62-.2-20.62-.43-20.62-21.13,0-10.07,.21-20.15-.08-30.22-.16-5.31,1.79-6.93,7.06-6.9,6.52,.04,15.41,3.11,18.96-1.45,3.28-4.21,1.2-12.64,1.28-19.22,.11-9.5,.15-19-.02-28.49-.1-6,1.9-10.4,7.38-13.47,14.58-8.17,29.04-16.55,43.46-24.99,6-3.51,8-2.09,7.97,4.81-.14,24.74,.41,49.5,0,74.24-.12,7.42,2.22,9.16,9.24,8.89,14.13-.54,28.3-.16,42.46-.16Z"/>
  <path class="cls-1" d="M839.74,523.75c-4.18-60.79-56.78-112.13-117.92-112.55-38.69-.26-77.38,.14-116.09-.21-7.22-.05-9.17,2.05-9.13,9.17,.31,47.18,.17,94.36,.17,141.54s.1,96.1-.14,144.14c-.03,6.37,1.77,8.59,8.31,8.42,15-.4,30.03-.42,45.04,0,6.75,.19,8.35-2.55,8.23-8.66-.3-14.95,.16-29.93-.23-44.87-.14-5.78,1.81-7.27,7.36-7.17,16.73,.31,33.5,.09,50.24,.12,76.69,.19,128.75-63.29,124.15-129.93Zm-119.63,68.67c-18.43,.61-36.92-.07-55.39,.23-5.54,.09-6.74-2.05-6.67-7.06,.23-18.1,.09-36.21,.09-54.33,0-16.96,.28-33.92-.16-50.86-.16-6.3,1.35-8.45,8.05-8.26,17.29,.49,34.61,.14,51.94,.17,33.5,.07,60.22,26.02,60.72,58.97,.52,33-25.07,60.04-58.58,61.15Z"/>
  <path class="cls-1" d="M1918.99,581.24c-10.66-68.1-74.8-111.23-138.02-96.95-68.86,15.57-108.23,87.89-85.28,156.47,25.19,75.32,115.14,104.29,177.45,57.37,4.96-3.75,5.29-6.02,1.16-10.52-9.34-10.19-18.52-20.55-27.06-31.4-4.22-5.35-6.98-5.99-12.97-2.12-24.94,16.11-59.3,8.33-75.4-16.51-1.01-1.54-3.26-3.09-2.08-5.24,1.18-2.14,3.65-1.08,5.5-1.08,24.84-.09,49.66-.05,74.5-.05s47.94-.36,71.9,.23c7.26,.17,10.07-2.64,10.22-8.87,.36-13.78,2.19-27.88,.07-41.33Zm-65.7,.49c-16.13-.14-32.27-.05-48.4-.05s-32.27-.1-48.4,.07c-5.02,.05-5.75-1.18-3.96-5.95,8.3-21.96,28.59-35.79,52.98-35.57,23.89,.21,44.21,14.42,52.08,35.81,1.93,5.22,.17,5.75-4.3,5.69Z"/>
  <path class="cls-1" d="M970.91,479.21c-65.84-.02-115.47,51.21-116.58,118-1.15,68.44,53.46,120.81,114.08,120.69,67.04-.14,118.09-51.64,118-119.44-.09-68.93-48.83-119.25-115.5-119.25Zm51.55,146c-10.29,24.02-33.28,37.04-59.99,34.02-28.05-3.19-49.3-29.96-48.9-67.26,.99-18.49,9.55-38.47,32.62-48.9,21.09-9.53,41.69-7.31,60.09,7.29,20.38,16.14,27.27,49.02,16.18,74.85Z"/>
  <path class="cls-1" d="M1107.05,598.15c0-35.11,.17-70.22-.14-105.33-.07-7.34,1.73-10.18,9.64-9.8,13.83,.67,27.72,.14,41.59,.23,2.42,.02,6.62-1.1,6.74,1.97,.42,10.42,6.01,5.02,10.04,3.61,66.06-23.11,134.47,24.64,135.56,95.19,.63,40.57,0,81.15,.23,121.73,.03,6.38-1.98,8.66-8.46,8.48-13.86-.38-27.74-.43-41.59,.02-6.85,.22-8.94-1.95-8.88-8.84,.3-39.71,.16-79.43,.14-119.14-.01-25.29-18.59-44.63-42.8-44.61-24.86,.01-43.55,19.2-43.59,44.95-.06,39.43-.17,78.85,.12,118.28,.05,7.03-1.76,9.69-9.18,9.39-13.55-.55-27.16-.53-40.72,0-7.18,.28-8.83-2.6-8.8-9.07,.2-35.68,.1-71.37,.1-107.05Z"/>
</svg>