<?xml version="1.0" encoding="UTF-8"?>
<svg id="Camada_1" data-name="Camada 1" xmlns="http://www.w3.org/2000/svg" xmlns:xlink="http://www.w3.org/1999/xlink" viewBox="0 0 1920 1080">
  <defs>
    <style>
      .cls-1 {
        fill: url(#Gradiente_sem_nome_2);
      }

      .cls-1, .cls-2, .cls-3 {
        fill-rule: evenodd;
      }

      .cls-2 {
        fill: #666;
      }

      .cls-3 {
        fill: #1b7;
      }
    </style>
    <linearGradient id="Gradiente_sem_nome_2" data-name="Gradiente sem nome 2" x1="380.52" y1="1946.46" x2="172.57" y2="1431.8" gradientTransform="translate(0 2182) scale(1 -1)" gradientUnits="userSpaceOnUse">
      <stop offset="0" stop-color="#24e28b"/>
      <stop offset="1" stop-color="#1fc6c1"/>
    </linearGradient>
  </defs>
  <path class="cls-2" d="M882.07,447.89c-.02-5.15-4.16-9.56-9.45-9.31-25.12,1.82-45.09,10.66-59.87,26.52-16.7,17.92-25.05,42.83-25.05,74.73v90.25c0,5.16,4.21,9.34,9.41,9.34h7.37c5.2,0,9.42-4.18,9.42-9.34l-.03-90.25c0-24.47,5.85-43.2,17.57-56.18,9.89-10.96,23.65-17.24,41.17-18.94,5.29-.46,9.45-3.83,9.45-9.51v-7.31Z"/>
  <path class="cls-2" d="M913.52,526.44c1.99-20.17,9.39-36.33,22.21-46.91,12.81-10.57,30.55-15.86,53.19-15.86s40.38,5.29,53.2,15.86c12.82,10.57,20.12,26.73,22.36,46.91h-150.97Zm73.93,89.99c-24.87,0-43.76-6.45-56.69-19.35-10.48-10.45-16.64-24.89-18.62-43.16h163.17c5.07,0,7.83-1.04,10.5-3.45,4.05-3.65,3.83-10.53,3.83-10.53,0-32-8.96-56.41-26.86-74.39-17.9-17.99-43.01-26.98-75.34-26.98s-56.95,8.95-75.33,26.98c-29.35,28.79-26.85,75.43-26.85,75.47-.05,32.32,8.95,56.67,26.81,74.73,29.06,29.38,75.16,26.75,75.21,26.75,32.32,0,57.69-8.94,75.59-26.8,9.71-9.69,14.78-16.21,19.22-30.14,3.14-9.87-6.52-9.2-6.52-9.2h-12.13c-5.48-.04-7.48,3.67-10.29,9.1-13.96,24.38-40.84,30.99-65.7,30.99Z"/>
  <path class="cls-2" d="M1268.56,594.87c-12.82,12.96-31.57,19.43-56.24,19.43s-43.11-6.48-56.06-19.43c-12.95-12.96-19.43-32.05-19.43-56.48s6.48-42.63,19.43-55.47c12.95-12.83,31.64-19.25,56.06-19.25s43.42,6.42,56.24,19.25c12.83,12.83,19.25,30.78,19.25,55.47s-6.41,43.52-19.25,56.48Zm38.14-234.76h-7.37c-5.2,0-9.41,4.17-9.41,9.31,0,.07,.03,100.54,.03,100.54-8.37-10.91-20.52-20.34-33.35-25.14-12.83-4.81-26.45-7.21-42.9-7.21-32.14,0-57.18,8.87-75.12,26.62-17.94,17.74-26.91,41.82-26.91,73.87s8.97,56.95,26.91,74.7c17.94,17.74,42.98,26.62,75.12,26.62s57.56-8.87,75.5-26.62c17.94-17.75,26.91-42.91,26.91-73.89v-168.68c0-5.95-4.21-10.12-9.41-10.12Z"/>
  <path class="cls-2" d="M595.85,540.56c0,31.99,8.89,56.96,26.67,74.94,17.78,17.98,42.72,27.05,74.82,27.05,29.5,0,48.79-8.28,58.49-14.77,7.51-4.58,6.69-9.9,6.69-15.85v-4.74c0-12.17-9.93-7.15-15.38-4.15-11.95,6.37-23.95,13.4-49.8,13.4s-43.47-6.51-56.3-19.52c-12.84-13.02-19.26-31.8-19.26-56.35s6.42-43.33,19.26-56.35c12.84-13.02,31.61-19.53,56.3-19.53,17.14,0,30.82,3.14,42.77,9.51,5.34,2.58,15.38,7.64,15.38-3.73v-5.5c0-5.95,.85-10.63-6.73-14.96-15.84-7.96-29.28-11.44-51.42-11.44-32.1,0-57.04,9.07-74.82,27.05-17.78,17.98-26.67,42.96-26.67,74.95Z"/>
  <path class="cls-2" d="M1533.14,625.86c0-5.7-4.19-9.08-9.49-9.54-17.56-1.71-31.35-8.01-41.26-19.01-11.75-13.03-17.61-31.83-17.61-56.4l.02-73.89h43.22c5.21,0,9.43-4.2,9.43-9.37v-7.34c0-5.17-4.22-9.37-9.43-9.37h-43.21v-62.04c0-5.17-4.22-9.37-9.43-9.37h-7.37s-.02,0-.02,0c-5.21,0-9.43,4.2-9.43,9.37v62.04h-18.65c-5.21,0-9.43,4.2-9.43,9.37v7.34c0,5.17,4.22,9.37,9.43,9.37h18.65v73.89c0,32.02,8.36,57.02,25.1,75.01,14.8,15.93,34.81,24.79,59.99,26.62,5.3,.25,9.47-4.17,9.49-9.34v-7.34Z"/>
  <path class="cls-2" d="M1369.97,360.11h-7.07c-4.99,0-9.04,4.32-9.04,9.65v24.63c0,5.33,4.05,9.65,9.04,9.65h7.07c4.99,0,9.04-4.32,9.04-9.65v-24.63c0-5.33-4.05-9.65-9.04-9.65Z"/>
  <path class="cls-2" d="M1369.97,438.57h-7.07c-4.99,0-9.04,4.17-9.04,9.3v179.11c0,5.14,4.05,9.3,9.04,9.3h7.07c4.99,0,9.04-4.16,9.04-9.3v-179.11c0-5.13-4.05-9.3-9.04-9.3Z"/>
  <path class="cls-2" d="M1693.53,571.54c0,31.98-20.01,42.77-69.49,42.77-35.43,0-56.32-11.75-56.32-36.95,0-27.6,21.61-38.37,69.86-38.37h55.95v32.55Zm-.68-75.65v20.97h-56.31c-64.99,0-93.98,18.71-93.98,60.67,0,38.75,30.46,61.89,81.48,61.89,66.5,0,94.66-19.85,94.66-66.36v-77.17c0-28.69-19.57-41.52-19.57-41.52-9.77-7.55-22.24-12.26-37.4-14.15-9.34-1.21-17.14-1.65-26.75-1.65s-16.92,.37-25.72,1.42c-16.1,1.68-29.34,6.44-39.63,14.38-12.95,10.01-19.44,24.01-19.53,41.52,0,0,.3,8.07,9.14,8.07h.01s0,0,0,0h7.16c5.06,0,9.17-3.27,9.17-8.33,0-18.64,15.66-24.69,15.66-24.69,4.56-2.21,21.6-7.37,43.62-7.37s38.13,5.15,42.69,7.36c0,0,15.31,5.8,15.31,24.94Z"/>
  <path class="cls-2" d="M1829.22,548.75c47.77,0,64.97,2.9,64.97,30.34,0,25.05-24.37,35.59-59.45,35.59-28.12,0-46.63-3.54-57.3-12.57-8.68-7.85-8.08-19.58-8.08-19.58,0-5.06-4.1-8.33-9.17-8.33h-7.18c-8.85,0-9.15,8.08-9.15,8.08,0,29.14,19.41,41.98,19.41,41.98,15.39,10.38,38.81,15.16,71.47,15.16,51.07,0,85.25-22.03,85.25-60.83,0-42.01-25.58-54.89-90.65-54.89-27.81,0-41.17-7.09-41.17-7.09-16.24-7.15-15.32-22.24-15.32-22.24,0-17.65,15.32-24.14,15.32-24.14,4.56-2.22,18.23-6.61,41.17-6.61s37.54,4.7,42.11,6.91c0,0,14.35,6.24,15.4,20.2,.36,4.79,4.1,7.77,9.17,7.77h7.18c9.04,0,8.87-8.08,8.87-8.08,0-11.56-6.03-26.02-18.99-36.04-10.31-7.95-23.29-12.47-38.11-14.39-8.81-1.15-16.63-1.43-25.76-1.43-9.63,0-15.88,.44-25.22,1.65-15.18,1.89-28.34,7.29-37.45,14.17,0,0-19.58,12.78-19.58,39.98,0,0-1.34,23.65,19.58,39.13,0,0,16.73,15.25,62.67,15.25Z"/>
  <path class="cls-1" d="M505.37,595.43c0,5.08-1.62,8.94-1.62,8.94-26.54,73.13-96.01,122.24-172.99,122.24-26.06,0-50.86-5.54-73.35-15.47,0,0-31.79,15.46-73.19,15.46C82.48,726.6,0,643.06,0,540s82.48-186.6,184.22-186.6c42.32,0,73.19,15.46,73.19,15.46,22.49-9.93,47.3-15.47,73.35-15.47,76.97,0,146.44,49.11,172.99,122.24,0,0,1.62,3.86,1.62,8.94,0,3.53-.78,7.66-3.45,11.49-4.48,6.44-12.29,10.4-21.18,10.46h-120.22c-19.99,0-28.24-23.41-28.24-23.41-14.01-37.37-41.12-67.29-74.83-85.14-50.47,26.83-85,80.41-85.01,142.04,0,61.63,34.54,115.21,85.01,142.04,33.71-17.86,60.82-47.77,74.83-85.15,0,0,8.25-23.4,28.24-23.4h120.22c8.89,.05,16.7,4.02,21.18,10.46,2.66,3.83,3.45,7.96,3.45,11.49Zm-149.45-127.73c-14.14-34.21-37.8-62.74-67.14-82.88,13.81-3.96,28.37-6.13,43.41-6.13,65.06,0,123.92,40.47,148.06,101.21h-110.97c-8.7,0-13.37-12.21-13.37-12.21ZM25.11,538.42c.02-88.07,70.89-159.73,158.01-159.73,14.73,0,29.14,2.11,42.89,6.06-48.57,33.49-80.53,89.89-80.55,153.67,.02,63.78,31.99,120.19,80.55,153.67-13.75,3.95-28.16,6.06-42.89,6.06-87.11,0-157.99-71.65-158.01-159.73Zm263.67,156.77c29.33-20.14,53-48.67,67.14-82.88,0,0,4.67-12.2,13.37-12.2h110.97c-24.15,60.74-83,101.21-148.06,101.21-15.05,0-29.6-2.17-43.41-6.13Z"/>
  <path class="cls-3" d="M505.37,595.43c0,5.08-1.62,8.94-1.62,8.94-26.54,73.13-96.01,122.24-172.99,122.24-26.06,0-50.86-5.54-73.35-15.47,0,0-31.79,15.46-73.19,15.46C82.48,726.6,0,643.06,0,540s82.48-186.6,184.22-186.6c42.32,0,73.19,15.46,73.19,15.46,22.49-9.93,47.3-15.47,73.35-15.47,76.97,0,146.44,49.11,172.99,122.24,0,0,1.62,3.86,1.62,8.94,0,3.53-.78,7.66-3.45,11.49-4.48,6.44-12.29,10.4-21.18,10.46h-120.22c-19.99,0-28.24-23.41-28.24-23.41-14.01-37.37-41.12-67.29-74.83-85.14-50.47,26.83-85,80.41-85.01,142.04,0,61.63,34.54,115.21,85.01,142.04,33.71-17.86,60.82-47.77,74.83-85.15,0,0,8.25-23.4,28.24-23.4h120.22c8.89,.05,16.7,4.02,21.18,10.46,2.66,3.83,3.45,7.96,3.45,11.49Zm-149.45-127.73c-14.14-34.21-37.8-62.74-67.14-82.88,13.81-3.96,28.37-6.13,43.41-6.13,65.06,0,123.92,40.47,148.06,101.21h-110.97c-8.7,0-13.37-12.21-13.37-12.21ZM25.11,538.42c.02-88.07,70.89-159.73,158.01-159.73,14.73,0,29.14,2.11,42.89,6.06-48.57,33.49-80.53,89.89-80.55,153.67,.02,63.78,31.99,120.19,80.55,153.67-13.75,3.95-28.16,6.06-42.89,6.06-87.11,0-157.99-71.65-158.01-159.73Zm263.67,156.77c29.33-20.14,53-48.67,67.14-82.88,0,0,4.67-12.2,13.37-12.2h110.97c-24.15,60.74-83,101.21-148.06,101.21-15.05,0-29.6-2.17-43.41-6.13Z"/>
</svg>