<?xml version="1.0" encoding="UTF-8"?>
<svg id="Camada_1" data-name="Camada 1" xmlns="http://www.w3.org/2000/svg" viewBox="0 0 1920 1080">
  <defs>
    <style>
      .cls-1 {
        fill: #090909;
      }

      .cls-2 {
        fill: #0692fe;
      }
    </style>
  </defs>
  <path class="cls-1" d="M.34,539.08c0-112.43-.34-353.84-.34-353.84l17,.21,37.37,.08,12.48-.29-.23,217.33-.04,18.51s214.11-.04,311.54,.02c61.15,.03,102.82,41.49,102.83,102.17,.01,90.77,.04,181.54-.02,272.31-.03,44.32-25.26,79.76-66.95,95.07-7.62,2.8-15.27,3.31-23.11,3.31-125.61,.03-390.87,.32-390.87,.32l.13-15.17s.21-226.7,.21-340.04Zm240.41-46.87c-45.25,0-90.5-.07-135.75,.03-26.26,.06-38.29,11.82-38.33,37.96-.13,86.62-.11,173.23-.02,259.85,.03,24.75,12.66,37.91,37.21,37.97,90.96,.22,181.93,.22,272.89,.01,24.47-.05,36.25-12.47,36.25-36.9,.02-87.08,.02-174.15,0-261.23,0-26.44-11.3-37.67-37.89-37.69-44.79-.03-89.58,0-134.37,0Z"/>
  <path class="cls-1" d="M787.59,624.73c63.25,0,126.51-.48,189.75,.37,14.58,.2,17.91-4.33,17.36-17.99-1.07-26.68-.29-53.42-.32-80.14-.03-26.75-11.06-37.94-37.69-37.95-120.04-.04-377.35,.27-377.35,.27l.03-16.68-.03-35.88v-15.85s158.72,.22,229.82,.22c50.32,0,100.65-.05,150.97,.01,59.71,.07,102.34,42.41,102.35,101.62,.02,119.31,.3,357.93,.3,357.93v13.56s-261.36-1.66-385.05,.53c-46.44,.82-95.85-40.71-97.06-90.61-1.37-56.62-.68-113.3-1.19-169.94-.1-11.38,7.54-9.42,14.21-9.43,64.63-.05,129.27-.03,193.91-.03Zm34.3,67.67c-53.58,0-107.15,.22-160.72-.2-10.12-.08-13.82,2.66-13.58,13.2,.64,28.56-.05,57.14,.32,85.71,.32,24.13,12.94,36.88,36.81,36.93,98.84,.18,197.67-.04,296.51,.27,10.31,.03,13.53-3.19,13.38-13.49-.55-35.94-.63-71.89,.03-107.83,.21-11.46-3.17-14.98-14.79-14.85-52.65,.57-105.3,.25-157.95,.26Z"/>
  <path class="cls-1" d="M1161.9,697.54c0-59.41-.03-118.82,.01-178.23,.04-54.21,42.76-97.85,97.07-98.1,84.93-.4,268.78-.32,268.78-.32l-.07,14.43v40.04s-.16,13.85-.16,13.85c0,0-176.78-.24-258.01-.22-29.12,0-40.36,10.96-40.39,39.96-.09,116.98,.25,350.93,.25,350.93l.05,14.34h-67.81v-12.93s.28-122.5,.28-183.75Z"/>
  <path class="cls-2" d="M1856.56,893.98c-8.3,0-16.6,.06-24.9,0-21.41-.17-36.89-13.57-38.33-35.17-1.19-17.87-1.15-35.91-.15-53.8,1.17-21.03,18.01-36.5,39.28-37.12,16.59-.49,33.21,.14,49.8-.17,17.51-.33,39.9,17.75,37.58,39.43-1.85,17.29-.26,34.93-.41,52.42-.16,19.16-14.67,33.91-33.81,34.38-9.68,.24-19.37,.04-29.05,.04Z"/>
  <path class="cls-1" d="M1594.62,288.55c.01-11.96-.11-23.92,.04-35.88,.21-16.61,10.49-28.12,27.09-28.54,25.34-.63,50.72-.61,76.06,0,17.36,.42,27.73,11.89,27.87,29.47,.19,23.46,.17,46.92,0,70.37-.13,18.52-10.22,29.47-28.84,29.91-24.88,.59-49.8,.64-74.67-.04-17.68-.48-27.39-11.57-27.55-29.42-.11-11.96-.02-23.92,0-35.88Zm64.71-45.1c-10.62,0-21.24,.19-31.85-.06-9.15-.21-13.66,3.48-13.56,13.03,.24,21.65,.24,43.3,0,64.95-.1,9.48,4.43,13.3,13.5,13.26,21.7-.1,43.4-.16,65.09,0,9.16,.07,13.72-3.86,13.69-13.16-.08-21.65-.08-43.3,.02-64.95,.04-9.3-4.42-13.34-13.66-13.12-11.07,.26-22.16,.06-33.24,.05Z"/>
  <path class="cls-1" d="M1478.79,223.94c15.69,0,31.38,.26,47.06-.13,7.37-.18,9.75,2.88,9.75,9.81,0,6.89-2.37,9.98-9.71,9.91-28.15-.26-56.29-.14-84.44-.1-19.01,.03-19.99,1.1-19.96,20.61,.02,17.5-.02,34.99,0,52.49,.02,16.07,1.91,17.99,18.51,18.03,27.69,.08,55.37,.12,83.06-.06,7.11-.05,12.72,.08,12.6,9.79-.13,9.55-5.63,9.87-12.79,9.83-29.07-.18-58.14,.14-87.21-.14-22.1-.22-31.7-10.33-31.75-32.6-.06-22.56-.15-45.12,.04-67.68,.15-18.25,10.73-29.14,29.17-29.66,15.22-.43,30.45-.09,45.68-.1Z"/>
  <path class="cls-1" d="M1216.49,289c-.02-17.95,.27-35.9-.14-53.84-.19-8.14,2.23-11.52,10.98-11.4,30.43,.43,60.88-.12,91.31,.29,18.5,.25,29.29,11.16,29.48,29.45,.31,29.45-.09,58.9,.19,88.35,.07,7.65-1.44,12.5-10.38,12.38-8.5-.12-9.37-5.17-9.33-11.95,.19-27.15-.32-54.31,.29-81.44,.29-13.16-4.66-18.15-17.9-17.61-19.34,.78-38.75,.64-58.1,.04-11.88-.37-16.6,4-16.34,16.05,.56,25.76,.36,51.54,.09,77.3-.08,7.45,3.85,17.79-10.38,17.59-13.29-.19-9.5-9.86-9.65-16.9-.35-16.1-.11-32.21-.13-48.31Z"/>
  <rect class="cls-1" x="1625.91" y="420.71" width="68.62" height="473.34"/>
  <path class="cls-1" d="M845.69,256.87c0-30.79-.09-71.45-.09-71.45l4.66,.06,10.24,.02,3.42-.08-.06,34.07v5.07s58.63-.01,85.31,0c16.75,0,28.16,11.36,28.16,27.98,0,24.86,.01,49.72,0,74.58,0,12.14-6.92,21.84-18.33,26.04-2.09,.77-4.18,.91-6.33,.91-34.4,0-107.05,.09-107.05,.09l.04-4.15s.06-62.09,.06-93.13Zm65.84-12.84c-12.39,0-24.79-.02-37.18,0-7.19,.02-10.49,3.24-10.5,10.4-.04,23.72-.03,47.44,0,71.17,0,6.78,3.47,10.38,10.19,10.4,24.91,.06,49.83,.06,74.74,0,6.7-.01,9.93-3.42,9.93-10.11,0-23.85,0-47.7,0-71.55,0-7.24-3.09-10.32-10.38-10.32-12.27,0-24.53,0-36.8,0Z"/>
  <path class="cls-1" d="M1086.39,279.98c17.29,0,34.58-.13,51.87,.1,3.99,.05,4.9-1.18,4.75-4.92-.29-7.29-.08-14.6-.09-21.91,0-7.31-3.02-10.37-10.3-10.38-32.81-.01-103.16,.07-103.16,.07v-4.56s0-9.81,0-9.81v-4.33s43.39,.06,62.83,.06c13.76,0,27.51-.01,41.27,0,16.32,.02,27.98,11.59,27.98,27.78,0,32.62,.08,97.85,.08,97.85v3.71s-71.45-.45-105.26,.14c-12.7,.22-26.2-11.13-26.53-24.77-.38-15.48-.19-30.97-.32-46.46-.03-3.11,2.06-2.58,3.89-2.58,17.67-.01,35.34,0,53.01,0Zm9.38,18.5c-14.65,0-29.29,.06-43.94-.05-2.77-.02-3.78,.73-3.71,3.61,.17,7.81-.01,15.62,.09,23.43,.09,6.6,3.54,10.08,10.06,10.09,27.02,.05,54.04-.01,81.06,.07,2.82,0,3.7-.87,3.66-3.69-.15-9.82-.17-19.65,0-29.48,.06-3.13-.87-4.09-4.04-4.06-14.39,.16-28.79,.07-43.18,.07Z"/>
</svg>