<?xml version="1.0" encoding="UTF-8"?>
<svg id="Camada_1" data-name="Camada 1" xmlns="http://www.w3.org/2000/svg" viewBox="0 0 1920 1080">
  <defs>
    <style>
      .cls-1 {
        fill: #01349b;
      }
    </style>
  </defs>
  <path class="cls-1" d="M751.65,234.18c21.45-7.45,40.58-15.67,60.51-20.77,134.9-34.52,271.77,55.57,293.94,192.89,25.28,156.63-99.87,293.38-257.96,279.38-118.98-10.54-200.89-87.59-217.21-205.09-1.34-9.63-1.27-19.51-1.28-29.27-.06-123.95,.2-247.89-.32-371.84-.06-14.09,4.43-20.39,17.92-24.25,27.24-7.81,54.38-16.4,80.71-26.82,19.7-7.8,24.27,.27,24.06,18.38-.66,58.19-.32,116.39-.37,174.59,0,3.94,0,7.89,0,12.82Zm117.59,329.71c65.13,.11,118.48-52.9,118.24-117.51-.24-64.8-53.34-117.46-118.45-117.46-64.7,0-117.59,53.36-117.29,118.33,.29,64.23,52.97,116.52,117.5,116.63Z"/>
  <path class="cls-1" d="M1796.8,235.63c.38-3.6,.72-5.68,.79-7.77,.89-24.32,1.12-24.48,24.98-24.38,26.66,.11,53.32,.32,79.98-.05,12.43-.17,17.46,4.9,17.44,17.46-.2,149.74-.07,299.47-.18,449.21-.01,17.55-1.76,18.87-19.25,18.9-27.99,.04-55.98,.05-83.98,.04-17.33,0-18.52-1.29-18.89-19.19-.08-3.89-.54-7.77-.92-13.11-62.6,32.47-126.6,39.45-192.74,17.68-52.91-17.41-94.07-50.29-125.37-96.31-55.53-81.66-50.39-198.9,10.21-276.92,62.11-79.97,183.03-129.33,307.94-65.55Zm-115.84,328.28c64.89-1.06,117.32-53.91,116.8-117.74-.53-66.01-54.83-118.47-121.35-117.25-64.19,1.18-115.69,55.64-114.57,121.15,1.08,62.85,55.52,114.88,119.11,113.84Z"/>
  <path class="cls-1" d="M123.3,566.03c13.04,0,24.55,0,36.07,0,75.1,0,150.2-.02,225.3,0,18.38,0,20.81,2.3,20.9,20.67,.14,28.88-.09,57.77,.03,86.65,.04,10.06-3.27,15.79-14.62,15.77-128.42-.18-256.85-.12-385.27-.16-1.27,0-2.54-.45-5.47-1.01,0-5,0-10.16,0-15.33C.24,474.89,.35,277.14,0,79.4c-.02-13.13,3.61-19.98,16.84-23.88,28.92-8.51,57.3-18.84,85.95-28.23,14.37-4.71,18.95-1.74,19.65,13.21,.6,12.86,.39,25.76,.39,38.64-.08,157.31-.2,314.61-.26,471.92,0,4.38,.42,8.75,.74,14.98Z"/>
  <path class="cls-1" d="M1160.9,563.4c0-43.05-2.93-86.34,.57-129.11,9.35-114.48,113.05-215.22,227.34-226.48,38.05-3.75,31.35,5.63,31.43,29.44,.08,24.44-.33,48.88,.16,73.31,.23,11.75-3.24,17.37-16.12,19.02-72.96,9.36-122.56,66.69-122.64,140.67-.07,66.2,.02,132.4-.01,198.6-.01,18.05-2.11,20.13-19.63,20.14-27.55,.03-55.09,0-82.64,0-18.78,0-20.83-1.96-20.85-20.29-.03-35.1,0-70.2,0-105.3,.81,0,1.61,0,2.42,0Z"/>
  <path class="cls-1" d="M578.44,449.97c0,73.3,0,146.6-.01,219.9,0,18.32-1.21,19.55-19.71,19.6-28.43,.07-56.87-.33-85.29,.19-12.37,.22-17.54-4.06-17.51-16.95,.27-137.27,.26-274.54,0-411.8-.02-11.51,3.75-17.43,15.18-20.91,29.23-8.91,58.03-19.22,87.04-28.87,15.38-5.11,20.25-1.59,20.27,14.96,.08,74.63,.03,149.26,.03,223.89Z"/>
  <path class="cls-1" d="M1048.97,906.77c0-28.12-.09-52.97,.04-77.81,.07-14.04,5.81-21.07,16.81-20.45,12.63,.71,15.95,9.07,15.93,20.17-.07,47.93,.64,95.87-.18,143.78-.83,48.4-43.31,85.2-92.8,81.8-48.6-3.33-85.36-46.98-79.78-94.74,4.95-42.36,26.84-70.06,63.09-77.64,28.77-6.02,54.22,1.79,76.89,24.89Zm.58,60.67c.08-34.18-21.84-57.5-54.25-57.72-31.13-.21-54.85,24.76-54.91,57.81-.06,32.34,24.04,57.08,55.58,57.04,31.06-.04,53.5-23.96,53.58-57.13Z"/>
  <path class="cls-1" d="M708.38,979.26c5.44,39.21,50.06,58.59,86.59,39.44,4.31-2.26,8.71-6.93,12.73-6.57,6.2,.54,13.55,3.03,17.79,7.29,5.89,5.92,1.96,12.48-4.25,16.67-31.16,21.02-64.41,24.91-98.32,8.55-33.62-16.22-47.76-45.63-46.43-81.67,1.33-36.19,17.76-64.65,53.08-77.15,58.98-20.87,110.28,14.24,109.62,77.19-.14,13.5-8.83,16.11-19.5,16.16-32.84,.15-65.68,.08-98.52,.09-3.94,0-7.87,0-12.78,0Zm.22-27.71h99.93c-5.03-28.12-22.55-43.96-47.52-43.72-28.05,.27-48.29,16.89-52.42,43.72Z"/>
  <path class="cls-1" d="M1660.82,967.68c-.01,51.02-35.34,86.68-85.95,86.75-50.63,.07-86.1-35.46-86.28-86.42-.18-52.37,34.48-87.77,85.89-87.73,51.58,.04,86.36,35.24,86.34,87.4Zm-86.48-57.85c-31.86,.2-54.29,24.04-54.34,57.77-.05,33.62,23.43,57.31,56.51,57,31.09-.29,52.74-24.1,52.59-57.82-.15-34.23-22.19-57.15-54.75-56.95Z"/>
  <path class="cls-1" d="M332.48,880.29c20.93-.87,39.89,7.51,56.07,22.85,7.13,6.77,11.62,14.56,3.39,22.95-7.53,7.68-15.64,5.97-23.53-.96-22.84-20.08-53.71-20.75-73.27-1.94-20.76,19.95-22.96,58.6-4.68,81.9,16.74,21.33,49.2,26.31,73.42,11.25,2.26-1.41,4.36-3.13,6.74-4.27,8.4-4.04,15.61-2.67,20.67,5.54,4.74,7.68,1.1,13.18-4.9,18.36-41.17,35.54-111.19,18.26-132.94-32.91-25.55-60.11,14.25-123.27,79.02-122.77Z"/>
  <path class="cls-1" d="M1330.53,915.63c-6.27,0-11.68,1.62-14.81-.36-5.26-3.32-11.49-8.31-12.9-13.74-2.05-7.89,3.96-14.13,12.36-13.37,14.76,1.34,16.8-5.94,15.57-18.16-.92-9.2-.2-18.62,.3-27.91,.51-9.49,6.13-14.54,15.45-14.84,9.38-.3,15.61,4.32,15.95,13.97,.52,14.55,.13,29.13,.13,45.39,9.86,.45,18.06,.89,26.26,1.19,9.4,.35,15.57,4.62,15.26,14.48-.29,9.16-6.64,12.87-15.18,13.44-7.86,.52-20.36-1.65-22.59,2.16-4.15,7.1-2.73,17.68-2.87,26.83-.24,16.41-.54,32.86,.35,49.23,.99,18.23,8.54,25.14,26.56,26.6,15.48,1.25,20.55,5.51,19.98,16.78-.54,10.74-7.19,15.51-21.92,15.73-30.25,.44-54.54-20.99-56.67-51.94-1.58-22.97-.92-46.1-1.23-69.16-.06-4.81,0-9.62,0-16.3Z"/>
  <path class="cls-1" d="M522.54,899.09c17.79-15.32,37.6-21.32,59.88-18.94,2.64,.28,5.42,.25,7.88,1.1,9.26,3.2,20.22,6.04,17.91,19-2.31,12.94-13.17,9.85-22.46,9.97-13.09,.17-26.62-.3-39.12,2.83-17.68,4.44-24.99,16.13-25.1,34.43-.17,28.85,.08,57.71-.15,86.56-.11,13.53-5.29,18.7-17.03,18.59-9.7-.09-15.28-4.83-15.32-14.48-.2-47.5-.5-95,.43-142.48,.1-4.95,7.79-13.28,12.52-13.7,5.8-.51,12.38,5.36,18.17,9.16,1.54,1.01,1.44,4.52,2.38,7.94Z"/>
  <path class="cls-1" d="M1184.61,967.17c0-22.16-.13-44.32,.04-66.47,.1-13.19,5.74-20.01,16.35-19.55,11.58,.5,16.4,8,16.44,18.58,.18,45.2,.19,90.4-.03,135.6-.05,11.04-5.88,17.41-17.46,17.13-11.31-.27-15.34-7.16-15.33-17.49,.01-22.6,0-45.2,0-67.8Z"/>
  <path class="cls-1" d="M768.99,865.48c-15.88-.41-23.62-14.18-15.55-24.71,7.45-9.74,16.53-18.5,26.03-26.32,7.07-5.82,16.09-5.82,22.65,1.71,6.43,7.39,5.83,15.55-1.03,22.64-7.07,7.31-14.23,14.58-21.9,21.24-3.44,2.99-8.22,4.43-10.19,5.44Z"/>
  <path class="cls-1" d="M1200.1,854.46c-11.9-.25-20.65-9.51-20.35-21.52,.29-11.53,10.18-20.96,21.58-20.57,11.57,.39,21.01,10.37,20.59,21.75-.43,11.7-9.98,20.6-21.82,20.34Z"/>
</svg>