<?xml version="1.0" encoding="UTF-8"?>
<svg id="Camada_1" data-name="Camada 1" xmlns="http://www.w3.org/2000/svg" viewBox="0 0 1920 1080">
  <defs>
    <style>
      .cls-1 {
        fill: #0e3061;
      }

      .cls-2 {
        fill: #31c5ea;
      }
    </style>
  </defs>
  <path class="cls-1" d="M197.31,357.94c5.28,.06,10.53,.32,15.77,1.19,11.9,1.84,24.22,4.75,35.49,9,39.95,15.06,70.92,40.64,93.64,76.51,3.13,4.94,2.79,7.29-2.41,10.46-23.11,14.11-46.03,28.55-68.79,43.23-5.17,3.34-7.56,3.01-11.34-2.21-32.37-44.55-94.74-49.87-131.23-11.38-3.93,4.15-7.22,9.01-10.24,13.89-2.86,4.61-4.97,9.69-7.23,14.2-22.46-13.9-44.43-28.73-67.59-41.44-17.71-9.72-17.81-28.32-7.16-41.52,20.44-25.33,45.61-44.47,75.52-57.44,25.53-11.07,52.36-14.34,79.99-14.51,1.87-.01,3.73-.02,5.59,0Z"/>
  <path class="cls-2" d="M1511.99,532.32c-23.47,40.78-47.09,81.48-70.23,122.44-3.38,5.99-7.42,6.8-13.62,7.72-16.76,2.47-25.13-4.86-32.85-19.22-19.94-37.09-41.86-73.12-64.25-111.76-.34,4.79-.68,7.26-.68,9.74-.03,54.01-.22,108.02,.19,162.03,.07,8.95-2.68,11.15-11.33,10.97-25.91-.55-51.84-.37-77.76-.08-6.26,.07-8.36-1.65-8.35-8.13,.18-111.09,.18-222.17,0-333.26,0-6.06,1.86-7.78,7.79-7.72,26.53,.26,53.07,.41,79.59-.09,6.91-.13,8.95,4.09,11.38,8.46,27.31,49.07,54.52,98.19,81.77,147.29,2.47,4.44,5.04,8.82,8.38,14.68,6.76-11.94,12.88-22.59,18.85-33.32,24.2-43.5,48.43-86.99,72.43-130.61,2.54-4.63,5.43-6.44,10.72-6.39,26.23,.23,52.46,.27,78.68-.02,6.16-.07,8.44,1.38,8.42,8-.19,111.09-.2,222.18,0,333.26,.01,6.82-2.61,7.91-8.57,7.86-26.83-.26-53.68-.38-80.51,.07-7.21,.12-8.46-2.36-8.43-8.87,.24-54.33,.14-108.66,.14-162.99,0-3.25,0-6.5,0-9.74-.6-.1-1.19-.2-1.79-.3Z"/>
  <path class="cls-1" d="M1024.53,464.18c19.16-25.35,42.39-41.48,74.2-42.89,54.05-2.4,93.44,29.67,103.7,83.88,3.76,19.85,2.88,39.88,2.91,59.88,.06,46.7-.12,93.4,.25,140.1,.06,7.36-2.14,9.07-9.23,8.95-26.53-.42-53.08-.4-79.61,0-6.88,.1-8.73-1.8-8.7-8.63,.28-54.04-.87-108.1,.52-162.1,.92-35.62-31.18-47.55-56.48-34.25-17.49,9.19-27.63,23.25-27.59,43.69,.09,50.7-.1,101.4,.18,152.09,.04,6.98-1.53,9.36-9,9.23-26.83-.47-53.68-.32-80.53-.08-5.66,.05-7.92-1.07-7.91-7.44,.21-111.41,.19-222.83,.04-334.24,0-5.53,1.54-7.27,7.2-7.21,27.76,.27,55.52,.3,83.27-.02,6.09-.07,6.9,2.31,6.87,7.48-.21,27.62-.1,55.25-.1,82.88v8.71Z"/>
  <path class="cls-2" d="M1817.61,601.47c-29.28,0-58.55,.18-87.82-.13-7.49-.08-8.3,2.38-5.44,8.4,10.94,23.05,31.53,30.01,54.65,31.81,30.63,2.38,58.41-7,84.04-22.95,5.99-3.73,8.64-3,11.84,2.88,9.3,17.05,18.75,34.04,28.74,50.69,3.37,5.61,2.96,8.45-2.34,12.46-24.05,18.21-50.99,29.67-80.65,34.36-46.8,7.4-91.26,1.34-130.98-26.21-34.77-24.12-53.46-58.09-58.81-99.55-4.88-37.9,.9-74.02,21.66-106.53,29.66-46.44,74.28-65.39,128.05-65.52,37.23-.09,71.37,9.97,98.93,35.78,35.9,33.62,45.75,75.98,38.09,123.19-3.47,21.37-3.86,21.31-25.86,21.31-24.7,0-49.4,0-74.1,0Zm-45.58-60.34c11.28,0,22.56,.27,33.82-.12,5.58-.19,13.7,3.09,16.21-1.76,3.37-6.5-1.38-13.94-4.8-20.39-.98-1.85-2.32-3.59-3.77-5.11-14.04-14.8-31.69-17.27-50.48-13.37-18.71,3.89-32.63,14.3-39.64,32.73-2.21,5.82-1.12,8.28,5.69,8.12,14.32-.34,28.65-.1,42.97-.1Z"/>
  <path class="cls-1" d="M545.81,686.8c-36.06,33.28-76.21,42.81-120.92,29.42-32.82-9.83-53.05-32.68-59.06-66.52-5.68-32.01,.83-60.72,27.88-81.63,22.4-17.32,49.14-22.07,76.66-22.88,20.12-.59,40.27-.54,60.39-.09,7.31,.16,8.71-2.33,7.97-8.92-1.87-16.79-13.38-28.53-31.68-31.42-21.38-3.38-40.34,3.82-58.44,13.86-7.96,4.41-15.45,9.74-22.85,15.07-3.18,2.29-4.8,2.35-7.16-.98-12.98-18.36-26.12-36.6-39.34-54.79-1.93-2.65-2.51-4.53,.4-6.81,53.66-42.11,112.82-63.54,180.59-41.51,45.76,14.88,68.49,50.31,74.62,96.82,1.11,8.39,1.29,16.95,1.31,25.44,.11,51.31-.04,102.62,.18,153.93,.03,6.16-1.37,8.41-8.02,8.31-25.01-.38-50.03-.31-75.04-.04-5.92,.06-8.23-1.5-7.62-7.68,.58-5.92,.13-11.94,.13-19.56Zm-37.19-83.09c-8.1,.58-17.9-1.2-27.51,1.01-10.73,2.47-17.07,10.21-17.83,21.32-.79,11.49,4.11,20.13,13.78,24.3,29.39,12.68,62.07-8.65,61.99-40.32-.01-4.44-.89-6.68-6.01-6.41-7.59,.39-15.21,.1-24.41,.1Z"/>
  <path class="cls-1" d="M785.75,421.04c39.41,.77,75.96,9.82,106.77,36.08,4.89,4.17,5.8,6.82,1.28,12.23-13.26,15.85-25.97,32.17-38.52,48.6-3.49,4.56-5.62,5.3-10.52,1.52-16.77-12.93-35.61-21.19-57.24-20.97-8.01,.08-18.27-.62-20.05,9.94-1.64,9.74,8.09,11.75,14.83,14.58,21.04,8.84,42.97,15.53,63.44,25.73,8.43,4.2,16.73,8.77,24.63,13.87,55.37,35.78,42.11,100.6,6.34,129.45-22.18,17.89-47.88,26.43-75.73,28.75-53.91,4.49-102.04-8.91-141.94-47.02-5.27-5.03-5.75-8.23-.9-13.88,12.66-14.77,24.97-29.87,36.74-45.35,4.59-6.04,7.15-5.2,12.42-.82,22.26,18.48,46.92,31.61,77.03,31.05,5.53-.1,10.95-.88,16.05-3.12,4.48-1.97,7.71-5.21,7.89-10.26,.17-4.74-2.74-8.09-6.85-9.91-8.9-3.93-17.9-7.66-26.96-11.21-23.81-9.34-48.02-17.84-69.24-32.58-36-25.01-47.8-65.63-29.27-103.04,14.41-29.09,40.53-42.53,70.74-49.58,12.79-2.99,25.85-4.26,39.05-4.06Z"/>
  <path class="cls-1" d="M111.36,565.76c10.7,28.19,30.03,46.37,59.2,52.18,36.3,7.22,66.12-4.59,88.37-33.98,4.53-5.99,7.43-6.35,13.51-2.38,22.15,14.46,44.61,28.45,67.12,42.35,4.67,2.88,6.12,4.78,2.84,10.3-65.04,109.48-229.69,117.91-304.97,15.48-2.9-3.94-5.47-8.03-7.07-12.66-4.07-11.8-1.05-20.78,9.55-27.34,23.53-14.57,47.15-29,71.45-43.93Z"/>
  <path class="cls-2" d="M95.06,560.22c-19.06,11.95-38.32,23.59-57.65,35.06-8.16,4.86-16.24,9.55-20.6,20.07-.93-1.72-1.8-3.45-2.6-5.17-4.82-11.33-8.48-23.26-10.89-35.63C1.14,563.37,0,551.82,0,540,0,524.12,2.05,508.72,5.94,494.04c2.75-10.46,6.41-20.54,10.92-30.18,11.58,19.02,31.83,24.98,48.12,36.14,9.77,6.69,20.36,12.15,30.27,18.66,16.71,10.96,16.66,30.99-.2,41.56Z"/>
</svg>