<?xml version="1.0" encoding="UTF-8"?>
<svg id="Camada_1" data-name="Camada 1" xmlns="http://www.w3.org/2000/svg" viewBox="0 0 1080 1080">
  <defs>
    <style>
      .cls-1 {
        fill: #27e0ff;
      }

      .cls-2 {
        fill: #0524dd;
      }
    </style>
  </defs>
  <path class="cls-2" d="M557.14-.79c14.05,2.81,28.19,5.23,42.13,8.5,95.74,22.44,177.52,113.79,190.41,211.51,8.49,64.33-.88,125.13-37.2,179.52-48.26,72.26-115.03,114.32-203.35,120.29-115.96,7.84-211.34-60.38-254.64-152.96-40.67-86.96-24.22-202.8,39.53-274.88C373.15,46.95,420.3,16.47,478.66,4.59c9.93-2.02,19.95-3.6,29.93-5.38,16.18,0,32.37,0,48.55,0Z"/>
  <path class="cls-1" d="M538.99,1079.98c-85.47,0-170.94-.03-256.41,.01-43.84,.02-85.23-8.61-121.58-34.6-41.27-29.5-65.61-70.01-69.88-120.08-7.63-89.39,2.76-177.08,36.35-260.71,20.01-49.83,49.95-92.75,99.15-119.08,30.77-16.47,63.74-24.41,98.26-23.77,10.9,.2,22.42,5.55,32.35,10.95,16.32,8.88,31.42,19.98,47.29,29.72,90.16,55.34,180.33,55.22,270.32-.45,12.55-7.76,25.33-15.3,37.14-24.1,21.59-16.11,45.32-18.44,71.05-14.67,70.1,10.28,119.69,48.55,153.14,109.8,29.85,54.68,43.26,114.07,49.29,175.27,3.06,31.08,4.53,62.48,4.15,93.7-1.15,96.33-65.72,166.13-161.6,176.07-11.51,1.19-23.14,1.84-34.71,1.86-84.77,.15-169.54,.08-254.3,.08Z"/>
</svg>