<?xml version="1.0" encoding="UTF-8"?>
<svg id="Camada_1" data-name="Camada 1" xmlns="http://www.w3.org/2000/svg" viewBox="0 0 1080 1080">
  <defs>
    <style>
      .cls-1 {
        fill: #27e0ff;
      }

      .cls-2 {
        fill: #0524dd;
      }
    </style>
  </defs>
  <path class="cls-1" d="M573.34,1080h-67.43c-3.05-.62-6.07-1.56-9.15-1.81-103.74-8.35-198.52-42.31-280.34-106.36C55.79,846.08-17,680.24,4.73,476.92,21.16,323.08,95.16,199.04,219.05,107.17,393.85-22.45,621.81-35.54,808.99,73.62c144.21,84.1,231.38,210.34,261.92,374.92,3.57,19.25,5.45,38.82,8.12,58.24v67.44c-.6,2.71-1.53,5.4-1.74,8.14-7.13,92.88-35.89,178.57-88.02,255.66-85.95,127.09-204.59,205.42-355.7,233.61-19.9,3.71-40.14,5.62-60.23,8.36Z"/>
  <path class="cls-2" d="M535.77,866.29c-7.44,0-14.89,.2-22.32-.04-12.28-.4-18.34-5.75-19.09-18.12-.83-13.6-.52-27.27-.93-40.91-.4-13.13-2.32-14.88-15.17-18.06-25.78-6.38-52.07-11.4-77.05-20.12-32.76-11.43-34.16-16.37-24.76-49.59,3.79-13.4,7.65-26.79,12.02-40,5.03-15.17,9.68-17.17,24.08-9.82,30.46,15.55,62.68,24.79,96.63,28.12,20.18,1.98,39.65-.96,57.73-10.35,30.04-15.61,35.71-51.72,10.45-74.26-11.3-10.09-25.47-17.48-39.29-24.11-28.7-13.78-58.75-24.89-86.93-39.61-30.23-15.8-54.76-38.53-67.72-71.33-25.92-65.6,5.67-140.66,72.32-171.87,9.23-4.32,18.73-8.25,28.41-11.41,11.47-3.74,16.24-11.22,16.05-22.94-.19-12.09,0-24.19,.31-36.27,.42-16.48,4.25-20.47,20.4-20.75,13.94-.24,27.91-.24,41.84,.27,12.96,.48,17.32,4.46,18.48,17.26,1,11.09,.85,22.29,1.15,33.44,.42,15.36,3.5,18.1,18.45,21.69,22.8,5.48,45.68,11.03,67.91,18.41,19.49,6.47,21.82,12.94,16.19,32.44-4.8,16.65-9.47,33.36-14.93,49.79-4.6,13.82-9.91,16.05-23.18,9.72-31.94-15.24-65.43-23.11-100.79-20.71-10.9,.74-22.43,2.85-32.21,7.45-26.94,12.69-31.45,44.42-8.24,63.06,14.01,11.26,30.76,19.47,47.07,27.42,23.9,11.66,49.16,20.63,72.69,32.94,51.14,26.75,80.56,69.1,83.1,127.42,2.73,62.77-39.67,120.03-102.34,141.05-2.64,.89-5.34,1.58-8,2.41-16.21,5.04-20.21,10.76-20.13,27.63,.06,13.64,.02,27.29-.58,40.91-.57,12.92-6.39,18.32-19.32,18.72-7.43,.23-14.88,.04-22.32,.04,0,.03,0,.06,0,.1Z"/>
</svg>