<?xml version="1.0" encoding="UTF-8"?>
<svg id="Camada_1" data-name="Camada 1" xmlns="http://www.w3.org/2000/svg" viewBox="0 0 1080 1080">
  <defs>
    <style>
      .cls-1 {
        fill: #27e0ff;
      }

      .cls-2 {
        fill: #0524dd;
      }
    </style>
  </defs>
  <path class="cls-1" d="M1080.44,486.98v14.4c0,137.15,.1,274.31-.04,411.46-.08,80.31-48.89,144.61-123.87,162.53-13.79,3.29-28.39,4.4-42.62,4.41-249.04,.26-498.07,.27-747.11,.14-85.09-.04-150.35-54.3-164.78-136.71-1.59-9.08-1.75-18.48-1.76-27.74-.11-138.84-.08-277.68-.06-416.52,0-3.72,.34-7.44,.56-11.96H1080.44Z"/>
  <path class="cls-2" d="M864.51,161.99c18.37,0,34.77-.09,51.17,.02,94.73,.64,164.09,70.12,164.73,165.01,.11,16.4,.02,32.8,.02,50.02H1.51c-6.28-66.9-.2-129.5,55.57-176.5,27.32-23.02,58.63-36.48,94.4-38.03,20.97-.91,42.01-.17,64.62-.17,0-19.06,0-36.63,0-54.19,0-17.3-.11-34.6,.03-51.9C216.38,24.14,238.57,.55,268.86,.02c31.23-.55,54.67,22.22,55.35,54.96,.63,30.37,.16,60.76,.17,91.14,0,4.6,0,9.19,0,14.83h431.85c0-10.04,0-19.63,0-29.22,0-25.32-.34-50.64,.1-75.95C756.92,22.91,779.84-.19,810.93,0c30.9,.19,53.39,23.86,53.54,56.72,.16,34.53,.04,69.06,.04,105.27Z"/>
  <path class="cls-2" d="M317.78,792.06c2.18-10.41,8.43-18.18,16.08-25.1,3.22-2.91,6.15-6.14,9.25-9.19,14.61-14.36,35.08-14.43,49.62,.03,25.57,25.43,51.02,50.99,76.53,76.49,.81,.81,1.66,1.59,2.82,2.7,1.26-1.19,2.5-2.31,3.67-3.49,70.16-70.15,140.32-140.31,210.47-210.47,16.52-16.52,36.24-16.56,52.73-.11,4,3.99,8,7.98,11.98,11.98,15.85,15.94,15.92,35.98,.09,51.84-24.04,24.09-48.13,48.15-72.2,72.21-62.68,62.68-125.36,125.36-188.04,188.04-12.48,12.48-24.86,12.48-37.32,.02-39.74-39.74-79.41-79.54-119.27-119.16-7.39-7.35-14.1-14.87-16.43-25.38v-10.43Z"/>
</svg>