<svg width="24" height="24" viewBox="0 0 24 24" fill="none" xmlns="http://www.w3.org/2000/svg">
<path d="M11.4115 0.119543L0.912741 4.61998C0.256568 4.90126 -0.109014 5.60445 0.0362811 6.29827C0.181577 6.99209 0.79088 7.49839 1.5033 7.49839V7.87343C1.5033 8.49692 2.0048 8.99853 2.62816 8.99853H21.376C21.9993 8.99853 22.5008 8.49692 22.5008 7.87343V7.49839C23.2132 7.49839 23.8272 6.99678 23.9678 6.29827C24.1085 5.59977 23.7429 4.89657 23.0914 4.61998L12.5926 0.119543C12.2177 -0.0398476 11.7865 -0.0398476 11.4115 0.119543ZM6.00277 10.4987H3.00312V19.7011C2.975 19.7152 2.94688 19.734 2.91876 19.7527L0.669019 21.2529C0.120646 21.6185 -0.127762 22.303 0.0644028 22.9358C0.256568 23.5687 0.842437 24 1.5033 24H22.5008C23.1617 24 23.7429 23.5687 23.935 22.9358C24.1272 22.303 23.8835 21.6185 23.3304 21.2529L21.0807 19.7527C21.0526 19.734 21.0244 19.7199 20.9963 19.7011V10.4987H18.0014V19.4996H16.1266V10.4987H13.1269V19.4996H10.8772V10.4987H7.87755V19.4996H6.00277V10.4987ZM12.0021 2.99795C12.3998 2.99795 12.7813 3.156 13.0626 3.43733C13.3439 3.71866 13.5019 4.10023 13.5019 4.4981C13.5019 4.89596 13.3439 5.27753 13.0626 5.55886C12.7813 5.84019 12.3998 5.99824 12.0021 5.99824C11.6043 5.99824 11.2228 5.84019 10.9415 5.55886C10.6603 5.27753 10.5022 4.89596 10.5022 4.4981C10.5022 4.10023 10.6603 3.71866 10.9415 3.43733C11.2228 3.156 11.6043 2.99795 12.0021 2.99795Z" fill="black"/>
</svg>
