<svg width="50" height="47" viewBox="0 0 50 47" fill="none" xmlns="http://www.w3.org/2000/svg">
<g clip-path="url(#clip0_205_1355)">
<path d="M45.1927 44.0626H43.2743V2.20325C43.2743 0.986479 42.2437 0.00012207 40.9723 0.00012207H8.74332C7.4719 0.00012207 6.44125 0.986479 6.44125 2.20325V44.0626H4.52286C3.8872 44.0626 3.37183 44.5558 3.37183 45.1642V47.0001H46.3438V45.1642C46.3438 44.5558 45.8284 44.0626 45.1927 44.0626ZM15.6495 6.97668C15.6495 6.36835 16.1649 5.87512 16.8006 5.87512H20.6373C21.273 5.87512 21.7884 6.36835 21.7884 6.97668V10.6486C21.7884 11.2569 21.273 11.7501 20.6373 11.7501H16.8006C16.1649 11.7501 15.6495 11.2569 15.6495 10.6486V6.97668ZM15.6495 15.7892C15.6495 15.1808 16.1649 14.6876 16.8006 14.6876H20.6373C21.273 14.6876 21.7884 15.1808 21.7884 15.7892V19.4611C21.7884 20.0694 21.273 20.5626 20.6373 20.5626H16.8006C16.1649 20.5626 15.6495 20.0694 15.6495 19.4611V15.7892ZM20.6373 29.3751H16.8006C16.1649 29.3751 15.6495 28.8819 15.6495 28.2736V24.6017C15.6495 23.9933 16.1649 23.5001 16.8006 23.5001H20.6373C21.273 23.5001 21.7884 23.9933 21.7884 24.6017V28.2736C21.7884 28.8819 21.273 29.3751 20.6373 29.3751ZM27.9272 44.0626H21.7884V36.3517C21.7884 35.7433 22.3037 35.2501 22.9394 35.2501H26.7762C27.4118 35.2501 27.9272 35.7433 27.9272 36.3517V44.0626ZM34.0661 28.2736C34.0661 28.8819 33.5507 29.3751 32.915 29.3751H29.0782C28.4426 29.3751 27.9272 28.8819 27.9272 28.2736V24.6017C27.9272 23.9933 28.4426 23.5001 29.0782 23.5001H32.915C33.5507 23.5001 34.0661 23.9933 34.0661 24.6017V28.2736ZM34.0661 19.4611C34.0661 20.0694 33.5507 20.5626 32.915 20.5626H29.0782C28.4426 20.5626 27.9272 20.0694 27.9272 19.4611V15.7892C27.9272 15.1808 28.4426 14.6876 29.0782 14.6876H32.915C33.5507 14.6876 34.0661 15.1808 34.0661 15.7892V19.4611ZM34.0661 10.6486C34.0661 11.2569 33.5507 11.7501 32.915 11.7501H29.0782C28.4426 11.7501 27.9272 11.2569 27.9272 10.6486V6.97668C27.9272 6.36835 28.4426 5.87512 29.0782 5.87512H32.915C33.5507 5.87512 34.0661 6.36835 34.0661 6.97668V10.6486Z" fill="white"/>
</g>
<rect x="0.802368" y="0.500122" width="48.1108" height="46" stroke="black"/>
<rect x="0.802368" y="0.500122" width="48.1108" height="46" stroke="black" stroke-opacity="0.2"/>
<defs>
<clipPath id="clip0_205_1355">
<rect x="0.302368" y="0.00012207" width="49.1108" height="47" fill="white"/>
</clipPath>
</defs>
</svg>
