<svg width="46" height="36" viewBox="0 0 46 36" fill="none" xmlns="http://www.w3.org/2000/svg">
<g clip-path="url(#clip0_1267_607)">
<path d="M12.5944 7.30419H16.2551V13.7685H8.42658L10.5383 8.65766C10.8717 7.84288 11.6844 7.30419 12.5944 7.30419ZM19.5893 13.7685V7.30419H25.2297C25.9035 7.30419 26.5426 7.60047 26.9663 8.11223L31.6343 13.7685H19.5893ZM37.3858 13.8359L30.4395 5.41876C29.1753 3.88348 27.2581 2.99463 25.2297 2.99463H12.5944C9.86447 2.99463 7.41241 4.60398 6.4052 7.05504L3.51552 14.0648C1.8623 14.6978 0.695312 16.2533 0.695312 18.0781V25.6198C0.695312 26.8117 1.68864 27.7746 2.91814 27.7746H5.23127C5.75919 30.8317 8.50299 33.1615 11.8094 33.1615C15.1159 33.1615 17.8597 30.8317 18.3876 27.7746H27.4595C27.9874 30.8317 30.7312 33.1615 34.0377 33.1615C37.3441 33.1615 40.0879 30.8317 40.6159 27.7746H42.929C44.1585 27.7746 45.1518 26.8117 45.1518 25.6198V22.3876C45.1518 17.9973 41.762 14.3746 37.3858 13.8359ZM30.891 25.6198C31.0325 25.2142 31.2558 24.8398 31.5478 24.5185C31.8398 24.1973 32.1947 23.9354 32.592 23.7482C32.9893 23.561 33.421 23.4522 33.862 23.4282C34.303 23.4041 34.7446 23.4652 35.1611 23.6079C35.5775 23.7507 35.9606 23.9722 36.2879 24.2597C36.6153 24.5472 36.8805 24.8948 37.0681 25.2825C37.2557 25.6702 37.362 26.0901 37.3808 26.5179C37.3995 26.9457 37.3304 27.3729 37.1774 27.7746C37.0359 28.1802 36.8127 28.5546 36.5207 28.8759C36.2287 29.1972 35.8737 29.459 35.4764 29.6462C35.0792 29.8334 34.6475 29.9422 34.2064 29.9662C33.7654 29.9903 33.3238 29.9292 32.9074 29.7865C32.4909 29.6437 32.1079 29.4222 31.7805 29.1347C31.4531 28.8472 31.1879 28.4996 31.0003 28.1119C30.8127 27.7243 30.7064 27.3043 30.6877 26.8765C30.6689 26.4487 30.738 26.0215 30.891 25.6198ZM11.8094 23.465C12.6937 23.465 13.5418 23.8056 14.1671 24.4117C14.7924 25.0179 15.1437 25.84 15.1437 26.6972C15.1437 27.5544 14.7924 28.3765 14.1671 28.9827C13.5418 29.5888 12.6937 29.9294 11.8094 29.9294C10.9251 29.9294 10.0771 29.5888 9.45178 28.9827C8.82649 28.3765 8.4752 27.5544 8.4752 26.6972C8.4752 25.84 8.82649 25.0179 9.45178 24.4117C10.0771 23.8056 10.9251 23.465 11.8094 23.465Z" fill="white"/>
</g>
<defs>
<clipPath id="clip0_1267_607">
<rect width="44.4565" height="34.4765" fill="white" transform="translate(0.695312 0.839844)"/>
</clipPath>
</defs>
</svg>
