<svg width="40" height="35" viewBox="0 0 40 35" xmlns="http://www.w3.org/2000/svg">
    <g clip-path="url(#clip0_1267_589)">
        <path
            d="M39.2585 17.6453C39.2585 18.8443 38.2593 19.7836 37.1269 19.7836H34.9953L35.0419 30.4551C35.0419 30.635 35.0286 30.8148 35.0086 30.9947V32.0672C35.0086 33.5393 33.8162 34.7317 32.344 34.7317H31.2782C31.2049 34.7317 31.1317 34.7317 31.0584 34.7251C30.9651 34.7317 30.8719 34.7317 30.7786 34.7317H28.6137H27.0149C25.5428 34.7317 24.3504 33.5393 24.3504 32.0672V30.4684V26.2052C24.3504 25.0261 23.3978 24.0735 22.2187 24.0735H17.9555C16.7764 24.0735 15.8238 25.0261 15.8238 26.2052V30.4684V32.0672C15.8238 33.5393 14.6314 34.7317 13.1593 34.7317H11.5605H9.43556C9.33564 34.7317 9.23572 34.7251 9.1358 34.7184C9.05587 34.7251 8.97593 34.7317 8.89599 34.7317H7.83017C6.35801 34.7317 5.16562 33.5393 5.16562 32.0672V24.6064C5.16562 24.5465 5.16562 24.4799 5.17228 24.4199V19.7836H3.03398C1.83494 19.7836 0.902344 18.851 0.902344 17.6453C0.902344 17.0458 1.10218 16.5129 1.56848 16.0466L18.6482 1.1584C19.1145 0.692102 19.6474 0.625488 20.1137 0.625488C20.58 0.625488 21.113 0.758716 21.5126 1.09178L38.5258 16.0466C39.0587 16.5129 39.3251 17.0458 39.2585 17.6453Z"
            fill="white" />
    </g>
    <defs>
        <clipPath id="clip0_1267_589">
            <rect width="38.3695" height="34.1062" fill="white" transform="translate(0.902344 0.625488)" />
        </clipPath>
    </defs>
</svg>