<svg width="47" height="47" viewBox="0 0 47 47" fill="none" xmlns="http://www.w3.org/2000/svg">
<g clip-path="url(#clip0_205_1365)">
<path d="M45.6164 8.69946C42.7678 7.50463 39.917 7.05005 37.0676 7.05005C28.0223 7.04931 18.9777 11.6281 9.93242 11.6281C7.66394 11.6281 5.39692 11.3403 3.12844 10.6206C2.87361 10.5398 2.61805 10.5016 2.36836 10.5016C1.1045 10.5016 0 11.4798 0 12.8377V36.1364C0 37.064 0.530953 37.943 1.38356 38.2999C4.2322 39.4955 7.08305 39.95 9.93242 39.95C18.9777 39.95 28.023 35.3712 37.0683 35.3712C39.3368 35.3712 41.6038 35.6591 43.8723 36.3788C44.1271 36.4596 44.3827 36.4977 44.6324 36.4977C45.8962 36.4977 47.0007 35.5196 47.0007 34.1617V10.8637C47 9.93541 46.469 9.0571 45.6164 8.69946ZM3.525 14.41C5.00256 14.7801 6.54475 14.9659 8.131 15.0658C7.69919 17.2241 5.80156 18.8507 3.525 18.8507V14.41ZM3.525 35.3396V31.8308C6.04905 31.8308 8.09134 33.8334 8.2037 36.3399C6.54916 36.2069 5.00256 35.8765 3.525 35.3396ZM23.5 30.55C20.2548 30.55 17.625 27.393 17.625 23.5C17.625 19.6064 20.2555 16.45 23.5 16.45C26.7445 16.45 29.375 19.6064 29.375 23.5C29.375 27.3944 26.7437 30.55 23.5 30.55ZM43.475 32.5901C42.1884 32.2678 40.8526 32.0871 39.4859 31.9703C39.917 30.0551 41.5054 28.601 43.475 28.3513V32.5901ZM43.475 15.2508C41.2065 14.9637 39.4462 13.0697 39.3765 10.7307C40.8114 10.8901 42.1737 11.1883 43.475 11.6605V15.2508Z" fill="white"/>
</g>
<defs>
<clipPath id="clip0_205_1365">
<rect width="47" height="47" fill="white"/>
</clipPath>
</defs>
</svg>
