<svg width="24" height="24" viewBox="0 0 24 24" fill="none" xmlns="http://www.w3.org/2000/svg">
<path d="M9.71235 0H1.62503C0.727549 0 0 0.722787 0 1.61439V9.64878C0 10.5404 0.727549 11.2632 1.62503 11.2632H9.71235C10.6098 11.2632 11.3374 10.5404 11.3374 9.64878V1.61439C11.3374 0.722787 10.6098 0 9.71235 0Z" fill="black"/>
<path d="M22.3754 0H14.2881C13.3906 0 12.6631 0.722787 12.6631 1.61439V9.64878C12.6631 10.5404 13.3906 11.2632 14.2881 11.2632H22.3754C23.2729 11.2632 24.0005 10.5404 24.0005 9.64878V1.61439C24.0005 0.722787 23.2729 0 22.3754 0Z" fill="black"/>
<path d="M9.71235 12.7368H1.62503C0.727549 12.7368 0 13.4596 0 14.3512V22.3856C0 23.2772 0.727549 24 1.62503 24H9.71235C10.6098 24 11.3374 23.2772 11.3374 22.3856V14.3512C11.3374 13.4596 10.6098 12.7368 9.71235 12.7368Z" fill="black"/>
<path d="M24.0005 18.3684C24.0005 15.2582 21.4625 12.7368 18.3318 12.7368C15.201 12.7368 12.6631 15.2582 12.6631 18.3684C12.6631 21.4786 15.201 24 18.3318 24C21.4625 24 24.0005 21.4786 24.0005 18.3684Z" fill="black"/>
</svg>
