<svg width="139" height="27" viewBox="0 0 139 27" fill="none" xmlns="http://www.w3.org/2000/svg">
<g clip-path="url(#clip0_632_586)">
<path d="M19.0718 12.4306C19.0381 11.5192 18.7849 10.6245 18.3442 9.81634L14.3714 2.69521C14.067 2.15141 13.865 1.57267 13.7464 0.958984L13.578 1.25671C12.5973 3.02788 12.5973 5.2031 13.578 6.97579L16.756 12.6949C17.7368 14.466 17.7368 16.6413 16.756 18.4139L16.5877 18.7117C16.4691 18.098 16.2671 17.5193 15.9626 16.9922L13.0555 11.747L11.1964 8.41429C10.8919 7.87049 10.6899 7.29174 10.5714 6.69477L10.403 6.9925C9.42226 8.74696 9.42226 10.9222 10.3855 12.6934L13.581 18.4124C14.5617 20.1836 14.5617 22.3588 13.581 24.1315L13.4126 24.4292C13.2941 23.8156 13.0745 23.2368 12.7876 22.7097L8.81477 15.5537C8.29072 14.6058 8.03748 13.5364 8.08725 12.4488C3.8246 13.588 0.883789 16.0443 0.883789 18.8864C0.883789 22.8328 6.56341 26.0257 13.578 26.0257C20.5927 26.0257 26.2723 22.8328 26.2723 18.8864C26.2723 16.0443 23.3315 13.5896 19.0718 12.4306ZM31.0561 24.6389C31.0897 23.7791 31.242 22.9376 31.5128 22.1477C32.8815 22.7796 34.3702 23.0955 35.8735 23.1123C38.0883 23.1123 39.3223 22.3755 39.3223 20.9021C39.3223 19.4286 38.4088 18.7967 36.178 17.7805L34.9615 17.2367C32.7131 16.219 31.1922 14.9035 31.1922 12.2908C31.1922 9.46697 33.0688 7.65935 36.9392 7.65935C38.4264 7.64112 39.8975 7.8872 41.2999 8.37784C41.2487 9.21937 41.0803 10.0442 40.8271 10.8508C39.5755 10.3951 38.2581 10.149 36.9216 10.1323C34.843 10.1323 33.8959 10.9738 33.8959 12.2893C33.8959 13.6048 34.8254 14.3248 36.4986 15.0615L37.7838 15.6235C40.8095 16.9572 42.0772 18.3775 42.0772 20.7806C42.0772 23.6226 39.9985 25.5867 35.9584 25.5867C33.9969 25.5867 32.3911 25.289 31.0561 24.6389ZM54.89 12.8164V25.1827H52.4893L52.3547 23.691C51.6784 24.7786 50.6639 25.4622 48.9908 25.4622C45.8465 25.4622 43.7503 23.094 43.7503 18.9365C43.7503 14.779 45.9987 12.1131 50.4107 12.1131C52.1014 12.1131 53.5038 12.306 54.89 12.8149V12.8164ZM52.2537 22.3588V14.5876C51.6286 14.4827 51.0021 14.4296 50.377 14.4478C47.6558 14.4478 46.4042 16.184 46.4042 18.9562C46.4042 21.4824 47.385 23.2535 49.7169 23.2535C50.6303 23.2535 51.5261 22.9376 52.2522 22.3588H52.2537ZM68.3118 16.8691V25.1842H65.6915V17.343C65.6915 15.3957 65.0665 14.4493 62.4462 14.4493C61.7539 14.4676 61.06 14.5192 60.3676 14.6422V25.1842H57.7474V12.8179C59.4205 12.3971 61.2459 12.1344 62.5136 12.1344C66.8919 12.1161 68.3118 13.8706 68.3118 16.8706V16.8691ZM75.5796 23.1487C76.272 23.1487 76.9659 23.0257 77.6246 22.7796C77.5573 23.5163 77.4563 24.3578 77.3201 25.0779C76.6102 25.3589 75.8666 25.4819 75.1054 25.4637C72.5525 25.4637 70.9305 24.253 70.9305 21.2363V8.25632C71.7752 7.99353 72.671 7.85226 73.5508 7.85226V12.5354H77.6919C77.6583 13.307 77.5734 14.0969 77.4548 14.8686H73.5493V20.937C73.5493 22.5335 74.3105 23.1472 75.5782 23.1472L75.5796 23.1487ZM89.644 12.7997V25.166H87.2434L87.0911 23.6743C86.4148 24.7619 85.4004 25.4455 83.7273 25.4455C80.583 25.4455 78.4868 23.0773 78.4868 18.9198C78.4868 14.7622 80.7352 12.0964 85.1472 12.0964C86.854 12.1146 88.2578 12.3075 89.644 12.7982V12.7997ZM87.0238 22.3588V14.5876C86.3988 14.4827 85.7722 14.4296 85.1472 14.4478C82.4259 14.4478 81.1583 16.184 81.1583 18.9562C81.1583 21.4824 82.139 23.2535 84.4709 23.2535C85.4004 23.2535 86.2963 22.9376 87.0238 22.3588ZM103.066 16.8691V25.1842H100.446V17.343C100.446 15.3957 99.8205 14.4493 97.2003 14.4493C96.5079 14.4676 95.814 14.5192 95.1378 14.6422V25.1842H92.5014V12.8179C94.1746 12.3971 95.9999 12.1344 97.2676 12.1344C101.662 12.1161 103.066 13.8706 103.066 16.8706V16.8691ZM116.369 7.85378V25.1675H113.968L113.834 23.5892C113.157 24.7467 112.143 25.4667 110.419 25.4667C107.274 25.4667 105.178 23.0986 105.178 18.941C105.178 14.7835 107.427 12.1176 111.821 12.1176C112.48 12.1176 113.14 12.1875 113.782 12.3106V8.24113C114.593 7.9434 115.523 7.8553 116.369 7.8553V7.85378ZM113.782 22.3072V14.6939C113.09 14.5359 112.396 14.4478 111.686 14.4478C109.084 14.4478 107.85 16.1324 107.85 18.9562C107.85 21.4824 108.83 23.2535 111.162 23.2535C112.109 23.2535 113.039 22.9209 113.782 22.3057V22.3072ZM129.57 19.8859H121.203C121.541 22.096 122.775 23.1487 125.108 23.1487C126.562 23.1487 127.982 22.8328 129.3 22.2008C129.199 22.9193 129.063 23.8672 128.895 24.6738C127.695 25.2358 126.444 25.4637 125.041 25.4637C120.646 25.4637 118.533 22.9376 118.533 18.7102C118.533 15.0266 120.172 12.0979 124.347 12.0979C128.083 12.0979 129.706 14.6407 129.706 17.7638C129.706 18.4823 129.655 19.1841 129.571 19.8859H129.57ZM121.151 17.6058H127.068C127.068 15.5704 126.02 14.3962 124.211 14.3962C122.334 14.3962 121.353 15.502 121.151 17.6058ZM138.748 12.2209C138.748 13.0108 138.681 13.7825 138.511 14.5541C137.852 14.4843 137.192 14.4493 136.533 14.4493C135.874 14.4493 135.248 14.5025 134.607 14.5891V25.1842H131.987V12.8179C133.102 12.4321 134.995 12.1344 136.466 12.1344C137.209 12.1161 137.987 12.1526 138.748 12.2225V12.2209Z" fill="#111111"/>
</g>
<defs>
<clipPath id="clip0_632_586">
<rect width="137.867" height="25.0667" fill="white" transform="translate(0.883789 0.958984)"/>
</clipPath>
</defs>
</svg>
