<svg width="76" height="27" viewBox="0 0 76 27" fill="none" xmlns="http://www.w3.org/2000/svg">
<g clip-path="url(#clip0_632_592)">
<path d="M3.75028 2.5358C3.74902 2.57557 3.74902 2.62279 3.74902 2.71724V3.06894C3.74902 3.16339 3.74902 3.21061 3.75028 3.25038C3.79541 4.43348 4.80965 5.38294 6.07337 5.4252C6.11599 5.42644 6.16614 5.42644 6.26769 5.42644C6.36924 5.42644 6.41939 5.42644 6.46076 5.4252C7.72573 5.38294 8.73997 4.43348 8.78385 3.25038C8.78636 3.21061 8.78636 3.16339 8.78636 3.06894V2.71724C8.78636 2.62279 8.78636 2.57557 8.78385 2.5358C8.73997 1.3527 7.72573 0.403238 6.46201 0.360984C6.41939 0.359741 6.36924 0.359741 6.26769 0.359741C6.16614 0.359741 6.11599 0.359741 6.07337 0.360984C4.80965 0.403238 3.79541 1.3527 3.75028 2.5358ZM36.7487 10.9256V20.624C36.7487 22.3105 37.4056 23.0698 39.4792 23.0698C40.348 23.0698 41.2018 22.8299 41.7133 22.6497V26.5582C40.8445 26.8477 39.5156 26.9919 38.4274 26.9919C34.0683 26.9919 32.0022 24.827 32.0022 21.0863V1.51799H36.7487V7.74168H41.7133V10.9269H36.7487V10.9256Z" fill="#111111"/>
<path fill-rule="evenodd" clip-rule="evenodd" d="M43.3203 16.8212C43.3203 11.076 46.9748 7.16382 52.8233 7.16382C59.0717 7.16382 62.1683 11.6825 61.8424 18.2355H48.1972C48.4441 21.5971 50.0363 23.3022 52.8546 23.3022C55.2379 23.3022 56.5016 22.1626 57.047 20.552H61.6831C60.7817 24.5027 57.6262 26.9932 52.8245 26.9932C46.8958 26.9932 43.3216 23.117 43.3216 17.2985V16.82L43.3203 16.8212ZM52.7869 10.9281C50.1855 10.9281 48.6322 12.3088 48.1959 15.0516L57.0746 14.9795C56.8188 12.4194 55.4247 10.9281 52.7869 10.9281Z" fill="#111111"/>
<path d="M22.4755 7.1626C19.4228 7.1626 17.5398 8.94967 16.597 10.7082L16.3788 7.74048H11.853V26.4128H16.5982V15.919C16.5982 12.8221 18.2556 10.9256 20.7592 10.9256C23.2629 10.9256 24.1906 12.5686 24.1906 15.412V26.4128H28.9358V14.3991C28.9433 10.231 27.118 7.1626 22.4743 7.1626H22.4755ZM69.2383 10.7082C70.4431 8.37055 72.9028 7.1626 74.7507 7.1626C75.0792 7.1626 75.597 7.20609 75.8816 7.27072V10.9256C75.4227 10.8797 74.9626 10.8548 74.5013 10.8536C71.1288 10.8536 69.237 12.8656 69.237 16.2819V26.4141H64.4905V7.74172H69.0903L69.237 10.7094L69.2383 10.7082ZM0.682617 7.74172V10.9219H3.89332V26.4128H8.64105V7.74172H0.682617Z" fill="#111111"/>
</g>
<defs>
<clipPath id="clip0_632_592">
<rect width="75.2002" height="26.6334" fill="white" transform="translate(0.682617 0.359741)"/>
</clipPath>
</defs>
</svg>
