<svg width="166" height="26" viewBox="0 0 166 26" fill="none" xmlns="http://www.w3.org/2000/svg">
<g clip-path="url(#clip0_632_578)">
<path fill-rule="evenodd" clip-rule="evenodd" d="M2.81384 16.8986V3.79382C2.81384 2.13577 2.7609 1.37386 1.4575 1.37386H0.849609V0.691772H7.31732C10.3914 0.691772 12.1293 1.51173 12.0892 4.04235C12.0691 5.35754 10.6123 7.20789 8.52397 7.94984C10.4955 8.32535 12.5492 10.3916 12.5492 12.4596C12.5492 16.3 9.23409 16.9004 6.71126 16.9004H2.81384V16.8986ZM4.93871 7.79927H6.49403C8.84161 7.79746 10.0464 5.59519 10.0464 4.4487C10.0464 1.4174 7.56011 1.17976 4.93871 1.37567V7.79746V7.79927ZM4.93871 14.4932C4.93871 15.4419 6.21655 16.1313 7.11469 16.251C9.36735 16.5521 10.6726 14.6728 10.6781 13.187C10.689 10.3517 8.15522 8.44508 6.07051 8.53941C5.71819 8.55574 5.15594 8.52671 4.93871 8.56299V14.4932ZM30.7201 7.28771C32.0819 5.67138 34.132 4.96208 35.3623 4.96208C35.9958 4.96208 36.5416 5.12353 36.9961 5.43555C37.4543 5.7512 37.8194 6.27183 38.0896 6.99564C38.2776 7.50177 38.3945 8.18204 38.3945 9.22331V14.1703C38.3945 14.8977 38.4565 15.3893 38.5715 15.6524C38.6628 15.8592 38.8143 16.0242 39.0188 16.1385C39.2251 16.2546 39.6741 16.3145 40.2291 16.3145V16.7807H34.4788V16.3145H34.7216C35.2601 16.3145 35.7402 16.2329 35.9556 16.0696C36.1692 15.9081 36.3189 15.6632 36.4029 15.3494C36.4357 15.2242 36.454 14.8288 36.454 14.1685V9.40654C36.454 8.35075 36.3152 7.57977 36.0414 7.10086C35.7694 6.62376 35.2053 6.38612 34.5555 6.38612C33.5533 6.38612 31.7113 6.93397 30.7183 8.03147V14.1666C30.7183 14.9467 30.7657 15.4256 30.857 15.6106C30.9775 15.8519 31.1418 16.0297 31.3517 16.1458C31.558 16.2601 32.1221 16.3145 32.7592 16.3145V16.7807H26.9833V16.3145H27.2389C27.8322 16.3145 28.232 16.1676 28.4401 15.87C28.6482 15.5725 28.7522 15.0047 28.7522 14.1685V8.54304C28.7522 7.39837 27.9727 6.77433 26.7259 6.41333L30.7183 4.86231V7.28771H30.7201ZM50.3916 7.7902C49.8494 6.94304 48.8089 5.71854 47.3175 5.65142C44.8257 5.53895 43.8801 8.21288 43.8709 10.1467C43.8527 13.8038 45.1908 16.0641 48.3927 16.1567C49.3073 16.1839 50.5376 15.9118 51.4394 15.3458L51.4705 16.3689C50.1835 17.1562 49.0152 17.2705 47.3595 17.2705C43.9093 17.2705 41.6676 14.6038 41.6676 11.4183C41.6676 7.98612 43.9969 4.8877 47.8815 4.8877C49.0626 4.8877 51.0689 5.30675 51.8447 6.24644L50.3934 7.7902H50.3916ZM58.8911 4.82058C62.124 4.82058 64.7454 7.60517 64.7454 11.041C64.7454 14.4768 62.124 17.2614 58.8911 17.2614C55.6581 17.2614 53.0367 14.4768 53.0367 11.041C53.0367 7.60517 55.6581 4.82058 58.8911 4.82058ZM58.8911 5.55346C60.9101 5.55346 62.5457 8.00971 62.5457 11.041C62.5457 14.0723 60.9101 16.5286 58.8911 16.5286C56.8721 16.5286 55.2364 14.0723 55.2364 11.041C55.2364 8.00971 56.8721 5.55346 58.8911 5.55346ZM15.0884 8.80064C15.0775 6.14122 17.9344 4.86231 19.6777 4.86231C20.7146 4.86231 21.5598 5.03464 22.2225 5.37931C22.7208 5.63872 22.8705 6.02693 23.1078 6.58204C23.2612 6.93941 23.325 7.68136 23.3378 8.79701L23.4035 14.7381C23.42 16.2002 25.1761 16.2274 25.6325 16.066L25.6562 16.6229C24.9059 17.129 24.1374 17.3576 23.5532 17.2759C22.3375 17.1054 21.6748 16.0025 21.5561 15.0011C20.7292 16.0134 19.2816 17.2669 17.593 17.2669C16.1107 17.2669 14.8219 16.2655 14.8858 14.2356C14.9734 11.4655 19.654 10.6546 21.4503 10.0034V8.64826C21.4503 6.90494 21.2422 5.77478 19.2962 5.77478C17.8778 5.77478 17.2151 6.37161 17.3301 8.00245L15.0884 8.80064ZM21.4503 13.3376V10.7798C20.2856 11.2351 18.0275 11.8138 17.2681 12.8732C16.9778 13.2777 16.6273 14.368 17.2425 15.2605C18.4546 17.0238 21.4503 15.3512 21.4503 13.3376Z" fill="#505050"/>
<path fill-rule="evenodd" clip-rule="evenodd" d="M84.2618 8.80058C84.2508 6.14116 87.1077 4.86224 88.8511 4.86224C89.8879 4.86224 90.7331 5.03458 91.3958 5.37925C91.8942 5.63866 92.0438 6.02687 92.2812 6.58198C92.4345 6.93935 92.4984 7.6813 92.5112 8.79695L92.5769 14.738C92.5933 16.2001 94.3494 16.2274 94.8058 16.0659L94.8295 16.6228C94.0793 17.1289 93.3107 17.3575 92.7266 17.2759C91.5108 17.1054 90.8481 16.0024 90.7295 15.001C89.9025 16.0133 88.4549 17.2668 86.7663 17.2668C85.284 17.2668 83.9953 16.2655 84.0591 14.2355C84.1468 11.4654 88.8273 10.6546 90.6236 10.0033V8.6482C90.6236 6.90488 90.4155 5.77472 88.4695 5.77472C87.0511 5.77472 86.3885 6.37155 86.5035 8.00239L84.2618 8.80058ZM90.6236 13.3376V10.7797C89.4589 11.2351 87.2008 11.8137 86.4414 12.8732C86.1512 13.2777 85.8007 14.3679 86.4159 15.2605C87.628 17.0237 90.6236 15.3512 90.6236 13.3376ZM68.4585 16.8967V3.55068C68.4585 1.29398 68.1883 1.39738 66.5381 1.39738V0.691711H72.6316C78.2377 0.691711 81.8959 2.26995 81.8959 8.70987C81.8959 12.641 79.3877 16.8986 73.2778 16.8986H68.4567L68.4585 16.8967ZM70.5761 14.5258C70.8937 15.9534 72.8433 16.1802 73.5315 16.1802C77.1478 16.1802 79.6542 13.7112 79.6542 8.8169C79.6542 6.58016 78.8912 4.79331 77.6699 3.50532C76.3611 2.12482 75.1836 1.25588 70.5742 1.3484V14.5239L70.5761 14.5258ZM96.4195 19.7212C97.0639 20.0224 98.0935 20.0224 98.5335 19.8827C100.463 19.2677 101.082 18.2174 101.843 16.5902L97.5422 7.64139C97.042 6.60012 96.7262 5.9144 95.693 5.86361V5.19422H100.529V5.86361H100.26C99.2016 5.86361 99.1833 6.3788 99.8442 7.80466L102.874 14.3353L106.018 7.49808C106.407 6.65273 106.553 5.84547 105.147 5.84547V5.19422H108.76V5.84547C108.183 5.84547 107.761 5.81826 106.958 7.49808L101.556 18.8178C100.636 20.748 98.6704 22.5004 95.3772 21.4809L96.4195 19.7194V19.7212ZM133.523 5.19603H138.388V5.85817H138.032C136.876 5.85817 137.101 6.63821 137.515 7.52166L140.805 14.5602L143.756 7.27858C144.11 6.40601 144.114 5.86905 142.575 5.86905V5.19603H146.577V5.86905C146.056 5.86905 145.571 5.82914 144.976 7.22053L140.691 17.2523H139.945L135.33 7.47087C134.808 6.36247 134.631 5.95068 133.523 5.85635V5.19422V5.19603ZM163.477 0.659058V14.1684C163.477 14.8886 163.528 15.3675 163.634 15.5997C163.74 15.8337 163.902 16.0133 164.123 16.1348C164.341 16.2546 164.751 16.3162 165.35 16.3162V16.7825H159.653V16.3162C160.186 16.3162 160.697 16.26 160.89 16.153C161.086 16.0459 161.239 15.8645 161.35 15.6142C161.46 15.3657 161.515 14.8813 161.515 14.1702V4.16202C161.515 3.09172 160.158 2.406 159.445 2.08128L163.477 0.659058ZM126.821 4.82052C130.054 4.82052 132.676 7.60511 132.676 11.0409C132.676 14.4768 130.054 17.2614 126.821 17.2614C123.588 17.2614 120.967 14.4768 120.967 11.0409C120.967 7.60511 123.588 4.82052 126.821 4.82052ZM126.821 5.5534C128.84 5.5534 130.476 8.00965 130.476 11.0409C130.476 14.0722 128.84 16.5285 126.821 16.5285C124.802 16.5285 123.167 14.0722 123.167 11.0409C123.167 8.00965 124.802 5.5534 126.821 5.5534ZM148.023 8.80058C148.012 6.14116 150.868 4.86224 152.612 4.86224C153.649 4.86224 154.494 5.03458 155.157 5.37925C155.655 5.63866 155.805 6.02687 156.042 6.58198C156.195 6.93935 156.259 7.6813 156.272 8.79695L156.338 14.738C156.354 16.2001 158.11 16.2274 158.567 16.0659L158.59 16.6228C157.84 17.1289 157.071 17.3575 156.487 17.2759C155.272 17.1054 154.609 16.0024 154.49 15.001C153.663 16.0133 152.216 17.2668 150.527 17.2668C149.045 17.2668 147.756 16.2655 147.82 14.2355C147.908 11.4654 152.588 10.6546 154.384 10.0033V8.6482C154.384 6.90488 154.176 5.77472 152.23 5.77472C150.812 5.77472 150.149 6.37155 150.264 8.00239L148.023 8.80058ZM154.384 13.3376V10.7797C153.22 11.2351 150.963 11.8137 150.202 12.8732C149.912 13.2777 149.561 14.3679 150.177 15.2605C151.389 17.0237 154.384 15.3512 154.384 13.3376ZM118.287 7.78833C117.745 6.94116 116.704 5.71667 115.213 5.64955C112.721 5.53708 111.776 8.21101 111.766 10.1448C111.748 13.802 113.086 16.0623 116.288 16.1548C117.203 16.182 118.433 15.9099 119.335 15.3439L119.366 16.367C118.079 17.1543 116.911 17.2686 115.255 17.2686C111.805 17.2686 109.563 14.602 109.563 11.4165C109.563 7.98425 111.892 4.88583 115.777 4.88583C116.958 4.88583 118.964 5.30488 119.74 6.24456L118.289 7.78833H118.287Z" fill="#111111"/>
<path fill-rule="evenodd" clip-rule="evenodd" d="M68.458 20.5267H73.6899V25.7258H68.458V20.5267Z" fill="#505050"/>
<path fill-rule="evenodd" clip-rule="evenodd" d="M73.6904 20.5267H78.9223V25.7258H73.6904V20.5267Z" fill="#111111"/>
</g>
<defs>
<clipPath id="clip0_632_578">
<rect width="164.5" height="25.0667" fill="white" transform="translate(0.849609 0.659058)"/>
</clipPath>
</defs>
</svg>
