<svg width="185" height="40" viewBox="0 0 185 40" fill="none" xmlns="http://www.w3.org/2000/svg">
<path d="M90.2125 18.2656C92.9197 16.8316 94.5589 13.8888 94.5589 10.3208C94.5589 7.65669 93.7748 5.47849 92.2406 3.844C90.7465 2.14154 88.7771 1.27842 86.394 1.27842H76.5806C76.4941 1.27842 76.4262 1.35657 76.4262 1.44832V38.549C76.4262 38.6442 76.4941 38.7189 76.5806 38.7189H87.7213C90.2989 38.7189 92.4876 37.7165 94.2348 35.7422C95.9912 33.7509 96.8834 31.3246 96.8834 28.5313C96.8834 23.4783 94.3027 19.5739 90.2187 18.2656M77.6795 2.66145H86.3909C90.4595 2.66145 93.3025 5.80811 93.3025 10.3208C93.3025 12.4922 92.6481 14.3136 91.3578 15.734C90.1014 17.1171 88.4313 17.8239 86.394 17.8239H77.6826L77.6795 2.66145ZM93.2964 34.7873C91.8023 36.4796 89.9254 37.3359 87.7183 37.3359H77.6795V19.2001H87.2923C89.7402 19.2001 91.7066 20.053 93.3025 21.8099C94.846 23.5055 95.627 25.7687 95.627 28.5279C95.627 31.012 94.8645 33.0576 93.2994 34.7839" fill="#524F4F"/>
<path d="M23.1767 26.7398C21.979 27.8748 20.5868 28.4423 19.0063 28.4423C16.9751 28.4423 15.3328 27.6641 14.0703 26.1078C12.8046 24.5514 12.1749 22.5159 12.1749 19.9979C12.1749 17.4799 12.8046 15.4207 14.0579 13.8643C15.3112 12.308 16.9627 11.5264 19.0063 11.5264C20.4942 11.5264 21.837 12.0429 23.0317 13.0726C24.2294 14.1022 25.0783 15.4581 25.5722 17.1503H37.2439C36.6358 12.0293 34.654 7.89383 31.3016 4.73698C27.9492 1.57673 23.8343 0 18.96 0C15.3483 0 12.0977 0.856326 9.20525 2.57238C6.31279 4.28503 4.05624 6.67051 2.4356 9.72202C0.808778 12.7735 0 16.1988 0 19.9979C0 23.797 0.808778 27.2223 2.43251 30.2773C4.05624 33.3288 6.31279 35.7108 9.20217 37.4269C12.0946 39.1429 15.3452 39.9993 18.9569 39.9993C23.9114 39.9993 28.0819 38.3614 31.4683 35.0924C34.8577 31.82 36.821 27.5452 37.3643 22.2679H25.5228C25.1555 24.1165 24.3745 25.6048 23.1767 26.7398Z" fill="#524F4F"/>
<path d="M65.2025 16.3423C62.8997 13.9568 59.9331 12.7675 56.2967 12.7675C55.9232 12.7675 55.4169 12.7879 54.7748 12.8218L61.2142 1.27842H49.7153L44.2731 11.065C42.7327 13.8379 41.5967 16.3933 40.862 18.7312C40.1273 21.0691 39.7569 23.3934 39.7569 25.7007C39.7569 29.928 41.0966 33.3669 43.7792 36.0208C46.4617 38.6747 49.9407 40 54.2192 40C58.4977 40 62.0384 38.6781 64.687 36.0344C67.3325 33.3907 68.6599 29.9076 68.6599 25.5886C68.6599 21.8065 67.5085 18.7278 65.2087 16.3423M57.445 29.1328C56.6147 30.0469 55.5435 30.5023 54.2223 30.5023C52.9011 30.5023 51.8299 30.0469 51.0026 29.1328C50.1722 28.2221 49.7586 27.0396 49.7586 25.5886C49.7586 24.1376 50.1722 22.9448 51.0026 22.0104C51.8299 21.0793 52.9042 20.6137 54.2223 20.6137C55.5404 20.6137 56.6147 21.0793 57.445 22.0104C58.2723 22.9414 58.6891 24.1342 58.6891 25.5886C58.6891 27.043 58.2754 28.2221 57.445 29.1328Z" fill="#524F4F"/>
<path d="M184.975 38.4539L171.899 18.2792L184.929 1.56046C184.951 1.53328 184.963 1.4925 184.963 1.45172C184.963 1.35657 184.895 1.28182 184.809 1.28182H183.58C183.534 1.28182 183.49 1.3056 183.463 1.34298L165.549 24.3279V1.44832C165.549 1.35318 165.481 1.27842 165.395 1.27842H164.466C164.379 1.27842 164.314 1.35657 164.314 1.44832V38.5524C164.314 38.6476 164.382 38.7223 164.466 38.7223H165.395C165.481 38.7223 165.549 38.6476 165.549 38.5524V26.3837L171.066 19.3734L183.552 38.6476C183.577 38.6917 183.626 38.7189 183.679 38.7189H184.846C184.932 38.7189 185 38.6442 185 38.549C185 38.5116 184.988 38.4776 184.972 38.4505" fill="#524F4F"/>
<path d="M156.474 1.27769H155.526C155.44 1.27769 155.372 1.35584 155.372 1.44759V35.4152L133.069 1.34565C133.044 1.30487 132.998 1.27429 132.945 1.27429H132.343C132.257 1.27429 132.192 1.35244 132.192 1.44419V38.5449C132.192 38.64 132.26 38.7148 132.343 38.7148H133.291C133.377 38.7148 133.445 38.6366 133.445 38.5449V4.31561L155.921 38.6502C155.949 38.6944 155.992 38.7216 156.045 38.7216H156.471C156.557 38.7216 156.625 38.6434 156.625 38.5517V1.44759C156.625 1.35244 156.56 1.27769 156.474 1.27769Z" fill="#524F4F"/>
<path d="M126.601 38.4905L113.818 1.38643C113.8 1.32526 113.741 1.27429 113.673 1.27429H113.074C113.006 1.27429 112.951 1.31846 112.929 1.38303L100.146 38.4871C100.14 38.5075 100.137 38.5279 100.137 38.5483C100.137 38.6434 100.205 38.7182 100.288 38.7182H101.273C101.341 38.7182 101.396 38.674 101.418 38.6094L105.354 27.1306H121.391L125.326 38.6026C125.348 38.6706 125.404 38.7148 125.471 38.7148H126.456C126.543 38.7148 126.611 38.6366 126.611 38.5449C126.611 38.5245 126.607 38.5041 126.598 38.4871M105.811 25.7476L113.371 3.94181L120.931 25.7476H105.811Z" fill="#524F4F"/>
</svg>
