<svg width="153" height="55" viewBox="0 0 153 55" fill="none" xmlns="http://www.w3.org/2000/svg">
<path d="M6.24196 4.49371C6.23941 4.57583 6.23941 4.67335 6.23941 4.8684V5.59468C6.23941 5.78972 6.23941 5.88725 6.24196 5.96937C6.33379 8.41255 8.39736 10.3733 10.9685 10.4605C11.0553 10.4631 11.1573 10.4631 11.3639 10.4631C11.5705 10.4631 11.6725 10.4631 11.7567 10.4605C14.3304 10.3733 16.394 8.41255 16.4833 5.96937C16.4884 5.88725 16.4884 5.78972 16.4884 5.59468V4.8684C16.4884 4.67335 16.4884 4.57583 16.4833 4.49371C16.394 2.05053 14.3304 0.0898229 11.7593 0.00256637C11.6725 0 11.5705 0 11.3639 0C11.1573 0 11.0553 0 10.9685 0.00256637C8.39736 0.0898229 6.33379 2.05053 6.24196 4.49371ZM73.3806 21.8193V41.8472C73.3806 45.3297 74.7172 46.8978 78.9362 46.8978C80.7039 46.8978 82.441 46.4025 83.4817 46.0304V54.1016C81.714 54.6996 79.0102 54.9973 76.7961 54.9973C67.9271 54.9973 63.7234 50.5266 63.7234 42.8019V2.39185H73.3806V15.2442H83.4817V21.8218L73.3806 21.8193Z" fill="#524F4F"/>
<path fill-rule="evenodd" clip-rule="evenodd" d="M86.7516 33.9943C86.7516 22.13 94.187 14.051 106.086 14.051C118.799 14.051 125.1 23.3823 124.437 36.9148H96.674C97.1765 43.8568 100.416 47.3779 106.15 47.3779C110.999 47.3779 113.57 45.0245 114.68 41.6985H124.113C122.279 49.857 115.858 55 106.089 55C94.0263 55 86.7541 46.9955 86.7541 34.9798V33.9917L86.7516 33.9943ZM106.012 21.8246C100.72 21.8246 97.5592 24.6758 96.6715 30.3398L114.736 30.1909C114.216 24.9042 111.379 21.8246 106.012 21.8246Z" fill="#524F4F"/>
<path d="M44.34 14.0483C38.1288 14.0483 34.2976 17.7388 32.3794 21.3702L31.9356 15.2417H22.7273V53.8014H32.382V32.131C32.382 25.7356 35.7541 21.8193 40.848 21.8193C45.9418 21.8193 47.8294 25.212 47.8294 31.0839V53.8014H57.484V28.9923C57.4993 20.3847 53.788 14.0483 44.34 14.0483ZM139.484 21.3702C141.935 16.5429 146.939 14.0483 150.699 14.0483C151.368 14.0483 152.421 14.1382 153 14.2716V21.8193C152.066 21.7244 151.13 21.673 150.192 21.6705C143.33 21.6705 139.481 25.8254 139.481 32.8803V53.8039H129.824V15.2443H139.183L139.481 21.3728L139.484 21.3702ZM0 15.2443V21.8116H6.53251V53.8014H16.1923V15.2443H0Z" fill="#524F4F"/>
</svg>
