<svg width="70" height="68" viewBox="0 0 70 68" fill="none" xmlns="http://www.w3.org/2000/svg">
<path d="M37.6937 48.6048C37.1163 48.627 36.5758 48.6713 36.0862 48.7463C33.989 49.06 32.585 49.8851 32.585 51.4842C32.585 52.9128 33.617 53.6646 35.1122 53.6646C36.8303 53.6646 38.1079 52.6213 38.5905 51.5149C38.6028 51.4876 38.6133 51.4569 38.6256 51.4296C38.6361 51.404 38.6712 51.2847 38.68 51.2489C38.7449 50.971 38.7713 50.6625 38.7713 50.3931V48.5929C38.401 48.5878 38.0412 48.5946 37.6937 48.6048Z" fill="#524F4F"/>
<path d="M58.3348 0H11.6705C5.21924 0 0 5.08023 0 11.3384V56.6735C0 62.93 5.21924 68 11.6705 68H58.333C64.7825 68 70 62.93 70 56.6735V11.3384C70 5.08023 64.7843 0 58.3348 0ZM11.2756 56.6667H5.83348V33.9949H11.2756V56.6667ZM56.7694 33.9932H61.9114L57.2871 38.5739H53.4911L56.7694 33.9932ZM25.0976 56.5831C24.3799 56.8542 23.7481 57.086 22.1493 57.086C20.2873 57.086 18.7482 56.4092 17.8742 55.4972C16.8529 54.4539 16.3825 52.7372 16.3825 50.4511V43.5433H13.9028V39.6684H16.3825V33.9949H21.6667V39.6684H25.0415V43.5433H21.6667V49.5629C21.6667 51.6461 22.1037 52.7849 23.9885 52.7849C24.5343 52.7849 24.952 52.7048 25.0994 52.6366L25.0976 56.5831ZM43.7458 56.6684H39.3163L38.7214 54.9022H38.6635C37.4754 56.2695 35.5168 57.086 33.1985 57.086C29.306 57.086 27.1966 54.476 27.1966 51.8916C27.1966 47.4984 31.5541 45.2737 38.6091 45.3026V45.1202C38.6091 44.3241 37.9369 42.7523 34.7517 42.7608C32.8423 42.7608 30.7293 43.4069 29.5026 44.1281L28.4812 40.7867C29.8325 40.023 32.3228 39.1808 35.659 39.1808C41.6802 39.1808 43.7458 42.5341 43.7458 46.6187V56.6684ZM64.1683 56.6684H59.8581L59.1737 54.2561C58.9964 54.5135 58.7472 54.8051 58.4296 55.1307C58.1137 55.458 57.7206 55.7614 57.252 56.0393C56.7852 56.3206 56.2253 56.5593 55.5795 56.757C54.9319 56.9565 54.1913 57.0554 53.3525 57.0554C52.3908 57.0554 51.508 56.9156 50.7113 56.636C49.9145 56.3564 49.2283 55.9132 48.6562 55.3063C48.0841 54.7028 47.6348 53.9305 47.3066 52.9997C46.9767 52.0689 46.8117 50.9369 46.8117 49.6072V39.6718H52.124V48.6645C52.124 51.3154 53.098 52.9025 55.318 52.9025C57.0853 52.9025 58.1593 51.745 58.5945 50.7238C58.7261 50.4016 58.777 50.0453 58.777 49.6447V39.6854H64.1648V56.6735L64.1683 56.6684Z" fill="#524F4F"/>
</svg>
