<svg width="301" height="46" viewBox="0 0 301 46" fill="none" xmlns="http://www.w3.org/2000/svg">
<path fill-rule="evenodd" clip-rule="evenodd" d="M3.5941 5.75222C3.5941 2.70953 3.49724 1.31136 1.1123 1.31136H0V0.0596593H11.8345C17.4595 0.0596593 20.6394 1.56436 20.5659 6.20829C20.5291 8.6218 17.8636 12.0174 14.0424 13.3789C17.6499 14.068 21.4076 17.8597 21.4076 21.6548C21.4076 28.7022 15.3417 29.8041 10.7255 29.8041H3.5941V5.75222ZM7.48215 13.1026H10.328C14.6236 13.0993 16.8282 9.0579 16.8282 6.95398C16.8282 1.39125 12.2787 0.955155 7.48215 1.31469V13.1026ZM7.48215 25.3866C7.48215 27.1276 9.82032 28.3926 11.4637 28.6123C15.5856 29.165 17.9739 25.7161 17.9839 22.9897C18.0039 17.7865 13.3677 14.2877 9.5531 14.4608C8.90843 14.4908 7.87964 14.4375 7.48215 14.5041V25.3866ZM54.6564 12.1638C57.1483 9.19772 60.8993 7.89608 63.1507 7.89608C64.3097 7.89608 65.3085 8.19236 66.1402 8.76495C66.9786 9.34419 67.6466 10.2996 68.141 11.6279C68.485 12.5567 68.6988 13.805 68.6988 15.7159V24.794C68.6988 26.1289 68.8124 27.0311 69.0228 27.5138C69.1898 27.8933 69.4671 28.1962 69.8412 28.4059C70.2186 28.619 71.0403 28.7289 72.0558 28.7289V29.5844H61.534V28.7289H61.9782C62.9636 28.7289 63.8421 28.579 64.2363 28.2794C64.6271 27.9832 64.901 27.5338 65.0546 26.9578C65.1147 26.7281 65.1481 26.0024 65.1481 24.7907V16.0521C65.1481 14.1146 64.8943 12.6998 64.3932 11.821C63.8955 10.9454 62.8634 10.5093 61.6743 10.5093C59.8405 10.5093 56.4702 11.5147 54.6531 13.5287V24.7873C54.6531 26.2188 54.7399 27.0977 54.907 27.4372C55.1274 27.88 55.428 28.2062 55.8122 28.4193C56.1896 28.629 57.2217 28.7289 58.3875 28.7289V29.5844H47.8189V28.7289H48.2866C49.3722 28.7289 50.1037 28.4592 50.4845 27.9133C50.8653 27.3673 51.0556 26.3253 51.0556 24.7907V14.4675C51.0556 12.3669 49.6294 11.2217 47.348 10.5593L54.6531 7.71299V12.1638H54.6564ZM90.6509 13.086C89.6589 11.5313 87.7549 9.28427 85.0259 9.1611C80.4665 8.9547 78.7363 13.8616 78.7196 17.4103C78.6862 24.1215 81.1346 28.2695 86.9933 28.4392C88.6668 28.4892 90.9181 27.9898 92.5682 26.9512L92.625 28.8287C90.2701 30.2735 88.1324 30.4832 85.1028 30.4832C78.7897 30.4832 74.6879 25.5896 74.6879 19.7439C74.6879 13.4455 78.95 7.75959 86.0581 7.75959C88.2192 7.75959 91.8901 8.52859 93.3097 10.253L90.6542 13.086H90.6509ZM106.203 7.63642C112.119 7.63642 116.915 12.7464 116.915 19.0515C116.915 25.3566 112.119 30.4666 106.203 30.4666C100.288 30.4666 95.4909 25.3566 95.4909 19.0515C95.4909 12.7464 100.288 7.63642 106.203 7.63642ZM106.203 8.98133C109.897 8.98133 112.89 13.4888 112.89 19.0515C112.89 24.6142 109.897 29.1217 106.203 29.1217C102.509 29.1217 99.5159 24.6142 99.5159 19.0515C99.5159 13.4888 102.509 8.98133 106.203 8.98133ZM26.0539 14.9402C26.0339 10.0599 31.2614 7.71299 34.4513 7.71299C36.3485 7.71299 37.8951 8.02924 39.1076 8.66175C40.0195 9.13779 40.2934 9.8502 40.7276 10.8689C41.0082 11.5247 41.1251 12.8862 41.1485 14.9336L41.2687 25.836C41.2988 28.5191 44.5121 28.5691 45.3472 28.2728L45.3906 29.2948C44.0177 30.2236 42.6115 30.643 41.5426 30.4932C39.318 30.1803 38.1055 28.1563 37.8884 26.3187C36.3753 28.1762 33.7265 30.4766 30.6367 30.4766C27.9245 30.4766 25.5662 28.639 25.6831 24.9138C25.8435 19.8305 34.4079 18.3424 37.6947 17.1473V14.6606C37.6947 11.4614 37.3139 9.38747 33.7532 9.38747C31.1578 9.38747 29.9453 10.4827 30.1557 13.4755L26.0539 14.9402ZM37.6947 23.266V18.5721C35.5636 19.4077 31.4317 20.4697 30.0422 22.4138C29.5111 23.1561 28.8697 25.1569 29.9954 26.7947C32.2133 30.0305 37.6947 26.9612 37.6947 23.266Z" fill="#524F4F"/>
<path fill-rule="evenodd" clip-rule="evenodd" d="M152.626 14.9405C152.606 10.0602 157.834 7.71325 161.024 7.71325C162.921 7.71325 164.467 8.02951 165.68 8.66201C166.592 9.13806 166.866 9.85046 167.3 10.8691C167.581 11.5249 167.697 12.8865 167.721 14.9338L167.841 25.8362C167.871 28.5194 171.084 28.5693 171.92 28.2731L171.963 29.2951C170.59 30.2238 169.184 30.6433 168.115 30.4935C165.89 30.1806 164.678 28.1565 164.461 26.3189C162.948 28.1765 160.299 30.4768 157.209 30.4768C154.497 30.4768 152.139 28.6392 152.256 24.9141C152.416 19.8308 160.98 18.3427 164.267 17.1476V14.6608C164.267 11.4617 163.886 9.38773 160.326 9.38773C157.73 9.38773 156.518 10.483 156.728 13.4757L152.626 14.9405ZM164.267 23.2663V18.5724C162.136 19.408 158.004 20.4699 156.615 22.414C156.083 23.1564 155.442 25.1571 156.568 26.795C158.786 30.0308 164.267 26.9614 164.267 23.2663ZM123.71 29.7977V5.3064C123.71 1.16514 123.215 1.3549 120.196 1.3549V0.0599217H131.346C141.603 0.0599217 148.297 2.95614 148.297 14.774C148.297 21.9879 143.708 29.8011 132.528 29.8011H123.706L123.71 29.7977ZM127.584 25.4467C128.166 28.0667 131.733 28.4828 132.992 28.4828C139.609 28.4828 144.195 23.952 144.195 14.9704C144.195 10.8658 142.799 7.58675 140.565 5.22317C138.17 2.68982 136.015 1.09524 127.581 1.26501V25.4434L127.584 25.4467ZM174.872 34.981C176.051 35.5336 177.935 35.5336 178.74 35.2772C182.271 34.1487 183.403 32.2212 184.796 29.2351L176.927 12.8133C176.011 10.9024 175.433 9.64406 173.543 9.55085V8.32246H182.391V9.55085H181.9C179.963 9.55085 179.929 10.4963 181.139 13.1129L186.683 25.0972L192.435 12.5503C193.147 10.999 193.414 9.51756 190.842 9.51756V8.32246H197.452V9.51756C196.397 9.51756 195.625 9.46763 194.156 12.5503L184.272 33.3231C182.588 36.8652 178.991 40.081 172.965 38.2101L174.872 34.9776V34.981ZM242.763 8.32579H251.665V9.54087H251.013C248.899 9.54087 249.31 10.9723 250.068 12.5935L256.087 25.51L261.488 12.1475C262.136 10.5462 262.143 9.56084 259.327 9.56084V8.32579H266.649V9.56084C265.697 9.56084 264.808 9.4876 263.72 12.0409L255.88 30.4502H254.514L246.07 12.5003C245.114 10.4663 244.79 9.71064 242.763 9.53754V8.32246V8.32579ZM297.573 0V24.7909C297.573 26.1125 297.666 26.9914 297.86 27.4175C298.054 27.8469 298.351 28.1765 298.755 28.3996C299.153 28.6193 299.904 28.7325 301 28.7325V29.588H290.575V28.7325C291.55 28.7325 292.486 28.6293 292.84 28.4328C293.197 28.2364 293.478 27.9035 293.681 27.4441C293.882 26.9881 293.982 26.0992 293.982 24.7943V6.42827C293.982 4.46417 291.5 3.20581 290.194 2.60992L297.573 0ZM230.501 7.63669C236.416 7.63669 241.213 12.7467 241.213 19.0518C241.213 25.3569 236.416 30.4669 230.501 30.4669C224.585 30.4669 219.789 25.3569 219.789 19.0518C219.789 12.7467 224.585 7.63669 230.501 7.63669ZM230.501 8.9816C234.195 8.9816 237.188 13.489 237.188 19.0518C237.188 24.6145 234.195 29.1219 230.501 29.1219C226.806 29.1219 223.814 24.6145 223.814 19.0518C223.814 13.489 226.806 8.9816 230.501 8.9816ZM269.294 14.9405C269.274 10.0602 274.502 7.71325 277.692 7.71325C279.589 7.71325 281.136 8.02951 282.348 8.66201C283.26 9.13806 283.534 9.85046 283.968 10.8691C284.249 11.5249 284.366 12.8865 284.389 14.9338L284.509 25.8362C284.539 28.5194 287.753 28.5693 288.588 28.2731L288.631 29.2951C287.258 30.2238 285.852 30.6433 284.783 30.4935C282.558 30.1806 281.346 28.1565 281.129 26.3189C279.616 28.1765 276.967 30.4768 273.877 30.4768C271.165 30.4768 268.807 28.6392 268.924 24.9141C269.084 19.8308 277.648 18.3427 280.935 17.1476V14.6608C280.935 11.4617 280.554 9.38773 276.994 9.38773C274.398 9.38773 273.186 10.483 273.396 13.4757L269.294 14.9405ZM280.935 23.2663V18.5724C278.804 19.408 274.676 20.4699 273.283 22.414C272.752 23.1564 272.11 25.1571 273.236 26.795C275.454 30.0308 280.935 26.9614 280.935 23.2663ZM214.885 13.0829C213.893 11.5283 211.989 9.28121 209.26 9.15803C204.701 8.95164 202.97 13.8586 202.954 17.4073C202.92 24.1185 205.369 28.2664 211.228 28.4362C212.901 28.4861 215.152 27.9868 216.802 26.9481L216.859 28.8257C214.504 30.2704 212.367 30.4802 209.337 30.4802C203.024 30.4802 198.922 25.5866 198.922 19.7409C198.922 13.4424 203.184 7.75653 210.292 7.75653C212.453 7.75653 216.124 8.52553 217.544 10.2499L214.888 13.0829H214.885Z" fill="#524F4F"/>
<path fill-rule="evenodd" clip-rule="evenodd" d="M123.71 36.4591H133.283V46H123.71V36.4591Z" fill="#524F4F"/>
<path fill-rule="evenodd" clip-rule="evenodd" d="M133.283 36.4591H142.856V46H133.283V36.4591Z" fill="#524F4F"/>
</svg>
