<svg width="153" height="57" viewBox="0 0 153 57" fill="none" xmlns="http://www.w3.org/2000/svg">
<path d="M0.0265391 28.4262C0.0265391 19.3937 0 0 0 0L1.35349 0.0178374L4.33251 0.0245265L5.32773 0L5.31003 17.4606L5.30561 18.9478C5.30561 18.9478 22.368 18.9456 30.1329 18.9478C35.0051 18.95 38.3269 22.2812 38.3269 27.1575C38.3269 34.4507 38.3313 41.7418 38.3269 49.0351C38.3247 52.5959 36.3143 55.4432 32.9925 56.6739C32.3843 56.8991 31.7762 56.9393 31.1503 56.9393C21.1406 56.9393 0.00221159 56.9638 0.00221159 56.9638L0.0132696 55.7464C0.0132696 55.7464 0.0309623 37.5344 0.0309623 28.4284L0.0265391 28.4262ZM19.1833 24.6602C15.5785 24.6602 11.9713 24.6535 8.36645 24.6625C6.27429 24.6669 5.31446 25.6123 5.31224 27.7127C5.30119 34.6715 5.3034 41.6303 5.31224 48.5891C5.31446 50.578 6.32073 51.6349 8.27799 51.6393C15.5276 51.6572 22.775 51.6572 30.0246 51.6393C31.9752 51.6349 32.9129 50.6382 32.9129 48.6739C32.9129 41.6771 32.9129 34.6826 32.9129 27.6859C32.9129 25.561 32.0128 24.6602 29.8941 24.658C26.3246 24.6558 22.7529 24.6602 19.1833 24.6602Z" fill="#524F4F"/>
<path d="M62.7604 35.3065C67.8006 35.3065 72.8408 35.2686 77.881 35.3355C79.0421 35.3511 79.3075 34.9876 79.2655 33.8906C79.1792 31.7479 79.2434 29.5985 79.239 27.4513C79.2368 25.3019 78.3587 24.4034 76.2356 24.4011C66.6705 24.3967 46.1646 24.4234 46.1646 24.4234V18.9273C46.1646 18.9273 58.8127 18.9451 64.4788 18.9451C68.4884 18.9451 72.498 18.9406 76.5099 18.9451C81.267 18.9518 84.664 22.3521 84.6662 27.1102C84.6662 36.6956 84.6905 55.8663 84.6905 55.8663V56.9566C84.6905 56.9566 63.864 56.8229 54.0069 56.999C50.3069 57.0659 46.3681 53.7281 46.273 49.7191C46.1624 45.1706 46.2199 40.6176 46.1779 36.0668C46.169 35.1526 46.7794 35.3109 47.3102 35.3087C52.461 35.3042 57.6096 35.3043 62.7604 35.3065ZM65.4939 40.7424C61.2255 40.7424 56.955 40.7603 52.6866 40.7268C51.8794 40.7201 51.5852 40.9409 51.6051 41.7881C51.656 44.0825 51.6007 46.3791 51.6317 48.6734C51.656 50.611 52.6623 51.6366 54.5642 51.6411C62.4397 51.6567 70.3174 51.6366 78.1929 51.6634C79.0134 51.6656 79.2721 51.407 79.2589 50.5798C79.2146 47.6923 79.208 44.8049 79.2589 41.9175C79.2766 40.9966 79.0067 40.7134 78.0801 40.7246C73.8847 40.7714 69.6893 40.7424 65.4939 40.7424Z" fill="#524F4F"/>
<path d="M92.5906 41.1581C92.5906 36.3843 92.5884 31.6128 92.5906 26.8391C92.5928 22.4845 95.9987 18.9772 100.327 18.9572C107.094 18.9259 121.746 18.9304 121.746 18.9304L121.742 20.0898V23.3073L121.728 24.4199C121.728 24.4199 107.64 24.3998 101.167 24.402C98.8472 24.402 97.9515 25.2828 97.9493 27.6128C97.9426 37.0109 97.9692 55.807 97.9692 55.807L97.9736 56.9598H92.5707V55.9207C92.5707 55.9207 92.5906 46.079 92.5906 41.1581Z" fill="#524F4F"/>
<path d="M147.944 56.9395C147.283 56.9395 146.622 56.9439 145.96 56.9395C144.255 56.9261 143.021 55.8492 142.906 54.1145C142.811 52.6786 142.815 51.2293 142.893 49.7934C142.986 48.1033 144.328 46.8613 146.022 46.8101C147.345 46.7699 148.67 46.8212 149.992 46.7967C151.388 46.7699 153.172 48.2237 152.987 49.9651C152.838 51.3541 152.967 52.7722 152.953 54.1769C152.94 55.7176 151.783 56.9016 150.26 56.9395C149.488 56.9596 148.716 56.9417 147.944 56.9439V56.9395Z" fill="#524F4F"/>
<path d="M127.072 8.29892C127.072 7.33793 127.063 6.37694 127.076 5.41595C127.094 4.08037 127.912 3.15729 129.235 3.12384C131.254 3.07256 133.275 3.07479 135.294 3.12384C136.679 3.15729 137.504 4.08037 137.515 5.49176C137.53 7.37584 137.528 9.26214 137.515 11.1462C137.504 12.6334 136.701 13.5141 135.217 13.5498C133.235 13.5966 131.249 13.6011 129.266 13.5476C127.857 13.5097 127.083 12.6178 127.069 11.1841C127.061 10.2231 127.072 9.25991 127.072 8.29892ZM132.229 4.6757C131.382 4.6757 130.537 4.69131 129.69 4.67124C128.96 4.6534 128.602 4.94995 128.611 5.71919C128.631 7.45833 128.631 9.19748 128.611 10.9366C128.602 11.6992 128.965 12.0046 129.686 12.0024C131.415 11.9935 133.145 11.989 134.872 12.0024C135.602 12.0091 135.967 11.6925 135.962 10.9456C135.956 9.2064 135.956 7.46725 135.962 5.72811C135.967 4.98116 135.611 4.65563 134.874 4.67347C133.992 4.69353 133.109 4.67793 132.225 4.67793L132.229 4.6757Z" fill="#524F4F"/>
<path d="M117.842 3.10829C119.092 3.10829 120.344 3.12835 121.593 3.09714C122.182 3.08153 122.37 3.32902 122.37 3.88421C122.37 4.43717 122.182 4.6869 121.595 4.68021C119.353 4.66014 117.11 4.66906 114.866 4.67352C113.351 4.67352 113.273 4.76271 113.275 6.32794C113.275 7.73264 113.275 9.13956 113.275 10.5443C113.275 11.8352 113.428 11.9891 114.751 11.9936C116.958 12.0002 119.163 12.0025 121.37 11.9891C121.936 11.9846 122.383 11.9958 122.374 12.7762C122.363 13.5432 121.925 13.5699 121.354 13.5655C119.039 13.5521 116.721 13.5766 114.406 13.5543C112.645 13.5365 111.88 12.7249 111.876 10.9345C111.871 9.12173 111.862 7.309 111.878 5.49627C111.889 4.02914 112.734 3.15511 114.202 3.11274C115.414 3.07707 116.628 3.10829 117.842 3.10829Z" fill="#524F4F"/>
<path d="M96.9405 8.3363C96.9405 6.8937 96.9626 5.4511 96.9295 4.01073C96.914 3.35743 97.1064 3.08541 97.8052 3.09433C100.231 3.12777 102.657 3.08541 105.081 3.11662C106.557 3.13669 107.415 4.01295 107.43 5.48231C107.454 7.848 107.423 10.2137 107.446 12.5794C107.452 13.1948 107.331 13.5827 106.618 13.5738C105.942 13.5649 105.871 13.1591 105.875 12.6128C105.891 10.4322 105.849 8.24934 105.897 6.06872C105.922 5.01185 105.526 4.61051 104.471 4.65287C102.93 4.7153 101.384 4.70415 99.8421 4.6551C98.8956 4.62612 98.5196 4.97618 98.5395 5.94385C98.5837 8.013 98.5682 10.0844 98.5461 12.1535C98.5395 12.7533 98.8535 13.5827 97.719 13.5671C96.6596 13.5515 96.9626 12.7756 96.9494 12.2092C96.9228 10.916 96.9405 9.62059 96.9383 8.32738L96.9405 8.3363Z" fill="#524F4F"/>
<path d="M135.033 18.9167H129.566V56.9438H135.033V18.9167Z" fill="#524F4F"/>
<path d="M67.3916 5.75478C67.3916 3.28206 67.3849 0.0133558 67.3849 0.0133558L67.7565 0.0178152H68.5726L68.8446 0.0133558L68.8402 2.7514V3.15943C68.8402 3.15943 73.5111 3.15943 75.6386 3.15943C76.9722 3.15943 77.8834 4.07137 77.8834 5.40695C77.8834 7.40474 77.8834 9.40253 77.8834 11.3981C77.8834 12.3725 77.3327 13.1528 76.4215 13.4895C76.2556 13.552 76.0876 13.5631 75.9173 13.5631C73.1749 13.5631 67.3872 13.5698 67.3872 13.5698V13.2353C67.3872 13.2353 67.3916 8.24978 67.3916 5.75478ZM72.6375 4.72243C71.6489 4.72243 70.6625 4.72243 69.6739 4.72243C69.1011 4.72243 68.838 4.98331 68.838 5.55856C68.8358 7.46494 68.8358 9.37131 68.838 11.2755C68.838 11.8195 69.1144 12.1094 69.6496 12.1116C71.6356 12.116 73.6194 12.116 75.6054 12.1116C76.1406 12.1116 76.3972 11.8373 76.3972 11.3C76.3972 9.38469 76.3972 7.46717 76.3972 5.55187C76.3972 4.96993 76.1495 4.72243 75.57 4.72243C74.5925 4.72243 73.615 4.72243 72.6375 4.72243Z" fill="#524F4F"/>
<path d="M86.5728 7.61261C87.9507 7.61261 89.3285 7.60147 90.7063 7.62153C91.0248 7.62599 91.0955 7.52566 91.0845 7.22688C91.0601 6.64047 91.0778 6.05407 91.0778 5.46766C91.0778 4.88126 90.8368 4.63376 90.2573 4.63376C87.6432 4.63376 82.0369 4.64045 82.0369 4.64045V3.13988C82.0369 3.13988 85.4936 3.14434 87.0439 3.14434C88.1408 3.14434 89.2356 3.14434 90.3325 3.14434C91.633 3.14434 92.5618 4.07635 92.5618 5.37625C92.5618 7.99612 92.5685 13.2381 92.5685 13.2381V13.5369C92.5685 13.5369 86.8758 13.5012 84.1799 13.548C83.1692 13.5659 82.0921 12.6539 82.0656 11.5569C82.0346 10.3128 82.0501 9.06859 82.0391 7.82443C82.0369 7.57471 82.2027 7.61707 82.3487 7.61707C83.7575 7.61707 85.164 7.61707 86.5728 7.61707V7.61261ZM87.3203 9.09981C86.1526 9.09981 84.9871 9.10427 83.8194 9.09535C83.5982 9.09535 83.5186 9.15332 83.523 9.38521C83.5363 10.0117 83.523 10.6405 83.5297 11.2671C83.5363 11.7977 83.8128 12.0764 84.3325 12.0787C86.4866 12.0831 88.6385 12.0787 90.7925 12.0853C91.0181 12.0853 91.0867 12.0162 91.0845 11.7888C91.0734 10.9995 91.0712 10.2102 91.0845 9.42088C91.0889 9.16893 91.0159 9.09089 90.7616 9.09535C89.6138 9.10873 88.4682 9.09758 87.3203 9.09981Z" fill="#524F4F"/>
</svg>
