<svg width="214" height="40" viewBox="0 0 214 40" fill="none" xmlns="http://www.w3.org/2000/svg">
<path d="M21.993 0C22.5812 0.00603924 23.1675 0.0342223 23.7496 0.13085C25.0753 0.332158 26.45 0.652238 27.7062 1.11927C32.1592 2.77402 35.6112 5.58428 38.1441 9.52388C38.4934 10.0654 38.4546 10.3251 37.8765 10.6733C35.3007 12.2234 32.7454 13.8097 30.2084 15.4222C29.6324 15.7886 29.3669 15.7523 28.9441 15.1806C25.3347 10.2868 18.3836 9.70304 14.3167 13.9305C13.8776 14.3855 13.5119 14.9209 13.1749 15.4564C12.8563 15.9637 12.6214 16.5213 12.3681 17.0166C9.8638 15.4886 7.41468 13.86 4.83483 12.465C2.86164 11.3981 2.84939 9.35478 4.03616 7.90536C6.3137 5.12329 9.12028 3.01962 12.4539 1.59637C15.2993 0.378459 18.2897 0.0201308 21.37 0C21.5783 0 21.7867 0 21.993 0Z" fill="#524F4F"/>
<path d="M168.527 19.1561C165.913 23.6352 163.28 28.1063 160.7 32.6055C160.322 33.2638 159.873 33.3523 159.182 33.453C157.315 33.7248 156.382 32.9195 155.522 31.3413C153.299 27.2668 150.856 23.3091 148.36 19.0655C148.322 19.5909 148.285 19.8627 148.285 20.1345C148.283 26.067 148.26 31.9996 148.307 37.9321C148.315 38.9145 148.009 39.1581 147.045 39.1379C144.157 39.0775 141.266 39.0977 138.378 39.1299C137.679 39.1379 137.447 38.9487 137.447 38.2361C137.467 26.0328 137.467 13.8315 137.447 1.62822C137.447 0.961895 137.653 0.772665 138.315 0.780718C141.272 0.808901 144.23 0.827019 147.186 0.770652C147.956 0.756561 148.183 1.21957 148.454 1.69868C151.498 7.0877 154.531 12.4848 157.569 17.8778C157.844 18.365 158.13 18.8481 158.502 19.4903C159.256 18.1798 159.938 17.0081 160.604 15.8305C163.302 11.0514 166.003 6.27441 168.676 1.48328C168.96 0.975986 169.281 0.776692 169.871 0.780718C172.794 0.806888 175.717 0.810914 178.64 0.778705C179.327 0.770652 179.58 0.929686 179.58 1.65641C179.56 13.8597 179.558 26.061 179.58 38.2643C179.58 39.0131 179.29 39.1339 178.624 39.1279C175.634 39.0997 172.641 39.0856 169.651 39.1359C168.848 39.15 168.707 38.8762 168.711 38.1616C168.738 32.1928 168.728 26.226 168.728 20.2573C168.728 19.9009 168.728 19.5446 168.728 19.1863L168.527 19.1521V19.1561Z" fill="#524F4F"/>
<path d="M114.193 11.6718C116.328 8.88772 118.918 7.11621 122.464 6.9612C128.488 6.69749 132.879 10.2204 134.023 16.1751C134.442 18.3552 134.344 20.5555 134.348 22.7538C134.354 27.8831 134.336 33.0145 134.377 38.1438C134.383 38.9531 134.138 39.1403 133.347 39.1282C130.389 39.0819 127.432 39.0839 124.474 39.1282C123.708 39.1403 123.502 38.9309 123.504 38.18C123.534 32.2435 123.406 26.3049 123.561 20.3744C123.663 16.4609 120.086 15.1504 117.265 16.6119C115.317 17.6225 114.185 19.1665 114.189 21.4111C114.199 26.9793 114.177 32.5495 114.21 38.1176C114.214 38.8846 114.04 39.1463 113.207 39.1322C110.216 39.0799 107.224 39.098 104.231 39.1242C103.6 39.1302 103.349 39.0074 103.349 38.3069C103.371 26.0673 103.369 13.8298 103.353 1.59031C103.353 0.982358 103.525 0.791115 104.156 0.797155C107.25 0.827351 110.343 0.831377 113.438 0.795142C114.116 0.787089 114.208 1.04879 114.204 1.61648C114.181 4.65019 114.193 7.68591 114.193 10.7196V11.6758V11.6718Z" fill="#524F4F"/>
<path d="M202.59 26.7514C199.328 26.7514 196.064 26.7715 192.802 26.7373C191.967 26.7292 191.877 26.999 192.196 27.6613C193.415 30.1937 195.709 30.9587 198.287 31.156C201.7 31.4177 204.797 30.387 207.654 28.6356C208.322 28.2269 208.616 28.3075 208.974 28.9516C210.009 30.8258 211.063 32.6899 212.177 34.5198C212.552 35.1358 212.507 35.4479 211.915 35.8887C209.235 37.8877 206.233 39.1479 202.925 39.6632C197.709 40.4765 192.753 39.8102 188.327 36.7845C184.452 34.1353 182.368 30.4031 181.772 25.8495C181.229 21.6864 181.872 17.7187 184.186 14.1475C187.493 9.04632 192.465 6.9648 198.458 6.9507C202.609 6.94064 206.414 8.04582 209.484 10.8822C213.486 14.5762 214.583 19.2285 213.729 24.4142C213.343 26.7614 213.3 26.7554 210.847 26.7554C208.093 26.7554 205.34 26.7554 202.586 26.7554L202.59 26.7514ZM197.51 20.1223C198.767 20.1223 200.025 20.1525 201.281 20.1102C201.902 20.0901 202.807 20.4504 203.087 19.9169C203.463 19.2043 202.934 18.385 202.552 17.6764C202.441 17.4731 202.292 17.2818 202.131 17.1147C200.566 15.4882 198.599 15.2184 196.505 15.6472C194.42 16.074 192.868 17.2174 192.087 19.2426C191.84 19.8827 191.963 20.1525 192.72 20.1344C194.316 20.0961 195.913 20.1223 197.51 20.1223Z" fill="#524F4F"/>
<path d="M60.8356 36.1263C56.8157 39.7821 52.3403 40.8289 47.3583 39.3573C43.7 38.2783 41.4449 35.768 40.7749 32.0499C40.1417 28.533 40.8668 25.3805 43.8818 23.0836C46.3799 21.1812 49.3581 20.6578 52.4261 20.5713C54.6689 20.5069 56.9138 20.5109 59.1566 20.5612C59.9716 20.5793 60.1269 20.3055 60.0451 19.5808C59.8368 17.7369 58.554 16.4465 56.5155 16.1304C54.1317 15.76 52.0196 16.5512 50.0015 17.6523C49.115 18.1375 48.2796 18.7233 47.4543 19.3071C47.101 19.5587 46.9192 19.5647 46.6557 19.1984C45.2095 17.1813 43.7449 15.1782 42.2722 13.1793C42.0577 12.8874 41.9923 12.682 42.3171 12.4304C48.2979 7.80433 54.8916 5.45104 62.4452 7.87076C67.5457 9.50538 70.0786 13.3967 70.7629 18.5059C70.8854 19.4278 70.9058 20.368 70.9079 21.3C70.9201 26.9366 70.9038 32.5733 70.9283 38.2099C70.9304 38.8863 70.7751 39.1339 70.0336 39.1218C67.2454 39.0795 64.4572 39.0876 61.669 39.1178C61.0093 39.1238 60.7519 38.9527 60.8193 38.2743C60.8847 37.6241 60.8356 36.9638 60.8356 36.1263ZM56.6891 26.999C55.7863 27.0635 54.6934 26.8682 53.6231 27.1098C52.4261 27.3815 51.7214 28.231 51.6356 29.453C51.5478 30.7152 52.0932 31.6633 53.1717 32.1223C56.4481 33.5154 60.0901 31.1722 60.0799 27.6936C60.0799 27.2044 59.9798 26.9608 59.4099 26.989C58.5642 27.0312 57.7145 26.999 56.6891 26.999Z" fill="#524F4F"/>
<path d="M87.5799 6.93278C91.9715 7.01733 96.0466 8.01179 99.4803 10.8965C100.026 11.3555 100.126 11.6454 99.6233 12.2393C98.1444 13.9806 96.7288 15.7742 95.3296 17.5779C94.9415 18.0792 94.7025 18.1597 94.1572 17.745C92.2882 16.3238 90.1883 15.4179 87.778 15.4421C86.8854 15.4501 85.7415 15.3736 85.5434 16.5332C85.3595 17.6021 86.4442 17.8235 87.1959 18.1356C89.5408 19.1059 91.9858 19.8427 94.2675 20.9619C95.2071 21.4229 96.1324 21.9242 97.0128 22.4858C103.184 26.4174 101.707 33.5356 97.7195 36.7062C95.2479 38.671 92.3821 39.6091 89.2794 39.8647C83.2699 40.358 77.906 38.8864 73.4591 34.6992C72.8729 34.1456 72.8178 33.7953 73.3591 33.1753C74.7705 31.5527 76.1411 29.894 77.4545 28.1929C77.9672 27.5286 78.2512 27.6212 78.8374 28.1023C81.3172 30.1315 84.0665 31.5749 87.4226 31.5125C88.0395 31.5004 88.6421 31.4159 89.2119 31.1703C89.7124 30.9549 90.0719 30.5985 90.0923 30.0429C90.1107 29.5236 89.788 29.1532 89.3284 28.9539C88.3357 28.521 87.3327 28.1124 86.3237 27.7219C83.6703 26.6972 80.972 25.7631 78.6066 24.1426C74.5948 21.3947 73.2794 16.9338 75.3445 12.8231C76.95 9.62628 79.8608 8.1507 83.2291 7.37566C84.6548 7.04753 86.1092 6.91064 87.5799 6.93278Z" fill="#524F4F"/>
<path d="M12.413 22.8302C13.6059 25.9283 15.7608 27.9233 19.0107 28.5614C23.0571 29.3546 26.3805 28.0582 28.8603 24.8292C29.3648 24.1709 29.6896 24.1327 30.3657 24.5675C32.8332 26.1558 35.3375 27.6918 37.8479 29.2197C38.3687 29.5358 38.5301 29.7451 38.1645 30.3511C30.9152 42.3772 12.5641 43.3032 4.17298 32.0521C3.85024 31.6193 3.56427 31.1704 3.38452 30.6611C2.93106 29.3647 3.26809 28.3783 4.44873 27.6576C7.07148 26.0572 9.70444 24.4709 12.413 22.8302Z" fill="#524F4F"/>
<path d="M10.5952 22.2205C8.47081 23.5331 6.324 24.8114 4.16902 26.0716C3.26005 26.605 2.35924 27.1204 1.8731 28.2759C1.76892 28.0867 1.67292 27.8974 1.58304 27.7082C1.04583 26.4641 0.637302 25.1536 0.369717 23.7948C0.126643 22.5668 0 21.2986 0 20.0001C0 18.2548 0.228775 16.5638 0.661814 14.9513C0.968209 13.8018 1.37674 12.6947 1.87922 11.6358C3.17017 13.7254 5.42728 14.3796 7.24319 15.6056C8.33191 16.3403 9.51255 16.9402 10.6176 17.6549C12.4805 18.8587 12.4744 21.059 10.5952 22.2205Z" fill="#524F4F"/>
</svg>
