<svg width="269" height="49" viewBox="0 0 269 49" fill="none" xmlns="http://www.w3.org/2000/svg">
<path d="M35.4883 22.4244C35.4226 20.6428 34.9285 18.8939 34.0688 17.3142L26.317 3.39395C25.723 2.33093 25.3288 1.19961 25.0975 0L24.769 0.58199C22.8553 4.04424 22.8553 8.29633 24.769 11.7615L30.9698 22.9411C32.8835 26.4033 32.8835 30.6554 30.9698 34.1207L30.6413 34.7026C30.41 33.503 30.0158 32.3717 29.4217 31.3414L23.7493 21.0882L20.1219 14.5735C19.5279 13.5105 19.1337 12.3792 18.9023 11.2122L18.5739 11.7942C16.6602 15.2238 16.6602 19.4759 18.5396 22.9381L24.7747 34.1177C26.6884 37.5799 26.6884 41.832 24.7747 45.2972L24.4462 45.8792C24.2149 44.6796 23.7865 43.5483 23.2266 42.5179L15.4749 28.5294C14.4524 26.6765 13.9583 24.5861 14.0554 22.4601C5.73811 24.6871 0 29.4885 0 35.0441C0 42.7585 11.0821 49 24.769 49C38.4559 49 49.538 42.7585 49.538 35.0441C49.538 29.4885 43.7999 24.69 35.4883 22.4244ZM58.872 46.289C58.9377 44.6084 59.2348 42.9633 59.7632 41.4193C62.4337 42.6545 65.3385 43.2721 68.2718 43.3048C72.5932 43.3048 75.001 41.8647 75.001 38.9844C75.001 36.1042 73.2187 34.8689 68.8659 32.8824L66.4924 31.8194C62.1053 29.83 59.1377 27.2585 59.1377 22.1513C59.1377 16.6313 62.7993 13.0977 70.3511 13.0977C73.253 13.0621 76.1235 13.5431 78.8598 14.5022C78.7598 16.1473 78.4313 17.7596 77.9372 19.3363C75.4951 18.4455 72.9246 17.9645 70.3168 17.9318C66.261 17.9318 64.4131 19.5768 64.4131 22.1483C64.4131 24.7197 66.2268 26.1272 69.4914 27.5673L71.9992 28.666C77.9029 31.2731 80.3764 34.0494 80.3764 38.7469C80.3764 44.3025 76.3206 48.1419 68.4375 48.1419C64.6102 48.1419 61.4769 47.5599 58.872 46.289ZM105.377 23.1786V47.352H100.693L100.43 44.4361C99.1102 46.5622 97.1309 47.8984 93.8662 47.8984C87.7311 47.8984 83.641 43.2692 83.641 35.1421C83.641 27.015 88.0282 21.8038 96.6368 21.8038C99.9357 21.8038 102.672 22.1809 105.377 23.1757V23.1786ZM100.233 41.832V26.6409C99.0131 26.436 97.7907 26.3321 96.5711 26.3677C91.2614 26.3677 88.8193 29.7617 88.8193 35.1807C88.8193 40.1187 90.733 43.581 95.2829 43.581C97.0652 43.581 98.8132 42.9633 100.23 41.832H100.233ZM131.565 31.1008V47.355H126.453V32.0273C126.453 28.2206 125.233 26.3707 120.12 26.3707C118.769 26.4063 117.416 26.5073 116.065 26.7478V47.355H110.952V23.1816C114.217 22.3591 117.778 21.8454 120.252 21.8454C128.795 21.8098 131.565 25.2394 131.565 31.1038V31.1008ZM145.746 43.3761C147.097 43.3761 148.451 43.1356 149.736 42.6545C149.605 44.0947 149.408 45.7397 149.142 47.1471C147.757 47.6965 146.306 47.937 144.821 47.9013C139.84 47.9013 136.675 45.5348 136.675 39.6377V14.2647C138.323 13.751 140.071 13.4749 141.788 13.4749V22.6293H149.868C149.802 24.1377 149.636 25.6818 149.405 27.1902H141.785V39.0527C141.785 42.1735 143.27 43.3731 145.743 43.3731L145.746 43.3761ZM173.189 23.146V47.3194H168.505L168.207 44.4035C166.888 46.5295 164.909 47.8657 161.644 47.8657C155.509 47.8657 151.419 43.2365 151.419 35.1094C151.419 26.9824 155.806 21.7712 164.414 21.7712C167.745 21.8068 170.484 22.1839 173.189 23.143V23.146ZM168.076 41.832V26.6409C166.856 26.436 165.634 26.3321 164.414 26.3677C159.105 26.3677 156.631 29.7617 156.631 35.1807C156.631 40.1187 158.545 43.581 163.095 43.581C164.909 43.581 166.657 42.9633 168.076 41.832ZM199.377 31.1008V47.355H194.265V32.0273C194.265 28.2206 193.045 26.3707 187.932 26.3707C186.581 26.4063 185.228 26.5073 183.908 26.7478V47.355H178.764V23.1816C182.029 22.3591 185.59 21.8454 188.064 21.8454C196.638 21.8098 199.377 25.2394 199.377 31.1038V31.1008ZM225.334 13.4778V47.3223H220.65L220.387 44.2372C219.068 46.4998 217.089 47.9073 213.724 47.9073C207.589 47.9073 203.499 43.2781 203.499 35.151C203.499 27.0239 207.886 21.8128 216.46 21.8128C217.745 21.8128 219.034 21.9493 220.287 22.1899V14.235C221.87 13.653 223.683 13.4808 225.334 13.4808V13.4778ZM220.287 41.7311V26.8487C218.936 26.5399 217.583 26.3677 216.197 26.3677C211.119 26.3677 208.711 29.6607 208.711 35.1807C208.711 40.1187 210.625 43.581 215.175 43.581C217.023 43.581 218.837 42.9307 220.287 41.7281V41.7311ZM251.092 36.9979H234.766C235.425 41.3183 237.833 43.3761 242.386 43.3761C245.222 43.3761 247.993 42.7585 250.566 41.5232C250.369 42.9277 250.103 44.7806 249.775 46.3573C247.433 47.4559 244.994 47.9013 242.255 47.9013C233.68 47.9013 229.556 42.9633 229.556 34.6997C229.556 27.499 232.755 21.7741 240.901 21.7741C248.19 21.7741 251.357 26.7448 251.357 32.8498C251.357 34.2543 251.257 35.6261 251.094 36.9979H251.092ZM234.666 32.541H246.21C246.21 28.5621 244.165 26.2668 240.635 26.2668C236.973 26.2668 235.06 28.4284 234.666 32.541ZM269 22.0147C269 23.5587 268.869 25.0671 268.537 26.5756C267.252 26.439 265.964 26.3707 264.679 26.3707C263.393 26.3707 262.171 26.4746 260.92 26.6439V47.355H255.807V23.1816C257.984 22.4274 261.677 21.8454 264.547 21.8454C265.998 21.8098 267.515 21.881 269 22.0176V22.0147Z" fill="#524F4F"/>
</svg>
