<svg width="206" height="39" viewBox="0 0 206 39" fill="none" xmlns="http://www.w3.org/2000/svg">
<path fill-rule="evenodd" clip-rule="evenodd" d="M94.6411 9.87465C94.6411 9.33517 94.195 8.87685 93.6264 8.90072C90.9305 9.09169 88.7884 10.0131 87.2026 11.6721C85.411 13.546 84.5165 16.1479 84.5165 19.4802V28.9116C84.5165 29.451 84.9674 29.8879 85.5262 29.8879H86.3179C86.8767 29.8879 87.3276 29.451 87.3276 28.9116V19.4802C87.3252 16.9237 87.9526 14.9663 89.2099 13.6104C90.2712 12.4646 91.7466 11.8082 93.6264 11.6315C94.1926 11.5838 94.6411 11.2305 94.6411 10.6385V9.87465Z" fill="#524F4F"/>
<path fill-rule="evenodd" clip-rule="evenodd" d="M98.0136 18.0836C98.2268 15.9758 99.0209 14.2882 100.396 13.1829C101.771 12.0777 103.673 11.5263 106.104 11.5263C108.535 11.5263 110.437 12.0777 111.812 13.1829C113.187 14.2882 113.971 15.9758 114.212 18.0836H98.0136ZM105.947 27.4887C103.278 27.4887 101.251 26.8155 99.864 25.4668C98.7391 24.3735 98.0798 22.8649 97.8666 20.9553H115.373C115.917 20.9553 116.214 20.8454 116.501 20.5948C116.935 20.2129 116.912 19.4944 116.912 19.4944C116.912 16.1501 115.952 13.6007 114.03 11.7197C112.109 9.84104 109.415 8.90053 105.947 8.90053C102.479 8.90053 99.8371 9.83627 97.8641 11.7197C94.7147 14.7274 94.9819 19.6018 94.9819 19.6066C94.977 22.9843 95.9426 25.5289 97.8592 27.4147C100.977 30.4844 105.923 30.2099 105.93 30.2099C109.398 30.2099 112.119 29.2742 114.04 27.4099C115.082 26.3978 115.626 25.7151 116.101 24.2613C116.437 23.2301 115.4 23.2994 115.4 23.2994H114.099C113.511 23.2946 113.297 23.6813 112.996 24.2494C111.498 26.7964 108.614 27.4887 105.947 27.4887Z" fill="#524F4F"/>
<path fill-rule="evenodd" clip-rule="evenodd" d="M136.108 25.2355C134.733 26.589 132.721 27.2669 130.074 27.2669C127.427 27.2669 125.449 26.5914 124.06 25.2355C122.67 23.8821 121.976 21.8865 121.976 19.3323C121.976 16.7781 122.67 14.878 124.06 13.5365C125.449 12.1949 127.454 11.5242 130.074 11.5242C132.694 11.5242 134.733 12.1949 136.108 13.5365C137.486 14.878 138.174 16.7519 138.174 19.3323C138.174 21.9127 137.486 23.8797 136.108 25.2355ZM140.201 0.703575H139.412C138.856 0.703575 138.402 1.14041 138.402 1.6775C138.402 1.68466 138.405 12.183 138.405 12.183C137.508 11.0444 136.204 10.0585 134.826 9.55484C133.449 9.05356 131.988 8.80053 130.224 8.80053C126.775 8.80053 124.089 9.72671 122.163 11.5815C120.239 13.4362 119.275 15.9522 119.275 19.3013C119.275 22.6503 120.239 25.2522 122.163 27.107C124.086 28.9617 126.775 29.8879 130.224 29.8879C133.672 29.8879 136.4 28.9617 138.324 27.107C140.25 25.2522 141.211 22.6241 141.211 19.3848V1.75866C141.211 1.13802 140.76 0.703575 140.201 0.703575Z" fill="#524F4F"/>
<path fill-rule="evenodd" clip-rule="evenodd" d="M63.9291 19.5587C63.9291 22.9007 64.8825 25.5121 66.7893 27.3907C68.6961 29.2694 71.3725 30.217 74.816 30.217C77.9826 30.217 80.0511 29.3505 81.0928 28.6726C81.8991 28.1952 81.8109 27.639 81.8109 27.016V26.5218C81.8109 25.2495 80.7472 25.7747 80.1614 26.0874C78.8796 26.7534 77.5929 27.4862 74.8185 27.4862C72.044 27.4862 70.1544 26.8059 68.777 25.4453C67.3996 24.0846 66.7109 22.1225 66.7109 19.5564C66.7109 16.9903 67.3996 15.0281 68.777 13.6675C70.1544 12.3068 72.169 11.6265 74.8185 11.6265C76.6566 11.6265 78.1247 11.9535 79.4065 12.6195C79.98 12.8893 81.056 13.4168 81.056 12.2304V11.6552C81.056 11.0321 81.1467 10.5452 80.333 10.0916C78.632 9.26091 77.1909 8.89569 74.816 8.89569C71.3725 8.89569 68.6961 9.84336 66.7893 11.722C64.8825 13.6006 63.9291 16.2121 63.9291 19.554V19.5587Z" fill="#524F4F"/>
<path fill-rule="evenodd" clip-rule="evenodd" d="M164.495 28.4723C164.495 27.8779 164.046 27.5222 163.477 27.4745C161.593 27.2954 160.115 26.6366 159.051 25.4884C157.791 24.1278 157.161 22.1632 157.161 19.5947V11.8725H161.801C162.36 11.8725 162.813 11.4333 162.813 10.8938V10.1276C162.813 9.58573 162.36 9.1489 161.801 9.1489H157.164V2.6656C157.164 2.12374 156.71 1.6869 156.152 1.6869H155.362C154.804 1.6869 154.35 2.12613 154.35 2.6656V9.1489H152.348C151.789 9.1489 151.336 9.58812 151.336 10.1276V10.8938C151.336 11.4357 151.789 11.8725 152.348 11.8725H154.35V19.5947C154.35 22.9414 155.247 25.5529 157.044 27.4339C158.632 29.0977 160.779 30.0239 163.48 30.2148C164.048 30.2411 164.497 29.7804 164.497 29.2385L164.495 28.4723Z" fill="#524F4F"/>
<path fill-rule="evenodd" clip-rule="evenodd" d="M146.987 0.701188H146.228C145.691 0.701188 145.257 1.15234 145.257 1.70853V4.2818C145.257 4.83798 145.691 5.29153 146.228 5.29153H146.987C147.524 5.29153 147.958 4.84037 147.958 4.2818V1.71092C147.958 1.15473 147.524 0.701188 146.987 0.701188Z" fill="#524F4F"/>
<path fill-rule="evenodd" clip-rule="evenodd" d="M146.987 8.90053H146.228C145.691 8.90053 145.257 9.33498 145.257 9.87207V28.5891C145.257 29.1262 145.691 29.5607 146.228 29.5607H146.987C147.524 29.5607 147.958 29.1262 147.958 28.5891V9.87207C147.958 9.33498 147.524 8.90053 146.987 8.90053Z" fill="#524F4F"/>
<path fill-rule="evenodd" clip-rule="evenodd" d="M181.704 22.7957C181.704 26.1376 179.557 27.2643 174.249 27.2643C170.447 27.2643 168.207 26.0373 168.207 23.402C168.207 20.5184 170.526 19.3917 175.702 19.3917H181.704V22.7957ZM181.631 14.8897V17.081H175.589C168.617 17.081 165.506 19.036 165.506 23.4211C165.506 27.472 168.773 29.8877 174.249 29.8877C181.383 29.8877 184.405 27.8133 184.405 22.9532V14.8897C184.405 11.8915 182.305 10.55 182.305 10.55C181.256 9.76227 179.92 9.26814 178.293 9.0724C177.29 8.94589 176.455 8.90053 175.423 8.90053C174.391 8.90053 173.607 8.93873 172.663 9.04853C170.935 9.22279 169.516 9.72169 168.411 10.55C167.021 11.5955 166.325 13.0588 166.315 14.8897C166.315 14.8897 166.347 15.7323 167.296 15.7323H168.063C168.607 15.7323 169.045 15.391 169.045 14.8634C169.045 12.9156 170.724 12.283 170.724 12.283C171.215 12.0515 173.043 11.5144 175.406 11.5144C177.768 11.5144 179.496 12.0539 179.986 12.283C179.986 12.283 181.631 12.8893 181.631 14.8897Z" fill="#524F4F"/>
<path fill-rule="evenodd" clip-rule="evenodd" d="M196.263 20.4134C201.387 20.4134 203.233 20.7165 203.233 23.5834C203.233 26.1997 200.618 27.3025 196.853 27.3025C193.836 27.3025 191.849 26.9325 190.704 25.9896C189.773 25.1684 189.836 23.9439 189.836 23.9439C189.836 23.4163 189.395 23.0726 188.854 23.0726H188.084C187.133 23.0726 187.101 23.9176 187.101 23.9176C187.101 26.9635 189.184 28.3051 189.184 28.3051C190.836 29.3888 193.348 29.8901 196.853 29.8901C202.333 29.8901 206 27.5889 206 23.5333C206 19.1435 203.255 17.7972 196.275 17.7972C193.292 17.7972 191.858 17.0572 191.858 17.0572C190.116 16.31 190.214 14.7322 190.214 14.7322C190.214 12.8893 191.858 12.209 191.858 12.209C192.348 11.9775 193.814 11.5192 196.275 11.5192C198.736 11.5192 200.304 12.0109 200.792 12.2424C200.792 12.2424 202.331 12.8941 202.444 14.3526C202.483 14.8539 202.885 15.1642 203.427 15.1642H204.196C205.167 15.1642 205.147 14.3192 205.147 14.3192C205.147 13.1113 204.5 11.6003 203.11 10.5524C202.005 9.72169 200.61 9.24905 199.022 9.04853C198.076 8.92918 197.238 8.90053 196.258 8.90053C195.226 8.90053 194.554 8.94589 193.552 9.0724C191.922 9.27053 190.51 9.83388 189.535 10.5524C189.535 10.5524 187.434 11.8892 187.434 14.7298C187.434 14.7298 187.29 17.2004 189.535 18.8188C189.535 18.8188 191.329 20.4134 196.258 20.4134H196.263Z" fill="#524F4F"/>
<path fill-rule="evenodd" clip-rule="evenodd" d="M54.2236 25.2934C54.2236 25.8234 54.0496 26.2268 54.0496 26.2268C51.2016 33.8678 43.7485 39 35.489 39C32.6925 39 30.0308 38.4199 27.6191 37.384C27.6191 37.384 24.2099 39 19.7665 39C8.85018 39 0 30.2705 0 19.5C0 8.72953 8.85018 0 19.7665 0C24.3055 0 27.6191 1.61605 27.6191 1.61605C30.0333 0.577672 32.6925 0 35.489 0C43.7485 0 51.2016 5.13221 54.0496 12.7732C54.0496 12.7732 54.2236 13.1766 54.2236 13.7066C54.2236 14.0766 54.1403 14.5062 53.8535 14.9073C53.3731 15.5804 52.5349 15.9934 51.5815 16.0006H38.6825C36.5379 16.0006 35.6532 13.5538 35.6532 13.5538C34.1508 9.64855 31.2416 6.52148 27.624 4.65718C22.21 7.46199 18.5043 13.0597 18.5043 19.5C18.5043 25.9403 22.21 31.538 27.624 34.3428C31.2416 32.4761 34.1483 29.3515 35.6532 25.4462C35.6532 25.4462 36.5379 22.9994 38.6825 22.9994H51.5815C52.5349 23.0042 53.3731 23.4196 53.8535 24.0927C54.1378 24.4938 54.2236 24.9234 54.2236 25.2934ZM38.1874 11.9449C36.6703 8.36908 34.1312 5.38762 30.9842 3.28461C32.467 2.87165 34.0282 2.64488 35.6409 2.64488C42.6211 2.64488 48.937 6.87477 51.5276 13.222H39.6212C38.6874 13.222 38.1874 11.9449 38.1874 11.9449ZM2.69353 19.3353C2.69353 10.1307 10.2987 2.64488 19.6464 2.64488C21.2272 2.64488 22.7737 2.86449 24.2492 3.27745C19.0386 6.7769 15.6097 12.6706 15.6073 19.3353C15.6097 26 19.0386 31.8937 24.2492 35.3931C22.7737 35.8061 21.2272 36.0257 19.6464 36.0257C10.2987 36.0257 2.69598 28.5375 2.69353 19.3353ZM30.9842 35.7178C34.1312 33.6124 36.6703 30.6309 38.1874 27.0575C38.1874 27.0575 38.6874 25.7828 39.6212 25.7828H51.5276C48.937 32.13 42.6211 36.3599 35.6409 36.3599C34.0258 36.3599 32.4646 36.1307 30.9842 35.7178Z" fill="#524F4F"/>
<path fill-rule="evenodd" clip-rule="evenodd" d="M54.2236 25.2934C54.2236 25.8234 54.0496 26.2268 54.0496 26.2268C51.2016 33.8678 43.7485 39 35.489 39C32.6925 39 30.0308 38.4199 27.6191 37.384C27.6191 37.384 24.2099 39 19.7665 39C8.85018 39 0 30.2705 0 19.5C0 8.72953 8.85018 0 19.7665 0C24.3055 0 27.6191 1.61605 27.6191 1.61605C30.0333 0.577672 32.6925 0 35.489 0C43.7485 0 51.2016 5.13221 54.0496 12.7732C54.0496 12.7732 54.2236 13.1766 54.2236 13.7066C54.2236 14.0766 54.1403 14.5062 53.8535 14.9073C53.3731 15.5804 52.5349 15.9934 51.5815 16.0006H38.6825C36.5379 16.0006 35.6532 13.5538 35.6532 13.5538C34.1508 9.64855 31.2416 6.52148 27.624 4.65718C22.21 7.46199 18.5043 13.0597 18.5043 19.5C18.5043 25.9403 22.21 31.538 27.624 34.3428C31.2416 32.4761 34.1483 29.3515 35.6532 25.4462C35.6532 25.4462 36.5379 22.9994 38.6825 22.9994H51.5815C52.5349 23.0042 53.3731 23.4196 53.8535 24.0927C54.1378 24.4938 54.2236 24.9234 54.2236 25.2934ZM38.1874 11.9449C36.6703 8.36908 34.1312 5.38762 30.9842 3.28461C32.467 2.87165 34.0282 2.64488 35.6409 2.64488C42.6211 2.64488 48.937 6.87477 51.5276 13.222H39.6212C38.6874 13.222 38.1874 11.9449 38.1874 11.9449ZM2.69353 19.3353C2.69353 10.1307 10.2987 2.64488 19.6464 2.64488C21.2272 2.64488 22.7737 2.86449 24.2492 3.27745C19.0386 6.7769 15.6097 12.6706 15.6073 19.3353C15.6097 26 19.0386 31.8937 24.2492 35.3931C22.7737 35.8061 21.2272 36.0257 19.6464 36.0257C10.2987 36.0257 2.69598 28.5375 2.69353 19.3353ZM30.9842 35.7178C34.1312 33.6124 36.6703 30.6309 38.1874 27.0575C38.1874 27.0575 38.6874 25.7828 39.6212 25.7828H51.5276C48.937 32.13 42.6211 36.3599 35.6409 36.3599C34.0258 36.3599 32.4646 36.1307 30.9842 35.7178Z" fill="#524F4F"/>
</svg>
