<svg width="98" height="74" viewBox="0 0 98 74" fill="none" xmlns="http://www.w3.org/2000/svg">
<path d="M87.1459 16.8364C85.6118 16.8364 84.1584 17.2345 82.9406 17.935C81.4824 18.7742 80.3611 20.0447 79.8392 21.5778L67.2929 55.5611L74.4651 73.8645C74.4651 73.8645 74.6834 73.8596 74.6865 73.8596C74.7514 73.8546 74.8162 73.8497 74.8811 73.8414C74.8842 73.8414 74.8858 73.8414 74.889 73.8414C74.8969 73.8414 74.9 73.8381 74.9032 73.8381C74.9855 73.8282 75.0677 73.815 75.1484 73.8001C75.8521 73.6564 76.4642 73.2929 76.8564 72.7907C76.994 72.6139 77.1047 72.419 77.1822 72.2108L98 16.8413H87.1443L87.1459 16.8364Z" fill="#252525"/>
<path d="M0 21.5927V34.0097L11.6259 39.602V27.185L0 21.5927Z" fill="#252525"/>
<path d="M16.4717 67.993C16.943 68.6159 17.1771 69.4204 17.1771 70.4051C17.1771 71.3897 16.9446 72.2736 16.4796 72.9443C16.0162 73.6167 15.3678 73.9521 14.5359 73.9521C14.014 73.9521 13.5933 73.843 13.277 73.6266C13.0872 73.4978 12.8832 73.2731 12.6618 72.9509V73.777H11.0391V64.8987H12.6855V68.0591C12.8943 67.7535 13.1252 67.5205 13.3766 67.3603C13.6756 67.1587 14.0551 67.058 14.5154 67.058C15.3472 67.058 16.0004 67.3702 16.4701 67.993M15.0942 71.9977C15.3314 71.6392 15.45 71.17 15.45 70.5868C15.45 70.1209 15.3915 69.7343 15.2745 69.4287C15.0531 68.8488 14.645 68.5597 14.052 68.5597C13.4589 68.5597 13.0366 68.8439 12.812 69.4105C12.6966 69.7112 12.6381 70.1011 12.6381 70.5802C12.6381 71.1435 12.7583 71.6094 12.9987 71.9795C13.2391 72.3496 13.606 72.5346 14.0994 72.5346C14.5264 72.5346 14.8585 72.3562 15.0942 71.9977Z" fill="#524F4F"/>
<path d="M20.5173 69.7789C20.8241 69.7393 21.0424 69.6881 21.1752 69.6286C21.4124 69.5245 21.5295 69.3609 21.5295 69.1396C21.5295 68.8703 21.4393 68.6836 21.2575 68.5812C21.0756 68.4787 20.8099 68.4275 20.4588 68.4275C20.065 68.4275 19.785 68.5283 19.6221 68.7282C19.5051 68.8769 19.426 69.0784 19.3881 69.3312H17.8002C17.835 68.7563 17.99 68.2838 18.2636 67.9137C18.7001 67.3338 19.4513 67.0447 20.5141 67.0447C21.2053 67.0447 21.8205 67.1868 22.3582 67.4726C22.8959 67.7584 23.1648 68.297 23.1648 69.0884V72.1034C23.1648 72.3132 23.1679 72.566 23.1759 72.8634C23.1869 73.088 23.2201 73.2417 23.2739 73.3226C23.3277 73.4036 23.4083 73.4697 23.5159 73.5209V73.7753H21.7256C21.675 73.6415 21.6418 73.5176 21.6212 73.4003C21.6022 73.2846 21.5864 73.1508 21.5753 73.0021C21.3476 73.2599 21.0835 73.4779 20.7862 73.6597C20.4303 73.8728 20.027 73.9802 19.5779 73.9802C19.0053 73.9802 18.5309 73.81 18.1576 73.4713C17.7844 73.131 17.5978 72.6502 17.5978 72.0258C17.5978 71.2179 17.8983 70.6331 18.4992 70.2712C18.8282 70.0747 19.3137 69.9342 19.9527 69.8483L20.5173 69.7756V69.7789ZM21.5231 70.5802C21.4188 70.6496 21.3112 70.7041 21.2037 70.747C21.0961 70.79 20.949 70.828 20.7624 70.8643L20.3876 70.937C20.0365 71.0015 19.785 71.0791 19.6316 71.1716C19.3723 71.3286 19.2426 71.5714 19.2426 71.9019C19.2426 72.1959 19.3216 72.4074 19.4798 72.5379C19.638 72.6684 19.8309 72.7345 20.0571 72.7345C20.4161 72.7345 20.7482 72.6255 21.0503 72.409C21.3539 72.1926 21.5105 71.7961 21.5216 71.2212V70.5818L21.5231 70.5802Z" fill="#524F4F"/>
<path d="M29.3802 67.58C29.7914 67.9352 29.9986 68.5267 29.9986 69.351V73.7786H28.3127V69.7789C28.3127 69.4336 28.2684 69.1677 28.1814 68.9826C28.0217 68.6456 27.7149 68.4754 27.2641 68.4754C26.7106 68.4754 26.3294 68.7232 26.1238 69.2172C26.0179 69.4783 25.9641 69.812 25.9641 70.2184V73.777H24.3193V67.2149H25.9135V68.1748C26.1238 67.8377 26.3231 67.5932 26.5113 67.4445C26.8482 67.1786 27.2752 67.0464 27.7939 67.0464C28.4424 67.0464 28.9722 67.2248 29.3834 67.58" fill="#524F4F"/>
<path d="M34.9978 69.5609C34.9678 69.3163 34.8871 69.095 34.7606 68.8967C34.5756 68.6307 34.2877 68.4986 33.8987 68.4986C33.342 68.4986 32.9624 68.786 32.7584 69.361C32.6508 69.6666 32.5971 70.0714 32.5971 70.5769C32.5971 71.0824 32.6508 71.4459 32.7584 71.7383C32.9545 72.2851 33.3246 72.5594 33.8686 72.5594C34.2545 72.5594 34.5281 72.4503 34.691 72.2339C34.8523 72.0175 34.952 71.735 34.9868 71.3897H36.6664C36.6284 71.9134 36.4465 72.4074 36.1239 72.8733C35.6067 73.625 34.8429 74 33.8291 74C32.8153 74 32.0704 73.6861 31.5928 73.06C31.1152 72.4322 30.8764 71.6193 30.8764 70.6198C30.8764 69.4915 31.1405 68.6142 31.6671 67.9864C32.1954 67.3586 32.9229 67.0464 33.8528 67.0464C34.6436 67.0464 35.2889 67.2314 35.7918 67.6015C36.2947 67.9716 36.592 68.6241 36.6854 69.5609H34.9978Z" fill="#524F4F"/>
<path d="M42.7616 72.9724C42.2302 73.658 41.4236 74 40.3419 74C39.2601 74 38.4535 73.658 37.9221 72.9724C37.3907 72.2868 37.125 71.4624 37.125 70.4992C37.125 69.5361 37.3907 68.7299 37.9221 68.0343C38.4535 67.3388 39.2601 66.9919 40.3419 66.9919C41.4236 66.9919 42.2302 67.3388 42.7616 68.0343C43.293 68.7299 43.5587 69.5509 43.5587 70.4992C43.5587 71.4475 43.293 72.2884 42.7616 72.9724ZM41.4458 72.0225C41.7036 71.6656 41.8333 71.1568 41.8333 70.4992C41.8333 69.8417 41.7036 69.3345 41.4458 68.9793C41.188 68.6241 40.8179 68.4457 40.3371 68.4457C39.8563 68.4457 39.4847 68.6241 39.2253 68.9793C38.9659 69.3345 38.8362 69.8417 38.8362 70.4992C38.8362 71.1568 38.9659 71.6656 39.2253 72.0225C39.4847 72.3793 39.8563 72.5577 40.3371 72.5577C40.8179 72.5577 41.188 72.3793 41.4458 72.0225Z" fill="#524F4F"/>
<path d="M74.8999 73.8794C74.805 73.8563 74.3796 73.3838 73.7865 71.8242C73.301 70.5455 68.1831 55.8767 68.1831 55.8767V55.8734L60.4715 33.8594C59.2506 30.6097 56.6743 27.935 53.7136 25.8633C54.4854 25.2256 55.3047 24.431 56.0464 23.4728C56.0496 23.4695 56.0527 23.4645 56.0559 23.4612C56.059 23.4562 56.0622 23.4546 56.0654 23.4496C57.4492 21.6522 58.5579 19.2847 58.5579 16.2961C58.5579 12.6682 57.5583 9.47799 55.6051 6.9057C52.3219 2.58055 46.3484 0 37.9077 0H11.0754V21.591H0.00144199V34.0081H11.0754V56.3194H39.2726C41.8442 56.3194 44.2703 56.0287 46.4907 55.4587H46.4939C46.505 55.4554 46.5145 55.4537 46.524 55.4504C48.4471 54.9532 50.2153 54.2444 51.7857 53.3341H51.7873L58.1878 70.1953C58.24 70.3324 58.2969 70.4662 58.3602 70.5984C58.58 71.0494 58.8631 71.4673 59.2016 71.8424C59.8073 72.5131 60.5854 73.0484 61.4711 73.4085C61.6656 73.4878 61.8649 73.5572 62.0689 73.6184C62.711 73.8117 63.3958 73.9157 64.1027 73.9157H74.4349C74.4349 73.9157 74.582 73.9108 74.6643 73.9108C74.8003 73.9108 74.9679 73.8827 74.9679 73.8827C74.9363 73.8827 74.9189 73.8827 74.8983 73.8777M26.992 12.4187H36.9066C41.2733 12.4187 42.6365 14.7911 42.6365 17.0065C42.6365 19.222 41.278 21.5795 36.9414 21.5927H26.992V12.4187ZM37.7259 43.9024H26.992V34.0147H37.3684C38.5752 34.018 39.7376 34.2262 40.8194 34.5929C42.8073 35.4751 43.5475 37.2346 43.5475 38.9197C43.5475 41.2938 42.0925 43.904 37.7259 43.904" fill="#524F4F"/>
</svg>
