<svg width="259" height="40" viewBox="0 0 259 40" fill="none" xmlns="http://www.w3.org/2000/svg">
<path d="M0 0.0653733C0.295952 0.0520036 0.529455 0.0306121 0.762958 0.0306121C8.05314 0.0306121 15.346 -0.0549538 22.6335 0.0600254C27.4964 0.134896 31.2215 2.36763 33.3367 6.72347C35.4083 10.9884 35.0744 15.1918 32.2262 19.0797C30.95 20.8205 29.1852 21.989 27.0864 22.8125C32.8669 26.8983 34.963 32.6179 35.183 39.3161H28.5064C28.0475 29.2032 22.8589 24.0773 12.2861 24.8153V19.1172C14.0563 19.1172 15.7778 19.1519 17.4964 19.1065C19.0387 19.0664 20.6189 19.1252 22.1095 18.8123C28.691 17.4406 28.9653 10.729 26.2827 7.8385C25.0554 6.51491 23.5159 5.73412 21.7348 5.71005C16.7661 5.64053 11.7973 5.69133 6.82861 5.69401C6.77431 5.69401 6.72 5.72342 6.58425 5.7662V39.308H0V0.0653733Z" fill="#524F4F"/>
<path d="M135.533 0.0652811H141.265V14.2264C141.571 14.0259 141.715 13.943 141.843 13.8441C146.206 10.4107 151.064 9.71017 156.165 11.7584C161.406 13.8628 164.425 17.9031 165.101 23.4141C166.046 31.115 161.547 37.5833 154.151 39.4818C144.767 41.891 135.606 35.1179 135.517 25.6121C135.441 17.3015 135.5 8.99088 135.503 0.68296C135.503 0.511828 135.522 0.340696 135.536 0.067955L135.533 0.0652811ZM150.423 16.1891C145.307 16.1945 141.284 20.2214 141.275 25.3393C141.267 30.4064 145.294 34.4414 150.366 34.4521C155.506 34.4628 159.491 30.4572 159.483 25.2939C159.475 20.1733 155.503 16.1838 150.423 16.1891Z" fill="#524F4F"/>
<path d="M94.0288 14.2932V0.0892809H99.7578V1.0412C99.7578 9.1459 99.7632 17.2533 99.7578 25.358C99.7523 33.099 93.9093 39.2999 86.0707 39.8962C78.1832 40.4978 71.3654 35.2248 70.1653 27.5934C68.9136 19.6384 74.1512 12.2851 82.1934 10.8759C86.1196 10.1887 89.7524 11.0711 92.9617 13.4616C93.2631 13.6862 93.5591 13.9242 94.0288 14.2879V14.2932ZM75.802 25.3633C75.802 30.4759 79.7688 34.444 84.8842 34.4547C89.9398 34.4627 94.0071 30.4144 94.0125 25.3633C94.0207 20.232 89.9452 16.181 84.781 16.1917C79.7118 16.1997 75.7993 20.1973 75.7993 25.366L75.802 25.3633Z" fill="#524F4F"/>
<path d="M197.433 27.5962H174.118C174.511 29.5802 175.445 31.1659 176.928 32.3879C180.102 35.0057 183.705 35.2329 187.501 34.0163C189.374 33.4147 190.922 32.2889 192.314 30.8343C193.667 32.0296 194.983 33.1954 196.409 34.4548C195.893 34.9254 195.429 35.396 194.916 35.8105C189.616 40.1075 183.648 41.0915 177.275 38.7973C170.517 36.3613 167.213 29.9706 168.239 23.112C169.42 15.2132 176.081 10.114 184.169 10.6996C192.442 11.3012 197.845 17.2801 197.587 25.5586C197.568 26.1977 197.49 26.8368 197.43 27.5935L197.433 27.5962ZM191.687 22.6949C191.66 19.2401 187.908 16.0769 183.64 15.8924C178.038 15.6517 174.72 19.4621 174.24 22.6949H191.687Z" fill="#524F4F"/>
<path d="M117.724 10.6829C126.295 10.6829 132.703 16.9639 132.7 25.3628C132.7 33.6921 126.282 39.9197 117.71 39.9277C108.916 39.9357 102.75 33.192 102.91 25.0419C103.07 16.8837 109.331 10.6829 117.724 10.6829ZM126.925 25.328C126.92 20.1112 122.961 16.1858 117.707 16.1885C112.494 16.1912 108.663 20.1299 108.677 25.4724C108.688 30.5422 112.676 34.4809 117.767 34.4515C122.983 34.4194 126.928 30.4887 126.925 25.328Z" fill="#524F4F"/>
<path d="M52.2562 10.6829C60.7546 10.6829 67.1624 16.9399 67.233 25.3066C67.3036 33.5878 60.7709 39.9277 52.172 39.925C43.6899 39.9223 37.4016 33.676 37.4152 25.2692C37.4287 16.8971 43.7523 10.6829 52.2562 10.6829ZM61.4551 25.4537C61.5963 20.5122 57.6295 16.3195 52.6906 16.1885C47.3798 16.0468 43.288 19.8277 43.1604 24.9991C43.0301 30.2882 46.8123 34.3071 52.0498 34.4515C57.2276 34.5932 61.3058 30.6919 61.4551 25.4537Z" fill="#524F4F"/>
<path d="M231.467 35.8931C232.102 34.3262 232.738 32.7593 233.324 31.3154C235.309 32.179 237.204 33.1657 239.208 33.8422C242.635 35.0001 246.178 35.3744 249.735 34.4546C250.647 34.2193 251.581 33.7326 252.29 33.1229C253.824 31.802 253.52 29.8073 251.614 29.1334C249.558 28.4061 247.394 27.9542 245.26 27.4596C243.034 26.9462 240.783 26.5397 238.551 26.0557C237.916 25.9167 237.291 25.7028 236.683 25.4728C234.22 24.5476 232.398 23.0315 232.094 20.2854C231.763 17.2826 232.621 14.7129 235.23 12.916C237.666 11.2395 240.476 10.7849 243.359 10.6966C247.951 10.5549 252.336 11.4454 256.525 13.3118C257.188 13.6059 257.324 13.9027 257.079 14.5658C256.626 15.7932 256.265 17.0553 255.86 18.3147C254.277 17.7451 252.778 17.1248 251.231 16.6675C248.035 15.7183 244.766 15.3921 241.448 15.8814C240.75 15.983 240.05 16.1889 239.406 16.467C238.453 16.8788 237.788 17.5847 237.791 18.6837C237.791 19.7506 238.44 20.4806 239.382 20.8095C240.775 21.2935 242.214 21.6625 243.653 21.9967C246.599 22.6786 249.583 23.2187 252.499 23.9968C253.821 24.3498 255.105 25.0076 256.262 25.7456C260.071 28.1708 259.534 33.5882 256.922 36.2408C254.804 38.3933 252.108 39.3292 249.202 39.7008C243.004 40.495 237.21 39.2329 231.815 36.1498C231.714 36.0937 231.627 36.0135 231.473 35.8958L231.467 35.8931Z" fill="#524F4F"/>
<path d="M228.671 39.3262H222.928V38.3101C222.928 33.6869 222.982 29.0636 222.895 24.4431C222.868 23.0339 222.662 21.5606 222.176 20.2423C221.044 17.1727 217.81 15.6004 214.155 16.1164C209.388 16.7876 206.469 20.2183 206.447 25.2212C206.428 29.5503 206.442 33.8794 206.442 38.2112V39.3102H200.732V11.3488H206.018V14.7314C206.767 14.1404 207.359 13.6217 208 13.1698C212.689 9.85409 219.928 9.79794 224.147 13.0548C226.895 15.1779 228.109 18.1139 228.467 21.4135C228.668 23.2666 228.649 25.149 228.662 27.0181C228.69 30.791 228.671 34.5666 228.671 38.3395V39.3262Z" fill="#524F4F"/>
</svg>
