<svg width="184" height="76" viewBox="0 0 184 76" fill="none" xmlns="http://www.w3.org/2000/svg">
<path d="M96.4073 47.4404C101.584 44.6881 104.848 39.5134 104.848 33.6361C104.848 30.2155 103.744 27.2952 101.649 25.2028C99.234 22.7024 96.3055 21.7668 90.857 21.7668H72.9914L72.8185 22.8775L65.8442 67.051C65.3364 70.2824 65.7637 75.9633 72.8706 75.9917V76H85.1468C95.6001 76 102.893 68.7401 102.893 58.3422C102.893 53.294 100.44 49.3352 96.4062 47.4416M90.0331 66.2503C88.0954 67.5833 86.8205 67.9724 82.0952 67.9724H74.7941L77.203 52.3904H84.9112C92.3697 52.3904 93.3723 55.6774 93.3723 58.8922C93.3723 62.107 92.1579 64.7907 90.0331 66.2503ZM85.38 43.8956H78.5489L80.792 29.7944H88.5085C92.9604 29.7944 93.7227 30.2037 94.4093 31.1404C94.9999 31.9672 95.2473 32.8768 95.2473 34.2642C95.2473 40.0232 91.2831 43.8956 85.3776 43.8956" fill="#524F4F"/>
<path d="M131.196 52.6849C138.948 51.1958 144.976 43.7253 144.976 35.1229C144.976 26.5205 139.595 21.7668 129.813 21.7668H112.881L112.706 22.8775L105.557 68.7661C105.237 71.1139 103.462 76 111.994 75.9941L112.823 76H113.415L116.862 53.8724H121.792L132.231 75.256L132.585 75.9988H142.903L131.196 52.6849ZM118.138 45.8472L120.681 29.7956H127.939C134.629 29.7956 135.851 31.5887 135.851 35.1229C135.851 41.5371 131.472 45.8472 124.963 45.8472H118.138Z" fill="#524F4F"/>
<path d="M175.565 47.4404C180.731 44.6881 184 39.5134 184 33.6361C184 30.2155 182.893 27.2975 180.797 25.2028C178.386 22.7024 175.458 21.7668 170.009 21.7668H152.137L151.966 22.8775L145.014 66.9529C144.55 70.157 144.849 75.9633 152.026 75.9917V76H164.3C174.743 76 182.043 68.7401 182.043 58.3422C182.043 53.294 179.591 49.3352 175.564 47.4416M169.186 66.2503C167.247 67.5833 165.975 67.9724 161.245 67.9724H153.939L156.348 52.3904H164.059C171.514 52.3904 172.518 55.6774 172.518 58.8922C172.518 62.107 171.305 64.7907 169.186 66.2503ZM164.527 43.8956H157.704L159.941 29.7944H167.664C172.11 29.7944 172.874 30.2037 173.563 31.1404C174.158 31.9672 174.401 32.8768 174.401 34.2642C174.401 40.0232 170.434 43.8956 164.527 43.8956Z" fill="#524F4F"/>
<path d="M6.96928 21.7597L6.18804 26.7724C17.316 29.0303 27.2484 34.6367 34.8632 42.5035L46.3179 34.9904C46.3179 34.9904 47.6377 34.0998 48.2532 34.8437C48.2532 34.8437 48.8545 35.4245 47.7004 36.6605L38.2936 46.4067C44.9199 54.6696 49.2191 64.8629 50.1921 75.9976H55.5484L64.0414 21.7562L6.96928 21.7597Z" fill="#524F4F"/>
<path d="M17.9339 60.3931L17.4107 59.7603L29.6585 46.0116C23.0629 39.4968 14.6373 34.8331 5.23043 32.8661L0.239943 64.7446C-0.630077 70.7236 0.457744 75.9976 10.4292 75.9976H43.9966C43.0698 66.5886 39.4713 57.9542 33.9707 50.8634L17.9327 60.3943L17.9339 60.3931Z" fill="#524F4F"/>
<path d="M8.98867 13.6423H6.57629L8.4418 0H10.827L10.1712 4.8648C10.692 4.36803 11.1785 4.02384 11.6307 3.83223C12.0829 3.64062 12.5907 3.546 13.1541 3.546C14.4479 3.546 15.4765 4.02502 16.24 4.98427C17.0035 5.94351 17.3858 7.05533 17.3858 8.32209C17.3858 9.29316 17.1408 10.2193 16.652 11.0993C16.1631 11.9805 15.5061 12.6665 14.6823 13.1573C13.8584 13.6494 12.9991 13.8942 12.1065 13.8942C11.4969 13.8942 10.937 13.7558 10.4269 13.4779C9.9167 13.1999 9.49885 12.7966 9.17333 12.2655L8.98749 13.6411L8.98867 13.6423ZM12.5682 5.69039C11.9811 5.69039 11.4685 5.82523 11.0306 6.09372C10.5926 6.36221 10.2256 6.78092 9.92853 7.34747C9.63142 7.91521 9.48346 8.49478 9.48346 9.08617C9.48346 9.86326 9.70718 10.4878 10.1534 10.9609C10.5997 11.434 11.1892 11.6694 11.9207 11.6694C12.7718 11.6694 13.4938 11.3524 14.0881 10.7196C14.6811 10.0868 14.9782 9.2695 14.9782 8.26768C14.9782 7.49532 14.7533 6.87318 14.3035 6.40006C13.8537 5.92695 13.2749 5.69039 12.5682 5.69039Z" fill="#524F4F"/>
<path d="M27.4236 3.79911H29.8443L28.4712 13.6411H26.0778L26.2222 12.5837C25.6966 13.0722 25.2054 13.4116 24.7496 13.6044C24.2939 13.7972 23.7814 13.8942 23.2132 13.8942C21.9076 13.8942 20.8707 13.4152 20.1001 12.4559C19.3295 11.4967 18.9448 10.3813 18.9448 9.10865C18.9448 8.13758 19.191 7.21382 19.6846 6.33619C20.1782 5.45856 20.8399 4.77373 21.6708 4.28287C22.5018 3.79083 23.3706 3.546 24.2774 3.546C24.8858 3.546 25.448 3.68557 25.9618 3.9647C26.4755 4.24384 26.9004 4.65072 27.2354 5.18534L27.4236 3.79911ZM23.7932 11.7415C24.3886 11.7415 24.9083 11.6091 25.351 11.3441C25.7937 11.0792 26.1665 10.664 26.4672 10.0975C26.7679 9.5309 26.9182 8.9537 26.9182 8.36349C26.9182 7.58403 26.6921 6.95715 26.2399 6.48167C25.7878 6.00738 25.1912 5.76964 24.4502 5.76964C23.5873 5.76964 22.8557 6.08662 22.2544 6.71942C21.6531 7.35221 21.3524 8.16951 21.3524 9.17133C21.3524 9.94369 21.5797 10.5647 22.0354 11.0354C22.4911 11.5062 23.0771 11.7415 23.7932 11.7415Z" fill="#524F4F"/>
<path d="M32.4295 3.79911H34.8419L34.7058 4.79739C35.6302 3.96234 36.5914 3.54481 37.5881 3.54481C38.4403 3.54481 39.1375 3.81567 39.682 4.35502C40.2265 4.89437 40.4976 5.57566 40.4976 6.39651C40.4976 6.78329 40.4467 7.3593 40.3437 8.12575L39.5897 13.6399H37.1773L37.9136 8.25704C37.9858 7.70231 38.0225 7.28597 38.0225 7.0092C38.0225 6.6106 37.9089 6.30544 37.6816 6.09136C37.4543 5.87727 37.1323 5.77082 36.7145 5.77082C36.2967 5.77082 35.9025 5.91157 35.4965 6.19189C35.0905 6.47221 34.7791 6.86135 34.5602 7.3593C34.3424 7.85726 34.1423 8.79048 33.96 10.159L33.496 13.6423H31.0836L32.4295 3.79911Z" fill="#524F4F"/>
<path d="M52.5453 5.83351L50.4999 6.94533C49.921 6.21082 49.1434 5.84297 48.1656 5.84297C47.5087 5.84297 46.9263 5.98254 46.4197 6.26286C45.913 6.54318 45.5082 6.94769 45.2076 7.47758C44.9057 8.00747 44.7554 8.56693 44.7554 9.15832C44.7554 9.91767 44.9933 10.5256 45.4703 10.9834C45.9474 11.4411 46.6008 11.6694 47.4341 11.6694C48.5858 11.6694 49.4701 11.2814 50.0856 10.5043L51.9854 11.8456C51.448 12.4867 50.7792 12.9882 49.979 13.3501C49.1789 13.7132 48.2864 13.8942 47.3027 13.8942C45.7686 13.8942 44.5601 13.4719 43.6747 12.6274C42.7904 11.7829 42.3477 10.6676 42.3477 9.28015C42.3477 7.69403 42.8946 6.34211 43.9872 5.22319C45.0797 4.10427 46.4871 3.54481 48.2082 3.54481C50.1471 3.54481 51.5924 4.30771 52.5465 5.83232L52.5453 5.83351Z" fill="#524F4F"/>
<path d="M59.8558 3.546C60.7306 3.546 61.526 3.74825 62.241 4.15158C62.956 4.55491 63.5135 5.12857 63.9112 5.87017C64.3101 6.61178 64.509 7.44446 64.509 8.36704C64.509 9.89875 63.9621 11.2034 62.8707 12.2797C61.7782 13.356 60.4264 13.8942 58.8154 13.8942C57.4151 13.8942 56.2988 13.4708 55.4655 12.6227C54.6322 11.7758 54.2167 10.6676 54.2167 9.29789C54.2167 7.64554 54.7813 6.2735 55.9094 5.18179C57.0375 4.09008 58.3537 3.54481 59.857 3.54481L59.8558 3.546ZM59.6878 5.83469C58.6994 5.83469 57.9418 6.18953 57.4151 6.89802C56.8871 7.60651 56.6243 8.37413 56.6243 9.19972C56.6243 9.93541 56.8398 10.528 57.2706 10.9774C57.7015 11.4269 58.2756 11.6516 58.9929 11.6516C60.0109 11.6516 60.7874 11.3098 61.3201 10.625C61.8539 9.94015 62.1203 9.15832 62.1203 8.27715C62.1203 7.55328 61.8942 6.96543 61.442 6.51361C60.9898 6.06179 60.4039 5.83469 59.6878 5.83469Z" fill="#524F4F"/>
</svg>
