<svg width="221" height="51" viewBox="0 0 221 51" fill="none" xmlns="http://www.w3.org/2000/svg">
<path d="M0 23.0437C0.513874 22.6153 1.10753 22.5166 1.7575 22.5166C11.0354 22.5263 20.3133 22.5263 29.5912 22.5215C31.1234 22.5215 32.2262 23.1737 33.0029 24.5551C37.5996 32.733 42.2245 40.8941 46.84 49.0623C46.9385 49.238 47.0465 49.4137 47.1262 49.599C47.5157 50.4799 47.2224 50.9757 46.2792 50.9805C43.8858 50.9925 41.49 50.9853 39.0967 50.9853C35.3728 50.9853 31.6467 50.9588 27.9228 50.9997C26.6417 51.0142 25.7641 50.4534 25.154 49.3728C24.0911 47.4932 23.0352 45.6112 21.998 43.7147C21.2941 42.4295 20.2218 41.8423 18.8115 41.8399C16.7162 41.8375 14.6208 41.8086 12.5254 41.8495C10.965 41.8808 9.88328 41.2117 9.11364 39.8399C6.26035 34.7474 3.37655 29.6693 0.497449 24.5912C0.354315 24.3385 0.293307 24.0136 0 23.8596V23.0437Z" fill="#524F4F"/>
<path d="M43.3085 0C44.4865 0.519843 45.2256 1.44642 45.8568 2.57274C50.3104 10.522 54.8038 18.4496 59.2832 26.3845C59.4475 26.6757 59.6141 26.9741 59.729 27.2894C59.9684 27.9416 59.6657 28.3267 59.065 28.5144C58.9101 28.5625 58.7365 28.5505 58.5699 28.5505C52.5512 28.5505 46.5302 28.5577 40.5116 28.5457C39.2421 28.5433 38.2918 27.9175 37.6653 26.8032C36.6563 25.0078 35.6309 23.2221 34.6712 21.4002C33.8945 19.9249 32.726 19.2583 31.107 19.2775C29.0796 19.304 27.0499 19.2583 25.0202 19.292C23.5091 19.316 22.4227 18.6903 21.6695 17.3498C18.8068 12.262 15.9277 7.18395 13.0439 2.10585C12.645 1.4031 12.3071 0.729225 12.9712 0.00240668L43.3085 0Z" fill="#524F4F"/>
<path d="M168.621 19.3404C170.284 19.3404 171.946 19.3188 173.609 19.3501C174.25 19.3621 174.534 19.2779 174.498 18.474C174.423 16.7797 174.52 15.0806 174.52 13.3815C174.52 12.6932 174.799 12.2311 175.376 11.8966C177.023 10.9435 178.654 9.96159 180.299 9.00855C181.113 8.53684 181.249 8.62348 181.252 9.58856C181.259 12.544 181.277 15.5018 181.237 18.4572C181.228 19.1912 181.458 19.3645 182.141 19.3549C184.867 19.3188 187.594 19.3717 190.321 19.3212C191.132 19.3067 191.348 19.5859 191.325 20.3657C191.278 21.995 191.294 23.6267 191.32 25.2585C191.33 25.8794 191.186 26.1586 190.49 26.1562C187.697 26.1393 184.907 26.2211 182.115 26.1971C181.369 26.1923 181.155 26.392 181.174 27.1597C181.233 29.5375 181.16 31.9178 181.233 34.2932C181.32 37.1017 183.492 39.1667 186.231 39.1571C187.627 39.1522 189.025 39.1811 190.419 39.145C191.048 39.1282 191.332 39.3111 191.32 39.9946C191.292 41.7274 191.313 43.4602 191.311 45.193C191.311 45.6118 191.318 46.0642 190.731 46.0522C188.378 45.9992 186.008 46.2664 183.675 45.7369C178.344 44.5264 174.543 39.713 174.529 34.1487C174.522 31.7709 174.508 29.3907 174.541 27.0129C174.55 26.3824 174.351 26.1995 173.743 26.2043C170.284 26.2284 166.826 26.226 163.369 26.2043C162.822 26.2019 162.611 26.3415 162.618 26.9383C162.649 29.3498 162.588 31.7637 162.649 34.1752C162.724 37.0993 164.887 39.1643 167.748 39.1546C169.144 39.1498 170.542 39.1763 171.936 39.1426C172.504 39.1282 172.689 39.3279 172.68 39.9031C172.652 41.7033 172.652 43.5035 172.68 45.3061C172.689 45.8958 172.469 46.0811 171.92 46.0618C169.996 45.9944 168.067 46.1461 166.143 45.9198C160.497 45.2556 156.004 40.1558 155.966 34.3148C155.95 31.9033 155.945 29.4894 155.976 27.0779C155.985 26.4257 155.809 26.2067 155.143 26.1995C152.768 26.1754 152.77 26.1489 152.77 23.7062C152.77 22.5173 152.796 21.3259 152.761 20.1395C152.742 19.5137 152.967 19.3212 153.573 19.326C154.324 19.3308 155.347 19.6942 155.755 19.1551C156.133 18.6593 155.893 17.663 155.903 16.8856C155.915 15.7641 155.919 14.6426 155.903 13.5211C155.891 12.8135 156.121 12.2937 156.752 11.9303C158.43 10.9652 160.096 9.97603 161.755 8.97967C162.445 8.56572 162.677 8.73178 162.672 9.54764C162.656 12.4694 162.719 15.3911 162.672 18.3104C162.658 19.1864 162.928 19.391 163.735 19.3597C165.361 19.2971 166.99 19.3404 168.621 19.3404Z" fill="#524F4F"/>
<path d="M96.655 23.5805C96.174 16.4038 90.1201 10.3414 83.0831 10.2932C78.6295 10.262 74.1759 10.3101 69.72 10.2692C68.8894 10.262 68.6641 10.5098 68.6688 11.3522C68.704 16.9212 68.6899 22.4927 68.6899 28.0618C68.6899 33.6308 68.7017 39.4069 68.6735 45.0794C68.6688 45.8303 68.8776 46.0926 69.6309 46.0734C71.3579 46.0253 73.0872 46.0253 74.8165 46.0734C75.5932 46.095 75.7786 45.7726 75.7645 45.0505C75.7317 43.2864 75.7833 41.5175 75.7387 39.7534C75.7223 39.0699 75.9475 38.8943 76.5858 38.9063C78.5122 38.9424 80.441 38.9159 82.3674 38.9207C91.1948 38.9424 97.1853 31.448 96.6574 23.5829L96.655 23.5805ZM82.886 31.6862C80.7648 31.7584 78.6366 31.679 76.5107 31.7127C75.8724 31.7223 75.7363 31.472 75.7434 30.8776C75.7692 28.7405 75.7528 26.6033 75.7528 24.4638C75.7528 22.4614 75.7856 20.4591 75.734 18.4591C75.7152 17.7155 75.8889 17.4603 76.6608 17.4844C78.6506 17.5422 80.6451 17.5013 82.6396 17.5061C86.4949 17.5133 89.5711 20.577 89.6274 24.4662C89.6884 28.3626 86.7436 31.5539 82.886 31.6862Z" fill="#524F4F"/>
<path d="M220.879 30.3674C219.652 22.3291 212.27 17.2366 204.993 18.9213C197.067 20.76 192.536 29.2965 195.178 37.3925C198.078 46.2852 208.431 49.7051 215.604 44.1649C216.177 43.7221 216.214 43.455 215.738 42.9231C214.663 41.7198 213.605 40.4972 212.624 39.2168C212.138 38.5863 211.822 38.5092 211.132 38.9665C208.26 40.8678 204.306 39.9509 202.452 37.0171C202.337 36.8342 202.077 36.6513 202.213 36.3986C202.349 36.1459 202.633 36.271 202.846 36.271C205.704 36.2614 208.562 36.2638 211.423 36.2638C214.283 36.2638 216.942 36.2205 219.699 36.2903C220.534 36.3119 220.858 35.9798 220.877 35.2434C220.919 33.6165 221.128 31.9534 220.884 30.365L220.879 30.3674ZM213.316 30.4252C211.46 30.4084 209.602 30.418 207.746 30.418C205.89 30.418 204.031 30.4059 202.175 30.4252C201.598 30.4324 201.514 30.2856 201.72 29.7225C202.675 27.1305 205.01 25.4963 207.819 25.5228C210.569 25.5469 212.908 27.2267 213.811 29.7513C214.034 30.3674 213.832 30.4324 213.316 30.4252Z" fill="#524F4F"/>
<path d="M111.755 18.3218C104.176 18.3218 98.4643 24.3674 98.3352 32.2517C98.2038 40.3309 104.49 46.5137 111.466 46.4992C119.181 46.4824 125.059 40.4031 125.047 32.3985C125.038 24.2615 119.427 18.3194 111.752 18.3194L111.755 18.3218ZM117.689 35.5584C116.504 38.3935 113.859 39.9314 110.783 39.5752C107.554 39.1974 105.109 36.0374 105.154 31.6331C105.269 29.4503 106.252 27.0917 108.908 25.8595C111.337 24.7356 113.707 24.9979 115.826 26.7211C118.172 28.6272 118.965 32.5092 117.689 35.5584Z" fill="#524F4F"/>
<path d="M127.422 32.3652C127.422 28.2209 127.443 24.0741 127.405 19.9298C127.398 19.0634 127.605 18.7289 128.515 18.7722C130.108 18.8516 131.706 18.7891 133.302 18.7987C133.581 18.7987 134.064 18.6687 134.078 19.0321C134.128 20.262 134.771 19.6242 135.233 19.4581C142.835 16.7289 150.71 22.3678 150.837 30.6949C150.91 35.4842 150.837 40.2759 150.863 45.0652C150.867 45.8185 150.635 46.0881 149.889 46.0664C148.293 46.0231 146.695 46.0159 145.102 46.0664C144.314 46.0929 144.074 45.8354 144.079 45.0219C144.114 40.3337 144.098 35.6455 144.096 30.9573C144.096 27.9706 141.956 25.689 139.168 25.6914C136.308 25.6914 134.156 27.9585 134.151 30.9982C134.144 35.6527 134.132 40.3072 134.165 44.9617C134.172 45.792 133.964 46.1049 133.109 46.0712C131.549 46.0062 129.984 46.0086 128.424 46.0712C127.598 46.1049 127.408 45.7656 127.412 45.0002C127.436 40.7886 127.424 36.5745 127.424 32.3628L127.422 32.3652Z" fill="#524F4F"/>
</svg>
