<svg width="141" height="77" viewBox="0 0 141 77" fill="none" xmlns="http://www.w3.org/2000/svg">
<path d="M55.2004 15.628C56.7745 15.0697 58.1815 14.4555 59.6433 14.0754C69.5499 11.4939 79.6026 18.2308 81.2289 28.5009C83.0849 40.2147 73.8962 50.4424 62.2851 49.3949C53.548 48.6053 47.5336 42.8441 46.3354 34.0547C46.2362 33.3343 46.2414 32.5952 46.2414 31.8667C46.2362 22.5962 46.2571 13.3256 46.2179 4.05509C46.2127 3.00229 46.5442 2.52906 47.5336 2.24193C49.5331 1.65704 51.5275 1.01631 53.4618 0.234685C54.908 -0.347548 55.2448 0.255954 55.2291 1.60918C55.1795 5.96131 55.2056 10.3134 55.203 14.6656C55.203 14.9607 55.203 15.2558 55.203 15.6253L55.2004 15.628ZM63.8357 40.2865C68.618 40.2945 72.5362 36.3305 72.5179 31.4972C72.4997 26.6505 68.5997 22.7105 63.82 22.7132C59.069 22.7132 55.1847 26.7037 55.2056 31.5636C55.2265 36.3677 59.0951 40.2785 63.8357 40.2865Z" fill="#524F4F"/>
<path d="M131.952 15.7362C131.981 15.4677 132.004 15.3109 132.01 15.154C132.075 13.3355 132.093 13.3222 133.845 13.3302C135.803 13.3382 137.76 13.3541 139.718 13.3276C140.632 13.3143 141 13.6944 141 14.6329C140.984 25.831 140.995 37.0316 140.987 48.2297C140.987 49.543 140.856 49.6414 139.572 49.644C137.518 49.6467 135.461 49.6467 133.406 49.6467C132.132 49.6467 132.046 49.551 132.02 48.2111C132.015 47.9213 131.981 47.6288 131.952 47.23C127.355 49.6573 122.657 50.1811 117.799 48.5514C113.914 47.2486 110.889 44.7894 108.592 41.3492C104.514 35.2424 104.89 26.4743 109.341 20.6387C113.901 14.6569 122.779 10.9667 131.952 15.7362ZM123.445 40.2884C128.209 40.2087 132.059 36.2553 132.023 31.4831C131.984 26.5461 127.997 22.622 123.111 22.7151C118.396 22.8028 114.614 26.8758 114.697 31.7756C114.776 36.476 118.775 40.3682 123.445 40.2884Z" fill="#524F4F"/>
<path d="M9.05556 40.4481C10.0136 40.4481 10.8594 40.4481 11.7051 40.4481C17.221 40.4481 22.7342 40.4481 28.25 40.4481C29.5996 40.4481 29.7797 40.6209 29.7849 41.9954C29.7954 44.1569 29.7797 46.3156 29.7849 48.4771C29.7875 49.2295 29.5448 49.6575 28.7121 49.6575C19.2806 49.6442 9.84913 49.6495 0.420278 49.6469C0.326303 49.6469 0.234938 49.6123 0.018273 49.5724C0.018273 49.1976 0.018273 48.8121 0.018273 48.4266C0.018273 33.6315 0.0261042 18.8417 0 4.05187C0 3.07084 0.263653 2.55773 1.23734 2.26529C3.35962 1.62988 5.44273 0.85623 7.54935 0.154359C8.60396 -0.199235 8.9407 0.0240874 8.99291 1.14336C9.03729 2.10577 9.02162 3.07084 9.02162 4.03326C9.0164 15.7976 9.00596 27.5645 9.00335 39.3288C9.00335 39.6558 9.03207 39.9829 9.05556 40.4481Z" fill="#524F4F"/>
<path d="M85.2539 40.2519C85.2539 37.0323 85.0398 33.7941 85.2956 30.5958C85.9822 22.0325 93.5968 14.498 101.992 13.6579C104.785 13.3788 104.294 14.078 104.3 15.8592C104.305 17.6857 104.276 19.5148 104.31 21.3413C104.328 22.2213 104.072 22.6413 103.125 22.7636C97.7656 23.4628 94.1241 27.7511 94.1189 33.2837C94.1136 38.234 94.1189 43.187 94.1189 48.1373C94.1189 49.4879 93.9649 49.6421 92.6779 49.6447C90.6548 49.6447 88.6318 49.6447 86.6087 49.6447C85.2304 49.6447 85.079 49.4985 85.0764 48.1267C85.0764 45.5026 85.0764 42.8759 85.0764 40.2519C85.1364 40.2519 85.1938 40.2519 85.2539 40.2519Z" fill="#524F4F"/>
<path d="M42.48 31.7685C42.48 37.2505 42.48 42.7326 42.48 48.2146C42.48 49.5864 42.3913 49.6768 41.0339 49.6795C38.9455 49.6848 36.8572 49.6556 34.7715 49.6928C33.863 49.7087 33.4845 49.3897 33.4845 48.4246C33.5054 38.1571 33.5028 27.8922 33.4845 17.6247C33.4845 16.7633 33.7586 16.322 34.5992 16.0615C36.7449 15.3942 38.862 14.6232 40.9921 13.9027C42.1224 13.5199 42.48 13.7831 42.48 15.022C42.4853 20.605 42.48 26.1854 42.48 31.7685Z" fill="#524F4F"/>
<path d="M77.0338 65.9316C77.0338 63.8286 77.026 61.9703 77.0364 60.1119C77.0417 59.0618 77.4619 58.5354 78.2712 58.5832C79.1979 58.6364 79.4433 59.2612 79.4406 60.0906C79.4354 63.6744 79.4876 67.2609 79.4276 70.8447C79.3676 74.463 76.2481 77.2173 72.6118 76.9621C69.0433 76.7122 66.3441 73.4474 66.754 69.8769C67.1168 66.7079 68.7249 64.6368 71.3875 64.0706C73.4993 63.6213 75.3684 64.2035 77.0338 65.9316ZM77.0756 70.4698C77.0808 67.9122 75.4728 66.1682 73.0921 66.1523C70.8054 66.1363 69.0642 68.0026 69.059 70.4751C69.0538 72.8945 70.8236 74.7448 73.1417 74.7422C75.4232 74.7395 77.0704 72.9503 77.0756 70.4698Z" fill="#524F4F"/>
<path d="M52.021 71.3548C52.4204 74.2873 55.6965 75.7362 58.38 74.3032C58.6958 74.1331 59.0195 73.7848 59.3145 73.8114C59.7687 73.8512 60.3091 74.0373 60.6197 74.3564C61.0531 74.8004 60.7633 75.2895 60.3065 75.6033C58.0171 77.1745 55.5764 77.4669 53.086 76.2413C50.6166 75.029 49.5776 72.8277 49.6768 70.1345C49.776 67.4281 50.982 65.2985 53.5742 64.3654C57.9049 62.8048 61.6717 65.4315 61.6247 70.1372C61.6143 71.1474 60.9774 71.3415 60.1916 71.3468C57.7796 71.3575 55.3676 71.3522 52.9555 71.3548C52.6658 71.3548 52.3786 71.3548 52.0158 71.3548H52.021ZM52.0367 69.2811H59.3746C59.0039 67.1782 57.7196 65.9924 55.8844 66.011C53.8248 66.0323 52.3395 67.2739 52.0367 69.2811Z" fill="#524F4F"/>
<path d="M121.965 70.4876C121.965 74.3027 119.37 76.9693 115.653 76.9746C111.935 76.9799 109.33 74.3213 109.317 70.5115C109.304 66.5954 111.849 63.9474 115.624 63.9501C119.412 63.9527 121.965 66.5848 121.965 70.4876ZM115.613 66.1621C113.274 66.178 111.627 67.9593 111.622 70.4823C111.619 72.9973 113.342 74.7679 115.773 74.7467C118.057 74.7254 119.647 72.9441 119.633 70.4211C119.623 67.8609 118.005 66.1461 115.613 66.1621Z" fill="#524F4F"/>
<path d="M24.4155 63.9536C25.953 63.8872 27.3444 64.5146 28.5321 65.6631C29.0568 66.1683 29.3858 66.7532 28.7801 67.3806C28.2267 67.9548 27.6315 67.8272 27.052 67.3088C25.3735 65.8067 23.1077 65.7562 21.672 67.1626C20.1475 68.6541 19.9856 71.5466 21.3274 73.288C22.5569 74.8832 24.9402 75.2554 26.7205 74.1308C26.8876 74.0244 27.0416 73.8968 27.2165 73.8117C27.8326 73.5087 28.3625 73.6123 28.7331 74.2265C29.0803 74.8007 28.8141 75.2128 28.3729 75.5983C25.35 78.2569 20.2075 76.9648 18.6099 73.1365C16.733 68.6408 19.6593 63.9164 24.4155 63.9536Z" fill="#524F4F"/>
<path d="M97.711 66.5959C97.2516 66.5959 96.8548 66.7182 96.6225 66.5693C96.2362 66.3221 95.7793 65.9472 95.6749 65.5404C95.5235 64.9502 95.9673 64.4823 96.5833 64.5408C97.6667 64.6418 97.8181 64.0968 97.7267 63.1822C97.6588 62.4937 97.7111 61.7891 97.7476 61.0953C97.7841 60.3854 98.1992 60.0079 98.8831 59.984C99.5723 59.9627 100.029 60.3083 100.055 61.0288C100.092 62.1162 100.066 63.2062 100.066 64.4238C100.789 64.4584 101.392 64.4903 101.995 64.5142C102.684 64.5408 103.138 64.8598 103.115 65.5963C103.094 66.2822 102.626 66.5587 102 66.6012C101.423 66.6411 100.504 66.4763 100.34 66.7634C100.034 67.2951 100.139 68.0847 100.128 68.7706C100.11 69.9989 100.089 71.2272 100.154 72.4528C100.228 73.8167 100.781 74.3324 102.104 74.4414C103.24 74.5345 103.613 74.8535 103.571 75.6963C103.532 76.4992 103.044 76.8554 101.961 76.8714C99.7393 76.9033 97.9564 75.3002 97.7998 72.9872C97.6823 71.2697 97.7319 69.539 97.711 67.8135C97.7058 67.4546 97.711 67.0931 97.711 66.5959Z" fill="#524F4F"/>
<path d="M38.374 65.3593C39.6793 64.2135 41.1359 63.7641 42.7726 63.9423C42.9658 63.9635 43.1694 63.9609 43.3521 64.0247C44.0308 64.264 44.8375 64.4767 44.6678 65.447C44.4981 66.4148 43.6993 66.1835 43.018 66.1941C42.0574 66.2074 41.0628 66.1702 40.1439 66.4068C38.8465 66.7391 38.3088 67.6138 38.301 68.983C38.2879 71.1418 38.3062 73.3006 38.2905 75.4567C38.2827 76.4696 37.9016 76.8551 37.0401 76.8471C36.3275 76.8391 35.9176 76.4856 35.915 75.7651C35.8994 72.2132 35.8785 68.6586 35.9463 65.1094C35.9542 64.7399 36.518 64.1151 36.8652 64.0858C37.2907 64.0486 37.7736 64.4873 38.1991 64.7718C38.3114 64.8462 38.3062 65.1094 38.374 65.3646V65.3593Z" fill="#524F4F"/>
<path d="M86.9927 70.4509C86.9927 68.7946 86.9823 67.1356 86.9953 65.4793C87.0032 64.493 87.4182 63.9825 88.1961 64.0171C89.0471 64.0543 89.3995 64.6153 89.4048 65.4075C89.4178 68.7893 89.4178 72.1683 89.4048 75.5501C89.3995 76.3769 88.974 76.8528 88.123 76.8315C87.2929 76.8103 86.9953 76.2972 86.998 75.5235C86.998 73.8326 86.998 72.1418 86.998 70.4535L86.9927 70.4509Z" fill="#524F4F"/>
<path d="M56.4716 62.8448C55.3047 62.8129 54.7383 61.784 55.3282 60.997C55.8764 60.2686 56.5421 59.6119 57.2391 59.0297C57.7585 58.5937 58.4216 58.5937 58.9019 59.1573C59.3744 59.7103 59.33 60.3217 58.8262 60.8508C58.3067 61.3985 57.782 61.9408 57.2182 62.4407C56.965 62.664 56.6152 62.773 56.469 62.8474L56.4716 62.8448Z" fill="#524F4F"/>
<path d="M88.1307 62.0197C87.2563 62.0011 86.6141 61.3072 86.6376 60.4113C86.6585 59.5499 87.3842 58.8427 88.2221 58.8719C89.0705 58.9012 89.7649 59.6482 89.7336 60.499C89.7022 61.3737 89 62.0383 88.1307 62.0197Z" fill="#524F4F"/>
</svg>
