<svg width="40" height="40" viewBox="0 0 40 40" fill="none" xmlns="http://www.w3.org/2000/svg">
<rect width="40" height="40" rx="10" fill="#C7935A"/>
<path d="M17 21.1179C17 20.3419 16.6149 20 15.9938 20C15.3602 20 15 20.3419 15 21.1179C15 21.8807 15.3602 22.2226 15.9938 22.2226C16.6149 22.2226 17 21.8807 17 21.1179Z" fill="white"/>
<path d="M15.9938 23.8896C16.6149 23.8896 17 24.2316 17 25.0075C17 25.7703 16.6149 26.1123 15.9938 26.1123C15.3602 26.1123 15 25.7703 15 25.0075C15 24.2316 15.3602 23.8896 15.9938 23.8896Z" fill="white"/>
<path d="M21 21.1179C21 20.3419 20.6149 20 19.9938 20C19.3602 20 19 20.3419 19 21.1179C19 21.8807 19.3602 22.2226 19.9938 22.2226C20.6149 22.2226 21 21.8807 21 21.1179Z" fill="white"/>
<path d="M19.9938 23.8896C20.6149 23.8896 21 24.2316 21 25.0075C21 25.7703 20.6149 26.1123 19.9938 26.1123C19.3602 26.1123 19 25.7703 19 25.0075C19 24.2316 19.3602 23.8896 19.9938 23.8896Z" fill="white"/>
<path d="M25 21.1179C25 20.3419 24.6149 20 23.9938 20C23.3602 20 23 20.3419 23 21.1179C23 21.8807 23.3602 22.2226 23.9938 22.2226C24.6149 22.2226 25 21.8807 25 21.1179Z" fill="white"/>
<path fill-rule="evenodd" clip-rule="evenodd" d="M15.25 8.88672H16.75V11.1094H23.25V8.88672H24.75V11.1094H26.5C27.8807 11.1094 29 12.3533 29 13.8877V28.3349C29 29.8694 27.8807 31.1133 26.5 31.1133H13.5C12.1193 31.1133 11 29.8694 11 28.3349V13.8877C11 12.3533 12.1193 11.1094 13.5 11.1094H15.25V8.88672ZM27.5 13.8877V14.999H12.5V13.8877C12.5 13.2739 12.9477 12.7764 13.5 12.7764H26.5C27.0523 12.7764 27.5 13.2739 27.5 13.8877ZM12.5 28.3349V16.666H27.5V28.3349C27.5 28.9487 27.0523 29.4463 26.5 29.4463H13.5C12.9477 29.4463 12.5 28.9487 12.5 28.3349Z" fill="white"/>
</svg>
