<svg width="40" height="40" viewBox="0 0 40 40" fill="none" xmlns="http://www.w3.org/2000/svg">
<rect width="40" height="40" rx="10" fill="#C7935A"/>
<path d="M18.9907 15.5019C17.7532 15.5019 16.75 16.5637 16.75 17.8735C16.75 18.8432 17.3078 19.7153 18.1585 20.0754L21.2844 21.3988C21.5656 21.5179 21.75 21.8061 21.75 22.1267C21.75 22.5597 21.4184 22.9107 21.0093 22.9107H17.25V24.4983H19.25V26.3505H20.75V24.4983H21.0093C22.2468 24.4983 23.25 23.4365 23.25 22.1267C23.25 21.1569 22.6922 20.2849 21.8415 19.9247L18.7156 18.6014C18.4344 18.4823 18.25 18.194 18.25 17.8735C18.25 17.4405 18.5816 17.0895 18.9907 17.0895H22.75V15.5019H20.75V13.6496L19.25 13.6496V15.5019H18.9907Z" fill="white"/>
<path fill-rule="evenodd" clip-rule="evenodd" d="M20.0621 9.41602C13.8509 9.41602 10 12.6727 10 20.0627C10 27.3275 13.8509 30.5841 20.0621 30.5841C26.3975 30.5841 30 27.3275 30 20.0627C30 12.6727 26.3975 9.41602 20.0621 9.41602ZM11.5 20.0627C11.5 16.6542 12.3823 14.4708 13.7316 13.1225C15.0967 11.7584 17.1838 11.0036 20.0621 11.0036C23.0094 11.0036 25.0515 11.7615 26.3624 13.1076C27.6648 14.445 28.5 16.6253 28.5 20.0627C28.5 23.4303 27.6685 25.5791 26.3672 26.9033C25.055 28.2385 23.0094 28.9965 20.0621 28.9965C17.1837 28.9965 15.0932 28.2417 13.7267 26.8884C12.3782 25.553 11.5 23.4011 11.5 20.0627Z" fill="white"/>
</svg>
