<svg width="170" height="41" viewBox="0 0 170 41" fill="none" xmlns="http://www.w3.org/2000/svg">
<path d="M71.2234 40.0834C69.3702 40.0834 67.7907 39.8096 66.4921 39.255C65.1934 38.6513 64.1123 37.9493 63.2629 37.1491C62.4627 36.3488 61.859 35.6188 61.4589 34.9659C61.1079 34.3131 60.9112 33.941 60.8551 33.8357H60.7077L59.4301 40.0763H52.8174V0H60.7077V15.198H60.8551C60.9042 15.0505 61.1079 14.6224 61.4589 13.9204C61.8099 13.2184 62.3574 12.4392 63.1085 11.5898C63.9088 10.7404 64.9968 9.80673 66.2955 9.20302C67.6503 8.55018 69.2369 8.15004 71.1884 8.15004C74.242 8.15004 76.4883 8.83099 78.3416 10.1858C80.1948 11.4915 81.7883 13.6185 82.6377 16.0263C83.5363 18.385 83.9926 21.1859 83.9926 24.4431C83.9926 27.7004 83.5643 30.2837 82.7149 32.6353C81.8655 34.994 80.4826 36.8191 78.5802 38.1248C76.727 39.4305 74.27 40.0763 71.2164 40.0763L71.2234 40.0834ZM68.7455 33.6181C70.7953 33.6181 72.3747 33.1899 73.4769 32.3405C74.6281 31.4349 75.4073 30.2837 75.8074 28.8797C76.2567 27.4266 76.4813 25.9243 76.4813 24.3659C76.4813 22.8075 76.2567 21.3334 75.8074 19.9294C75.3581 18.5254 74.5578 17.3952 73.4066 16.5458C72.2553 15.6964 70.6268 15.2682 68.5208 15.2682C66.6676 15.2682 65.1653 15.6683 64.014 16.4686C62.8628 17.2197 62.0345 18.3008 61.5361 19.7047C61.0377 21.0596 60.7849 22.6109 60.7849 24.3659C60.7849 26.1209 61.0377 27.7706 61.5361 29.1745C62.0836 30.5294 62.9401 31.6034 64.0913 32.4107C65.2917 33.2109 66.843 33.6111 68.7524 33.6111L68.7455 33.6181Z" fill="#23242E"/>
<path d="M163.022 40.0835C160.572 40.0835 158.719 39.4658 157.469 38.2233C156.269 36.9808 155.672 34.959 155.672 32.1651V12.9097H162.798V33.871H170V40.0835H163.022ZM151.025 13.7591V8.17127C152.127 8.17127 153.026 8.09404 153.728 7.93961C154.43 7.78517 154.977 7.44822 155.378 6.92875C155.827 6.40928 156.15 5.60902 156.353 4.52094C156.55 3.43286 156.655 1.93058 156.655 0.0141602H162.805V8.16425H169.86V13.752H151.032L151.025 13.7591Z" fill="#23242E"/>
<path d="M116.684 40.0835L127.979 23.615L117.288 8.15723H125.726L132.802 19.031L139.885 8.15723H148.393L137.702 23.615L149.074 40.0835H140.636L132.802 28.3534L125.122 40.0835H116.684Z" fill="#23242E"/>
<path d="M102.223 40.006C98.657 40.006 95.7438 39.2549 93.4834 37.7456C91.2722 36.1872 89.6155 34.2076 88.5133 31.7928C87.4604 29.385 86.9058 26.8719 86.8567 24.2605C86.8075 21.1507 87.3831 18.3849 88.5905 15.9771C89.8471 13.5201 91.6021 11.6107 93.8625 10.2559C96.172 8.85189 98.8817 8.1499 101.999 8.1499C104.757 8.1499 107.242 8.75362 109.454 9.95401C111.665 11.1614 113.392 12.8392 114.648 15.0013C115.954 17.1634 116.628 19.7467 116.684 22.7582V24.7167H94.1644C94.1644 27.5808 94.8663 29.7851 96.2703 31.3435C97.7234 32.8528 99.6609 33.6039 102.069 33.6039C103.978 33.6039 105.558 33.1266 106.814 32.1719C108.12 31.2172 108.899 29.9606 109.152 28.4092H116.607C116.403 30.5713 115.701 32.5228 114.501 34.2848C113.293 36.0398 111.665 37.4508 109.608 38.5038C107.551 39.5076 105.087 40.013 102.23 40.013L102.223 40.006ZM94.396 21.256H109.004C108.955 20.905 108.857 20.3504 108.702 19.5993C108.555 18.8482 108.225 18.0689 107.727 17.2617C107.228 16.4614 106.498 15.7805 105.544 15.2259C104.589 14.6714 103.36 14.3976 101.851 14.3976C100.342 14.3976 99.1133 14.6503 98.1586 15.1487C97.2039 15.6542 96.4739 16.2789 95.9754 17.03C95.47 17.7812 95.098 18.5393 94.8453 19.2904C94.5925 20.0415 94.4451 20.6944 94.396 21.2489V21.256Z" fill="#23242E"/>
<path fill-rule="evenodd" clip-rule="evenodd" d="M0 0.028064V6.66184L15.3946 17.2688C17.7533 18.8974 20.9051 18.8974 23.2638 17.2688L38.6583 6.66184V0L21.3404 8.3536C20.0698 8.96433 18.5886 8.96433 17.318 8.3536L0 0.0210373V0.028064ZM0 26.7667L7.05499 21.8949V28.5287L15.4015 22.7864C17.7602 21.1648 20.8981 21.1648 23.2568 22.7864L38.6583 33.3583V40.0412L21.3474 31.7157C20.0768 31.105 18.5886 31.105 17.318 31.7157L0 40.0904V26.7737V26.7667Z" fill="#23242E"/>
</svg>
