<?xml version="1.0" encoding="utf-8"?>
<!-- Generator: Adobe Illustrator 27.9.3, SVG Export Plug-In . SVG Version: 9.03 Build 53313)  -->
<svg version="1.1" id="Layer_2" xmlns="http://www.w3.org/2000/svg" xmlns:xlink="http://www.w3.org/1999/xlink" x="0px" y="0px"
	 viewBox="0 0 311.7 89.9" style="enable-background:new 0 0 311.7 89.9;" xml:space="preserve">
<style type="text/css">
	.st0{enable-background:new    ;}
	.st1{fill:#FFFFFF;}
	.st2{fill:#E5E5E5;}
	.st3{fill:#C4C4C4;}
</style>
<g id="Layer_1-2">
	<g>
		<g>
			<g class="st0">
				<path class="st1" d="M74.4,14.7h3.5v23.1l9.9-6.5c0.7-0.2,1.5-0.3,2-0.3c7.8,0,11.5,4.6,11.5,11v13.2c0,9-6.2,11.8-13.5,11.8
					s-13.4-2.7-13.4-11.8V14.7z M77.8,55c0,7.1,4.7,8.8,9.9,8.8c5.2,0,10-1.7,10-8.8V43.3c0-6.3-3-8.9-7-8.9c-0.9,0-2.5,0.1-4.1,1.2
					l-8.8,5.8V55z"/>
				<path class="st1" d="M135.5,43.2v7.6h-23.2v4.1c0,6.8,6.4,8.7,12,8.7c2.8,0,7.3-0.2,10.1-0.7v3.3c-3.2,0.5-6.6,0.8-10.6,0.8
					c-7.8,0-14.9-2.8-14.9-13.1V43.2c0-7.1,3-12.1,13.4-12.1S135.5,36,135.5,43.2z M132,47.3v-5.8c0-4-3.1-7.2-9.8-7.2
					c-5.9,0-9.9,2.5-9.9,7.3v5.7H132z"/>
				<path class="st1" d="M152.9,51.9l-10.2,14.4h-4.3L151,49.1l-12.6-17.3h4.2l10.4,14.5l10.4-14.5h4.2l-12.6,17.3l12.6,17.1h-4.3
					L152.9,51.9z"/>
				<path class="st1" d="M189.6,66.4c-1.3,0.4-3.3,0.6-4.6,0.6c-5.2,0-8.9-1.9-8.9-9.4V35.2h-6.6v-3.3h6.6v-8.5l2-1.4h1.5v9.9h10.7
					v3.3h-10.7v21.7c0,4.8,1.5,6.5,5.7,6.5c0.8,0,3.5-0.2,4.4-0.4V66.4z"/>
			</g>
			<g class="st0">
				<path class="st1" d="M229.2,34.7c0,6-4.4,10.9-10.4,10.9h-14.7v20.6h-7.4v-49h22.1c6,0,10.4,4.9,10.4,10.9V34.7z M221.8,29.8
					c0-4.1-1.7-6-6.3-6h-11.4V39h11.4c4.6,0,6.3-2,6.3-6V29.8z"/>
				<path class="st1" d="M234.3,66.2V14.7h7.4v51.5H234.3z"/>
				<path class="st1" d="M268.9,60.8l-7.9,5.9c-0.7,0.2-1.5,0.3-2,0.3c-6.8,0-11-3.9-11-9.4v-2.5c0-4.8,3.2-9.5,12.1-9.9l8.8-0.4
					v-2.4c0-3.6-2.7-4.9-7.1-4.9c-3.6,0-11,0.7-11,0.7v-6.5c0,0,10-0.7,12.4-0.7c7.1,0,13.1,2.2,13.1,11.6v23.6h-7.4V60.8z
					 M268.9,50.5L260,51c-2.6,0.1-4.7,1.6-4.7,4.1v1c0,2.4,1.9,3.6,3.6,3.6c1.5,0,2.5-0.4,4.4-1.2l5.6-2.3V50.5z"/>
				<path class="st1" d="M287.8,81.6l5.1-15.4h-3l-11.5-34.4h7.6l8.4,27.6h0.7l8.4-27.6h7.6l-16.4,49.8H287.8z"/>
			</g>
			<g>
				<g>
					<path class="st2" d="M21.4,44.9H0v32.5c0,6.9,5.6,12.5,12.5,12.5h0.2c3.3,0,6.5-1.3,8.8-3.7l17.6-17.6L21.4,44.9L21.4,44.9
						L21.4,44.9z"/>
				</g>
				<g>
					<path class="st3" d="M21.5,3.7C19.1,1.3,15.9,0,12.6,0h-0.2C5.6,0,0,5.6,0,12.5v32.5h21.4l17.7-23.6L21.5,3.7z"/>
				</g>
				<g>
					<path class="st1" d="M53.9,36.2L39.1,21.4L21.4,44.9l17.6,23.7l14.8-14.8C58.8,48.9,58.8,41.1,53.9,36.2z"/>
				</g>
			</g>
		</g>
		<g class="st0">
			<path class="st1" d="M74.2,83.9v-8.4h2.8c0.6,0,1.1,0.1,1.6,0.3c0.5,0.2,0.8,0.5,1.1,0.9c0.3,0.4,0.4,0.9,0.4,1.5
				c0,0.6-0.1,1-0.4,1.4c-0.2,0.4-0.6,0.7-1,0.9c-0.4,0.2-1,0.3-1.6,0.3h-1.9v3.1H74.2z M75.3,79.9h1.9c0.6,0,1-0.2,1.4-0.5
				c0.4-0.3,0.5-0.8,0.5-1.3c0-0.6-0.2-1-0.6-1.3c-0.4-0.3-0.9-0.4-1.4-0.4h-1.8V79.9z"/>
		</g>
		<g class="st0">
			<path class="st1" d="M83.7,84c-0.6,0-1-0.1-1.4-0.4s-0.7-0.6-1-1c-0.2-0.5-0.3-1-0.3-1.7c0-0.6,0.1-1.2,0.3-1.7s0.5-0.8,0.9-1.1
				c0.4-0.3,0.9-0.4,1.5-0.4c0.6,0,1,0.1,1.4,0.4c0.4,0.2,0.7,0.6,1,1.1s0.3,1,0.3,1.7c0,0.6-0.1,1.2-0.3,1.6
				c-0.2,0.5-0.5,0.8-0.9,1.1C84.8,83.9,84.3,84,83.7,84z M83.7,83.2c0.4,0,0.7-0.1,0.9-0.3c0.2-0.2,0.4-0.4,0.6-0.8
				s0.2-0.7,0.2-1.2c0-0.4-0.1-0.8-0.2-1.2c-0.1-0.3-0.3-0.6-0.5-0.8c-0.2-0.2-0.6-0.3-1-0.3c-0.4,0-0.7,0.1-0.9,0.3
				c-0.3,0.2-0.4,0.4-0.6,0.8C82.1,80,82,80.4,82,80.9c0,0.4,0.1,0.8,0.2,1.2s0.3,0.6,0.5,0.8C83,83.1,83.3,83.2,83.7,83.2z"/>
		</g>
		<g class="st0">
			<path class="st1" d="M89.1,83.9l-1.9-6h1l1.4,4.6h0.1l1.4-4.6h0.8l1.4,4.6h0.1l1.3-4.6h1l-1.8,6h-1.1l-1.4-4.4l-1.3,4.4H89.1z"/>
		</g>
		<g class="st0">
			<path class="st1" d="M99.3,84c-0.6,0-1-0.1-1.5-0.4s-0.8-0.6-1-1.1s-0.4-1-0.4-1.6c0-0.6,0.1-1.2,0.3-1.7s0.5-0.8,0.9-1.1
				c0.4-0.3,0.9-0.4,1.5-0.4c0.6,0,1,0.1,1.4,0.4c0.4,0.2,0.7,0.6,0.9,1c0.2,0.4,0.3,1,0.3,1.6v0.4h-4.3c0,0.4,0.1,0.7,0.2,1
				c0.1,0.3,0.3,0.6,0.6,0.7c0.3,0.2,0.6,0.3,1,0.3c0.4,0,0.7-0.1,1-0.3c0.3-0.2,0.5-0.4,0.5-0.8h1c-0.1,0.4-0.2,0.8-0.5,1
				c-0.3,0.3-0.6,0.5-0.9,0.6S99.7,84,99.3,84z M97.5,80.4h3.3c0-0.3-0.1-0.7-0.2-0.9c-0.1-0.3-0.3-0.5-0.5-0.7
				c-0.2-0.2-0.5-0.2-0.9-0.2c-0.4,0-0.7,0.1-0.9,0.3c-0.2,0.2-0.4,0.4-0.6,0.7C97.6,79.9,97.5,80.1,97.5,80.4z"/>
		</g>
		<g class="st0">
			<path class="st1" d="M103.3,83.9v-6h1v1.2c0.1-0.3,0.2-0.5,0.4-0.7c0.2-0.2,0.4-0.3,0.6-0.4s0.5-0.1,0.7-0.1c0.1,0,0.2,0,0.3,0
				c0.1,0,0.2,0,0.2,0.1v1c-0.1,0-0.1,0-0.2-0.1c-0.1,0-0.2,0-0.2,0c-0.2,0-0.5,0-0.7,0c-0.2,0-0.4,0.1-0.6,0.2s-0.3,0.3-0.4,0.4
				c-0.1,0.2-0.1,0.4-0.1,0.6v3.7H103.3z"/>
		</g>
		<g class="st0">
			<path class="st1" d="M110.3,84c-0.6,0-1-0.1-1.5-0.4s-0.8-0.6-1-1.1s-0.4-1-0.4-1.6c0-0.6,0.1-1.2,0.3-1.7s0.5-0.8,0.9-1.1
				c0.4-0.3,0.9-0.4,1.5-0.4c0.6,0,1,0.1,1.4,0.4c0.4,0.2,0.7,0.6,0.9,1c0.2,0.4,0.3,1,0.3,1.6v0.4h-4.3c0,0.4,0.1,0.7,0.2,1
				c0.1,0.3,0.3,0.6,0.6,0.7c0.3,0.2,0.6,0.3,1,0.3c0.4,0,0.7-0.1,1-0.3c0.3-0.2,0.5-0.4,0.5-0.8h1c-0.1,0.4-0.2,0.8-0.5,1
				c-0.3,0.3-0.6,0.5-0.9,0.6S110.7,84,110.3,84z M108.6,80.4h3.3c0-0.3-0.1-0.7-0.2-0.9c-0.1-0.3-0.3-0.5-0.5-0.7
				c-0.2-0.2-0.5-0.2-0.9-0.2c-0.4,0-0.7,0.1-0.9,0.3c-0.2,0.2-0.4,0.4-0.6,0.7C108.6,79.9,108.6,80.1,108.6,80.4z"/>
			<path class="st1" d="M116.5,84c-0.8,0-1.4-0.3-1.9-0.8s-0.7-1.3-0.7-2.3c0-0.6,0.1-1.2,0.3-1.6s0.5-0.8,0.8-1.1
				c0.4-0.3,0.8-0.4,1.4-0.4c0.3,0,0.5,0,0.8,0.1c0.2,0.1,0.4,0.2,0.6,0.3c0.2,0.1,0.3,0.2,0.4,0.3c0.1,0.1,0.2,0.2,0.2,0.3v-3.6
				h1.1v8.6h-0.8l-0.1-1.2c0,0.1-0.1,0.3-0.2,0.4c-0.1,0.2-0.2,0.3-0.4,0.4c-0.2,0.1-0.4,0.3-0.6,0.4S116.9,84,116.5,84z
				 M116.7,83.2c0.6,0,1-0.2,1.3-0.6c0.3-0.4,0.4-1,0.4-1.8c0-0.5-0.1-0.9-0.2-1.2s-0.3-0.6-0.5-0.8c-0.2-0.2-0.6-0.3-1-0.3
				c-0.5,0-0.9,0.2-1.2,0.5c-0.3,0.4-0.5,0.9-0.5,1.7c0,0.8,0.1,1.3,0.4,1.7C115.8,83,116.2,83.2,116.7,83.2z"/>
		</g>
		<g class="st0">
			<path class="st1" d="M127.1,84c-0.4,0-0.6,0-0.9-0.1c-0.2-0.1-0.4-0.2-0.6-0.4c-0.2-0.1-0.3-0.3-0.4-0.4
				c-0.1-0.2-0.1-0.3-0.2-0.4l-0.1,1.2h-0.8v-8.6h1.1v3.6c0.1-0.1,0.1-0.2,0.2-0.3c0.1-0.1,0.2-0.2,0.4-0.3s0.4-0.2,0.6-0.3
				c0.2-0.1,0.5-0.1,0.8-0.1c0.8,0,1.3,0.3,1.8,0.8c0.4,0.5,0.7,1.3,0.7,2.3c0,0.6-0.1,1.2-0.3,1.7c-0.2,0.5-0.5,0.8-0.8,1.1
				C128.1,83.9,127.6,84,127.1,84z M126.9,83.2c0.5,0,0.9-0.2,1.2-0.6c0.3-0.4,0.5-1,0.5-1.8c0-0.7-0.1-1.2-0.4-1.6
				s-0.7-0.6-1.2-0.6c-0.4,0-0.7,0.1-1,0.3c-0.2,0.2-0.4,0.4-0.5,0.8s-0.2,0.7-0.2,1.2c0,0.8,0.1,1.4,0.4,1.8
				C125.8,83,126.3,83.2,126.9,83.2z"/>
		</g>
		<g class="st0">
			<path class="st1" d="M131.6,85.8c-0.4,0-0.7,0-0.9-0.2V85l0.6,0c0.2,0,0.4,0,0.6,0c0.1,0,0.3-0.1,0.4-0.2
				c0.1-0.1,0.2-0.1,0.2-0.2c0-0.1,0.1-0.2,0.1-0.2l0.2-0.6l-2.3-5.9h1.1l1.8,4.6l1.8-4.6h1.1l-2.5,6.5c-0.2,0.4-0.3,0.7-0.5,0.9
				c-0.2,0.2-0.4,0.4-0.6,0.4C132.1,85.8,131.8,85.8,131.6,85.8z"/>
		</g>
		<g class="st0">
		</g>
		<g class="st0">
			<path class="st1" d="M140,83.9v-8.4h3c1.1,0,1.9,0.2,2.4,0.6s0.8,0.9,0.8,1.6c0,0.4-0.1,0.8-0.3,1.1c-0.2,0.3-0.6,0.6-1.1,0.8
				c0.4,0.1,0.6,0.2,0.9,0.4c0.2,0.2,0.4,0.3,0.5,0.5s0.2,0.4,0.2,0.6c0,0.2,0.1,0.4,0.1,0.6c0,0.8-0.3,1.3-0.8,1.7
				c-0.5,0.4-1.4,0.6-2.5,0.6H140z M141.7,79h1.6c0.2,0,0.3,0,0.5-0.1c0.2,0,0.3-0.1,0.4-0.2c0.1-0.1,0.2-0.2,0.3-0.3
				c0.1-0.1,0.1-0.3,0.1-0.5c0-0.4-0.1-0.6-0.4-0.8c-0.3-0.2-0.6-0.3-1-0.3h-1.5V79z M141.7,82.6h1.5c0.5,0,0.9-0.1,1.2-0.3
				c0.3-0.2,0.4-0.5,0.4-0.8c0-0.2-0.1-0.5-0.2-0.6c-0.1-0.2-0.3-0.3-0.5-0.4s-0.5-0.1-0.7-0.1h-1.6V82.6z"/>
		</g>
		<g class="st0">
			<path class="st1" d="M150.6,84c-0.6,0-1.1-0.1-1.6-0.4c-0.5-0.2-0.8-0.6-1.1-1.1c-0.3-0.5-0.4-1-0.4-1.6c0-0.6,0.1-1.1,0.3-1.6
				c0.2-0.5,0.6-0.9,1-1.1c0.4-0.3,1-0.4,1.6-0.4c0.6,0,1.1,0.1,1.5,0.4s0.7,0.6,0.9,1.1c0.2,0.5,0.3,1,0.3,1.6v0.5h-4
				c0,0.3,0.1,0.6,0.2,0.8c0.1,0.2,0.2,0.4,0.4,0.5s0.4,0.2,0.7,0.2c0.3,0,0.5-0.1,0.8-0.2c0.2-0.1,0.4-0.3,0.5-0.6h1.5
				c-0.1,0.4-0.2,0.8-0.5,1.1s-0.6,0.5-1,0.7S151,84,150.6,84z M149.3,80.3h2.5c0-0.2,0-0.5-0.1-0.7c-0.1-0.2-0.2-0.4-0.4-0.5
				s-0.4-0.2-0.7-0.2c-0.3,0-0.5,0.1-0.7,0.2c-0.2,0.1-0.3,0.3-0.4,0.5S149.3,80.1,149.3,80.3z"/>
		</g>
		<g class="st0">
			<path class="st1" d="M153.5,83.9l2.3-3.1l-2.1-2.9h1.8l1.2,1.7l1.2-1.7h1.8l-2.1,2.9l2.3,3.1h-1.8l-1.4-2l-1.4,2H153.5z"/>
		</g>
		<g class="st0">
			<path class="st1" d="M163.4,84c-0.5,0-0.9-0.1-1.2-0.2s-0.5-0.3-0.6-0.6s-0.2-0.5-0.2-0.8v-3.3h-1v-1.2h1l0.4-1.8h1.2v1.8h1.3
				v1.2h-1.3l0,3.2c0,0.1,0,0.3,0.1,0.3c0,0.1,0.1,0.1,0.2,0.1c0.1,0,0.2,0,0.3,0h0.8v1c-0.1,0-0.2,0.1-0.4,0.1S163.7,84,163.4,84z"
				/>
		</g>
	</g>
</g>
</svg>
