<svg width="246" height="60" viewBox="0 0 246 60" fill="none" xmlns="http://www.w3.org/2000/svg">
<path d="M99.4815 49.508C102.458 49.508 104.733 48.8775 106.328 47.6268C107.994 46.2935 109.122 44.5985 109.701 42.5313C110.351 40.3918 110.676 38.1799 110.676 35.8854C110.676 33.5909 110.351 31.4204 109.701 29.3533C109.051 27.2861 107.893 25.6221 106.217 24.3714C104.551 23.1208 102.194 22.4903 99.1463 22.4903C96.4645 22.4903 94.2906 23.0794 92.6246 24.2577C90.9586 25.3636 89.76 26.9554 89.0387 29.0225C88.3175 31.0173 87.9518 33.3015 87.9518 35.8854C87.9518 38.4693 88.3175 40.9086 89.0387 42.9654C89.8311 44.9602 91.0704 46.5416 92.7363 47.7302C94.4734 48.9085 96.7184 49.4976 99.4815 49.4976V49.508ZM103.067 59.0271C100.386 59.0271 98.1 58.624 96.2207 57.8075C94.3312 56.9186 92.777 55.8851 91.5478 54.7068C90.3898 53.5285 89.5161 52.4536 88.9371 51.4924C88.4292 50.5312 88.1448 49.9834 88.0635 49.8284H87.8502L86.0013 59.0168H76.4321V-0.000244141H87.8502V22.3767H88.0635C88.1346 22.1596 88.4292 21.5291 88.9371 20.4955C89.445 19.462 90.2374 18.3147 91.3244 17.0641C92.4824 15.8134 94.057 14.4388 95.9363 13.5499C97.8968 12.5887 100.193 11.9995 103.017 11.9995C107.436 11.9995 110.686 13.0021 113.368 14.9969C116.05 16.9194 118.356 20.0511 119.585 23.5963C120.885 27.0691 121.546 31.193 121.546 35.9991C121.546 40.8053 120.926 44.5985 119.697 48.0609C118.468 51.5337 116.466 54.221 113.713 56.1435C111.032 58.0659 107.476 59.0168 103.057 59.0168L103.067 59.0271Z" fill="white"/>
<path d="M218.548 20.2684V12.0412C220.143 12.0412 221.443 11.9275 222.459 11.7001C223.475 11.4727 224.267 10.9766 224.846 10.2117C225.496 9.4469 225.963 8.26863 226.258 6.66659C226.553 5.06455 226.695 2.85266 226.695 0.0310059H235.594V12.0308H245.803V20.258H218.558L218.548 20.2684ZM235.909 59.0274C232.363 59.0274 229.681 58.1179 227.873 56.2885C226.136 54.459 225.273 51.4824 225.273 47.3687V19.0178H235.583V49.8907H246.006V59.0378H235.909V59.0274Z" fill="white"/>
<path d="M168.853 59.0273L185.197 34.7693L169.726 12.01H181.937L192.176 28.0201L202.426 12.01H214.738L199.257 34.7693L215.723 59.0273H203.513L192.176 41.7459L181.063 59.0273H168.853Z" fill="white"/>
<path d="M136.6 31.3068H157.74C157.668 30.79 157.526 29.9735 157.303 28.8676C157.089 27.7617 156.612 26.6144 155.891 25.4258C155.159 24.2475 154.113 23.245 152.731 22.4285C151.35 21.6119 149.572 21.2088 147.388 21.2088C145.204 21.2088 143.426 21.5809 142.045 22.3148C140.663 23.0589 139.607 23.9788 138.886 25.0847C138.154 26.1907 137.616 27.3069 137.25 28.4128C136.884 29.5187 136.671 30.4799 136.6 31.2965V31.3068ZM147.937 58.9136C142.776 58.9136 138.561 57.8076 135.29 55.5855C132.09 53.2909 129.692 50.3763 128.097 46.8208C126.574 43.2756 125.771 39.5754 125.7 35.7305C125.629 31.1518 126.462 27.0795 128.209 23.5344C130.028 19.9169 132.567 17.1055 135.838 15.1107C139.18 13.0436 143.101 12.01 147.612 12.01C151.604 12.01 155.2 12.8989 158.4 14.6663C161.6 16.444 164.099 18.9143 165.917 22.0977C167.807 25.2811 168.792 29.0846 168.863 33.5187V36.4023H136.275C136.275 40.6193 137.291 43.8647 139.322 46.1593C141.425 48.3814 144.229 49.4874 147.713 49.4874C150.476 49.4874 152.762 48.7846 154.58 47.3789C156.47 45.9733 157.597 44.1231 157.963 41.8389H168.751C168.457 45.0223 167.441 47.906 165.704 50.4899C163.957 53.0739 161.6 55.1514 158.623 56.7017C155.647 58.1797 152.081 58.9239 147.947 58.9239L147.937 58.9136Z" fill="white"/>
<path d="M0 9.81877V0.0514822L25.0607 12.32C26.8994 13.2192 29.0429 13.2192 30.8815 12.32L55.9423 0.0205078V9.82911L33.6649 25.4464C30.2517 27.8443 25.6906 27.8443 22.2773 25.4464L0 9.82911V9.81877Z" fill="#0524DD"/>
<path d="M10.2092 32.2369L0 39.4099V59.0168L25.0607 46.6863C26.8994 45.7871 29.053 45.7767 30.8916 46.6863L55.9524 58.9444V49.1049L33.6649 33.5392C30.2517 31.1517 25.7109 31.162 22.2977 33.5392L10.2193 41.9939V32.2266L10.2092 32.2369Z" fill="#0524DD"/>
</svg>
