<svg width="243" height="58" viewBox="0 0 243 58" fill="none" xmlns="http://www.w3.org/2000/svg">
<path d="M101.46 57.1C98.8202 57.1 96.5702 56.71 94.7202 55.92C92.8702 55.06 91.3304 54.06 90.1204 52.92C88.9804 51.78 88.1203 50.74 87.5503 49.81C87.0503 48.88 86.7702 48.35 86.6902 48.2H86.4802L84.6602 57.09H75.2402V0H86.4802V21.65H86.6902C86.7602 21.44 87.0503 20.83 87.5503 19.83C88.0503 18.83 88.8301 17.72 89.9001 16.51C91.0401 15.3 92.5902 13.97 94.4402 13.11C96.3702 12.18 98.6302 11.61 101.41 11.61C105.76 11.61 108.96 12.58 111.6 14.51C114.24 16.37 116.51 19.4 117.72 22.83C119 26.19 119.65 30.18 119.65 34.82C119.65 39.46 119.04 43.14 117.83 46.49C116.62 49.85 114.65 52.45 111.94 54.31C109.3 56.17 105.8 57.09 101.45 57.09L101.46 57.1ZM97.9302 47.89C100.85 47.89 103.1 47.28 104.67 46.07C106.31 44.78 107.42 43.14 107.99 41.14C108.63 39.07 108.95 36.93 108.95 34.71C108.95 32.49 108.63 30.39 107.99 28.39C107.35 26.39 106.21 24.78 104.57 23.57C102.93 22.36 100.61 21.75 97.6104 21.75C94.9704 21.75 92.8302 22.32 91.1902 23.46C89.5502 24.53 88.3702 26.07 87.6602 28.07C86.9502 30 86.5903 32.21 86.5903 34.71C86.5903 37.21 86.9502 39.56 87.6602 41.56C88.4402 43.49 89.6603 45.02 91.3003 46.17C93.0103 47.31 95.2202 47.88 97.9402 47.88L97.9302 47.89Z" fill="white"/>
<path d="M232.23 57.1C228.74 57.1 226.1 56.22 224.32 54.45C222.61 52.68 221.76 49.8 221.76 45.82V18.39H231.91V48.25H242.17V57.1H232.23ZM215.14 19.6V11.64C216.71 11.64 217.99 11.53 218.99 11.31C219.99 11.09 220.77 10.61 221.34 9.87003C221.98 9.13003 222.44 7.99002 222.73 6.44002C223.01 4.89002 223.16 2.75002 223.16 0.0200195H231.92V11.63H241.97V19.59H215.15L215.14 19.6Z" fill="white"/>
<path d="M166.22 57.1001L182.31 33.6401L167.08 11.6201H179.1L189.18 27.1101L199.27 11.6201H211.39L196.16 33.6401L212.36 57.1001H200.34L189.18 40.3901L178.24 57.1001H166.22Z" fill="white"/>
<path d="M145.62 56.9904C140.54 56.9904 136.39 55.9204 133.17 53.7704C130.02 51.5504 127.66 48.7303 126.09 45.2903C124.59 41.8603 123.8 38.2804 123.73 34.5604C123.66 30.1304 124.48 26.1903 126.2 22.7603C127.99 19.2603 130.49 16.5404 133.71 14.6104C137 12.6104 140.86 11.6104 145.3 11.6104C149.23 11.6104 152.77 12.4704 155.92 14.1804C159.07 15.9004 161.53 18.2904 163.32 21.3704C165.18 24.4504 166.14 28.1303 166.22 32.4203V35.2104H134.14C134.14 39.2904 135.14 42.4304 137.14 44.6504C139.21 46.8004 141.97 47.8704 145.4 47.8704C148.12 47.8704 150.37 47.1904 152.16 45.8304C154.02 44.4704 155.13 42.6804 155.49 40.4704H166.11C165.82 43.5504 164.82 46.3304 163.11 48.8404C161.39 51.3404 159.07 53.3503 156.14 54.8503C153.21 56.2803 149.7 57.0004 145.63 57.0004L145.62 56.9904ZM134.47 30.2804H155.28C155.21 29.7804 155.07 28.9903 154.85 27.9203C154.64 26.8503 154.17 25.7404 153.46 24.5904C152.75 23.4504 151.71 22.4804 150.35 21.6904C148.99 20.9004 147.24 20.5103 145.09 20.5103C142.94 20.5103 141.19 20.8704 139.83 21.5804C138.47 22.3004 137.43 23.1903 136.72 24.2603C136 25.3303 135.47 26.4103 135.11 27.4803C134.75 28.5503 134.54 29.4804 134.47 30.2704V30.2804Z" fill="white"/>
<path fill-rule="evenodd" clip-rule="evenodd" d="M0 0.0400085V9.49001L21.9299 24.6C25.2899 26.92 29.7799 26.92 33.1399 24.6L55.0701 9.49001V0L30.3999 11.9C28.5899 12.77 26.4799 12.77 24.6699 11.9L0 0.0299988V0.0400085ZM0 38.13L10.05 31.19V40.64L21.9399 32.46C25.2999 30.15 29.7699 30.15 33.1299 32.46L55.0701 47.52V57.04L30.4099 45.18C28.5999 44.31 26.4799 44.31 24.6699 45.18L0 57.11V38.14V38.13Z" fill="white"/>
</svg>
